<svg xmlns="http://www.w3.org/2000/svg" xmlns:xlink="http://www.w3.org/1999/xlink" viewBox="0 0 260 260"><defs><style>.cls-1{isolation:isolate;}.cls-2{fill:url(#_ÂÁ_Ï_ÌÌ_È_ËÂÌÚ_46);}.cls-3{fill:url(#_ÂÁ_Ï_ÌÌ_È_ËÂÌÚ_28);}.cls-15,.cls-16,.cls-26,.cls-4,.cls-40,.cls-41,.cls-46{opacity:0.3;}.cls-15,.cls-16,.cls-26,.cls-28,.cls-33,.cls-4,.cls-40,.cls-41,.cls-44,.cls-46,.cls-49,.cls-7{mix-blend-mode:multiply;}.cls-4{fill:url(#_ÂÁ_Ï_ÌÌ_È_ËÂÌÚ_153);}.cls-5{fill:url(#_ÂÁ_Ï_ÌÌ_È_ËÂÌÚ_46-2);}.cls-6{fill:url(#_ÂÁ_Ï_ÌÌ_È_ËÂÌÚ_28-2);}.cls-28,.cls-33,.cls-38,.cls-39,.cls-44,.cls-49,.cls-7{opacity:0.5;}.cls-7{fill:url(#_ÂÁ_Ï_ÌÌ_È_ËÂÌÚ_416);}.cls-8{fill:url(#_ÂÁ_Ï_ÌÌ_È_ËÂÌÚ_46-3);}.cls-9{fill:url(#_ÂÁ_Ï_ÌÌ_È_ËÂÌÚ_28-3);}.cls-10{fill:#fff;}.cls-11{fill:url(#_ÂÁ_Ï_ÌÌ_È_ËÂÌÚ_46-4);}.cls-12{fill:url(#_ÂÁ_Ï_ÌÌ_È_ËÂÌÚ_46-5);}.cls-13{fill:url(#_ÂÁ_Ï_ÌÌ_È_ËÂÌÚ_28-4);}.cls-14{fill:url(#_ÂÁ_Ï_ÌÌ_È_ËÂÌÚ_28-5);}.cls-15{fill:url(#_ÂÁ_Ï_ÌÌ_È_ËÂÌÚ_153-2);}.cls-16{fill:url(#_ÂÁ_Ï_ÌÌ_È_ËÂÌÚ_153-3);}.cls-17{fill:url(#_ÂÁ_Ï_ÌÌ_È_ËÂÌÚ_264);}.cls-18{fill:url(#_ÂÁ_Ï_ÌÌ_È_ËÂÌÚ_28-6);}.cls-19{fill:url(#_ÂÁ_Ï_ÌÌ_È_ËÂÌÚ_264-2);}.cls-20{fill:url(#_ÂÁ_Ï_ÌÌ_È_ËÂÌÚ_28-7);}.cls-21{fill:url(#_ÂÁ_Ï_ÌÌ_È_ËÂÌÚ_17);}.cls-22{fill:url(#_ÂÁ_Ï_ÌÌ_È_ËÂÌÚ_17-2);}.cls-23{fill:url(#_ÂÁ_Ï_ÌÌ_È_ËÂÌÚ_46-6);}.cls-24{fill:#dee1f2;}.cls-25{fill:url(#_ÂÁ_Ï_ÌÌ_È_ËÂÌÚ_132);}.cls-26{fill:url(#_ÂÁ_Ï_ÌÌ_È_ËÂÌÚ_153-4);}.cls-27{fill:url(#_ÂÁ_Ï_ÌÌ_È_ËÂÌÚ_5);}.cls-28{fill:url(#_ÂÁ_Ï_ÌÌ_È_ËÂÌÚ_416-2);}.cls-29{fill:url(#_ÂÁ_Ï_ÌÌ_È_ËÂÌÚ_6);}.cls-30{fill:url(#_ÂÁ_Ï_ÌÌ_È_ËÂÌÚ_46-7);}.cls-31{fill:url(#_ÂÁ_Ï_ÌÌ_È_ËÂÌÚ_5-2);}.cls-32{fill:url(#_ÂÁ_Ï_ÌÌ_È_ËÂÌÚ_46-8);}.cls-33{fill:url(#_ÂÁ_Ï_ÌÌ_È_ËÂÌÚ_416-3);}.cls-34{fill:url(#_ÂÁ_Ï_ÌÌ_È_ËÂÌÚ_28-8);}.cls-35{fill:url(#_ÂÁ_Ï_ÌÌ_È_ËÂÌÚ_17-3);}.cls-36{fill:url(#_ÂÁ_Ï_ÌÌ_È_ËÂÌÚ_17-4);}.cls-37{fill:#2f94cd;}.cls-38,.cls-39,.cls-45,.cls-52,.cls-53,.cls-54,.cls-55{mix-blend-mode:screen;}.cls-38{fill:url(#_ÂÁ_Ï_ÌÌ_È_ËÂÌÚ_54);}.cls-39{fill:url(#_ÂÁ_Ï_ÌÌ_È_ËÂÌÚ_54-2);}.cls-40{fill:url(#_ÂÁ_Ï_ÌÌ_È_ËÂÌÚ_153-5);}.cls-41{fill:url(#_ÂÁ_Ï_ÌÌ_È_ËÂÌÚ_153-6);}.cls-42{fill:url(#_ÂÁ_Ï_ÌÌ_È_ËÂÌÚ_28-9);}.cls-43{fill:url(#_ÂÁ_Ï_ÌÌ_È_ËÂÌÚ_91);}.cls-44{fill:url(#_ÂÁ_Ï_ÌÌ_È_ËÂÌÚ_416-4);}.cls-45,.cls-53,.cls-54,.cls-55{opacity:0.72;}.cls-45{fill:url(#_ÂÁ_Ï_ÌÌ_È_ËÂÌÚ_143);}.cls-46{fill:url(#_ÂÁ_Ï_ÌÌ_È_ËÂÌÚ_153-7);}.cls-47{fill:url(#_ÂÁ_Ï_ÌÌ_È_ËÂÌÚ_46-9);}.cls-48{fill:url(#_ÂÁ_Ï_ÌÌ_È_ËÂÌÚ_28-10);}.cls-49{fill:url(#_ÂÁ_Ï_ÌÌ_È_ËÂÌÚ_416-5);}.cls-50{fill:url(#_ÂÁ_Ï_ÌÌ_È_ËÂÌÚ_46-10);}.cls-51{fill:url(#_ÂÁ_Ï_ÌÌ_È_ËÂÌÚ_28-11);}.cls-52{opacity:0.2;fill:url(#_ÂÁ_Ï_ÌÌ_È_ËÂÌÚ_2);}.cls-53{fill:url(#_ÂÁ_Ï_ÌÌ_È_ËÂÌÚ_134);}.cls-54{fill:url(#_ÂÁ_Ï_ÌÌ_È_ËÂÌÚ_134-2);}.cls-55{fill:url(#_ÂÁ_Ï_ÌÌ_È_ËÂÌÚ_143-2);}.cls-56{fill:url(#_ÂÁ_Ï_ÌÌ_È_ËÂÌÚ_28-12);}.cls-57{fill:url(#_ÂÁ_Ï_ÌÌ_È_ËÂÌÚ_4);}.cls-58{fill:url(#_ÂÁ_Ï_ÌÌ_È_ËÂÌÚ_65);}.cls-59{fill:url(#_ÂÁ_Ï_ÌÌ_È_ËÂÌÚ_46-11);}</style><linearGradient id="_ÂÁ_Ï_ÌÌ_È_ËÂÌÚ_46" x1="-2398.25" y1="688.28" x2="-2391.55" y2="634.99" gradientTransform="matrix(-0.9, 0.44, 0.44, 0.9, -2349.54, 607)" gradientUnits="userSpaceOnUse"><stop offset="0" stop-color="#c9bede"/><stop offset="1" stop-color="#e6daec"/></linearGradient><linearGradient id="_ÂÁ_Ï_ÌÌ_È_ËÂÌÚ_28" x1="-2375.63" y1="655.49" x2="-2375.63" y2="636.29" gradientTransform="matrix(-0.9, 0.44, 0.44, 0.9, -2349.54, 607)" gradientUnits="userSpaceOnUse"><stop offset="0" stop-color="#b39bc9"/><stop offset="1" stop-color="#9289c1"/></linearGradient><linearGradient id="_ÂÁ_Ï_ÌÌ_È_ËÂÌÚ_153" x1="-2394.55" y1="687.03" x2="-2394.55" y2="637.81" gradientTransform="matrix(-0.9, 0.44, 0.44, 0.9, -2349.54, 607)" gradientUnits="userSpaceOnUse"><stop offset="0" stop-color="#9169a9"/><stop offset="1" stop-color="#cce9fb"/></linearGradient><linearGradient id="_ÂÁ_Ï_ÌÌ_È_ËÂÌÚ_46-2" x1="-2371.87" y1="651.72" x2="-2366.86" y2="611.84" xlink:href="#_ÂÁ_Ï_ÌÌ_È_ËÂÌÚ_46"/><linearGradient id="_ÂÁ_Ï_ÌÌ_È_ËÂÌÚ_28-2" x1="-2372.5" y1="638.59" x2="-2372.5" y2="612.14" xlink:href="#_ÂÁ_Ï_ÌÌ_È_ËÂÌÚ_28"/><linearGradient id="_ÂÁ_Ï_ÌÌ_È_ËÂÌÚ_416" x1="-2373.34" y1="633.76" x2="-2373.34" y2="618.44" gradientTransform="matrix(-0.9, 0.44, 0.44, 0.9, -2349.54, 607)" gradientUnits="userSpaceOnUse"><stop offset="0" stop-color="#8ea1d3"/><stop offset="1" stop-color="#6e5ba3"/></linearGradient><linearGradient id="_ÂÁ_Ï_ÌÌ_È_ËÂÌÚ_46-3" x1="-2379.26" y1="637.05" x2="-2376.47" y2="614.83" xlink:href="#_ÂÁ_Ï_ÌÌ_È_ËÂÌÚ_46"/><linearGradient id="_ÂÁ_Ï_ÌÌ_È_ËÂÌÚ_28-3" x1="-2367.67" y1="641.09" x2="-2367.67" y2="626.43" xlink:href="#_ÂÁ_Ï_ÌÌ_È_ËÂÌÚ_28"/><linearGradient id="_ÂÁ_Ï_ÌÌ_È_ËÂÌÚ_46-4" x1="116.08" y1="253.71" x2="120.99" y2="214.56" gradientTransform="matrix(1, 0, 0, 1, 0, 0)" xlink:href="#_ÂÁ_Ï_ÌÌ_È_ËÂÌÚ_46"/><linearGradient id="_ÂÁ_Ï_ÌÌ_È_ËÂÌÚ_46-5" x1="151.27" y1="259.24" x2="157.62" y2="208.74" gradientTransform="matrix(1, 0, 0, 1, 0, 0)" xlink:href="#_ÂÁ_Ï_ÌÌ_È_ËÂÌÚ_46"/><linearGradient id="_ÂÁ_Ï_ÌÌ_È_ËÂÌÚ_28-4" x1="120.11" y1="228.3" x2="120.11" y2="212.87" gradientTransform="matrix(1, 0, 0, 1, 0, 0)" xlink:href="#_ÂÁ_Ï_ÌÌ_È_ËÂÌÚ_28"/><linearGradient id="_ÂÁ_Ï_ÌÌ_È_ËÂÌÚ_28-5" x1="156" y1="228.66" x2="156" y2="210.31" gradientTransform="matrix(1, 0, 0, 1, 0, 0)" xlink:href="#_ÂÁ_Ï_ÌÌ_È_ËÂÌÚ_28"/><linearGradient id="_ÂÁ_Ï_ÌÌ_È_ËÂÌÚ_153-2" x1="120.15" y1="254.21" x2="120.15" y2="213" gradientTransform="matrix(1, 0, 0, 1, 0, 0)" xlink:href="#_ÂÁ_Ï_ÌÌ_È_ËÂÌÚ_153"/><linearGradient id="_ÂÁ_Ï_ÌÌ_È_ËÂÌÚ_153-3" x1="156.08" y1="258.05" x2="156.08" y2="210.17" gradientTransform="matrix(1, 0, 0, 1, 0, 0)" xlink:href="#_ÂÁ_Ï_ÌÌ_È_ËÂÌÚ_153"/><linearGradient id="_ÂÁ_Ï_ÌÌ_È_ËÂÌÚ_264" x1="-2940.74" y1="95.68" x2="-2940.74" y2="56.75" gradientTransform="matrix(-1, 0, 0, 1, -2842.52, 0)" gradientUnits="userSpaceOnUse"><stop offset="0" stop-color="#b5a9d3"/><stop offset="1" stop-color="#dfcfe7"/></linearGradient><linearGradient id="_ÂÁ_Ï_ÌÌ_È_ËÂÌÚ_28-6" x1="95.44" y1="80.98" x2="95.44" y2="56.75" gradientTransform="matrix(1, 0, 0, 1, 0, 0)" xlink:href="#_ÂÁ_Ï_ÌÌ_È_ËÂÌÚ_28"/><linearGradient id="_ÂÁ_Ï_ÌÌ_È_ËÂÌÚ_264-2" x1="178.53" y1="95.68" x2="178.53" y2="56.75" gradientTransform="matrix(1, 0, 0, 1, 0, 0)" xlink:href="#_ÂÁ_Ï_ÌÌ_È_ËÂÌÚ_264"/><linearGradient id="_ÂÁ_Ï_ÌÌ_È_ËÂÌÚ_28-7" x1="181.36" y1="77.91" x2="181.36" y2="56.75" gradientTransform="matrix(1, 0, 0, 1, 0, 0)" xlink:href="#_ÂÁ_Ï_ÌÌ_È_ËÂÌÚ_28"/><linearGradient id="_ÂÁ_Ï_ÌÌ_È_ËÂÌÚ_17" x1="186.62" y1="97.55" x2="186.62" y2="59.3" gradientUnits="userSpaceOnUse"><stop offset="0" stop-color="#79c3b0"/><stop offset="1" stop-color="#60c4e5"/></linearGradient><linearGradient id="_ÂÁ_Ï_ÌÌ_È_ËÂÌÚ_17-2" x1="-2932.66" y1="97.55" x2="-2932.66" y2="59.3" gradientTransform="matrix(-1, 0, 0, 1, -2842.52, 0)" xlink:href="#_ÂÁ_Ï_ÌÌ_È_ËÂÌÚ_17"/><linearGradient id="_ÂÁ_Ï_ÌÌ_È_ËÂÌÚ_46-6" x1="134.18" y1="150.9" x2="146.56" y2="52.36" gradientTransform="matrix(1, 0, 0, 1, 0, 0)" xlink:href="#_ÂÁ_Ï_ÌÌ_È_ËÂÌÚ_46"/><linearGradient id="_ÂÁ_Ï_ÌÌ_È_ËÂÌÚ_132" x1="138.22" y1="123.89" x2="138.22" y2="54.93" gradientUnits="userSpaceOnUse"><stop offset="0" stop-color="#1e64ae"/><stop offset="1" stop-color="#292f6b"/></linearGradient><linearGradient id="_ÂÁ_Ï_ÌÌ_È_ËÂÌÚ_153-4" x1="138.56" y1="149.99" x2="138.56" y2="91.25" gradientTransform="matrix(1, 0, 0, 1, 0, 0)" xlink:href="#_ÂÁ_Ï_ÌÌ_È_ËÂÌÚ_153"/><linearGradient id="_ÂÁ_Ï_ÌÌ_È_ËÂÌÚ_5" x1="98.97" y1="142.36" x2="175.51" y2="142.36" gradientUnits="userSpaceOnUse"><stop offset="0" stop-color="#7974b4"/><stop offset="1" stop-color="#9289c1"/></linearGradient><linearGradient id="_ÂÁ_Ï_ÌÌ_È_ËÂÌÚ_416-2" x1="137.13" y1="145.77" x2="137.13" y2="134.73" gradientTransform="matrix(1, 0, 0, 1, 0, 0)" xlink:href="#_ÂÁ_Ï_ÌÌ_È_ËÂÌÚ_416"/><linearGradient id="_ÂÁ_Ï_ÌÌ_È_ËÂÌÚ_6" x1="136.94" y1="144.21" x2="138.37" y2="132.77" gradientUnits="userSpaceOnUse"><stop offset="0" stop-color="#4f4695"/><stop offset="1" stop-color="#6c4b96"/></linearGradient><linearGradient id="_ÂÁ_Ï_ÌÌ_È_ËÂÌÚ_46-7" x1="133.53" y1="227.06" x2="144.28" y2="141.45" gradientTransform="matrix(1, 0, 0, 1, 0, 0)" xlink:href="#_ÂÁ_Ï_ÌÌ_È_ËÂÌÚ_46"/><linearGradient id="_ÂÁ_Ï_ÌÌ_È_ËÂÌÚ_5-2" x1="156.6" y1="160.9" x2="166.79" y2="160.9" xlink:href="#_ÂÁ_Ï_ÌÌ_È_ËÂÌÚ_5"/><linearGradient id="_ÂÁ_Ï_ÌÌ_È_ËÂÌÚ_46-8" x1="178.25" y1="168.49" x2="184.94" y2="115.19" gradientTransform="matrix(1, 0, 0, 1, 0, 0)" xlink:href="#_ÂÁ_Ï_ÌÌ_È_ËÂÌÚ_46"/><linearGradient id="_ÂÁ_Ï_ÌÌ_È_ËÂÌÚ_416-3" x1="98.06" y1="136.37" x2="98.06" y2="120.89" gradientTransform="matrix(1, 0, 0, 1, 0, 0)" xlink:href="#_ÂÁ_Ï_ÌÌ_È_ËÂÌÚ_416"/><linearGradient id="_ÂÁ_Ï_ÌÌ_È_ËÂÌÚ_28-8" x1="200.87" y1="135.7" x2="200.87" y2="116.5" gradientTransform="matrix(1, 0, 0, 1, 0, 0)" xlink:href="#_ÂÁ_Ï_ÌÌ_È_ËÂÌÚ_28"/><linearGradient id="_ÂÁ_Ï_ÌÌ_È_ËÂÌÚ_17-3" x1="159.35" y1="89.24" x2="159.35" y2="72.71" xlink:href="#_ÂÁ_Ï_ÌÌ_È_ËÂÌÚ_17"/><linearGradient id="_ÂÁ_Ï_ÌÌ_È_ËÂÌÚ_17-4" x1="-2856.74" y1="89.24" x2="-2856.74" y2="72.71" gradientTransform="matrix(-1, 0, 0, 1, -2740.02, 0)" xlink:href="#_ÂÁ_Ï_ÌÌ_È_ËÂÌÚ_17"/><linearGradient id="_ÂÁ_Ï_ÌÌ_È_ËÂÌÚ_54" x1="104.74" y1="71.16" x2="175.28" y2="71.16" gradientUnits="userSpaceOnUse"><stop offset="0"/><stop offset="1" stop-color="#7192cb"/></linearGradient><linearGradient id="_ÂÁ_Ï_ÌÌ_È_ËÂÌÚ_54-2" x1="114.71" y1="117.59" x2="164.84" y2="117.59" xlink:href="#_ÂÁ_Ï_ÌÌ_È_ËÂÌÚ_54"/><linearGradient id="_ÂÁ_Ï_ÌÌ_È_ËÂÌÚ_153-5" x1="187.48" y1="93.94" x2="187.48" y2="92.34" gradientTransform="matrix(1, 0, 0, 1, 0, 0)" xlink:href="#_ÂÁ_Ï_ÌÌ_È_ËÂÌÚ_153"/><linearGradient id="_ÂÁ_Ï_ÌÌ_È_ËÂÌÚ_153-6" x1="137.9" y1="227.21" x2="137.9" y2="158.33" gradientTransform="matrix(1, 0, 0, 1, 0, 0)" xlink:href="#_ÂÁ_Ï_ÌÌ_È_ËÂÌÚ_153"/><linearGradient id="_ÂÁ_Ï_ÌÌ_È_ËÂÌÚ_28-9" x1="137.24" y1="225.81" x2="137.24" y2="171.56" gradientTransform="matrix(1, 0, 0, 1, 0, 0)" xlink:href="#_ÂÁ_Ï_ÌÌ_È_ËÂÌÚ_28"/><radialGradient id="_ÂÁ_Ï_ÌÌ_È_ËÂÌÚ_91" cx="138.33" cy="218.79" r="41.4" xlink:href="#_ÂÁ_Ï_ÌÌ_È_ËÂÌÚ_17"/><linearGradient id="_ÂÁ_Ï_ÌÌ_È_ËÂÌÚ_416-4" x1="136.71" y1="157.6" x2="136.71" y2="140.81" gradientTransform="matrix(1, 0, 0, 1, 0, 0)" xlink:href="#_ÂÁ_Ï_ÌÌ_È_ËÂÌÚ_416"/><linearGradient id="_ÂÁ_Ï_ÌÌ_È_ËÂÌÚ_143" x1="138.56" y1="224.18" x2="138.56" y2="214.79" gradientUnits="userSpaceOnUse"><stop offset="0" stop-color="#d4dff3"/><stop offset="1"/></linearGradient><linearGradient id="_ÂÁ_Ï_ÌÌ_È_ËÂÌÚ_153-7" x1="181.94" y1="167.23" x2="181.94" y2="118.01" gradientTransform="matrix(1, 0, 0, 1, 0, 0)" xlink:href="#_ÂÁ_Ï_ÌÌ_È_ËÂÌÚ_153"/><linearGradient id="_ÂÁ_Ï_ÌÌ_È_ËÂÌÚ_46-9" x1="204.62" y1="131.92" x2="209.63" y2="92.05" gradientTransform="matrix(1, 0, 0, 1, 0, 0)" xlink:href="#_ÂÁ_Ï_ÌÌ_È_ËÂÌÚ_46"/><linearGradient id="_ÂÁ_Ï_ÌÌ_È_ËÂÌÚ_28-10" x1="203.99" y1="118.79" x2="203.99" y2="92.34" gradientTransform="matrix(1, 0, 0, 1, 0, 0)" xlink:href="#_ÂÁ_Ï_ÌÌ_È_ËÂÌÚ_28"/><linearGradient id="_ÂÁ_Ï_ÌÌ_È_ËÂÌÚ_416-5" x1="203.15" y1="113.97" x2="203.15" y2="98.65" gradientTransform="matrix(1, 0, 0, 1, 0, 0)" xlink:href="#_ÂÁ_Ï_ÌÌ_È_ËÂÌÚ_416"/><linearGradient id="_ÂÁ_Ï_ÌÌ_È_ËÂÌÚ_46-10" x1="197.23" y1="117.25" x2="200.02" y2="95.04" gradientTransform="matrix(1, 0, 0, 1, 0, 0)" xlink:href="#_ÂÁ_Ï_ÌÌ_È_ËÂÌÚ_46"/><linearGradient id="_ÂÁ_Ï_ÌÌ_È_ËÂÌÚ_28-11" x1="208.83" y1="121.3" x2="208.83" y2="106.64" gradientTransform="matrix(1, 0, 0, 1, 0, 0)" xlink:href="#_ÂÁ_Ï_ÌÌ_È_ËÂÌÚ_28"/><linearGradient id="_ÂÁ_Ï_ÌÌ_È_ËÂÌÚ_2" x1="133.53" y1="6.75" x2="133.53" y2="-18.82" gradientTransform="translate(-34.83 93.76) rotate(3.92)" gradientUnits="userSpaceOnUse"><stop offset="0"/><stop offset="1" stop-color="#5fc3e4"/></linearGradient><linearGradient id="_ÂÁ_Ï_ÌÌ_È_ËÂÌÚ_134" x1="115.29" y1="186.4" x2="162.46" y2="186.4" gradientUnits="userSpaceOnUse"><stop offset="0"/><stop offset="1" stop-color="#d4dff3"/></linearGradient><linearGradient id="_ÂÁ_Ï_ÌÌ_È_ËÂÌÚ_134-2" x1="180.54" y1="68.86" x2="190.49" y2="68.86" xlink:href="#_ÂÁ_Ï_ÌÌ_È_ËÂÌÚ_134"/><linearGradient id="_ÂÁ_Ï_ÌÌ_È_ËÂÌÚ_143-2" x1="85.07" y1="67.33" x2="96.04" y2="67.33" xlink:href="#_ÂÁ_Ï_ÌÌ_È_ËÂÌÚ_143"/><linearGradient id="_ÂÁ_Ï_ÌÌ_È_ËÂÌÚ_28-12" x1="77.04" y1="126.26" x2="82.71" y2="81.09" gradientTransform="matrix(1, 0, 0, 1, 0, 0)" xlink:href="#_ÂÁ_Ï_ÌÌ_È_ËÂÌÚ_28"/><linearGradient id="_ÂÁ_Ï_ÌÌ_È_ËÂÌÚ_4" x1="193.44" y1="-228.55" x2="193.44" y2="-241.29" gradientTransform="matrix(0.97, 0.23, -0.23, 0.97, -141.61, 304.66)" gradientUnits="userSpaceOnUse"><stop offset="0" stop-color="#d32c87"/><stop offset="1" stop-color="#e6287e"/></linearGradient><linearGradient id="_ÂÁ_Ï_ÌÌ_È_ËÂÌÚ_65" x1="99.85" y1="120.36" x2="99.85" y2="114.95" gradientUnits="userSpaceOnUse"><stop offset="0" stop-color="#9d559b"/><stop offset="1" stop-color="#ea71a8"/></linearGradient><linearGradient id="_ÂÁ_Ï_ÌÌ_È_ËÂÌÚ_46-11" x1="85.19" y1="70.8" x2="85.19" y2="58.16" gradientTransform="matrix(1, 0.02, -0.02, 1, -7.87, 23.53)" xlink:href="#_ÂÁ_Ï_ÌÌ_È_ËÂÌÚ_46"/></defs><title>CUDI-5-sprites</title><g class="cls-1"><g id="Capa_1" data-name="Capa 1"><path class="cls-2" d="M66.9,158.51c24.35,18.6,50.33,16.39,50.33,16.39,4.14-6.81,3.22-22.08-.06-23.56h0a1.06,1.06,0,0,0-.52-.11C83.73,151.39,69.3,142,69.3,142a8.8,8.8,0,0,0-4.53,8.1A20.26,20.26,0,0,0,66.9,158.51Z"/><path class="cls-3" d="M69.3,142c2.51-.48,9.45,14.39,7.32,17.24s-9.72-.74-9.72-.74S60.39,143.73,69.3,142Z"/><path class="cls-4" d="M66.9,158.51c24.35,18.6,50.33,16.39,50.33,16.39,4.14-6.81,3.22-22.08-.06-23.56h0a2.29,2.29,0,0,0-.52-.11s3,16.25-10.33,17.81C90.43,170.9,73.43,150,73.43,150l-3.36-6.92-5.3,7.05A20.26,20.26,0,0,0,66.9,158.51Z"/><path class="cls-5" d="M72.12,145.79s3.87,7.74.07,11.14-13.33-2.17-17-4.6S40.86,136,42,130.89s7.3-6.92,13.58-3.6C55.61,127.29,68.69,139.27,72.12,145.79Z"/><path class="cls-6" d="M70.76,143.6s-7-1.41-11.08-6.85-14.11-10.33-14.11-10.33,3.12-1.88,10,.87S70.76,143.6,70.76,143.6Z"/><path class="cls-7" d="M56.92,127.92l-3.2,3.38a28.3,28.3,0,0,1,5.21,4.53c2.06,2.44,6.56,5,6.56,5Z"/><path class="cls-8" d="M70,142.12s-.08-3.59-2.65-9.36-6.09-9.59-7.1-10.08-3.17.7-3.61,2.47,1.83,8.38,1.83,8.38S64.83,143,70,142.12Z"/><path class="cls-9" d="M59.68,136.75s1.57,9.95-3.08,16.5l-1.45-.92a25.27,25.27,0,0,0,3.78-16.5Z"/><path class="cls-10" d="M61,127.61c.6-.38,3.09,5.31,2.19,5.46S60.11,128.15,61,127.61Z"/><path class="cls-11" d="M133.13,230.32c-1.33,7.79-7.26,25.79-12.57,23.89-1.15-.4-2.35-1.86-3.54-4-3.63-6.5-7.2-19.28-9-27.93-1-4.71-1.4-8.2-1-8.76,2.37-3.51,24.87,11.7,26.21,13.39C133.5,227.24,133.45,228.5,133.13,230.32Z"/><path class="cls-12" d="M168.76,219.79c-.08.72-.18,1.47-.28,2.25-1.59,11.84-4.88,29.22-8.42,35.54-.84,1.52-1.7,2.4-2.55,2.42a2.14,2.14,0,0,1-.69-.1,5.83,5.83,0,0,1-2.49-1.85h0c-5.36-6-11.42-24.29-11.63-29.74a2.53,2.53,0,0,1,.2-1.39c3.06-4.15,25.19-18.3,26.42-16.61C169.64,210.76,169.4,214.53,168.76,219.79Z"/><path class="cls-13" d="M107,213.53c-2.49,3.26,17.8,18,26.36,14.14C133.4,227.67,110.35,209.2,107,213.53Z"/><path class="cls-14" d="M142.7,228.3c-.67,1.66,22.76-2.14,26.62-18C169.32,210.31,149.05,212.68,142.7,228.3Z"/><path class="cls-15" d="M115.92,227.21c-1.14,1.4.26,19.64,4.64,27-1.15-.4-2.35-1.86-3.54-4-.72-3.2-1.77-7.94-2.77-12.67-1.28-6.09-4.54-12.33-6.2-15.26-1-4.71-1.4-8.2-1-8.76,2.37-3.51,24.87,11.7,26.21,13.39.25.32.2,1.58-.12,3.4C133.13,230.32,117.05,225.81,115.92,227.21Z"/><path class="cls-10" d="M155.56,233.82c-1,.3-1.18,7.93.41,8.35S157.77,233.14,155.56,233.82Z"/><path class="cls-16" d="M168.76,219.79S156,223.59,153,229.67s-1.85,20.51,1.35,28.38c-5.36-6-11.42-24.29-11.63-29.74a2.53,2.53,0,0,1,.2-1.39c3.06-4.15,25.19-18.3,26.42-16.61C169.64,210.76,169.4,214.53,168.76,219.79Z"/><path class="cls-17" d="M109.32,63.86s-7-6.06-15.61-7.11c0,0-2.63,1.29-5.67,10.76s2.57,28.17,2.57,28.17Z"/><path class="cls-18" d="M90.38,61.47a14,14,0,0,1,3.33-4.72s7.07,6.53,6.79,22.12l-2,2.11Z"/><path class="cls-19" d="M167.44,63.86s7-6.06,15.61-7.11c0,0,2.63,1.29,5.67,10.76s-2.57,28.17-2.57,28.17Z"/><path class="cls-20" d="M183.05,56.75a30.4,30.4,0,0,0-7,19.47l2.69,1.69,7.83-16.21S184,56.61,183.05,56.75Z"/><path class="cls-21" d="M178.53,77.09s-1.85-10.25,4.9-17.79c0,0,7.63,3.59,10.79,16.92s-5.06,21.33-5.06,21.33Z"/><path class="cls-22" d="M98.23,77.09s1.85-10.25-4.9-17.79c0,0-7.63,3.59-10.79,16.92S87.6,97.55,87.6,97.55Z"/><path class="cls-23" d="M187.9,133.8c-15.67,22-89.31,20.34-98.9,2.57-6.26-11.6-5.57-29.05.45-45.11,7.91-21.07,25-39.77,47.72-39.77,26.71,0,47.23,26.61,53.41,50.92C193.71,114.71,193.17,126.41,187.9,133.8Z"/><path class="cls-24" d="M94.5,113.42c3.5,15,68.24,16.59,84.14,3s-7-61.74-42.07-59.63C104.49,58.74,88.75,88.91,94.5,113.42Z"/><path class="cls-25" d="M94.16,111.6c3.51,15,68.24,16.6,84.14,3s-7-61.75-42.07-59.64C104.15,56.92,88.41,87.09,94.16,111.6Z"/><path class="cls-26" d="M187.9,133.8c-15.67,22-89.31,20.34-98.9,2.57-6.26-11.6-5.57-29.05.45-45.11a0,0,0,0,1,0,0c-.26,1-6.43,23.46-.13,33.36,6.45,10.13,31.93,8.72,59.29,7.55s36.42-5.14,41-12.86c3.61-6.07,0-19.48-1.73-24.9l2.68,8C193.71,114.71,193.17,126.41,187.9,133.8Z"/><path class="cls-27" d="M137.25,150c-15.31,0-26.34-1.74-32.52-4.21h0c-4.06-1.62-6-3.56-5.73-5.55.17-1.21,3.18-2.27,7.91-3.14,13.9-2.52,42.68-3.28,58.18-.93,1.33.2,2.57.43,3.69.68l.7.16.13,0c2.67.66,4.57,1.46,5.41,2.44a2.2,2.2,0,0,1,.44.76C176.9,145.18,151.08,150,137.25,150Z"/><path class="cls-28" d="M175.28,139a1.79,1.79,0,0,1-.26.46c-1.5,2.12-7.58,4.85-7.58,4.85s-23.37-9.56-42.32-5.31-20.39,6.77-20.39,6.77h0c-4.06-1.62-6-3.56-5.73-5.55.17-1.21,3.18-2.27,7.91-3.14,13.9-2.52,42.68-3.28,58.18-.93,1.62.29,3.09.58,4.39.84l.13,0C173.28,137.82,175.46,138.52,175.28,139Z"/><path class="cls-29" d="M168.78,136.83c-3.62,3.46-21,6.45-30.86,6.44-17.74,0-28.51-2.82-31-6.19C122,134.35,154.66,133.68,168.78,136.83Z"/><path class="cls-30" d="M167.67,206.17c-2.14,12.62-13.44,21-29.64,21-14.11,0-26.06-5.26-29.21-16.84s-1.94-33,2.27-46.3a42.83,42.83,0,0,1,2.27-5.72v0a39.13,39.13,0,0,1,2.67-4.7h0c5.15-7.75,12.68-12.81,21.2-12.81a25.82,25.82,0,0,1,20.27,9,29.54,29.54,0,0,1,5,8.47A82.79,82.79,0,0,1,166,169.47a.52.52,0,0,0,0,.11A94.25,94.25,0,0,1,167.67,206.17Z"/><path class="cls-31" d="M156.6,148.84s1.39,15,10.19,24.12C166.79,173,164.35,159,156.6,148.84Z"/><path class="cls-32" d="M206.38,130.52c-13.8,27.36-38.14,36.71-38.14,36.71-6.7-4.33-12.53-18.47-10.22-21.23h0a1.14,1.14,0,0,1,.41-.32c29.7-14.21,38.58-28.95,38.58-28.95a8.81,8.81,0,0,1,7.61,5.32A20.27,20.27,0,0,1,206.38,130.52Z"/><path class="cls-33" d="M89,136.37a30,30,0,0,1,9.21-6.55c6.1-2.92,11.71-5.21,12.58-7.56s-16.74-1-16.74-1l-8.76,3.8S86.66,132.17,89,136.37Z"/><path class="cls-34" d="M197,116.73c-2.47.66-2.22,17.07.94,18.7s8.42-4.91,8.42-4.91S205.79,114.39,197,116.73Z"/><path class="cls-35" d="M150.14,87.38c2.34,4.12,17.84.46,18.71-2,1.17-3.28-3.16-13.57-11.34-12.63S149,85.39,150.14,87.38Z"/><path class="cls-36" d="M125.93,87.38c-2.34,4.12-17.83.46-18.7-2-1.17-3.28,3.16-13.57,11.34-12.63S127.07,85.39,125.93,87.38Z"/><path class="cls-37" d="M121.62,95s4.41,4.56,16.94,4.56,18.95-5.26,18.95-5.26-5.52,7.48-18.95,7.48S121.62,95,121.62,95Z"/><path class="cls-38" d="M104.78,73.76c-.81,4.85,10,4.64,24.67,4.15,17.65-.58,35.39,14.62,45.71,3.71,1.7-1.8-15.2-25.4-35.6-24.87S105.48,69.55,104.78,73.76Z"/><path class="cls-39" d="M114.79,116c-.93,3.51,6.42,7,24.49,6.14,21.85-1.07,26.49-5.64,25.42-6.91-.65-.76-7.19,3.36-25.14-.57C127.71,112,115.77,112.29,114.79,116Z"/><path class="cls-40" d="M187.75,93.94l-.53-1.6C187.32,92.65,187.52,93.2,187.75,93.94Z"/><path class="cls-41" d="M167.67,206.17c-2.14,12.62-13.44,21-29.64,21-14.11,0-26.06-5.26-29.21-16.84s-1.94-33,2.27-46.3a42.83,42.83,0,0,1,2.27-5.72v0s-8.53,28.29-1.71,46.31,38.6,17.64,49.36,5.67c10.23-11.4,5.5-38.16,5-40.73A94.25,94.25,0,0,1,167.67,206.17Z"/><path class="cls-42" d="M109.42,198.68c2.41-16.94,16-28.43,31.1-27,16.27,1.53,25,17.07,24.79,30.39s-10,23.74-27.44,23.74S107.17,214.52,109.42,198.68Z"/><path class="cls-43" d="M109.57,200.08c2.42-16.94,16-28.43,31.1-27,16.28,1.53,25,17.07,24.79,30.4s-10,23.73-27.44,23.73S107.32,215.93,109.57,200.08Z"/><path class="cls-44" d="M157.51,149.85c-3.45,5.41-22.46,8.57-33.44,7.56-9.56-.87-8.11-3.45-8-3.78h0c5.15-7.75,12.68-12.81,21.2-12.81A25.82,25.82,0,0,1,157.51,149.85Z"/><path class="cls-10" d="M150.75,159.23c-.88.3-.92,7.42,0,8.57s2.41.79,2.91-.89S152.09,158.79,150.75,159.23Z"/><path class="cls-10" d="M152.39,169.69c-.74.18-.82,1.95-.48,2.56a1.08,1.08,0,0,0,1.82-.26C153.94,171.24,153.13,169.52,152.39,169.69Z"/><path class="cls-45" d="M119.13,217.34s3.9,6.79,18.43,6.84S158,215.59,158,215.59a21.19,21.19,0,0,1-16.29,1.75C132.12,214.71,122.64,213.24,119.13,217.34Z"/><path class="cls-10" d="M149.66,54.59c-1.55.36,11.47,7.25,12,6.43S154,53.59,149.66,54.59Z"/><path class="cls-10" d="M174.61,59.74c-1.3.7-1.2,2.1,1.49,1.75S180.25,59,180,58.62,176.06,59,174.61,59.74Z"/><path class="cls-46" d="M206.38,130.52c-13.8,27.36-38.14,36.71-38.14,36.71-6.7-4.33-12.53-18.47-10.22-21.23h0a4.12,4.12,0,0,1,.41-.32s4.35,16,17.07,11.52c15.1-5.25,21.28-31.49,21.28-31.49V118l7.84,4A20.27,20.27,0,0,1,206.38,130.52Z"/><path class="cls-47" d="M196.14,121.36s-.11,8.65,4.8,10,11-7.77,13.32-11.57,5.73-20.93,2.46-25-9.59-3-13.8,2.69C202.92,97.51,196.38,114,196.14,121.36Z"/><path class="cls-48" d="M196.41,118.79s5.69-4.33,7-11,8.19-15.45,8.19-15.45S208,92,202.92,97.51,196.41,118.79,196.41,118.79Z"/><path class="cls-49" d="M202,98.65l4.35,1.64a28.5,28.5,0,0,0-2.72,6.35c-.78,3.1-3.73,7.33-3.73,7.33Z"/><path class="cls-50" d="M196.41,117.15s-1.5-3.27-1.7-9.59,1.29-11.28,2-12.16,3.16-.75,4.33.65,2,8.34,2,8.34S201.47,115.63,196.41,117.15Z"/><path class="cls-51" d="M203.39,107.8s2.93,9.64,10,13.5l.9-1.46a25.25,25.25,0,0,1-10.6-13.2Z"/><path class="cls-10" d="M198.25,100.13c-.7-.09-.47,6.13.41,5.87S199.25,100.24,198.25,100.13Z"/><path class="cls-52" d="M95,106.67a47.62,47.62,0,0,1,.13-11.93c.9-6.84,2.74-11.25,3.83-10.63s.92,7.31,1.57,13.91c.5,5.14,1.49,10,1.49,10S97.27,112.49,95,106.67Z"/><path class="cls-53" d="M115.35,189.33c2.86,4.58,14.67,2.14,28,3.44s15.57,5.62,18.38,4.75-1.63-20.91-21.5-22.26S114.63,188.19,115.35,189.33Z"/><path class="cls-54" d="M189.25,65.33s-2.47-3.07-5.84-2.25-3.6,11.44-1.58,11.7,2.87-5.88,4.42-6.84,4.24-.59,4.24-.59Z"/><path class="cls-55" d="M85.07,69s1.3-1.48,4.22-1S93.9,74.5,95.4,73.9s.4-10.32-3.56-13.18C91.84,60.72,86.75,65.07,85.07,69Z"/><path class="cls-56" d="M81.82,81s4.54,2.92,1.56,9.69c0,0-21.21,11.55-20,24.15,1,10.5,30.34,5.42,30.34,5.42l1.06,3.5s-24.91,4.87-33.5-1c0,0-2.92-6.94,4.33-19.45A145,145,0,0,1,81.82,81Z"/><path class="cls-57" d="M90,119.26c-2.67,3,3,6.33,7.66,6.84,5.23.57,14.52-1.5,14-6.77S96.29,112.18,90,119.26Z"/><path class="cls-58" d="M90.38,119.82c-.16.86,18.51,1.07,18.94-2.23S91.6,113.15,90.38,119.82Z"/><path class="cls-59" d="M81.1,83.17S70.76,94.78,71.39,95.61,81.72,84.37,81.1,83.17Z"/></g></g></svg>