<svg xmlns="http://www.w3.org/2000/svg" xmlns:xlink="http://www.w3.org/1999/xlink" viewBox="0 0 260 260"><defs><style>.cls-1{isolation:isolate;}.cls-2{fill:url(#_ÂÁ_Ï_ÌÌ_È_ËÂÌÚ_17);}.cls-3{fill:url(#_ÂÁ_Ï_ÌÌ_È_ËÂÌÚ_264);}.cls-4{fill:url(#_ÂÁ_Ï_ÌÌ_È_ËÂÌÚ_46);}.cls-5{fill:url(#_ÂÁ_Ï_ÌÌ_È_ËÂÌÚ_5);}.cls-27,.cls-30,.cls-33,.cls-43,.cls-49,.cls-6{opacity:0.3;}.cls-27,.cls-30,.cls-33,.cls-38,.cls-43,.cls-46,.cls-49,.cls-6,.cls-7{mix-blend-mode:multiply;}.cls-6{fill:url(#_ÂÁ_Ï_ÌÌ_È_ËÂÌÚ_153);}.cls-19,.cls-20,.cls-21,.cls-38,.cls-46,.cls-7{opacity:0.5;}.cls-7{fill:url(#_ÂÁ_Ï_ÌÌ_È_ËÂÌÚ_416);}.cls-8{fill:url(#_ÂÁ_Ï_ÌÌ_È_ËÂÌÚ_6);}.cls-9{fill:#dee1f2;}.cls-10{fill:url(#_ÂÁ_Ï_ÌÌ_È_ËÂÌÚ_132);}.cls-11{fill:url(#_ÂÁ_Ï_ÌÌ_È_ËÂÌÚ_264-2);}.cls-12{fill:url(#_ÂÁ_Ï_ÌÌ_È_ËÂÌÚ_28);}.cls-13{fill:url(#_ÂÁ_Ï_ÌÌ_È_ËÂÌÚ_17-2);}.cls-14{fill:url(#_ÂÁ_Ï_ÌÌ_È_ËÂÌÚ_28-2);}.cls-15{fill:url(#_ÂÁ_Ï_ÌÌ_È_ËÂÌÚ_4);}.cls-16{fill:url(#_ÂÁ_Ï_ÌÌ_È_ËÂÌÚ_65);}.cls-17{fill:url(#_ÂÁ_Ï_ÌÌ_È_ËÂÌÚ_17-3);}.cls-18{fill:url(#_ÂÁ_Ï_ÌÌ_È_ËÂÌÚ_17-4);}.cls-19,.cls-20,.cls-21,.cls-22,.cls-23,.cls-39,.cls-40{mix-blend-mode:screen;}.cls-19{fill:url(#_ÂÁ_Ï_ÌÌ_È_ËÂÌÚ_54);}.cls-20{fill:url(#_ÂÁ_Ï_ÌÌ_È_ËÂÌÚ_54-2);}.cls-21{fill:url(#_ÂÁ_Ï_ÌÌ_È_ËÂÌÚ_54-3);}.cls-22,.cls-23,.cls-39,.cls-40{opacity:0.72;}.cls-22{fill:url(#_ÂÁ_Ï_ÌÌ_È_ËÂÌÚ_143);}.cls-23{fill:url(#_ÂÁ_Ï_ÌÌ_È_ËÂÌÚ_134);}.cls-24{fill:#2f94cd;}.cls-25{fill:url(#_ÂÁ_Ï_ÌÌ_È_ËÂÌÚ_129);}.cls-26{fill:url(#_ÂÁ_Ï_ÌÌ_È_ËÂÌÚ_28-3);}.cls-27{fill:url(#_ÂÁ_Ï_ÌÌ_È_ËÂÌÚ_153-2);}.cls-28{fill:url(#_ÂÁ_Ï_ÌÌ_È_ËÂÌÚ_46-2);}.cls-29{fill:url(#_ÂÁ_Ï_ÌÌ_È_ËÂÌÚ_5-2);}.cls-30{fill:url(#_ÂÁ_Ï_ÌÌ_È_ËÂÌÚ_153-3);}.cls-31{fill:#fff;}.cls-32{fill:url(#_ÂÁ_Ï_ÌÌ_È_ËÂÌÚ_46-3);}.cls-33{fill:url(#_ÂÁ_Ï_ÌÌ_È_ËÂÌÚ_153-4);}.cls-34{fill:url(#_ÂÁ_Ï_ÌÌ_È_ËÂÌÚ_28-4);}.cls-35{fill:url(#_ÂÁ_Ï_ÌÌ_È_ËÂÌÚ_91);}.cls-36{fill:url(#_ÂÁ_Ï_ÌÌ_È_ËÂÌÚ_5-3);}.cls-37{fill:#5f4393;}.cls-38{fill:url(#_ÂÁ_Ï_ÌÌ_È_ËÂÌÚ_416-2);}.cls-39{fill:url(#_ÂÁ_Ï_ÌÌ_È_ËÂÌÚ_134-2);}.cls-40{fill:url(#_ÂÁ_Ï_ÌÌ_È_ËÂÌÚ_143-2);}.cls-41{fill:url(#_ÂÁ_Ï_ÌÌ_È_ËÂÌÚ_46-4);}.cls-42{fill:url(#_ÂÁ_Ï_ÌÌ_È_ËÂÌÚ_28-5);}.cls-43{fill:url(#_ÂÁ_Ï_ÌÌ_È_ËÂÌÚ_153-5);}.cls-44{fill:url(#_ÂÁ_Ï_ÌÌ_È_ËÂÌÚ_46-5);}.cls-45{fill:url(#_ÂÁ_Ï_ÌÌ_È_ËÂÌÚ_28-6);}.cls-46{fill:url(#_ÂÁ_Ï_ÌÌ_È_ËÂÌÚ_416-3);}.cls-47{fill:url(#_ÂÁ_Ï_ÌÌ_È_ËÂÌÚ_46-6);}.cls-48{fill:url(#_ÂÁ_Ï_ÌÌ_È_ËÂÌÚ_46-7);}.cls-49{fill:url(#_ÂÁ_Ï_ÌÌ_È_ËÂÌÚ_153-6);}.cls-50{fill:url(#_ÂÁ_Ï_ÌÌ_È_ËÂÌÚ_28-7);}.cls-51{fill:url(#_ÂÁ_Ï_ÌÌ_È_ËÂÌÚ_29);}.cls-52{fill:url(#_ÂÁ_Ï_ÌÌ_È_ËÂÌÚ_28-8);}.cls-53{fill:url(#_ÂÁ_Ï_ÌÌ_È_ËÂÌÚ_46-8);}.cls-54{fill:url(#_ÂÁ_Ï_ÌÌ_È_ËÂÌÚ_28-9);}</style><linearGradient id="_ÂÁ_Ï_ÌÌ_È_ËÂÌÚ_17" x1="262.76" y1="-70.41" x2="262.76" y2="-99.19" gradientTransform="translate(-172.04 118.97) rotate(10.91)" gradientUnits="userSpaceOnUse"><stop offset="0" stop-color="#79c3b0"/><stop offset="1" stop-color="#60c4e5"/></linearGradient><linearGradient id="_ÂÁ_Ï_ÌÌ_È_ËÂÌÚ_264" x1="270.83" y1="-82.53" x2="270.83" y2="-107.1" gradientTransform="translate(-172.04 118.97) rotate(10.91)" gradientUnits="userSpaceOnUse"><stop offset="0" stop-color="#b5a9d3"/><stop offset="1" stop-color="#dfcfe7"/></linearGradient><linearGradient id="_ÂÁ_Ï_ÌÌ_È_ËÂÌÚ_46" x1="295.48" y1="-17.28" x2="307.1" y2="-109.76" gradientTransform="translate(-172.04 118.97) rotate(10.91)" gradientUnits="userSpaceOnUse"><stop offset="0" stop-color="#c9bede"/><stop offset="1" stop-color="#e6daec"/></linearGradient><linearGradient id="_ÂÁ_Ï_ÌÌ_È_ËÂÌÚ_5" x1="267.36" y1="-28.76" x2="343.27" y2="-28.76" gradientTransform="translate(-172.04 118.97) rotate(10.91)" gradientUnits="userSpaceOnUse"><stop offset="0" stop-color="#7974b4"/><stop offset="1" stop-color="#9289c1"/></linearGradient><linearGradient id="_ÂÁ_Ï_ÌÌ_È_ËÂÌÚ_153" x1="300.45" y1="-19.34" x2="300.45" y2="-79.72" gradientTransform="translate(-172.04 118.97) rotate(10.91)" gradientUnits="userSpaceOnUse"><stop offset="0" stop-color="#9169a9"/><stop offset="1" stop-color="#cce9fb"/></linearGradient><linearGradient id="_ÂÁ_Ï_ÌÌ_È_ËÂÌÚ_416" x1="305.32" y1="-20.63" x2="305.32" y2="-38.19" gradientTransform="translate(-172.04 118.97) rotate(10.91)" gradientUnits="userSpaceOnUse"><stop offset="0" stop-color="#8ea1d3"/><stop offset="1" stop-color="#6e5ba3"/></linearGradient><linearGradient id="_ÂÁ_Ï_ÌÌ_È_ËÂÌÚ_6" x1="194.72" y1="150.03" x2="196.16" y2="138.6" gradientTransform="translate(-52.88 -10.12) rotate(3.28)" gradientUnits="userSpaceOnUse"><stop offset="0" stop-color="#4f4695"/><stop offset="1" stop-color="#6c4b96"/></linearGradient><linearGradient id="_ÂÁ_Ï_ÌÌ_È_ËÂÌÚ_132" x1="286.48" y1="-37.14" x2="286.48" y2="-107.15" gradientTransform="translate(-172.04 118.97) rotate(10.91)" gradientUnits="userSpaceOnUse"><stop offset="0" stop-color="#1e64ae"/><stop offset="1" stop-color="#292f6b"/></linearGradient><linearGradient id="_ÂÁ_Ï_ÌÌ_È_ËÂÌÚ_264-2" x1="165.22" y1="110.61" x2="165.22" y2="63.22" gradientTransform="translate(6.37 4.59) rotate(-0.29)" xlink:href="#_ÂÁ_Ï_ÌÌ_È_ËÂÌÚ_264"/><linearGradient id="_ÂÁ_Ï_ÌÌ_È_ËÂÌÚ_28" x1="168.85" y1="108.81" x2="168.85" y2="63.44" gradientTransform="translate(6.37 4.59) rotate(-0.29)" gradientUnits="userSpaceOnUse"><stop offset="0" stop-color="#b39bc9"/><stop offset="1" stop-color="#9289c1"/></linearGradient><linearGradient id="_ÂÁ_Ï_ÌÌ_È_ËÂÌÚ_17-2" x1="172.27" y1="109.93" x2="172.27" y2="65.46" gradientTransform="translate(6.37 4.59) rotate(-0.29)" xlink:href="#_ÂÁ_Ï_ÌÌ_È_ËÂÌÚ_17"/><linearGradient id="_ÂÁ_Ï_ÌÌ_È_ËÂÌÚ_28-2" x1="236.43" y1="-23.19" x2="239.68" y2="-49.09" gradientTransform="translate(-172.04 118.97) rotate(10.91)" xlink:href="#_ÂÁ_Ï_ÌÌ_È_ËÂÌÚ_28"/><linearGradient id="_ÂÁ_Ï_ÌÌ_È_ËÂÌÚ_4" x1="304.25" y1="-214" x2="304.25" y2="-225.82" gradientTransform="translate(-280.84 261.71) rotate(16.36)" gradientUnits="userSpaceOnUse"><stop offset="0" stop-color="#d32c87"/><stop offset="1" stop-color="#e6287e"/></linearGradient><linearGradient id="_ÂÁ_Ï_ÌÌ_È_ËÂÌÚ_65" x1="131.24" y1="152.17" x2="131.24" y2="146.76" gradientTransform="matrix(1, 0.05, -0.05, 1, -50.54, -22.21)" gradientUnits="userSpaceOnUse"><stop offset="0" stop-color="#9d559b"/><stop offset="1" stop-color="#ea71a8"/></linearGradient><linearGradient id="_ÂÁ_Ï_ÌÌ_È_ËÂÌÚ_17-3" x1="301.74" y1="-73.3" x2="301.74" y2="-79.72" xlink:href="#_ÂÁ_Ï_ÌÌ_È_ËÂÌÚ_17"/><linearGradient id="_ÂÁ_Ï_ÌÌ_È_ËÂÌÚ_17-4" x1="260.88" y1="-65.87" x2="260.88" y2="-71.83" xlink:href="#_ÂÁ_Ï_ÌÌ_È_ËÂÌÚ_17"/><linearGradient id="_ÂÁ_Ï_ÌÌ_È_ËÂÌÚ_54" x1="257.89" y1="-91.59" x2="318.05" y2="-91.59" gradientTransform="translate(-172.04 118.97) rotate(10.91)" gradientUnits="userSpaceOnUse"><stop offset="0"/><stop offset="1" stop-color="#7192cb"/></linearGradient><linearGradient id="_ÂÁ_Ï_ÌÌ_È_ËÂÌÚ_54-2" x1="261.6" y1="-43" x2="305.69" y2="-43" xlink:href="#_ÂÁ_Ï_ÌÌ_È_ËÂÌÚ_54"/><linearGradient id="_ÂÁ_Ï_ÌÌ_È_ËÂÌÚ_54-3" x1="251.65" y1="-43" x2="251.65" y2="-71.73" xlink:href="#_ÂÁ_Ï_ÌÌ_È_ËÂÌÚ_54"/><linearGradient id="_ÂÁ_Ï_ÌÌ_È_ËÂÌÚ_143" x1="171.42" y1="108.48" x2="171.42" y2="95.49" gradientTransform="translate(6.37 4.59) rotate(-0.29)" gradientUnits="userSpaceOnUse"><stop offset="0" stop-color="#d4dff3"/><stop offset="1"/></linearGradient><linearGradient id="_ÂÁ_Ï_ÌÌ_È_ËÂÌÚ_134" x1="160.62" y1="73.6" x2="186.07" y2="73.6" gradientTransform="translate(6.37 4.59) rotate(-0.29)" gradientUnits="userSpaceOnUse"><stop offset="0"/><stop offset="1" stop-color="#d4dff3"/></linearGradient><linearGradient id="_ÂÁ_Ï_ÌÌ_È_ËÂÌÚ_129" x1="87.26" y1="203.34" x2="93.43" y2="154.23" gradientUnits="userSpaceOnUse"><stop offset="0" stop-color="#c9bede"/><stop offset="1" stop-color="#cfbbdc"/></linearGradient><linearGradient id="_ÂÁ_Ï_ÌÌ_È_ËÂÌÚ_28-3" x1="74.54" y1="201.46" x2="73.15" y2="187.76" gradientTransform="matrix(1, 0, 0, 1, 0, 0)" xlink:href="#_ÂÁ_Ï_ÌÌ_È_ËÂÌÚ_28"/><linearGradient id="_ÂÁ_Ï_ÌÌ_È_ËÂÌÚ_153-2" x1="90.7" y1="201.6" x2="90.7" y2="156.42" gradientTransform="matrix(1, 0, 0, 1, 0, 0)" xlink:href="#_ÂÁ_Ï_ÌÌ_È_ËÂÌÚ_153"/><linearGradient id="_ÂÁ_Ï_ÌÌ_È_ËÂÌÚ_46-2" x1="-42.09" y1="374.16" x2="-37.02" y2="333.86" gradientTransform="translate(101.95 -116.26) rotate(-8.66)" xlink:href="#_ÂÁ_Ï_ÌÌ_È_ËÂÌÚ_46"/><linearGradient id="_ÂÁ_Ï_ÌÌ_È_ËÂÌÚ_5-2" x1="-49.69" y1="341.47" x2="-25.65" y2="341.47" gradientTransform="translate(101.95 -116.26) rotate(-8.66)" xlink:href="#_ÂÁ_Ï_ÌÌ_È_ËÂÌÚ_5"/><linearGradient id="_ÂÁ_Ï_ÌÌ_È_ËÂÌÚ_153-3" x1="-38.02" y1="372.95" x2="-38.02" y2="332.41" gradientTransform="translate(101.95 -116.26) rotate(-8.66)" xlink:href="#_ÂÁ_Ï_ÌÌ_È_ËÂÌÚ_153"/><linearGradient id="_ÂÁ_Ï_ÌÌ_È_ËÂÌÚ_46-3" x1="-183.71" y1="436.19" x2="-172.72" y2="348.65" gradientTransform="translate(188.57 -234.68) rotate(-16.58)" xlink:href="#_ÂÁ_Ï_ÌÌ_È_ËÂÌÚ_46"/><linearGradient id="_ÂÁ_Ï_ÌÌ_È_ËÂÌÚ_153-4" x1="-157.62" y1="421.99" x2="-157.62" y2="376.69" gradientTransform="translate(188.57 -234.68) rotate(-16.58)" xlink:href="#_ÂÁ_Ï_ÌÌ_È_ËÂÌÚ_153"/><linearGradient id="_ÂÁ_Ï_ÌÌ_È_ËÂÌÚ_28-4" x1="-208.9" y1="408.33" x2="-165.97" y2="408.33" gradientTransform="translate(188.57 -234.68) rotate(-16.58)" xlink:href="#_ÂÁ_Ï_ÌÌ_È_ËÂÌÚ_28"/><radialGradient id="_ÂÁ_Ï_ÌÌ_È_ËÂÌÚ_91" cx="-186.57" cy="427.93" r="32.44" gradientTransform="translate(188.57 -234.68) rotate(-16.58)" xlink:href="#_ÂÁ_Ï_ÌÌ_È_ËÂÌÚ_17"/><linearGradient id="_ÂÁ_Ï_ÌÌ_È_ËÂÌÚ_5-3" x1="-162.49" y1="376.54" x2="-151.44" y2="376.54" gradientTransform="translate(188.57 -234.68) rotate(-16.58)" xlink:href="#_ÂÁ_Ï_ÌÌ_È_ËÂÌÚ_5"/><linearGradient id="_ÂÁ_Ï_ÌÌ_È_ËÂÌÚ_416-2" x1="-176.7" y1="362.43" x2="-176.7" y2="348.53" gradientTransform="translate(188.57 -234.68) rotate(-16.58)" xlink:href="#_ÂÁ_Ï_ÌÌ_È_ËÂÌÚ_416"/><linearGradient id="_ÂÁ_Ï_ÌÌ_È_ËÂÌÚ_134-2" x1="-206.66" y1="393.24" x2="-171.04" y2="393.24" gradientTransform="translate(188.57 -234.68) rotate(-16.58)" xlink:href="#_ÂÁ_Ï_ÌÌ_È_ËÂÌÚ_134"/><linearGradient id="_ÂÁ_Ï_ÌÌ_È_ËÂÌÚ_143-2" x1="-187.09" y1="434.42" x2="-187.09" y2="430.3" gradientTransform="translate(188.57 -234.68) rotate(-16.58)" xlink:href="#_ÂÁ_Ï_ÌÌ_È_ËÂÌÚ_143"/><linearGradient id="_ÂÁ_Ï_ÌÌ_È_ËÂÌÚ_46-4" x1="-430.59" y1="517.63" x2="-422.29" y2="451.57" gradientTransform="matrix(0.86, -0.51, 0.51, 0.86, 291.2, -450.47)" xlink:href="#_ÂÁ_Ï_ÌÌ_È_ËÂÌÚ_46"/><linearGradient id="_ÂÁ_Ï_ÌÌ_È_ËÂÌÚ_28-5" x1="-416.93" y1="518.03" x2="-416.93" y2="505.31" gradientTransform="matrix(0.86, -0.51, 0.51, 0.86, 291.2, -450.47)" xlink:href="#_ÂÁ_Ï_ÌÌ_È_ËÂÌÚ_28"/><linearGradient id="_ÂÁ_Ï_ÌÌ_È_ËÂÌÚ_153-5" x1="-424.76" y1="519.12" x2="-424.76" y2="449.25" gradientTransform="matrix(0.86, -0.51, 0.51, 0.86, 291.2, -450.47)" xlink:href="#_ÂÁ_Ï_ÌÌ_È_ËÂÌÚ_153"/><linearGradient id="_ÂÁ_Ï_ÌÌ_È_ËÂÌÚ_46-5" x1="-1452.49" y1="600.25" x2="-1447.93" y2="563.94" gradientTransform="matrix(-0.8, 0.6, 0.6, 0.8, -1306.38, 609.24)" xlink:href="#_ÂÁ_Ï_ÌÌ_È_ËÂÌÚ_46"/><linearGradient id="_ÂÁ_Ï_ÌÌ_È_ËÂÌÚ_28-6" x1="-1444.48" y1="600.76" x2="-1444.48" y2="567.86" gradientTransform="matrix(-0.8, 0.6, 0.6, 0.8, -1306.38, 609.24)" xlink:href="#_ÂÁ_Ï_ÌÌ_È_ËÂÌÚ_28"/><linearGradient id="_ÂÁ_Ï_ÌÌ_È_ËÂÌÚ_416-3" x1="-1443.81" y1="590.58" x2="-1443.81" y2="577.86" gradientTransform="matrix(-0.8, 0.6, 0.6, 0.8, -1306.38, 609.24)" xlink:href="#_ÂÁ_Ï_ÌÌ_È_ËÂÌÚ_416"/><linearGradient id="_ÂÁ_Ï_ÌÌ_È_ËÂÌÚ_46-6" x1="-1442.95" y1="589.97" x2="-1440.25" y2="568.49" gradientTransform="matrix(-0.8, 0.6, 0.6, 0.8, -1306.38, 609.24)" xlink:href="#_ÂÁ_Ï_ÌÌ_È_ËÂÌÚ_46"/><linearGradient id="_ÂÁ_Ï_ÌÌ_È_ËÂÌÚ_46-7" x1="-203.03" y1="481.52" x2="-196.53" y2="429.77" gradientTransform="translate(199.54 -263.86) rotate(-19.16)" xlink:href="#_ÂÁ_Ï_ÌÌ_È_ËÂÌÚ_46"/><linearGradient id="_ÂÁ_Ï_ÌÌ_È_ËÂÌÚ_153-6" x1="-194.1" y1="483.02" x2="-194.1" y2="430.68" gradientTransform="translate(199.54 -263.86) rotate(-19.16)" xlink:href="#_ÂÁ_Ï_ÌÌ_È_ËÂÌÚ_153"/><linearGradient id="_ÂÁ_Ï_ÌÌ_È_ËÂÌÚ_28-7" x1="63.4" y1="207.43" x2="53.03" y2="193.45" gradientTransform="matrix(1, 0, 0, 1, 0, 0)" xlink:href="#_ÂÁ_Ï_ÌÌ_È_ËÂÌÚ_28"/><linearGradient id="_ÂÁ_Ï_ÌÌ_È_ËÂÌÚ_29" x1="57.24" y1="207.81" x2="59.85" y2="186.99" gradientUnits="userSpaceOnUse"><stop offset="0" stop-color="#e6daec"/><stop offset="1" stop-color="#c9bede"/></linearGradient><linearGradient id="_ÂÁ_Ï_ÌÌ_È_ËÂÌÚ_28-8" x1="62.2" y1="193.82" x2="58.98" y2="189.47" gradientTransform="matrix(1, 0, 0, 1, 0, 0)" xlink:href="#_ÂÁ_Ï_ÌÌ_È_ËÂÌÚ_28"/><linearGradient id="_ÂÁ_Ï_ÌÌ_È_ËÂÌÚ_46-8" x1="56.29" y1="193.88" x2="57.2" y2="186.62" gradientTransform="matrix(1, 0, 0, 1, 0, 0)" xlink:href="#_ÂÁ_Ï_ÌÌ_È_ËÂÌÚ_46"/><linearGradient id="_ÂÁ_Ï_ÌÌ_È_ËÂÌÚ_28-9" x1="55.4" y1="191.49" x2="69.48" y2="201.83" gradientTransform="matrix(1, 0, 0, 1, 0, 0)" xlink:href="#_ÂÁ_Ï_ÌÌ_È_ËÂÌÚ_28"/></defs><title>CUDI-5-sprites</title><g class="cls-1"><g id="Capa_1" data-name="Capa 1"><path class="cls-2" d="M105,71.37S95.82,78,92.1,92.74s17.71-3.47,17.71-3.47Z"/><path class="cls-3" d="M96.93,86.79s7-17.73,13.47-20.53S126.46,69,126.46,69Z"/><path class="cls-4" d="M176.76,146.78c-16.89,17.88-81.69,8.74-90.75-3.56a30.25,30.25,0,0,1-5.62-17.08v0c-1-26.93,26.49-61.41,60.48-58.75,23,1.81,38.27,24.08,42.3,45.49C185.7,126.24,183.84,139.29,176.76,146.78Z"/><path class="cls-5" d="M162.29,154.16a122,122,0,0,1-29.38,2.45c-15.29-.9-26.2-3.25-32.22-6.06h0c-4-1.85-5.8-3.89-5.4-5.86.24-1.2,3.31-2.09,8.08-2.69,14-1.71,42.79-.82,58.14,2.41,1.32.28,2.54.57,3.64.89.24.06.47.14.69.21a.53.53,0,0,1,.12,0c2.64.81,4.49,1.72,5.27,2.75a2.07,2.07,0,0,1,.4.78C172.08,151.09,168.11,152.84,162.29,154.16Z"/><path class="cls-6" d="M176.76,146.78c-16.89,17.88-81.69,8.74-90.75-3.56a30.25,30.25,0,0,1-5.62-17.08v0s3.87,8.76,17,11.13,51.78,2.65,59.93-2.68,6.68-32,6.68-32l19.17,10.28C185.7,126.24,183.84,139.29,176.76,146.78Z"/><path class="cls-7" d="M162.29,154.16c-6.42-3.25-25.24-11.78-40.86-9.2-19.16,3.15-20.74,5.59-20.74,5.59h0c-4-1.85-5.8-3.89-5.4-5.86.24-1.2,3.31-2.09,8.08-2.69,14-1.71,42.79-.82,58.14,2.41,1.6.38,3.05.75,4.33,1.1a.53.53,0,0,1,.12,0c2.64.81,4.49,1.72,5.27,2.75a2.07,2.07,0,0,1,.4.78C172.08,151.09,168.11,152.84,162.29,154.16Z"/><path class="cls-8" d="M165.15,145.29c-3.82,3.25-21.31,5.23-31.19,4.66-17.7-1-28.3-4.45-30.6-8C118.59,140.13,151.23,141.34,165.15,145.29Z"/><path class="cls-9" d="M80.16,127.34c2.3,8.23,58.28,14.41,73.46,1.14S158,67.42,128.06,70C99.51,72.42,76,112.43,80.16,127.34Z"/><path class="cls-10" d="M80.4,126.12c2.3,8.23,58.27,14.41,73.45,1.14s4.39-61.06-25.56-58.5C99.74,71.2,76.23,111.21,80.4,126.12Z"/><path class="cls-11" d="M158.42,76.93s-2.9,27.68,14.21,37.38c0,0,8.39.86,13.23-4.25,0,0-7.55,7.16-15.58-.22s-6.22-27.85-.17-34.55,14.81-5,14.81-5l-3.52-3.14S168.47,64.6,158.42,76.93Z"/><path class="cls-12" d="M181.4,67.17s-9.5-.83-16.08,10.22c-7,11.74-1.77,32,6.81,35s17.06-29.75,17.06-29.75l-5-13A5.87,5.87,0,0,0,181.4,67.17Z"/><path class="cls-13" d="M193.81,95c-1.19,6.33-3.74,11.51-7.16,14.79l0,0-1,.86h0a12.51,12.51,0,0,1-9.63,2.92c-11.56-1.42-13.2-18.15-11.89-27.65,1.53-11,10.87-17.59,18.34-16.67C191.35,70.37,196.15,82.61,193.81,95Z"/><path class="cls-14" d="M80.08,118.58a42.47,42.47,0,0,0-15.71,8.1c-7.64,6.27-9.65,13.92-.23,13.23l4.36-2.56s-5.63.79-4.88-4.94,16.26-12.78,16.26-12.78Z"/><path class="cls-15" d="M62.48,135.22c-2.83,2.87,2.69,5.49,7.31,6.25,5.19.85,14.54.28,14.27-5S69.12,128.49,62.48,135.22Z"/><path class="cls-16" d="M62.8,135.8c-.2.85,18.43,2.07,19-1.2S64.39,129.21,62.8,135.8Z"/><path class="cls-17" d="M128.55,102.24c-.4.55,7.36-4.45,19.7.34C149.47,103.05,136.48,91.38,128.55,102.24Z"/><path class="cls-18" d="M89.62,102.28c-.4.55,3.67-3.37,14.52-.75C105.41,101.84,96.74,92.61,89.62,102.28Z"/><path class="cls-19" d="M96,91.76c1.27,1.92,11.88-3.59,23.55-2.41s24.44,12.63,34,11.2c7.59-1.13-2.42-28.43-21.75-30.86S94.7,89.85,96,91.76Z"/><path class="cls-20" d="M92.52,128.59A81.94,81.94,0,0,1,119.67,127c15,1.68,17.42,3.27,17.14,4.68s-11.18,4.31-25,2.84S92.52,128.59,92.52,128.59Z"/><path class="cls-21" d="M80.82,123.93s-1.54-10.57,8-25.53c0,0,2.05-2.35,3-1.5S83.2,108.59,80.82,123.93Z"/><path class="cls-22" d="M166.08,99.29s1.28,10.26,8.83,12.44,13.66-3.3,15.55-11c0,0-2.33,6.66-12.16,5S166.08,99.29,166.08,99.29Z"/><path class="cls-23" d="M167.37,79.88c.1,1.91,13.93-2.13,18.33-1.57s6.31,6,7,5.82-1.23-12.75-9.42-13.64S167.31,78.55,167.37,79.88Z"/><path class="cls-24" d="M102.35,112.87s13.76.48,21.56-1.48c0,0-1.85,12.89-10.78,12.89S102.35,112.87,102.35,112.87Z"/><path class="cls-25" d="M101.81,189s-23.09,13.1-28.53,12.58-3-12.88-3-12.88c.72-.85,1.52-1.73,2.38-2.64h0c8.68-9.16,23.5-20.84,32-26.4h0c3.58-2.34,6-3.6,6.47-3.13C114.31,160,101.81,189,101.81,189Z"/><path class="cls-26" d="M70.27,188.71s3-2.54,6.75.87-.11,11.6-3.74,12S67.48,194,70.27,188.71Z"/><path class="cls-27" d="M101.81,189s-23.09,13.1-28.53,12.58-3-12.88-3-12.88c.72-.85,1.52-1.73,2.38-2.64h0s5.65,3.34,16,1.74,16-28.14,16-28.14h0c3.58-2.34,6-3.6,6.47-3.13C114.31,160,101.81,189,101.81,189Z"/><path class="cls-28" d="M128.77,231.74c.35,4.91-5,21.6-10.35,26.74v0a4.47,4.47,0,0,1-3.07,1.5c-4.46-.18-9.7-20.59-11.69-32.24-.76-4.5-1-7.68-.58-7.87C106.85,218.24,128.35,225.89,128.77,231.74Z"/><path class="cls-29" d="M129,233.32s-4.88,3.7-13.81.8c-7-2.26-12.94-12.19-12.13-14.23S130.87,225.34,129,233.32Z"/><path class="cls-30" d="M128.77,231.74c.35,4.91-5,21.6-10.35,26.74,3.73-5.89,2.27-16.51-1.35-20.92-2.73-3.34-10-7.82-13.42-9.8-.76-4.5-1-7.68-.58-7.87C106.85,218.24,128.35,225.89,128.77,231.74Z"/><path class="cls-31" d="M111.79,239.13c-1.37-.1-.45,3.6-.19,3.81s.89-1.05,1-2.06S112.28,239.17,111.79,239.13Z"/><path class="cls-32" d="M160.81,201.92c1.35,18.39-6.33,28.74-24.1,33.77-17.43,4.93-33.69-10.7-34.66-34.45-.63-15.16-.2-28.9,4.87-38.88h0v0a26.75,26.75,0,0,1,13.73-12.87c5.12-2.21,10.38-.67,15.34,3.14C148.91,162.51,159.75,187.74,160.81,201.92Z"/><path class="cls-33" d="M141.85,172.27s5.85,12.92,8.53,21.9c3.17,10.64.18,22.77.18,22.77L161,205a39.6,39.6,0,0,0-2.35-14.64c-2.75-6.94-4.3-10-4.3-10Z"/><path class="cls-34" d="M101.82,204.26s.15-14.25,12.62-18c14.94-4.45,29.93,9.07,32.37,20.54s2.14,23-11.84,27.64C135,234.48,108.35,241.76,101.82,204.26Z"/><path class="cls-35" d="M102.44,205.81s.14-14.25,12.62-18c14.94-4.45,29.93,9.07,32.37,20.54s2.14,23-11.84,27.64C135.59,236,109,243.31,102.44,205.81Z"/><path class="cls-36" d="M153,184.56a3.13,3.13,0,0,1-2.48-.87c-4.37-3.23-11.25-14.29-13.2-21-.76-2.6-.78-4.54.38-5.12,1.9-.94,8,4.59,12.74,13.47C153.26,176.22,155.81,183.73,153,184.56Z"/><path class="cls-37" d="M150.56,183.69c-4.37-3.23-11.25-14.29-13.2-21,2.71,2,6.55,6.43,9.8,12.47A38,38,0,0,1,150.56,183.69Z"/><path class="cls-38" d="M135.81,152.49s-16.22,12.32-23.46,13.62c-7,1.26-5.7-3.58-5.61-3.85v0a26.69,26.69,0,0,1,13.72-12.87C125.6,147.14,130.85,148.68,135.81,152.49Z"/><path class="cls-39" d="M103.67,204.14c3,3,8.59-3.66,17.64-5.25s15.13,1.63,17.28-.39-9.68-12.74-23.28-9.26C104.45,192,102.67,203.11,103.67,204.14Z"/><path class="cls-40" d="M123.15,233.78a16,16,0,0,0,10.92,1c6.14-1.6,7.28-5.14,7.28-5.14a13.25,13.25,0,0,0-7.08,1.74A19.79,19.79,0,0,1,123.15,233.78Z"/><path class="cls-31" d="M127.25,166.67c-1,.35.17,11.23,1.13,11.32s1.45-2.45,1.28-6.08S128.27,166.34,127.25,166.67Z"/><path class="cls-41" d="M201.73,199c1.65,6.91-4.82,11.58-7.66,11.36-2.47-.19-10.64-3-21.39-10.58l0,0c-1.58-1.11-3.21-2.34-4.89-3.67C154.62,185.69,136,163.18,141.89,161c0,0,0,0,0,0C159,154.64,200.07,192.13,201.73,199Z"/><path class="cls-42" d="M188.56,208.76s-3.1-5.42.52-10.13,12-1.1,12-1.1a7.1,7.1,0,0,1-2.74,9.93C191.94,211.38,188.56,208.76,188.56,208.76Z"/><path class="cls-43" d="M201.73,199c1.65,6.91-4.82,11.58-7.66,11.36-2.47-.19-10.64-3-21.39-10.58,1,.6,8.09,4.89,11.12,3.09,3.25-1.94,4.14-14.7-13.47-29.88-17.05-14.73-27.76-12.2-28.42-12C159,154.64,200.07,192.13,201.73,199Z"/><path class="cls-44" d="M191.62,200.84c2.26-2.33,7.79-2.7,10.57-1.4s11.92,8.28,16.86,21.39c0,0-.86,7.72-6.07,9.24-4,1.15-10.85-8.58-16.1-15.29S187.89,204.67,191.62,200.84Z"/><path class="cls-45" d="M213.82,230s-12.47-24.76-24.42-22.85c0,0,2.25,3.89,9.49,11.67S211.27,230.75,213.82,230Z"/><path class="cls-46" d="M205.42,217.35s.18,4.88-.94,6.54a4.74,4.74,0,0,1-2.72,2L200,211.75S203.92,215,205.42,217.35Z"/><path class="cls-47" d="M200,211.75s-5.73-5.17-10.5-3.93c0,0-.92,5.89,9.64,18.32,0,0,3.76,1.1,4.58-3.4A40.7,40.7,0,0,0,200,211.75Z"/><path class="cls-31" d="M196.29,211.16c1.24-.92,3.44,6,2.69,6.35S195.25,211.93,196.29,211.16Z"/><path class="cls-31" d="M157.69,180.93c-1.52,2.76,3.32,4.82,4.59,4.4S158.72,179.05,157.69,180.93Z"/><path class="cls-31" d="M163.29,186.35c-.46.35,1.5,2.09,2,2.38.9.56,2.73.81,2.82.47S163.81,186,163.29,186.35Z"/><path class="cls-31" d="M80.91,180c.25.79,5.69-1.66,5.7-4S80.56,178.87,80.91,180Z"/><path class="cls-48" d="M178.62,254.51c-1,1-2.78.94-5.07.23a42,42,0,0,1-8.81-4.37h0l0,0c-8.94-5.54-18.75-14.11-19.28-16.61-1.8-8.66,7-19.77,12.54-25.27,2.18-2.15,3.88-3.43,4.27-3.39C163.61,205.23,183.57,249.55,178.62,254.51Z"/><path class="cls-49" d="M178.62,254.51c-1,1-2.78.94-5.07.23l-8.81-4.37c.83.36,10.29,4.14,7.09-9.5-3.34-14.26-14.22-31.31-14.22-31.31l.33-1.1c2.18-2.15,3.88-3.43,4.27-3.39C163.61,205.23,183.57,249.55,178.62,254.51Z"/><path class="cls-31" d="M152.37,230.83c-2.1,1.3,3.12,5.72,3.72,5.75s.2-2.46-.79-4C154.43,231.21,153.1,230.38,152.37,230.83Z"/><path class="cls-31" d="M156.84,237.05c-.31.5,1.32,1.87,1.56,1.38a1.52,1.52,0,0,0-.5-1.57A.93.93,0,0,0,156.84,237.05Z"/><path class="cls-31" d="M54,190.9c.06.93,6.65-2.12,6.65-3.23S53.87,189.32,54,190.9Z"/><path class="cls-50" d="M41,202.4a11.23,11.23,0,0,0,1.25,4.26s3.2,2.2,9.48,2,19.16-6.82,20.95-8,2.73-4.86,2.73-4.86Z"/><path class="cls-51" d="M74.86,189c-3.17-1.28-11.33.47-16.33,2.31S45.37,198.82,41,202.4c0,0,.09,3.4,6.63,4.2s24.1-6.6,27-9.82S74.86,189,74.86,189Z"/><path class="cls-52" d="M52.23,194.54S63.32,193,69,188.8C69,188.8,59.44,188.39,52.23,194.54Z"/><path class="cls-53" d="M67.31,189s-6.5,3.76-13.37,4.05c0,0-7,.09-7.35-.72s-.61-3.87,1.18-4.64S61.61,185.59,67.31,189Z"/><path class="cls-54" d="M53.28,194.37a49.12,49.12,0,0,1,17.27,5.16l1-.58S65.11,194.38,53.28,194.37Z"/><path class="cls-31" d="M53,204.18a15.62,15.62,0,0,1,7.62-2S55.34,204.6,53,204.18Z"/></g></g></svg>