<svg xmlns="http://www.w3.org/2000/svg" xmlns:xlink="http://www.w3.org/1999/xlink" viewBox="0 0 260 260"><defs><style>.cls-1{isolation:isolate;}.cls-2{fill:url(#_ÂÁ_Ï_ÌÌ_È_ËÂÌÚ_46);}.cls-3{fill:url(#_ÂÁ_Ï_ÌÌ_È_ËÂÌÚ_5);}.cls-4{fill:url(#_ÂÁ_Ï_ÌÌ_È_ËÂÌÚ_46-2);}.cls-5{fill:url(#_ÂÁ_Ï_ÌÌ_È_ËÂÌÚ_5-2);}.cls-10,.cls-14,.cls-24,.cls-6,.cls-7{opacity:0.3;}.cls-10,.cls-14,.cls-24,.cls-26,.cls-28,.cls-44,.cls-6,.cls-7{mix-blend-mode:multiply;}.cls-6{fill:url(#_ÂÁ_Ï_ÌÌ_È_ËÂÌÚ_153);}.cls-7{fill:url(#_ÂÁ_Ï_ÌÌ_È_ËÂÌÚ_153-2);}.cls-8{fill:url(#_ÂÁ_Ï_ÌÌ_È_ËÂÌÚ_46-3);}.cls-9{fill:url(#_ÂÁ_Ï_ÌÌ_È_ËÂÌÚ_28);}.cls-10{fill:url(#_ÂÁ_Ï_ÌÌ_È_ËÂÌÚ_153-3);}.cls-11{fill:#fff;}.cls-12{fill:url(#_ÂÁ_Ï_ÌÌ_È_ËÂÌÚ_46-4);}.cls-13{fill:url(#_ÂÁ_Ï_ÌÌ_È_ËÂÌÚ_28-2);}.cls-14{fill:url(#_ÂÁ_Ï_ÌÌ_È_ËÂÌÚ_153-4);}.cls-15{fill:url(#_ÂÁ_Ï_ÌÌ_È_ËÂÌÚ_264);}.cls-16{fill:url(#_ÂÁ_Ï_ÌÌ_È_ËÂÌÚ_28-3);}.cls-17{fill:url(#_ÂÁ_Ï_ÌÌ_È_ËÂÌÚ_264-2);}.cls-18{fill:url(#_ÂÁ_Ï_ÌÌ_È_ËÂÌÚ_28-4);}.cls-19{fill:url(#_ÂÁ_Ï_ÌÌ_È_ËÂÌÚ_17);}.cls-20{fill:url(#_ÂÁ_Ï_ÌÌ_È_ËÂÌÚ_17-2);}.cls-21{fill:url(#_ÂÁ_Ï_ÌÌ_È_ËÂÌÚ_46-5);}.cls-22{fill:#dee1f2;}.cls-23{fill:url(#_ÂÁ_Ï_ÌÌ_È_ËÂÌÚ_132);}.cls-24{fill:url(#_ÂÁ_Ï_ÌÌ_È_ËÂÌÚ_153-5);}.cls-25{fill:url(#_ÂÁ_Ï_ÌÌ_È_ËÂÌÚ_5-3);}.cls-26,.cls-28,.cls-34,.cls-35,.cls-44{opacity:0.5;}.cls-26{fill:url(#_ÂÁ_Ï_ÌÌ_È_ËÂÌÚ_416);}.cls-27{fill:url(#_ÂÁ_Ï_ÌÌ_È_ËÂÌÚ_6);}.cls-28{fill:url(#_ÂÁ_Ï_ÌÌ_È_ËÂÌÚ_416-2);}.cls-29{fill:url(#_ÂÁ_Ï_ÌÌ_È_ËÂÌÚ_17-3);}.cls-30{fill:url(#_ÂÁ_Ï_ÌÌ_È_ËÂÌÚ_17-4);}.cls-31{fill:#2f94cd;}.cls-32{fill:url(#_ÂÁ_Ï_ÌÌ_È_ËÂÌÚ_28-5);}.cls-33{fill:url(#_ÂÁ_Ï_ÌÌ_È_ËÂÌÚ_4);}.cls-34,.cls-35,.cls-37,.cls-38,.cls-39,.cls-45{mix-blend-mode:screen;}.cls-34{fill:url(#_ÂÁ_Ï_ÌÌ_È_ËÂÌÚ_54);}.cls-35{fill:url(#_ÂÁ_Ï_ÌÌ_È_ËÂÌÚ_54-2);}.cls-36{fill:url(#_ÂÁ_Ï_ÌÌ_È_ËÂÌÚ_65);}.cls-37{opacity:0.2;fill:url(#_ÂÁ_Ï_ÌÌ_È_ËÂÌÚ_2);}.cls-38,.cls-39,.cls-45{opacity:0.72;}.cls-38{fill:url(#_ÂÁ_Ï_ÌÌ_È_ËÂÌÚ_134);}.cls-39{fill:url(#_ÂÁ_Ï_ÌÌ_È_ËÂÌÚ_143);}.cls-40{fill:url(#_ÂÁ_Ï_ÌÌ_È_ËÂÌÚ_46-6);}.cls-41{fill:url(#_ÂÁ_Ï_ÌÌ_È_ËÂÌÚ_46-7);}.cls-42{fill:url(#_ÂÁ_Ï_ÌÌ_È_ËÂÌÚ_28-6);}.cls-43{fill:url(#_ÂÁ_Ï_ÌÌ_È_ËÂÌÚ_91);}.cls-44{fill:url(#_ÂÁ_Ï_ÌÌ_È_ËÂÌÚ_416-3);}.cls-45{fill:url(#_ÂÁ_Ï_ÌÌ_È_ËÂÌÚ_134-2);}</style><linearGradient id="_ÂÁ_Ï_ÌÌ_È_ËÂÌÚ_46" x1="104.48" y1="223.08" x2="113.25" y2="153.21" gradientUnits="userSpaceOnUse"><stop offset="0" stop-color="#c9bede"/><stop offset="1" stop-color="#e6daec"/></linearGradient><linearGradient id="_ÂÁ_Ï_ÌÌ_È_ËÂÌÚ_5" x1="116.06" y1="168.27" x2="109.23" y2="167.67" gradientUnits="userSpaceOnUse"><stop offset="0" stop-color="#7974b4"/><stop offset="1" stop-color="#9289c1"/></linearGradient><linearGradient id="_ÂÁ_Ï_ÌÌ_È_ËÂÌÚ_46-2" x1="167.58" y1="223.84" x2="176.51" y2="152.78" xlink:href="#_ÂÁ_Ï_ÌÌ_È_ËÂÌÚ_46"/><linearGradient id="_ÂÁ_Ï_ÌÌ_È_ËÂÌÚ_5-2" x1="-808.58" y1="166.58" x2="-815.25" y2="165.98" gradientTransform="matrix(-1, 0, 0, 1, -646.32, 0)" xlink:href="#_ÂÁ_Ï_ÌÌ_È_ËÂÌÚ_5"/><linearGradient id="_ÂÁ_Ï_ÌÌ_È_ËÂÌÚ_153" x1="172.12" y1="222.73" x2="172.12" y2="180.21" gradientUnits="userSpaceOnUse"><stop offset="0" stop-color="#9169a9"/><stop offset="1" stop-color="#cce9fb"/></linearGradient><linearGradient id="_ÂÁ_Ï_ÌÌ_È_ËÂÌÚ_153-2" x1="105.99" y1="224.71" x2="105.99" y2="174.08" xlink:href="#_ÂÁ_Ï_ÌÌ_È_ËÂÌÚ_153"/><linearGradient id="_ÂÁ_Ï_ÌÌ_È_ËÂÌÚ_46-3" x1="105.26" y1="474.26" x2="111.6" y2="423.76" gradientTransform="translate(22.4 -207.09) rotate(-3.59)" xlink:href="#_ÂÁ_Ï_ÌÌ_È_ËÂÌÚ_46"/><linearGradient id="_ÂÁ_Ï_ÌÌ_È_ËÂÌÚ_28" x1="109.99" y1="443.68" x2="109.99" y2="424.93" gradientTransform="translate(22.4 -207.09) rotate(-3.59)" gradientUnits="userSpaceOnUse"><stop offset="0" stop-color="#b39bc9"/><stop offset="1" stop-color="#9289c1"/></linearGradient><linearGradient id="_ÂÁ_Ï_ÌÌ_È_ËÂÌÚ_153-3" x1="110.07" y1="473.07" x2="110.07" y2="425.19" gradientTransform="translate(22.4 -207.09) rotate(-3.59)" xlink:href="#_ÂÁ_Ï_ÌÌ_È_ËÂÌÚ_153"/><linearGradient id="_ÂÁ_Ï_ÌÌ_È_ËÂÌÚ_46-4" x1="-979.85" y1="406.09" x2="-973.51" y2="355.59" gradientTransform="matrix(-1, -0.06, -0.06, 1, -831.33, -207.09)" xlink:href="#_ÂÁ_Ï_ÌÌ_È_ËÂÌÚ_46"/><linearGradient id="_ÂÁ_Ï_ÌÌ_È_ËÂÌÚ_28-2" x1="-975.13" y1="375.51" x2="-975.13" y2="356.77" gradientTransform="matrix(-1, -0.06, -0.06, 1, -831.33, -207.09)" xlink:href="#_ÂÁ_Ï_ÌÌ_È_ËÂÌÚ_28"/><linearGradient id="_ÂÁ_Ï_ÌÌ_È_ËÂÌÚ_153-4" x1="-975.05" y1="404.9" x2="-975.05" y2="357.02" gradientTransform="matrix(-1, -0.06, -0.06, 1, -831.33, -207.09)" xlink:href="#_ÂÁ_Ï_ÌÌ_È_ËÂÌÚ_153"/><linearGradient id="_ÂÁ_Ï_ÌÌ_È_ËÂÌÚ_264" x1="-2942.92" y1="100.74" x2="-2942.92" y2="61.81" gradientTransform="matrix(-1, 0, 0, 1, -2842.52, 0)" gradientUnits="userSpaceOnUse"><stop offset="0" stop-color="#b5a9d3"/><stop offset="1" stop-color="#dfcfe7"/></linearGradient><linearGradient id="_ÂÁ_Ï_ÌÌ_È_ËÂÌÚ_28-3" x1="97.62" y1="86.03" x2="97.62" y2="61.81" gradientTransform="matrix(1, 0, 0, 1, 0, 0)" xlink:href="#_ÂÁ_Ï_ÌÌ_È_ËÂÌÚ_28"/><linearGradient id="_ÂÁ_Ï_ÌÌ_È_ËÂÌÚ_264-2" x1="180.71" y1="100.74" x2="180.71" y2="61.81" gradientTransform="matrix(1, 0, 0, 1, 0, 0)" xlink:href="#_ÂÁ_Ï_ÌÌ_È_ËÂÌÚ_264"/><linearGradient id="_ÂÁ_Ï_ÌÌ_È_ËÂÌÚ_28-4" x1="183.53" y1="82.97" x2="183.53" y2="61.8" gradientTransform="matrix(1, 0, 0, 1, 0, 0)" xlink:href="#_ÂÁ_Ï_ÌÌ_È_ËÂÌÚ_28"/><linearGradient id="_ÂÁ_Ï_ÌÌ_È_ËÂÌÚ_17" x1="188.8" y1="102.6" x2="188.8" y2="64.35" gradientUnits="userSpaceOnUse"><stop offset="0" stop-color="#79c3b0"/><stop offset="1" stop-color="#60c4e5"/></linearGradient><linearGradient id="_ÂÁ_Ï_ÌÌ_È_ËÂÌÚ_17-2" x1="-2934.83" y1="102.6" x2="-2934.83" y2="64.35" gradientTransform="matrix(-1, 0, 0, 1, -2842.52, 0)" xlink:href="#_ÂÁ_Ï_ÌÌ_È_ËÂÌÚ_17"/><linearGradient id="_ÂÁ_Ï_ÌÌ_È_ËÂÌÚ_46-5" x1="136.36" y1="155.96" x2="148.73" y2="57.41" xlink:href="#_ÂÁ_Ï_ÌÌ_È_ËÂÌÚ_46"/><linearGradient id="_ÂÁ_Ï_ÌÌ_È_ËÂÌÚ_132" x1="140.4" y1="128.94" x2="140.4" y2="59.99" gradientUnits="userSpaceOnUse"><stop offset="0" stop-color="#1e64ae"/><stop offset="1" stop-color="#292f6b"/></linearGradient><linearGradient id="_ÂÁ_Ï_ÌÌ_È_ËÂÌÚ_153-5" x1="140.73" y1="155.05" x2="140.73" y2="96.31" xlink:href="#_ÂÁ_Ï_ÌÌ_È_ËÂÌÚ_153"/><linearGradient id="_ÂÁ_Ï_ÌÌ_È_ËÂÌÚ_5-3" x1="101.14" y1="147.41" x2="177.69" y2="147.41" xlink:href="#_ÂÁ_Ï_ÌÌ_È_ËÂÌÚ_5"/><linearGradient id="_ÂÁ_Ï_ÌÌ_È_ËÂÌÚ_416" x1="139.42" y1="150.82" x2="139.42" y2="139.79" gradientUnits="userSpaceOnUse"><stop offset="0" stop-color="#8ea1d3"/><stop offset="1" stop-color="#6e5ba3"/></linearGradient><linearGradient id="_ÂÁ_Ï_ÌÌ_È_ËÂÌÚ_6" x1="139.11" y1="149.26" x2="140.55" y2="137.82" gradientUnits="userSpaceOnUse"><stop offset="0" stop-color="#4f4695"/><stop offset="1" stop-color="#6c4b96"/></linearGradient><linearGradient id="_ÂÁ_Ï_ÌÌ_È_ËÂÌÚ_416-2" x1="100.23" y1="141.43" x2="100.23" y2="125.95" xlink:href="#_ÂÁ_Ï_ÌÌ_È_ËÂÌÚ_416"/><linearGradient id="_ÂÁ_Ï_ÌÌ_È_ËÂÌÚ_17-3" x1="162.74" y1="97.91" x2="162.74" y2="77.78" xlink:href="#_ÂÁ_Ï_ÌÌ_È_ËÂÌÚ_17"/><linearGradient id="_ÂÁ_Ï_ÌÌ_È_ËÂÌÚ_17-4" x1="-2858.35" y1="97.98" x2="-2858.35" y2="77.77" gradientTransform="matrix(-1, 0, 0, 1, -2740.02, 0)" xlink:href="#_ÂÁ_Ï_ÌÌ_È_ËÂÌÚ_17"/><linearGradient id="_ÂÁ_Ï_ÌÌ_È_ËÂÌÚ_28-5" x1="79.22" y1="131.31" x2="84.89" y2="86.14" gradientTransform="matrix(1, 0, 0, 1, 0, 0)" xlink:href="#_ÂÁ_Ï_ÌÌ_È_ËÂÌÚ_28"/><linearGradient id="_ÂÁ_Ï_ÌÌ_È_ËÂÌÚ_4" x1="63.38" y1="-208.64" x2="63.38" y2="-221.37" gradientTransform="matrix(0.97, 0.23, -0.23, 0.97, -8.27, 320.14)" gradientUnits="userSpaceOnUse"><stop offset="0" stop-color="#d32c87"/><stop offset="1" stop-color="#e6287e"/></linearGradient><linearGradient id="_ÂÁ_Ï_ÌÌ_È_ËÂÌÚ_54" x1="106.91" y1="76.21" x2="177.46" y2="76.21" gradientUnits="userSpaceOnUse"><stop offset="0"/><stop offset="1" stop-color="#7192cb"/></linearGradient><linearGradient id="_ÂÁ_Ï_ÌÌ_È_ËÂÌÚ_54-2" x1="116.89" y1="122.64" x2="167.02" y2="122.64" xlink:href="#_ÂÁ_Ï_ÌÌ_È_ËÂÌÚ_54"/><linearGradient id="_ÂÁ_Ï_ÌÌ_È_ËÂÌÚ_65" x1="102.03" y1="125.41" x2="102.03" y2="120.01" gradientUnits="userSpaceOnUse"><stop offset="0" stop-color="#9d559b"/><stop offset="1" stop-color="#ea71a8"/></linearGradient><linearGradient id="_ÂÁ_Ï_ÌÌ_È_ËÂÌÚ_2" x1="96.26" y1="13.03" x2="96.26" y2="-12.54" gradientTransform="translate(4.96 95.1) rotate(3.92)" gradientUnits="userSpaceOnUse"><stop offset="0"/><stop offset="1" stop-color="#5fc3e4"/></linearGradient><linearGradient id="_ÂÁ_Ï_ÌÌ_È_ËÂÌÚ_134" x1="182.72" y1="73.92" x2="192.67" y2="73.92" gradientUnits="userSpaceOnUse"><stop offset="0"/><stop offset="1" stop-color="#d4dff3"/></linearGradient><linearGradient id="_ÂÁ_Ï_ÌÌ_È_ËÂÌÚ_143" x1="87.25" y1="72.38" x2="98.21" y2="72.38" gradientUnits="userSpaceOnUse"><stop offset="0" stop-color="#d4dff3"/><stop offset="1"/></linearGradient><linearGradient id="_ÂÁ_Ï_ÌÌ_È_ËÂÌÚ_46-6" x1="77.85" y1="75.91" x2="77.85" y2="63.27" gradientTransform="matrix(1, 0.02, -0.02, 1, 1.73, 23.59)" xlink:href="#_ÂÁ_Ï_ÌÌ_È_ËÂÌÚ_46"/><linearGradient id="_ÂÁ_Ï_ÌÌ_È_ËÂÌÚ_46-7" x1="134.93" y1="227.87" x2="145.69" y2="142.25" xlink:href="#_ÂÁ_Ï_ÌÌ_È_ËÂÌÚ_46"/><linearGradient id="_ÂÁ_Ï_ÌÌ_È_ËÂÌÚ_28-6" x1="138.65" y1="226.61" x2="138.65" y2="172.36" gradientTransform="matrix(1, 0, 0, 1, 0, 0)" xlink:href="#_ÂÁ_Ï_ÌÌ_È_ËÂÌÚ_28"/><radialGradient id="_ÂÁ_Ï_ÌÌ_È_ËÂÌÚ_91" cx="139.73" cy="219.6" r="41.4" xlink:href="#_ÂÁ_Ï_ÌÌ_È_ËÂÌÚ_17"/><linearGradient id="_ÂÁ_Ï_ÌÌ_È_ËÂÌÚ_416-3" x1="138.12" y1="158.4" x2="138.12" y2="141.61" xlink:href="#_ÂÁ_Ï_ÌÌ_È_ËÂÌÚ_416"/><linearGradient id="_ÂÁ_Ï_ÌÌ_È_ËÂÌÚ_134-2" x1="116.69" y1="187.2" x2="163.87" y2="187.2" xlink:href="#_ÂÁ_Ï_ÌÌ_È_ËÂÌÚ_134"/></defs><title>CUDI-5-sprites</title><g class="cls-1"><g id="Capa_1" data-name="Capa 1"><path class="cls-2" d="M119.6,225c-.63,0-1.29-.13-2-.24-11.66-1.89-28.49-13.18-24.27-34.65q.26-1.31.63-2.61c.1-.44.19-.76.23-.89a.25.25,0,0,1,0-.09c4.91-16.58,20.42-33.09,20.42-33.09,2.92,3.23,2.47,9.18,1.17,14.59h0a59,59,0,0,1-2.22,7.16c-1,2.62-1.79,4.36-1.79,4.36-3.45,8.44-2.72,18.94-2.72,18.94l10.2,25.79Z"/><path class="cls-3" d="M114.67,153.38s-8.06,13.71-5.58,29a64.7,64.7,0,0,0,6.22-14.09C117.43,160.88,117.22,155.34,114.67,153.38Z"/><path class="cls-4" d="M158.67,222.73l8.3-25.47a43.56,43.56,0,0,0,.93-14.14,22,22,0,0,0-1.44-5.84,68.29,68.29,0,0,1-4-11.52h0c-1.3-5.42-1.75-11.37,1.17-14.59,0,0,15.24,16.24,20.28,32.67a35.26,35.26,0,0,1,1,4C189.38,210.54,170.28,221.87,158.67,222.73Z"/><path class="cls-5" d="M163.6,151.16s8.52,14.52,4.93,30.16A136.77,136.77,0,0,1,163,166.11C160.83,158.66,161.05,153.12,163.6,151.16Z"/><path class="cls-6" d="M158.67,222.73l8.3-25.47a43.56,43.56,0,0,0,.93-14.14l1.28-2.91s.53,17.49,6,22.17c6.74,5.77,10.63-7.66,8.71-18.55a35.26,35.26,0,0,1,1,4C189.38,210.54,170.28,221.87,158.67,222.73Z"/><path class="cls-7" d="M119.29,224.23l-1.66.48c-11.66-1.89-28.49-13.18-24.27-34.65q.26-1.31.63-2.61c-.5,2.22-1.07,13.52,3,17.79,5.18,5.46,10.87-13.7,12.13-27.38.39-4.32,2.21-4.5,4.51-2.72-1,2.62-1.79,4.36-1.79,4.36-3.45,8.44-2.72,18.94-2.72,18.94Z"/><path class="cls-8" d="M172.17,219.16c0,.72-.09,1.48-.15,2.26-.84,11.92-3,29.47-6.17,36-.74,1.57-1.55,2.5-2.39,2.57a2,2,0,0,1-.69-.06,5.82,5.82,0,0,1-2.61-1.68h0c-5.73-5.67-12.92-23.52-13.47-29a2.41,2.41,0,0,1,.12-1.4c2.78-4.33,24-19.84,25.32-18.23C172.48,210.09,172.48,213.86,172.17,219.16Z"/><path class="cls-9" d="M146.69,229.29c-.57,1.69,22.58-3.57,25.43-19.63a5.09,5.09,0,0,0-3.47,0C162.66,211.49,150.66,217.45,146.69,229.29Z"/><path class="cls-10" d="M172.17,219.16S159.61,223.75,157,230s-.56,20.59,3.12,28.24c-5.73-5.67-12.92-23.52-13.47-29a2.41,2.41,0,0,1,.12-1.4c2.78-4.33,24-19.84,25.32-18.23C172.48,210.09,172.48,213.86,172.17,219.16Z"/><path class="cls-11" d="M159,248.7c1,.25,1.9,3.89.33,4.39S156.77,248.13,159,248.7Z"/><path class="cls-12" d="M106.12,219.16c0,.72.09,1.48.14,2.26.85,11.92,3,29.47,6.17,36,.75,1.57,1.55,2.5,2.4,2.57a2.06,2.06,0,0,0,.69-.06,5.82,5.82,0,0,0,2.61-1.68h0c5.72-5.67,12.91-23.52,13.47-29a2.5,2.5,0,0,0-.12-1.4c-2.79-4.33-24-19.84-25.32-18.23C105.81,210.09,105.81,213.86,106.12,219.16Z"/><path class="cls-13" d="M131.6,229.29c.56,1.69-22.59-3.57-25.44-19.63,0,0,.92-.67,3.08,0C115.26,211.52,127.65,217.52,131.6,229.29Z"/><path class="cls-14" d="M106.12,219.16s12.55,4.59,15.13,10.84.56,20.59-3.12,28.24c5.72-5.67,12.91-23.52,13.47-29a2.5,2.5,0,0,0-.12-1.4c-2.79-4.33-24-19.84-25.32-18.23C105.81,210.09,105.81,213.86,106.12,219.16Z"/><path class="cls-11" d="M120.5,241.61c-1,.25-3.13,11-1.55,11.48S122.74,241,120.5,241.61Z"/><path class="cls-15" d="M111.5,68.92s-7-6.06-15.62-7.11c0,0-2.63,1.28-5.67,10.75s2.57,28.18,2.57,28.18Z"/><path class="cls-16" d="M92.55,66.53a14.21,14.21,0,0,1,3.33-4.72s7.07,6.52,6.8,22.11l-2,2.11Z"/><path class="cls-17" d="M169.61,68.92s7-6.06,15.62-7.11c0,0,2.63,1.28,5.67,10.75s-2.57,28.18-2.57,28.18Z"/><path class="cls-18" d="M185.23,61.81a30.33,30.33,0,0,0-7,19.46L181,83l7.84-16.22S186.2,61.66,185.23,61.81Z"/><path class="cls-19" d="M180.71,82.15s-1.85-10.26,4.9-17.8c0,0,7.63,3.59,10.78,16.92s-5.06,21.33-5.06,21.33Z"/><path class="cls-20" d="M100.4,82.15s1.85-10.26-4.9-17.8c0,0-7.63,3.59-10.78,16.92s5.06,21.33,5.06,21.33Z"/><path class="cls-21" d="M190.08,138.85c-15.67,22-89.32,20.35-98.9,2.58-6.26-11.61-5.58-29.06.45-45.11,7.9-21.08,25-39.78,47.71-39.78,26.71,0,47.23,26.61,53.41,50.92C195.88,119.76,195.35,131.47,190.08,138.85Z"/><path class="cls-22" d="M96.67,118.47c3.51,15,68.24,16.6,84.14,3s-7-61.74-42.07-59.64C106.66,63.79,90.93,94,96.67,118.47Z"/><path class="cls-23" d="M96.34,116.66c3.5,15,68.24,16.59,84.14,3s-7-61.74-42.07-59.64C106.33,62,90.59,92.14,96.34,116.66Z"/><path class="cls-24" d="M190.08,138.85c-15.67,22-89.32,20.35-98.9,2.58-6.26-11.61-5.58-29.06.45-45.11h0c-.26.94-6.43,23.45-.13,33.35,6.44,10.13,31.93,8.72,59.29,7.56s36.41-5.15,41-12.87c3.62-6.07,0-19.47-1.73-24.9l2.68,8C195.88,119.76,195.35,131.47,190.08,138.85Z"/><path class="cls-25" d="M169.59,150.62A120.45,120.45,0,0,1,139.42,155c-15.3,0-26.33-1.74-32.51-4.21h0c-4.05-1.61-6-3.56-5.73-5.54.18-1.22,3.18-2.28,7.92-3.15,13.9-2.51,42.67-3.28,58.18-.93,1.32.2,2.57.43,3.69.67l.69.17.13,0c2.67.65,4.57,1.46,5.41,2.43a2.17,2.17,0,0,1,.44.77C178.18,147.16,174.78,149,169.59,150.62Z"/><path class="cls-26" d="M169.59,150.62c-3.38-1.49-24.88-10.46-42.29-6.57-18.94,4.26-20.39,6.77-20.39,6.77h0c-4.05-1.61-6-3.56-5.73-5.54.18-1.22,3.18-2.28,7.92-3.15,13.9-2.51,42.67-3.28,58.18-.93,1.62.29,3.09.57,4.38.84l.13,0c2.67.65,4.57,1.46,5.41,2.43a2.17,2.17,0,0,1,.44.77C178.18,147.16,174.78,149,169.59,150.62Z"/><path class="cls-27" d="M171,141.88c-3.62,3.46-21,6.45-30.87,6.44-17.73,0-28.51-2.82-31-6.19C124.18,139.4,156.83,138.73,171,141.88Z"/><path class="cls-28" d="M91.18,141.43a30,30,0,0,1,9.21-6.55c6.1-2.93,11.71-5.22,12.57-7.56s-16.73-1-16.73-1l-8.76,3.8S88.84,137.22,91.18,141.43Z"/><path class="cls-29" d="M153.21,94.46c2.34,4.12,16.45,5,19.43,0,1.76-3-4.77-17.57-13-16.64S152.07,92.47,153.21,94.46Z"/><path class="cls-30" d="M127.82,94.3c-2.34,4.12-18.73,5.28-19.38.88-1-7.05,4.12-18.29,12.3-17.36S129,92.3,127.82,94.3Z"/><path class="cls-31" d="M129.53,102.38s3,.81,11.52.81,12.89-1.29,12.89-1.29S150.19,107,141.05,107,129.53,102.38,129.53,102.38Z"/><path class="cls-32" d="M84,86s4.54,2.92,1.56,9.69c0,0-21.22,11.56-20,24.15,1,10.51,30.34,5.42,30.34,5.42l1,3.51s-24.9,4.87-33.49-1c0,0-2.93-6.94,4.32-19.45A145.45,145.45,0,0,1,84,86Z"/><path class="cls-33" d="M92.2,124.31c-2.67,3,3,6.33,7.66,6.84,5.23.57,14.52-1.5,14-6.77S98.46,117.23,92.2,124.31Z"/><path class="cls-34" d="M107,78.82c-.81,4.84,10,4.63,24.67,4.15,17.65-.59,35.39,14.61,45.71,3.7,1.7-1.8-15.2-25.4-35.6-24.87S107.66,74.61,107,78.82Z"/><path class="cls-35" d="M117,121c-.94,3.52,6.41,7,24.49,6.15,21.85-1.07,26.49-5.65,25.41-6.92-.64-.76-7.19,3.36-25.13-.57C129.89,117.09,118,117.34,117,121Z"/><path class="cls-11" d="M151.84,59.64c-1.55.36,11.47,7.25,12,6.43S156.13,58.64,151.84,59.64Z"/><path class="cls-11" d="M176.78,64.79c-1.29.7-1.19,2.1,1.5,1.75s4.14-2.45,3.85-2.86S178.24,64,176.78,64.79Z"/><path class="cls-36" d="M92.55,124.87c-.16.86,18.51,1.07,19-2.23S93.78,118.21,92.55,124.87Z"/><path class="cls-37" d="M97.14,111.73a47.47,47.47,0,0,1,.14-11.94C98.17,93,100,88.54,101.1,89.16s.93,7.32,1.58,13.92c.5,5.13,1.49,10,1.49,10S99.44,117.55,97.14,111.73Z"/><path class="cls-38" d="M191.43,70.38s-2.48-3.06-5.85-2.25S182,79.57,184,79.83,186.88,74,188.42,73s4.25-.59,4.25-.59Z"/><path class="cls-39" d="M87.25,74.07s1.3-1.47,4.22-1,4.61,6.48,6.1,5.88S98,68.63,94,65.77C94,65.77,88.92,70.12,87.25,74.07Z"/><path class="cls-40" d="M83.28,88.22s-10.34,11.62-9.71,12.44S83.9,89.42,83.28,88.22Z"/><path class="cls-41" d="M169.08,207c-2.14,12.63-13.44,21-29.65,21-14.1,0-26.05-5.25-29.21-16.83s-1.93-33,2.28-46.3a44.9,44.9,0,0,1,2.26-5.73v0a40.4,40.4,0,0,1,2.67-4.69,0,0,0,0,0,0,0c5.14-7.74,12.68-12.81,21.19-12.81a25.83,25.83,0,0,1,20.27,9,29.38,29.38,0,0,1,5,8.46,84.86,84.86,0,0,1,3.48,11.16.89.89,0,0,0,0,.11A94.58,94.58,0,0,1,169.08,207Z"/><path class="cls-42" d="M110.83,199.48c2.41-16.94,16-28.42,31.09-27,16.28,1.54,25,17.07,24.79,30.4s-10,23.73-27.43,23.73S108.57,215.33,110.83,199.48Z"/><path class="cls-43" d="M111,200.89c2.41-16.95,16-28.43,31.1-27,16.27,1.53,25,17.06,24.78,30.39S156.89,228,139.43,228,108.72,216.73,111,200.89Z"/><path class="cls-44" d="M158.91,150.66c-3.45,5.41-22.45,8.56-33.43,7.56-9.57-.87-8.11-3.46-8-3.78a0,0,0,0,0,0,0c5.14-7.74,12.68-12.81,21.19-12.81A25.83,25.83,0,0,1,158.91,150.66Z"/><path class="cls-11" d="M152.16,160c-.88.29-.93,7.42,0,8.56s2.41.8,2.9-.88S153.5,159.6,152.16,160Z"/><path class="cls-11" d="M153.79,170.5c-.74.18-.82,1.94-.48,2.56a1.09,1.09,0,0,0,1.83-.26C155.35,172.05,154.53,170.32,153.79,170.5Z"/><path class="cls-45" d="M116.75,190.14c2.87,4.57,14.67,2.14,28,3.43s15.58,5.63,18.38,4.75-1.63-20.9-21.5-22.26S116,189,116.75,190.14Z"/><path class="cls-11" d="M100.32,178.79c-1.51-.44-3.86,6.27-3.74,7.12s2.88-1.75,3.53-2.87C101,181.55,101.82,179.21,100.32,178.79Z"/><path class="cls-11" d="M171.32,174.93c-.73,0-.87,3.73-.66,5.27a4.21,4.21,0,0,0,1.92,3C173,183.23,173,174.94,171.32,174.93Z"/></g></g></svg>