<svg xmlns="http://www.w3.org/2000/svg" xmlns:xlink="http://www.w3.org/1999/xlink" viewBox="0 0 260 260"><defs><style>.cls-1{isolation:isolate;}.cls-2{fill:url(#_ÂÁ_Ï_ÌÌ_È_ËÂÌÚ_46);}.cls-3{fill:url(#_ÂÁ_Ï_ÌÌ_È_ËÂÌÚ_28);}.cls-18,.cls-27,.cls-34,.cls-4,.cls-43,.cls-53,.cls-8{opacity:0.3;}.cls-18,.cls-20,.cls-22,.cls-27,.cls-34,.cls-38,.cls-4,.cls-43,.cls-47,.cls-53,.cls-56,.cls-8{mix-blend-mode:multiply;}.cls-4{fill:url(#_ÂÁ_Ï_ÌÌ_È_ËÂÌÚ_153);}.cls-5{fill:url(#_ÂÁ_Ï_ÌÌ_È_ËÂÌÚ_46-2);}.cls-6{fill:url(#_ÂÁ_Ï_ÌÌ_È_ËÂÌÚ_28-2);}.cls-7{fill:#fff;}.cls-8{fill:url(#_ÂÁ_Ï_ÌÌ_È_ËÂÌÚ_153-2);}.cls-9{fill:url(#_ÂÁ_Ï_ÌÌ_È_ËÂÌÚ_264);}.cls-10{fill:url(#_ÂÁ_Ï_ÌÌ_È_ËÂÌÚ_28-3);}.cls-11{fill:url(#_ÂÁ_Ï_ÌÌ_È_ËÂÌÚ_264-2);}.cls-12{fill:url(#_ÂÁ_Ï_ÌÌ_È_ËÂÌÚ_28-4);}.cls-13{fill:url(#_ÂÁ_Ï_ÌÌ_È_ËÂÌÚ_4);}.cls-14{fill:url(#_ÂÁ_Ï_ÌÌ_È_ËÂÌÚ_4-2);}.cls-15{fill:url(#_ÂÁ_Ï_ÌÌ_È_ËÂÌÚ_46-3);}.cls-16{fill:#dee1f2;}.cls-17{fill:url(#_ÂÁ_Ï_ÌÌ_È_ËÂÌÚ_132);}.cls-18{fill:url(#_ÂÁ_Ï_ÌÌ_È_ËÂÌÚ_153-3);}.cls-19{fill:url(#_ÂÁ_Ï_ÌÌ_È_ËÂÌÚ_5);}.cls-20,.cls-22,.cls-25,.cls-26,.cls-38,.cls-47,.cls-56{opacity:0.5;}.cls-20{fill:url(#_ÂÁ_Ï_ÌÌ_È_ËÂÌÚ_416);}.cls-21{fill:url(#_ÂÁ_Ï_ÌÌ_È_ËÂÌÚ_6);}.cls-22{fill:url(#_ÂÁ_Ï_ÌÌ_È_ËÂÌÚ_416-2);}.cls-23{fill:url(#_ÂÁ_Ï_ÌÌ_È_ËÂÌÚ_28-5);}.cls-24{fill:url(#_ÂÁ_Ï_ÌÌ_È_ËÂÌÚ_4-3);}.cls-25,.cls-26,.cls-29,.cls-30,.cls-31,.cls-57,.cls-58{mix-blend-mode:screen;}.cls-25{fill:url(#_ÂÁ_Ï_ÌÌ_È_ËÂÌÚ_54);}.cls-26{fill:url(#_ÂÁ_Ï_ÌÌ_È_ËÂÌÚ_54-2);}.cls-27{fill:url(#_ÂÁ_Ï_ÌÌ_È_ËÂÌÚ_153-4);}.cls-28{fill:url(#_ÂÁ_Ï_ÌÌ_È_ËÂÌÚ_65);}.cls-29{opacity:0.2;fill:url(#_ÂÁ_Ï_ÌÌ_È_ËÂÌÚ_2);}.cls-30,.cls-31,.cls-57,.cls-58{opacity:0.72;}.cls-30{fill:url(#_ÂÁ_Ï_ÌÌ_È_ËÂÌÚ_134);}.cls-31{fill:url(#_ÂÁ_Ï_ÌÌ_È_ËÂÌÚ_143);}.cls-32{fill:url(#_ÂÁ_Ï_ÌÌ_È_ËÂÌÚ_46-4);}.cls-33{fill:url(#_ÂÁ_Ï_ÌÌ_È_ËÂÌÚ_46-5);}.cls-34{fill:url(#_ÂÁ_Ï_ÌÌ_È_ËÂÌÚ_153-5);}.cls-35{fill:url(#_ÂÁ_Ï_ÌÌ_È_ËÂÌÚ_28-6);}.cls-36{fill:url(#_ÂÁ_Ï_ÌÌ_È_ËÂÌÚ_46-6);}.cls-37{fill:url(#_ÂÁ_Ï_ÌÌ_È_ËÂÌÚ_28-7);}.cls-38{fill:url(#_ÂÁ_Ï_ÌÌ_È_ËÂÌÚ_416-3);}.cls-39{fill:url(#_ÂÁ_Ï_ÌÌ_È_ËÂÌÚ_46-7);}.cls-40{fill:url(#_ÂÁ_Ï_ÌÌ_È_ËÂÌÚ_28-8);}.cls-41{fill:url(#_ÂÁ_Ï_ÌÌ_È_ËÂÌÚ_5-2);}.cls-42{fill:url(#_ÂÁ_Ï_ÌÌ_È_ËÂÌÚ_46-8);}.cls-43{fill:url(#_ÂÁ_Ï_ÌÌ_È_ËÂÌÚ_153-6);}.cls-44{fill:url(#_ÂÁ_Ï_ÌÌ_È_ËÂÌÚ_28-9);}.cls-45{fill:url(#_ÂÁ_Ï_ÌÌ_È_ËÂÌÚ_46-9);}.cls-46{fill:url(#_ÂÁ_Ï_ÌÌ_È_ËÂÌÚ_28-10);}.cls-47{fill:url(#_ÂÁ_Ï_ÌÌ_È_ËÂÌÚ_416-4);}.cls-48{fill:url(#_ÂÁ_Ï_ÌÌ_È_ËÂÌÚ_46-10);}.cls-49{fill:url(#_ÂÁ_Ï_ÌÌ_È_ËÂÌÚ_28-11);}.cls-50{fill:url(#_ÂÁ_Ï_ÌÌ_È_ËÂÌÚ_5-3);}.cls-51{fill:#2f94cd;}.cls-52{fill:url(#_ÂÁ_Ï_ÌÌ_È_ËÂÌÚ_46-11);}.cls-53{fill:url(#_ÂÁ_Ï_ÌÌ_È_ËÂÌÚ_153-7);}.cls-54{fill:url(#_ÂÁ_Ï_ÌÌ_È_ËÂÌÚ_28-12);}.cls-55{fill:url(#_ÂÁ_Ï_ÌÌ_È_ËÂÌÚ_49);}.cls-56{fill:url(#_ÂÁ_Ï_ÌÌ_È_ËÂÌÚ_416-5);}.cls-57{fill:url(#_ÂÁ_Ï_ÌÌ_È_ËÂÌÚ_27);}.cls-58{fill:url(#_ÂÁ_Ï_ÌÌ_È_ËÂÌÚ_39);}.cls-59{fill:url(#_ÂÁ_Ï_ÌÌ_È_ËÂÌÚ_91);}.cls-60{fill:url(#_ÂÁ_Ï_ÌÌ_È_ËÂÌÚ_91-2);}</style><linearGradient id="_ÂÁ_Ï_ÌÌ_È_ËÂÌÚ_46" x1="-153.48" y1="423.02" x2="-147.14" y2="372.52" gradientTransform="translate(148.64 -190.96) rotate(-22.2)" gradientUnits="userSpaceOnUse"><stop offset="0" stop-color="#c9bede"/><stop offset="1" stop-color="#e6daec"/></linearGradient><linearGradient id="_ÂÁ_Ï_ÌÌ_È_ËÂÌÚ_28" x1="-148.75" y1="392.44" x2="-148.75" y2="374.09" gradientTransform="translate(148.64 -190.96) rotate(-22.2)" gradientUnits="userSpaceOnUse"><stop offset="0" stop-color="#b39bc9"/><stop offset="1" stop-color="#9289c1"/></linearGradient><linearGradient id="_ÂÁ_Ï_ÌÌ_È_ËÂÌÚ_153" x1="-148.68" y1="421.83" x2="-148.68" y2="373.95" gradientTransform="translate(148.64 -190.96) rotate(-22.2)" gradientUnits="userSpaceOnUse"><stop offset="0" stop-color="#9169a9"/><stop offset="1" stop-color="#cce9fb"/></linearGradient><linearGradient id="_ÂÁ_Ï_ÌÌ_È_ËÂÌÚ_46-2" x1="-1277.08" y1="-32.46" x2="-1270.74" y2="-82.96" gradientTransform="matrix(-0.93, -0.38, -0.38, 0.93, -1096.74, -190.96)" xlink:href="#_ÂÁ_Ï_ÌÌ_È_ËÂÌÚ_46"/><linearGradient id="_ÂÁ_Ï_ÌÌ_È_ËÂÌÚ_28-2" x1="-1272.35" y1="-63.04" x2="-1272.35" y2="-81.39" gradientTransform="matrix(-0.93, -0.38, -0.38, 0.93, -1096.74, -190.96)" xlink:href="#_ÂÁ_Ï_ÌÌ_È_ËÂÌÚ_28"/><linearGradient id="_ÂÁ_Ï_ÌÌ_È_ËÂÌÚ_153-2" x1="-1272.28" y1="-33.65" x2="-1272.28" y2="-81.53" gradientTransform="matrix(-0.93, -0.38, -0.38, 0.93, -1096.74, -190.96)" xlink:href="#_ÂÁ_Ï_ÌÌ_È_ËÂÌÚ_153"/><linearGradient id="_ÂÁ_Ï_ÌÌ_È_ËÂÌÚ_264" x1="-2082.59" y1="108.57" x2="-2082.59" y2="69.64" gradientTransform="matrix(-1, 0, 0, 1, -1992.05, 0)" gradientUnits="userSpaceOnUse"><stop offset="0" stop-color="#b5a9d3"/><stop offset="1" stop-color="#dfcfe7"/></linearGradient><linearGradient id="_ÂÁ_Ï_ÌÌ_È_ËÂÌÚ_28-3" x1="87.76" y1="93.86" x2="87.76" y2="69.64" gradientTransform="matrix(1, 0, 0, 1, 0, 0)" xlink:href="#_ÂÁ_Ï_ÌÌ_È_ËÂÌÚ_28"/><linearGradient id="_ÂÁ_Ï_ÌÌ_È_ËÂÌÚ_264-2" x1="170.85" y1="108.57" x2="170.85" y2="69.64" gradientTransform="matrix(1, 0, 0, 1, 0, 0)" xlink:href="#_ÂÁ_Ï_ÌÌ_È_ËÂÌÚ_264"/><linearGradient id="_ÂÁ_Ï_ÌÌ_È_ËÂÌÚ_28-4" x1="173.67" y1="90.8" x2="173.67" y2="69.64" gradientTransform="matrix(1, 0, 0, 1, 0, 0)" xlink:href="#_ÂÁ_Ï_ÌÌ_È_ËÂÌÚ_28"/><linearGradient id="_ÂÁ_Ï_ÌÌ_È_ËÂÌÚ_4" x1="178.93" y1="110.43" x2="178.93" y2="72.18" gradientUnits="userSpaceOnUse"><stop offset="0" stop-color="#d32c87"/><stop offset="1" stop-color="#e6287e"/></linearGradient><linearGradient id="_ÂÁ_Ï_ÌÌ_È_ËÂÌÚ_4-2" x1="-2074.5" y1="110.43" x2="-2074.5" y2="72.18" gradientTransform="matrix(-1, 0, 0, 1, -1992.05, 0)" xlink:href="#_ÂÁ_Ï_ÌÌ_È_ËÂÌÚ_4"/><linearGradient id="_ÂÁ_Ï_ÌÌ_È_ËÂÌÚ_46-3" x1="126.49" y1="163.79" x2="138.87" y2="65.24" gradientTransform="matrix(1, 0, 0, 1, 0, 0)" xlink:href="#_ÂÁ_Ï_ÌÌ_È_ËÂÌÚ_46"/><linearGradient id="_ÂÁ_Ï_ÌÌ_È_ËÂÌÚ_132" x1="130.53" y1="136.77" x2="130.53" y2="67.82" gradientUnits="userSpaceOnUse"><stop offset="0" stop-color="#1e64ae"/><stop offset="1" stop-color="#292f6b"/></linearGradient><linearGradient id="_ÂÁ_Ï_ÌÌ_È_ËÂÌÚ_153-3" x1="130.87" y1="162.88" x2="130.87" y2="104.14" gradientTransform="matrix(1, 0, 0, 1, 0, 0)" xlink:href="#_ÂÁ_Ï_ÌÌ_È_ËÂÌÚ_153"/><linearGradient id="_ÂÁ_Ï_ÌÌ_È_ËÂÌÚ_5" x1="91.28" y1="155.24" x2="167.83" y2="155.24" gradientUnits="userSpaceOnUse"><stop offset="0" stop-color="#7974b4"/><stop offset="1" stop-color="#9289c1"/></linearGradient><linearGradient id="_ÂÁ_Ï_ÌÌ_È_ËÂÌÚ_416" x1="129.44" y1="158.65" x2="129.44" y2="147.62" gradientUnits="userSpaceOnUse"><stop offset="0" stop-color="#8ea1d3"/><stop offset="1" stop-color="#6e5ba3"/></linearGradient><linearGradient id="_ÂÁ_Ï_ÌÌ_È_ËÂÌÚ_6" x1="129.25" y1="157.09" x2="130.69" y2="145.65" gradientUnits="userSpaceOnUse"><stop offset="0" stop-color="#4f4695"/><stop offset="1" stop-color="#6c4b96"/></linearGradient><linearGradient id="_ÂÁ_Ï_ÌÌ_È_ËÂÌÚ_416-2" x1="90.37" y1="149.26" x2="90.37" y2="133.78" xlink:href="#_ÂÁ_Ï_ÌÌ_È_ËÂÌÚ_416"/><linearGradient id="_ÂÁ_Ï_ÌÌ_È_ËÂÌÚ_28-5" x1="69.35" y1="139.14" x2="75.03" y2="93.97" gradientTransform="matrix(1, 0, 0, 1, 0, 0)" xlink:href="#_ÂÁ_Ï_ÌÌ_È_ËÂÌÚ_28"/><linearGradient id="_ÂÁ_Ï_ÌÌ_È_ËÂÌÚ_4-3" x1="220.62" y1="-119.16" x2="220.62" y2="-131.89" gradientTransform="matrix(0.97, 0.23, -0.23, 0.97, -150.68, 204.84)" xlink:href="#_ÂÁ_Ï_ÌÌ_È_ËÂÌÚ_4"/><linearGradient id="_ÂÁ_Ï_ÌÌ_È_ËÂÌÚ_54" x1="97.05" y1="84.04" x2="167.59" y2="84.04" gradientUnits="userSpaceOnUse"><stop offset="0"/><stop offset="1" stop-color="#7192cb"/></linearGradient><linearGradient id="_ÂÁ_Ï_ÌÌ_È_ËÂÌÚ_54-2" x1="107.03" y1="131.04" x2="158.15" y2="131.04" xlink:href="#_ÂÁ_Ï_ÌÌ_È_ËÂÌÚ_54"/><linearGradient id="_ÂÁ_Ï_ÌÌ_È_ËÂÌÚ_153-4" x1="179.8" y1="106.82" x2="179.8" y2="105.23" gradientTransform="matrix(1, 0, 0, 1, 0, 0)" xlink:href="#_ÂÁ_Ï_ÌÌ_È_ËÂÌÚ_153"/><linearGradient id="_ÂÁ_Ï_ÌÌ_È_ËÂÌÚ_65" x1="92.17" y1="133.25" x2="92.17" y2="127.84" gradientUnits="userSpaceOnUse"><stop offset="0" stop-color="#9d559b"/><stop offset="1" stop-color="#ea71a8"/></linearGradient><linearGradient id="_ÂÁ_Ï_ÌÌ_È_ËÂÌÚ_2" x1="133.84" y1="49" x2="133.84" y2="23.43" gradientTransform="translate(-39.94 64.47) rotate(3.92)" gradientUnits="userSpaceOnUse"><stop offset="0"/><stop offset="1" stop-color="#5fc3e4"/></linearGradient><linearGradient id="_ÂÁ_Ï_ÌÌ_È_ËÂÌÚ_134" x1="172.85" y1="81.75" x2="182.81" y2="81.75" gradientUnits="userSpaceOnUse"><stop offset="0"/><stop offset="1" stop-color="#d4dff3"/></linearGradient><linearGradient id="_ÂÁ_Ï_ÌÌ_È_ËÂÌÚ_143" x1="77.38" y1="80.21" x2="88.35" y2="80.21" gradientUnits="userSpaceOnUse"><stop offset="0" stop-color="#d4dff3"/><stop offset="1"/></linearGradient><linearGradient id="_ÂÁ_Ï_ÌÌ_È_ËÂÌÚ_46-4" x1="79.26" y1="90.81" x2="79.26" y2="78.17" gradientTransform="matrix(1, 0.02, -0.02, 1, -9.3, 16.51)" xlink:href="#_ÂÁ_Ï_ÌÌ_È_ËÂÌÚ_46"/><linearGradient id="_ÂÁ_Ï_ÌÌ_È_ËÂÌÚ_46-5" x1="205.75" y1="92.15" x2="214.23" y2="24.65" gradientTransform="translate(-106.71 82.69) rotate(10.82)" xlink:href="#_ÂÁ_Ï_ÌÌ_È_ËÂÌÚ_46"/><linearGradient id="_ÂÁ_Ï_ÌÌ_È_ËÂÌÚ_153-5" x1="209.21" y1="90.87" x2="209.21" y2="34.15" gradientTransform="translate(-106.71 82.69) rotate(10.82)" xlink:href="#_ÂÁ_Ï_ÌÌ_È_ËÂÌÚ_153"/><linearGradient id="_ÂÁ_Ï_ÌÌ_È_ËÂÌÚ_28-6" x1="119.19" y1="172.29" x2="117.73" y2="157.91" gradientTransform="translate(-34.99 30.87) rotate(3.72)" xlink:href="#_ÂÁ_Ï_ÌÌ_È_ËÂÌÚ_28"/><linearGradient id="_ÂÁ_Ï_ÌÌ_È_ËÂÌÚ_46-6" x1="361.23" y1="-348.63" x2="365.72" y2="-384.43" gradientTransform="matrix(0.59, 0.81, 0.81, -0.59, 146.69, -296.62)" xlink:href="#_ÂÁ_Ï_ÌÌ_È_ËÂÌÚ_46"/><linearGradient id="_ÂÁ_Ï_ÌÌ_È_ËÂÌÚ_28-7" x1="360.11" y1="-357.68" x2="360.11" y2="-384.13" gradientTransform="matrix(0.59, 0.81, 0.81, -0.59, 146.69, -296.62)" xlink:href="#_ÂÁ_Ï_ÌÌ_È_ËÂÌÚ_28"/><linearGradient id="_ÂÁ_Ï_ÌÌ_È_ËÂÌÚ_416-3" x1="359.27" y1="-362.5" x2="359.27" y2="-377.82" gradientTransform="matrix(0.59, 0.81, 0.81, -0.59, 146.69, -296.62)" xlink:href="#_ÂÁ_Ï_ÌÌ_È_ËÂÌÚ_416"/><linearGradient id="_ÂÁ_Ï_ÌÌ_È_ËÂÌÚ_46-7" x1="353.35" y1="-359.22" x2="356.14" y2="-381.43" gradientTransform="matrix(0.59, 0.81, 0.81, -0.59, 146.69, -296.62)" xlink:href="#_ÂÁ_Ï_ÌÌ_È_ËÂÌÚ_46"/><linearGradient id="_ÂÁ_Ï_ÌÌ_È_ËÂÌÚ_28-8" x1="364.95" y1="-355.17" x2="364.95" y2="-369.83" gradientTransform="matrix(0.59, 0.81, 0.81, -0.59, 146.69, -296.62)" xlink:href="#_ÂÁ_Ï_ÌÌ_È_ËÂÌÚ_28"/><linearGradient id="_ÂÁ_Ï_ÌÌ_È_ËÂÌÚ_5-2" x1="147.23" y1="123.56" x2="153.24" y2="123.56" gradientTransform="translate(-34.99 30.87) rotate(3.72)" xlink:href="#_ÂÁ_Ï_ÌÌ_È_ËÂÌÚ_5"/><linearGradient id="_ÂÁ_Ï_ÌÌ_È_ËÂÌÚ_46-8" x1="-821.15" y1="287.32" x2="-812.67" y2="219.82" gradientTransform="matrix(-0.98, 0.19, 0.19, 0.98, -677.17, 82.69)" xlink:href="#_ÂÁ_Ï_ÌÌ_È_ËÂÌÚ_46"/><linearGradient id="_ÂÁ_Ï_ÌÌ_È_ËÂÌÚ_153-6" x1="-817.69" y1="286.04" x2="-817.69" y2="229.32" gradientTransform="matrix(-0.98, 0.19, 0.19, 0.98, -677.17, 82.69)" xlink:href="#_ÂÁ_Ï_ÌÌ_È_ËÂÌÚ_153"/><linearGradient id="_ÂÁ_Ï_ÌÌ_È_ËÂÌÚ_28-9" x1="-923.94" y1="238.98" x2="-925.41" y2="224.6" gradientTransform="matrix(-1, 0.06, 0.06, 1, -748.89, 30.87)" xlink:href="#_ÂÁ_Ï_ÌÌ_È_ËÂÌÚ_28"/><linearGradient id="_ÂÁ_Ï_ÌÌ_È_ËÂÌÚ_46-9" x1="-258.54" y1="-1190.38" x2="-254.04" y2="-1226.19" gradientTransform="translate(-930.57 -296.62) rotate(126.3)" xlink:href="#_ÂÁ_Ï_ÌÌ_È_ËÂÌÚ_46"/><linearGradient id="_ÂÁ_Ï_ÌÌ_È_ËÂÌÚ_28-10" x1="-259.21" y1="-1196.95" x2="-259.21" y2="-1225.88" gradientTransform="translate(-930.57 -296.62) rotate(126.3)" xlink:href="#_ÂÁ_Ï_ÌÌ_È_ËÂÌÚ_28"/><linearGradient id="_ÂÁ_Ï_ÌÌ_È_ËÂÌÚ_416-4" x1="-261.96" y1="-1196.95" x2="-261.96" y2="-1219.58" gradientTransform="translate(-930.57 -296.62) rotate(126.3)" xlink:href="#_ÂÁ_Ï_ÌÌ_È_ËÂÌÚ_416"/><linearGradient id="_ÂÁ_Ï_ÌÌ_È_ËÂÌÚ_46-10" x1="276.94" y1="-803.18" x2="279.41" y2="-822.89" gradientTransform="translate(-638.48 20.89) rotate(83.25)" xlink:href="#_ÂÁ_Ï_ÌÌ_È_ËÂÌÚ_46"/><linearGradient id="_ÂÁ_Ï_ÌÌ_È_ËÂÌÚ_28-11" x1="-254.82" y1="-1196.93" x2="-254.82" y2="-1211.59" gradientTransform="translate(-930.57 -296.62) rotate(126.3)" xlink:href="#_ÂÁ_Ï_ÌÌ_È_ËÂÌÚ_28"/><linearGradient id="_ÂÁ_Ï_ÌÌ_È_ËÂÌÚ_5-3" x1="-895.9" y1="190.25" x2="-889.89" y2="190.25" gradientTransform="matrix(-1, 0.06, 0.06, 1, -748.89, 30.87)" xlink:href="#_ÂÁ_Ï_ÌÌ_È_ËÂÌÚ_5"/><linearGradient id="_ÂÁ_Ï_ÌÌ_È_ËÂÌÚ_46-11" x1="127.03" y1="234.52" x2="137.78" y2="148.91" gradientTransform="matrix(1, 0, 0, 1, 0, 0)" xlink:href="#_ÂÁ_Ï_ÌÌ_È_ËÂÌÚ_46"/><linearGradient id="_ÂÁ_Ï_ÌÌ_È_ËÂÌÚ_153-7" x1="131.4" y1="234.67" x2="131.4" y2="165.79" gradientTransform="matrix(1, 0, 0, 1, 0, 0)" xlink:href="#_ÂÁ_Ï_ÌÌ_È_ËÂÌÚ_153"/><linearGradient id="_ÂÁ_Ï_ÌÌ_È_ËÂÌÚ_28-12" x1="130.74" y1="233.27" x2="130.74" y2="179.02" gradientTransform="matrix(1, 0, 0, 1, 0, 0)" xlink:href="#_ÂÁ_Ï_ÌÌ_È_ËÂÌÚ_28"/><radialGradient id="_ÂÁ_Ï_ÌÌ_È_ËÂÌÚ_49" cx="132.6" cy="227.97" r="43.32" gradientUnits="userSpaceOnUse"><stop offset="0" stop-color="#96549b"/><stop offset="1" stop-color="#d32c87"/></radialGradient><linearGradient id="_ÂÁ_Ï_ÌÌ_È_ËÂÌÚ_416-5" x1="130.21" y1="165.06" x2="130.21" y2="148.27" xlink:href="#_ÂÁ_Ï_ÌÌ_È_ËÂÌÚ_416"/><linearGradient id="_ÂÁ_Ï_ÌÌ_È_ËÂÌÚ_27" x1="108.79" y1="193.86" x2="155.96" y2="193.86" gradientUnits="userSpaceOnUse"><stop offset="0"/><stop offset="1" stop-color="#f2915f"/></linearGradient><linearGradient id="_ÂÁ_Ï_ÌÌ_È_ËÂÌÚ_39" x1="132.38" y1="232.19" x2="132.38" y2="222.8" gradientUnits="userSpaceOnUse"><stop offset="0" stop-color="#e94d8d"/><stop offset="1"/></linearGradient><radialGradient id="_ÂÁ_Ï_ÌÌ_È_ËÂÌÚ_91" cx="154.35" cy="104.96" r="16.61" gradientUnits="userSpaceOnUse"><stop offset="0" stop-color="#79c3b0"/><stop offset="1" stop-color="#60c4e5"/></radialGradient><radialGradient id="_ÂÁ_Ï_ÌÌ_È_ËÂÌÚ_91-2" cx="245.38" cy="104.97" r="16.63" gradientTransform="matrix(-1, 0, 0, 1, 352.18, 0)" xlink:href="#_ÂÁ_Ï_ÌÌ_È_ËÂÌÚ_91"/></defs><title>CUDI-5-sprites</title><g class="cls-1"><g id="Capa_1" data-name="Capa 1"><path class="cls-2" d="M167.64,215.57c.2.7.39,1.44.59,2.2,3,11.56,6.52,28.89,5.64,36.08-.21,1.72-.68,2.86-1.46,3.2a1.84,1.84,0,0,1-.67.17,6,6,0,0,1-3-.76h0c-7.24-3.55-19.74-18.18-22-23.14a2.6,2.6,0,0,1-.34-1.37c1.26-5,16.41-26.45,18.18-25.36C165,206.88,166.24,210.46,167.64,215.57Z"/><path class="cls-3" d="M146.73,233.3c0,1.79,20.26-10.59,17.84-26.72C164.57,206.58,146.71,216.44,146.73,233.3Z"/><path class="cls-4" d="M167.64,215.57s-10.43,8.36-10.88,15.11,6,19.69,12,25.77c-7.24-3.55-19.74-18.18-22-23.14a2.6,2.6,0,0,1-.34-1.37c1.26-5,16.41-26.45,18.18-25.36C165,206.88,166.24,210.46,167.64,215.57Z"/><path class="cls-5" d="M96.69,218.34c-.2.7-.39,1.43-.59,2.19-3,11.56-6.52,28.9-5.64,36.09.21,1.72.67,2.86,1.45,3.2a1.94,1.94,0,0,0,.68.16,5.8,5.8,0,0,0,3-.76h0c7.24-3.54,19.74-18.17,22-23.14a2.55,2.55,0,0,0,.34-1.36c-1.27-5-16.41-26.46-18.18-25.36C99.28,209.65,98.08,213.22,96.69,218.34Z"/><path class="cls-6" d="M117.6,236.07c0,1.79-20.26-10.59-17.84-26.72C99.76,209.35,117.62,219.2,117.6,236.07Z"/><path class="cls-7" d="M103.61,236.32c.78.63-1.9,7.79-3.54,7.58S101.82,234.85,103.61,236.32Z"/><path class="cls-7" d="M164.41,246.76c1-.07,3.23,4.09,1.9,5.07S162.1,246.94,164.41,246.76Z"/><path class="cls-8" d="M96.69,218.34s10.43,8.36,10.87,15.11-6,19.69-12,25.76c7.24-3.54,19.74-18.17,22-23.14a2.55,2.55,0,0,0,.34-1.36c-1.27-5-16.41-26.46-18.18-25.36C99.28,209.65,98.08,213.22,96.69,218.34Z"/><path class="cls-9" d="M101.64,76.75s-7-6.06-15.62-7.11c0,0-2.63,1.28-5.67,10.75s2.57,28.18,2.57,28.18Z"/><path class="cls-10" d="M82.69,74.36A14.21,14.21,0,0,1,86,69.64s7.07,6.52,6.79,22.11l-2,2.11Z"/><path class="cls-11" d="M159.75,76.75s7-6.06,15.62-7.11c0,0,2.63,1.28,5.67,10.75s-2.57,28.18-2.57,28.18Z"/><path class="cls-12" d="M175.37,69.64a30.33,30.33,0,0,0-7,19.46l2.69,1.7,7.83-16.21S176.33,69.5,175.37,69.64Z"/><path class="cls-13" d="M170.85,90s-1.85-10.26,4.9-17.8c0,0,7.63,3.6,10.78,16.92s-5.06,21.33-5.06,21.33Z"/><path class="cls-14" d="M90.54,90s1.85-10.26-4.9-17.8c0,0-7.63,3.6-10.78,16.92s5.06,21.33,5.06,21.33Z"/><path class="cls-15" d="M180.22,146.69c-15.67,22-89.32,20.34-98.91,2.57-6.25-11.61-5.57-29,.46-45.11,7.9-21.08,25-39.77,47.71-39.77,26.71,0,47.23,26.61,53.41,50.91C186,127.59,185.48,139.3,180.22,146.69Z"/><path class="cls-16" d="M86.81,126.31c3.51,15,68.24,16.59,84.14,3S164,67.6,128.88,69.7C96.8,71.63,81.07,101.8,86.81,126.31Z"/><path class="cls-17" d="M86.47,124.49c3.51,15,68.24,16.59,84.14,3s-7-61.74-42.07-59.64C96.47,69.81,80.73,100,86.47,124.49Z"/><path class="cls-18" d="M180.22,146.69c-15.67,22-89.32,20.34-98.91,2.57-6.25-11.61-5.57-29,.46-45.11a0,0,0,0,1,0,0c-.26.94-6.44,23.45-.13,33.36,6.44,10.12,31.93,8.71,59.29,7.55s36.41-5.15,41-12.87c3.62-6.07,0-19.47-1.73-24.89l2.68,8C186,127.59,185.48,139.3,180.22,146.69Z"/><path class="cls-19" d="M129.56,162.87c-15.31,0-26.34-1.74-32.51-4.22h0c-4.05-1.62-6-3.55-5.73-5.54.18-1.21,3.18-2.28,7.91-3.15,13.91-2.51,42.68-3.27,58.18-.92,1.34.2,2.58.42,3.7.67l.69.17.13,0c2.67.65,4.57,1.46,5.41,2.44a1.93,1.93,0,0,1,.44.76C169.21,158.07,143.39,162.87,129.56,162.87Z"/><path class="cls-20" d="M167.59,151.89a1.67,1.67,0,0,1-.26.46c-1.5,2.12-7.58,4.85-7.58,4.85s-23.37-9.56-42.31-5.31-20.39,6.76-20.39,6.76h0c-4.05-1.62-6-3.55-5.73-5.54.18-1.21,3.18-2.28,7.91-3.15,13.91-2.51,42.68-3.27,58.18-.92,1.62.28,3.09.57,4.39.84l.13,0C165.59,150.7,167.77,151.41,167.59,151.89Z"/><path class="cls-21" d="M161.1,149.71c-3.62,3.46-21,6.45-30.87,6.44-17.73,0-28.51-2.82-31-6.19C114.32,147.23,147,146.57,161.1,149.71Z"/><path class="cls-22" d="M81.31,149.26a29.93,29.93,0,0,1,9.22-6.55c6.1-2.92,11.71-5.21,12.57-7.56s-16.73-1-16.73-1L77.6,138S79,145.06,81.31,149.26Z"/><path class="cls-23" d="M74.13,93.86s4.55,2.93,1.57,9.69c0,0-21.22,11.56-20,24.15,1,10.51,30.34,5.42,30.34,5.42l1,3.51s-24.9,4.87-33.5-1c0,0-2.92-6.94,4.33-19.45A146.19,146.19,0,0,1,74.13,93.86Z"/><path class="cls-24" d="M82.34,132.15c-2.67,3,3,6.33,7.66,6.83,5.22.57,14.51-1.5,14-6.76S88.6,125.06,82.34,132.15Z"/><path class="cls-25" d="M97.1,86.65c-.81,4.85,10,4.64,24.66,4.15,17.66-.58,35.4,14.61,45.72,3.71,1.7-1.8-15.2-25.4-35.6-24.87S97.8,82.44,97.1,86.65Z"/><path class="cls-26" d="M107.1,128.87c-.93,3.51,6.4,6.34,24.5,6.14,22.92-.26,26.93-5.79,26.52-6.16,0,0-9.5,5.56-27.44,1.62C118.83,127.87,108.08,125.17,107.1,128.87Z"/><path class="cls-27" d="M180.06,106.82l-.53-1.59C179.63,105.54,179.83,106.08,180.06,106.82Z"/><path class="cls-7" d="M142,67.48c-1.55.36,11.47,7.24,12,6.43S146.27,66.48,142,67.48Z"/><path class="cls-7" d="M166.92,72.62c-1.3.7-1.19,2.1,1.49,1.75s4.15-2.45,3.86-2.86S168.38,71.84,166.92,72.62Z"/><path class="cls-28" d="M82.69,132.7c-.16.86,18.51,1.07,19-2.23S83.92,126,82.69,132.7Z"/><path class="cls-29" d="M87.28,119.56a47.38,47.38,0,0,1,.14-11.93c.89-6.84,2.73-11.26,3.82-10.64s.93,7.32,1.57,13.92c.51,5.13,1.49,10,1.49,10S89.58,125.38,87.28,119.56Z"/><path class="cls-30" d="M181.57,78.22s-2.48-3.07-5.85-2.25-3.59,11.43-1.58,11.7,2.87-5.88,4.42-6.84,4.25-.59,4.25-.59Z"/><path class="cls-31" d="M77.38,81.9s1.3-1.47,4.23-1,4.6,6.47,6.1,5.87.4-10.32-3.55-13.18C84.16,73.6,79.06,78,77.38,81.9Z"/><path class="cls-32" d="M73.41,96.05s-10.33,11.62-9.7,12.45S74,97.25,73.41,96.05Z"/><path class="cls-33" d="M109.24,158.75c-1.3,6.64-4.06,16.07-8.57,23.25-7.45,11.9-18,26.65-18.36,27.12h0c-5.12,1.92-10.57.73-14-.45A24.15,24.15,0,0,1,65,207.24a107.25,107.25,0,0,1,15.65-29.56,130.41,130.41,0,0,1,17.9-19.3l.08-.07c.06-.07.14-.13.2-.19l.12-.1a.32.32,0,0,0,.1-.1l.15-.12,0,0,0,0c5.64-4.88,10-7.67,10.68-7.1C110.31,151,110.12,154.23,109.24,158.75Z"/><path class="cls-34" d="M109.24,158.75c-1.3,6.64-4.06,16.07-8.57,23.25-7.45,11.9-18,26.65-18.36,27.12h0l-14-.45A24.15,24.15,0,0,1,65,207.24a107.25,107.25,0,0,1,15.65-29.56,130.41,130.41,0,0,1,17.9-19.3c-3.2,2.88-16.7,15.52-22,27.44-6,13.56,8.26,10.63,15.33,2.93s17.18-30,17.18-30Z"/><path class="cls-7" d="M94.57,172.67c-1-.61,2.54-6.18,4.28-6S95.42,173.19,94.57,172.67Z"/><path class="cls-7" d="M89.29,180.49c-.76-.61-2,1.59-1.3,2.08S90.15,181.18,89.29,180.49Z"/><path class="cls-35" d="M67.32,201s3.58-7.14,9.61-4.3,1.7,12.65,1.7,12.65-8.07,3.75-13.65-2.1A50.8,50.8,0,0,1,67.32,201Z"/><path class="cls-36" d="M67.13,199.23s7.75-3.12,11.35.5c2.89,2.9,1.78,9.18.06,13.26s-13.47,17-18.71,16.8-8.12-5.93-6-12.71C53.83,217.08,61.33,203.78,67.13,199.23Z"/><path class="cls-37" d="M67.13,199.23s-.12,7.15-4.73,12.13-7.6,15.75-7.6,15.75-2.42-2.73-1-10S67.13,199.23,67.13,199.23Z"/><path class="cls-38" d="M54.22,215.68l3.9,2.53a28.62,28.62,0,0,1,3.51-5.94c2-2.47,3.69-7.35,3.69-7.35Z"/><path class="cls-39" d="M65.8,200.2s-3.52.73-8.73,4.31-8.32,7.72-8.62,8.8,1.26,3,3.08,3.11,7.92-3.32,7.92-3.32S67.57,205.18,65.8,200.2Z"/><path class="cls-40" d="M62.4,211.36s9.5-3.35,16.78,0L78.54,213a25.22,25.22,0,0,0-16.91-.72Z"/><path class="cls-7" d="M53.18,211.76c-.49-.52,4.66-4,5-3.14S53.86,212.49,53.18,211.76Z"/><path class="cls-41" d="M109.9,150.66s-7.36,12.39-6.58,26.48C103.32,177.14,112.89,159.8,109.9,150.66Z"/><path class="cls-42" d="M152.15,157.6c1.3,6.64,4.06,16.07,8.56,23.25,7.45,11.9,18,26.65,18.37,27.12h0c5.12,1.91,10.57.72,14-.46a24.19,24.19,0,0,0,3.35-1.42,107.37,107.37,0,0,0-15.65-29.57,131,131,0,0,0-17.9-19.3l-.08-.07a1.9,1.9,0,0,0-.21-.19l-.11-.1a.45.45,0,0,1-.1-.09l-.15-.13a0,0,0,0,1,0,0l0,0c-5.64-4.88-10-7.67-10.68-7.09C151.07,149.86,151.27,153.08,152.15,157.6Z"/><path class="cls-43" d="M152.15,157.6c1.3,6.64,4.06,16.07,8.56,23.25,7.45,11.9,18,26.65,18.37,27.12h0l14-.46a24.19,24.19,0,0,0,3.35-1.42,107.37,107.37,0,0,0-15.65-29.57,131,131,0,0,0-17.9-19.3c3.2,2.88,16.7,15.52,21.95,27.44,6,13.57-8.26,10.63-15.32,2.93s-17.18-30-17.18-30Z"/><path class="cls-7" d="M166.82,171.52c1-.61-2.54-6.18-4.29-6S166,172,166.82,171.52Z"/><path class="cls-44" d="M194.06,199.84s-3.57-7.14-9.6-4.3-1.7,12.65-1.7,12.65,8.06,3.75,13.65-2.09A49.78,49.78,0,0,0,194.06,199.84Z"/><path class="cls-45" d="M194.26,198.08s-7.75-3.12-11.35.5c-2.89,2.9-1.78,9.18-.07,13.27s13.48,17,18.72,16.79,8.12-5.93,6-12.71C207.56,215.93,200.06,202.63,194.26,198.08Z"/><path class="cls-46" d="M191.73,197.31s1.75,7.79,7.26,12.9c5,4.62,7.6,15.75,7.6,15.75s2.42-2.73,1-10S191.73,197.31,191.73,197.31Z"/><path class="cls-47" d="M207.17,214.53l-3.8,2.25a21.84,21.84,0,0,0-3.61-5.66c-6.6-7-8-13.81-8-13.81l9,8.25s2.19,2.31,3.87,4.51C205.36,211.1,207.17,214.53,207.17,214.53Z"/><path class="cls-48" d="M191.73,197.31s1.83-.55,8.15-.71c6.5-.16,10,1.64,10.94,2.24s1.12,3-.13,4.37-12.64,3.37-12.64,3.37A37.56,37.56,0,0,1,191.73,197.31Z"/><path class="cls-49" d="M199,210.21s-9.5-3.35-16.79,0l.64,1.6a25.29,25.29,0,0,1,16.92-.73Z"/><path class="cls-7" d="M205.61,198.23c.09-.71-6.13-.52-5.87.36S205.49,199.22,205.61,198.23Z"/><path class="cls-50" d="M151.49,149.52s7.36,12.38,6.58,26.47C158.07,176,148.5,158.65,151.49,149.52Z"/><path class="cls-51" d="M123.09,124.38s4.38-5.45,9-6.49,6.18,4.64,6.18,4.64S129.76,121.83,123.09,124.38Z"/><path class="cls-52" d="M161.17,213.63c-2.14,12.63-13.44,21-29.64,21-14.11,0-26.06-5.26-29.21-16.83s-1.94-33,2.27-46.3a43,43,0,0,1,2.27-5.73v0a39.59,39.59,0,0,1,2.67-4.69v0c5.14-7.75,12.68-12.81,21.19-12.81a25.85,25.85,0,0,1,20.27,9,29.8,29.8,0,0,1,5,8.47,86.39,86.39,0,0,1,3.48,11.16.54.54,0,0,0,0,.11A94.19,94.19,0,0,1,161.17,213.63Z"/><path class="cls-53" d="M161.17,213.63c-2.14,12.63-13.44,21-29.64,21-14.11,0-26.06-5.26-29.21-16.83s-1.94-33,2.27-46.3a43,43,0,0,1,2.27-5.73v0s-8.53,28.3-1.71,46.32,38.6,17.64,49.36,5.66c10.23-11.39,5.5-38.16,5-40.72A94.19,94.19,0,0,1,161.17,213.63Z"/><path class="cls-54" d="M102.92,206.14c2.42-16.94,16-28.42,31.1-27,16.27,1.54,25,17.07,24.79,30.4s-10,23.73-27.44,23.73S100.67,222,102.92,206.14Z"/><path class="cls-55" d="M103.08,207.55c2.41-17,16-28.43,31.09-27,16.28,1.54,25,17.07,24.79,30.4s-10,23.73-27.44,23.73S100.82,223.39,103.08,207.55Z"/><path class="cls-56" d="M151,157.31c-3.45,5.42-22.46,8.57-33.44,7.57-9.56-.88-8.11-3.46-8-3.78v0c5.14-7.75,12.68-12.81,21.19-12.81A25.85,25.85,0,0,1,151,157.31Z"/><path class="cls-7" d="M144.26,166.7c-.89.29-.93,7.41,0,8.56s2.41.8,2.9-.88S145.59,166.26,144.26,166.7Z"/><path class="cls-57" d="M108.85,196.79c2.86,4.58,14.67,2.14,28,3.44s15.57,5.63,18.38,4.75-1.63-20.9-21.5-22.26S108.13,195.66,108.85,196.79Z"/><path class="cls-58" d="M113,225.35s3.9,6.79,18.42,6.84,20.43-8.59,20.43-8.59a21.18,21.18,0,0,1-16.28,1.75C125.94,222.72,116.46,221.25,113,225.35Z"/><path class="cls-59" d="M144.25,105.71c1.84,3.89,17.88,4.4,20.47-1.76,2.32-5.52-4.88-20.15-14.46-18.82C143,86.13,141.15,99.13,144.25,105.71Z"/><path class="cls-60" d="M116.9,105.71c-1.83,3.89-17.87,4.4-20.46-1.76-2.32-5.52,4.48-19.58,14.46-18.82C118.2,85.68,120,99.13,116.9,105.71Z"/></g></g></svg>