<svg xmlns="http://www.w3.org/2000/svg" xmlns:xlink="http://www.w3.org/1999/xlink" viewBox="0 0 260 260"><defs><style>.cls-1{isolation:isolate;}.cls-2{fill:url(#_ÂÁ_Ï_ÌÌ_È_ËÂÌÚ_46);}.cls-10,.cls-13,.cls-21,.cls-3,.cls-6{opacity:0.3;}.cls-10,.cls-13,.cls-21,.cls-24,.cls-3,.cls-37,.cls-38,.cls-44,.cls-50,.cls-6{mix-blend-mode:multiply;}.cls-3{fill:url(#_ÂÁ_Ï_ÌÌ_È_ËÂÌÚ_153);}.cls-4{fill:url(#_ÂÁ_Ï_ÌÌ_È_ËÂÌÚ_46-2);}.cls-5{fill:url(#_ÂÁ_Ï_ÌÌ_È_ËÂÌÚ_28);}.cls-6{fill:url(#_ÂÁ_Ï_ÌÌ_È_ËÂÌÚ_153-2);}.cls-7{fill:url(#_ÂÁ_Ï_ÌÌ_È_ËÂÌÚ_46-3);}.cls-8{fill:url(#_ÂÁ_Ï_ÌÌ_È_ËÂÌÚ_28-2);}.cls-9{fill:#fff;}.cls-10{fill:url(#_ÂÁ_Ï_ÌÌ_È_ËÂÌÚ_153-3);}.cls-11{fill:url(#_ÂÁ_Ï_ÌÌ_È_ËÂÌÚ_46-4);}.cls-12{fill:url(#_ÂÁ_Ï_ÌÌ_È_ËÂÌÚ_28-3);}.cls-13{fill:url(#_ÂÁ_Ï_ÌÌ_È_ËÂÌÚ_153-4);}.cls-14{fill:url(#_ÂÁ_Ï_ÌÌ_È_ËÂÌÚ_264);}.cls-15{fill:url(#_ÂÁ_Ï_ÌÌ_È_ËÂÌÚ_28-4);}.cls-16{fill:url(#_ÂÁ_Ï_ÌÌ_È_ËÂÌÚ_17);}.cls-17{fill:url(#_ÂÁ_Ï_ÌÌ_È_ËÂÌÚ_264-2);}.cls-18{fill:url(#_ÂÁ_Ï_ÌÌ_È_ËÂÌÚ_28-5);}.cls-19{fill:url(#_ÂÁ_Ï_ÌÌ_È_ËÂÌÚ_17-2);}.cls-20{fill:url(#_ÂÁ_Ï_ÌÌ_È_ËÂÌÚ_46-5);}.cls-21{fill:url(#_ÂÁ_Ï_ÌÌ_È_ËÂÌÚ_153-5);}.cls-22{fill:url(#_ÂÁ_Ï_ÌÌ_È_ËÂÌÚ_28-6);}.cls-23{fill:url(#_ÂÁ_Ï_ÌÌ_È_ËÂÌÚ_91);}.cls-24,.cls-37,.cls-38,.cls-41,.cls-42,.cls-44,.cls-50{opacity:0.5;}.cls-24{fill:url(#_ÂÁ_Ï_ÌÌ_È_ËÂÌÚ_416);}.cls-25,.cls-26,.cls-48,.cls-49{opacity:0.72;}.cls-25,.cls-26,.cls-41,.cls-42,.cls-43,.cls-48,.cls-49{mix-blend-mode:screen;}.cls-25{fill:url(#_ÂÁ_Ï_ÌÌ_È_ËÂÌÚ_143);}.cls-26{fill:url(#_ÂÁ_Ï_ÌÌ_È_ËÂÌÚ_134);}.cls-27{fill:url(#_ÂÁ_Ï_ÌÌ_È_ËÂÌÚ_46-6);}.cls-28{fill:url(#_ÂÁ_Ï_ÌÌ_È_ËÂÌÚ_132);}.cls-29{fill:url(#_ÂÁ_Ï_ÌÌ_È_ËÂÌÚ_17-3);}.cls-30{fill:url(#_ÂÁ_Ï_ÌÌ_È_ËÂÌÚ_17-4);}.cls-31{fill:#2f94cd;}.cls-32{fill:url(#_ÂÁ_Ï_ÌÌ_È_ËÂÌÚ_46-7);}.cls-33{fill:url(#_ÂÁ_Ï_ÌÌ_È_ËÂÌÚ_28-7);}.cls-34{fill:url(#_ÂÁ_Ï_ÌÌ_È_ËÂÌÚ_28-8);}.cls-35{fill:url(#_ÂÁ_Ï_ÌÌ_È_ËÂÌÚ_46-8);}.cls-36{fill:url(#_ÂÁ_Ï_ÌÌ_È_ËÂÌÚ_28-9);}.cls-37{fill:url(#_ÂÁ_Ï_ÌÌ_È_ËÂÌÚ_416-2);}.cls-38{fill:url(#_ÂÁ_Ï_ÌÌ_È_ËÂÌÚ_166);}.cls-39{fill:url(#_ÂÁ_Ï_ÌÌ_È_ËÂÌÚ_46-9);}.cls-40{fill:url(#_ÂÁ_Ï_ÌÌ_È_ËÂÌÚ_129);}.cls-41{fill:url(#_ÂÁ_Ï_ÌÌ_È_ËÂÌÚ_54);}.cls-42{fill:url(#_ÂÁ_Ï_ÌÌ_È_ËÂÌÚ_54-2);}.cls-43{opacity:0.2;fill:url(#_ÂÁ_Ï_ÌÌ_È_ËÂÌÚ_2);}.cls-44{fill:url(#_ÂÁ_Ï_ÌÌ_È_ËÂÌÚ_416-3);}.cls-45{fill:url(#_ÂÁ_Ï_ÌÌ_È_ËÂÌÚ_28-10);}.cls-46{fill:url(#_ÂÁ_Ï_ÌÌ_È_ËÂÌÚ_4);}.cls-47{fill:url(#_ÂÁ_Ï_ÌÌ_È_ËÂÌÚ_65);}.cls-48{fill:url(#_ÂÁ_Ï_ÌÌ_È_ËÂÌÚ_134-2);}.cls-49{fill:url(#_ÂÁ_Ï_ÌÌ_È_ËÂÌÚ_143-2);}.cls-50{fill:url(#_ÂÁ_Ï_ÌÌ_È_ËÂÌÚ_416-4);}.cls-51{fill:url(#_ÂÁ_Ï_ÌÌ_È_ËÂÌÚ_46-10);}.cls-52{fill:url(#_ÂÁ_Ï_ÌÌ_È_ËÂÌÚ_46-11);}</style><linearGradient id="_ÂÁ_Ï_ÌÌ_È_ËÂÌÚ_46" x1="162.03" y1="197.78" x2="167.16" y2="156.93" gradientUnits="userSpaceOnUse"><stop offset="0" stop-color="#c9bede"/><stop offset="1" stop-color="#e6daec"/></linearGradient><linearGradient id="_ÂÁ_Ï_ÌÌ_È_ËÂÌÚ_153" x1="158.49" y1="198.49" x2="158.49" y2="154.84" gradientUnits="userSpaceOnUse"><stop offset="0" stop-color="#9169a9"/><stop offset="1" stop-color="#cce9fb"/></linearGradient><linearGradient id="_ÂÁ_Ï_ÌÌ_È_ËÂÌÚ_46-2" x1="46.89" y1="423.68" x2="51.8" y2="384.53" gradientTransform="translate(-3.2 -152.87) rotate(-9.87)" xlink:href="#_ÂÁ_Ï_ÌÌ_È_ËÂÌÚ_46"/><linearGradient id="_ÂÁ_Ï_ÌÌ_È_ËÂÌÚ_28" x1="50.93" y1="398.27" x2="50.93" y2="382.84" gradientTransform="translate(-3.2 -152.87) rotate(-9.87)" gradientUnits="userSpaceOnUse"><stop offset="0" stop-color="#b39bc9"/><stop offset="1" stop-color="#9289c1"/></linearGradient><linearGradient id="_ÂÁ_Ï_ÌÌ_È_ËÂÌÚ_153-2" x1="50.96" y1="424.18" x2="50.96" y2="382.97" gradientTransform="translate(-3.2 -152.87) rotate(-9.87)" xlink:href="#_ÂÁ_Ï_ÌÌ_È_ËÂÌÚ_153"/><linearGradient id="_ÂÁ_Ï_ÌÌ_È_ËÂÌÚ_46-3" x1="168.92" y1="99.92" x2="175.26" y2="49.42" gradientTransform="translate(-19.49 133.3) rotate(8.95)" xlink:href="#_ÂÁ_Ï_ÌÌ_È_ËÂÌÚ_46"/><linearGradient id="_ÂÁ_Ï_ÌÌ_È_ËÂÌÚ_28-2" x1="173.65" y1="69.34" x2="173.65" y2="50.99" gradientTransform="translate(-19.49 133.3) rotate(8.95)" xlink:href="#_ÂÁ_Ï_ÌÌ_È_ËÂÌÚ_28"/><linearGradient id="_ÂÁ_Ï_ÌÌ_È_ËÂÌÚ_153-3" x1="173.73" y1="98.73" x2="173.73" y2="50.85" gradientTransform="translate(-19.49 133.3) rotate(8.95)" xlink:href="#_ÂÁ_Ï_ÌÌ_È_ËÂÌÚ_153"/><linearGradient id="_ÂÁ_Ï_ÌÌ_È_ËÂÌÚ_46-4" x1="83.68" y1="216.58" x2="92.15" y2="149.08" xlink:href="#_ÂÁ_Ï_ÌÌ_È_ËÂÌÚ_46"/><linearGradient id="_ÂÁ_Ï_ÌÌ_È_ËÂÌÚ_28-3" x1="78.71" y1="215.93" x2="78.71" y2="205.2" gradientTransform="matrix(1, 0, 0, 1, 0, 0)" xlink:href="#_ÂÁ_Ï_ÌÌ_È_ËÂÌÚ_28"/><linearGradient id="_ÂÁ_Ï_ÌÌ_È_ËÂÌÚ_153-4" x1="87.14" y1="215.3" x2="87.14" y2="158.58" xlink:href="#_ÂÁ_Ï_ÌÌ_È_ËÂÌÚ_153"/><linearGradient id="_ÂÁ_Ï_ÌÌ_È_ËÂÌÚ_264" x1="166.98" y1="95.46" x2="166.98" y2="56.53" gradientUnits="userSpaceOnUse"><stop offset="0" stop-color="#b5a9d3"/><stop offset="1" stop-color="#dfcfe7"/></linearGradient><linearGradient id="_ÂÁ_Ï_ÌÌ_È_ËÂÌÚ_28-4" x1="169.81" y1="77.69" x2="169.81" y2="56.53" gradientTransform="matrix(1, 0, 0, 1, 0, 0)" xlink:href="#_ÂÁ_Ï_ÌÌ_È_ËÂÌÚ_28"/><linearGradient id="_ÂÁ_Ï_ÌÌ_È_ËÂÌÚ_17" x1="175.07" y1="97.33" x2="175.07" y2="59.07" gradientUnits="userSpaceOnUse"><stop offset="0" stop-color="#79c3b0"/><stop offset="1" stop-color="#60c4e5"/></linearGradient><linearGradient id="_ÂÁ_Ï_ÌÌ_È_ËÂÌÚ_264-2" x1="-2039.44" y1="96.98" x2="-2039.44" y2="58.05" gradientTransform="matrix(-1, 0, 0, 1, -1953.56, 0)" xlink:href="#_ÂÁ_Ï_ÌÌ_È_ËÂÌÚ_264"/><linearGradient id="_ÂÁ_Ï_ÌÌ_È_ËÂÌÚ_28-5" x1="-2036.61" y1="79.21" x2="-2036.61" y2="58.05" gradientTransform="matrix(-1, 0, 0, 1, -1953.56, 0)" xlink:href="#_ÂÁ_Ï_ÌÌ_È_ËÂÌÚ_28"/><linearGradient id="_ÂÁ_Ï_ÌÌ_È_ËÂÌÚ_17-2" x1="-2031.38" y1="99.71" x2="-2031.38" y2="60.59" gradientTransform="matrix(-1, 0, 0, 1, -1953.56, 0)" xlink:href="#_ÂÁ_Ï_ÌÌ_È_ËÂÌÚ_17"/><linearGradient id="_ÂÁ_Ï_ÌÌ_È_ËÂÌÚ_46-5" x1="122.82" y1="226.26" x2="133.57" y2="140.64" xlink:href="#_ÂÁ_Ï_ÌÌ_È_ËÂÌÚ_46"/><linearGradient id="_ÂÁ_Ï_ÌÌ_È_ËÂÌÚ_153-5" x1="127.19" y1="226.4" x2="127.19" y2="157.52" xlink:href="#_ÂÁ_Ï_ÌÌ_È_ËÂÌÚ_153"/><linearGradient id="_ÂÁ_Ï_ÌÌ_È_ËÂÌÚ_28-6" x1="126.53" y1="225" x2="126.53" y2="170.75" gradientTransform="matrix(1, 0, 0, 1, 0, 0)" xlink:href="#_ÂÁ_Ï_ÌÌ_È_ËÂÌÚ_28"/><radialGradient id="_ÂÁ_Ï_ÌÌ_È_ËÂÌÚ_91" cx="127.61" cy="217.99" r="41.4" xlink:href="#_ÂÁ_Ï_ÌÌ_È_ËÂÌÚ_17"/><linearGradient id="_ÂÁ_Ï_ÌÌ_È_ËÂÌÚ_416" x1="126" y1="156.8" x2="126" y2="140" gradientUnits="userSpaceOnUse"><stop offset="0" stop-color="#8ea1d3"/><stop offset="1" stop-color="#6e5ba3"/></linearGradient><linearGradient id="_ÂÁ_Ï_ÌÌ_È_ËÂÌÚ_143" x1="127.84" y1="223.38" x2="127.84" y2="213.98" gradientUnits="userSpaceOnUse"><stop offset="0" stop-color="#d4dff3"/><stop offset="1"/></linearGradient><linearGradient id="_ÂÁ_Ï_ÌÌ_È_ËÂÌÚ_134" x1="104.57" y1="185.6" x2="151.75" y2="185.6" gradientUnits="userSpaceOnUse"><stop offset="0"/><stop offset="1" stop-color="#d4dff3"/></linearGradient><linearGradient id="_ÂÁ_Ï_ÌÌ_È_ËÂÌÚ_46-6" x1="122.94" y1="146.87" x2="134.82" y2="52.32" xlink:href="#_ÂÁ_Ï_ÌÌ_È_ËÂÌÚ_46"/><linearGradient id="_ÂÁ_Ï_ÌÌ_È_ËÂÌÚ_132" x1="126.77" y1="140.4" x2="126.77" y2="62.24" gradientUnits="userSpaceOnUse"><stop offset="0" stop-color="#1e64ae"/><stop offset="1" stop-color="#292f6b"/></linearGradient><linearGradient id="_ÂÁ_Ï_ÌÌ_È_ËÂÌÚ_17-3" x1="-1892.13" y1="-29.76" x2="-1892.13" y2="-48.67" gradientTransform="matrix(-0.99, -0.13, -0.13, 0.99, -1731.48, -115.76)" xlink:href="#_ÂÁ_Ï_ÌÌ_È_ËÂÌÚ_17"/><linearGradient id="_ÂÁ_Ï_ÌÌ_È_ËÂÌÚ_17-4" x1="124.52" y1="291.21" x2="124.52" y2="272.3" gradientTransform="translate(-71.16 -156.44) rotate(-10.85)" xlink:href="#_ÂÁ_Ï_ÌÌ_È_ËÂÌÚ_17"/><linearGradient id="_ÂÁ_Ï_ÌÌ_È_ËÂÌÚ_46-7" x1="74.17" y1="241.34" x2="78.36" y2="207.95" xlink:href="#_ÂÁ_Ï_ÌÌ_È_ËÂÌÚ_46"/><linearGradient id="_ÂÁ_Ï_ÌÌ_È_ËÂÌÚ_28-7" x1="78.45" y1="240.21" x2="75.29" y2="209.17" gradientTransform="matrix(1, 0, 0, 1, 0, 0)" xlink:href="#_ÂÁ_Ï_ÌÌ_È_ËÂÌÚ_28"/><linearGradient id="_ÂÁ_Ï_ÌÌ_È_ËÂÌÚ_28-8" x1="181.34" y1="195.55" x2="179.38" y2="176.34" gradientTransform="matrix(1, 0, 0, 1, 0, 0)" xlink:href="#_ÂÁ_Ï_ÌÌ_È_ËÂÌÚ_28"/><linearGradient id="_ÂÁ_Ï_ÌÌ_È_ËÂÌÚ_46-8" x1="191.45" y1="195.65" x2="193.57" y2="178.75" xlink:href="#_ÂÁ_Ï_ÌÌ_È_ËÂÌÚ_46"/><linearGradient id="_ÂÁ_Ï_ÌÌ_È_ËÂÌÚ_28-9" x1="188.82" y1="189.43" x2="187.53" y2="176.69" gradientTransform="matrix(1, 0, 0, 1, 0, 0)" xlink:href="#_ÂÁ_Ï_ÌÌ_È_ËÂÌÚ_28"/><linearGradient id="_ÂÁ_Ï_ÌÌ_È_ËÂÌÚ_416-2" x1="184.06" y1="194.56" x2="184.06" y2="183.76" xlink:href="#_ÂÁ_Ï_ÌÌ_È_ËÂÌÚ_416"/><linearGradient id="_ÂÁ_Ï_ÌÌ_È_ËÂÌÚ_166" x1="184.4" y1="183.69" x2="202.06" y2="183.69" gradientUnits="userSpaceOnUse"><stop offset="0" stop-color="#6e5ba3"/><stop offset="1" stop-color="#cce9fb"/></linearGradient><linearGradient id="_ÂÁ_Ï_ÌÌ_È_ËÂÌÚ_46-9" x1="231.85" y1="-160.52" x2="233.28" y2="-171.92" gradientTransform="matrix(0.95, 0.33, -0.33, 0.95, -83.82, 258.95)" xlink:href="#_ÂÁ_Ï_ÌÌ_È_ËÂÌÚ_46"/><linearGradient id="_ÂÁ_Ï_ÌÌ_È_ËÂÌÚ_129" x1="197.2" y1="182.27" x2="196.54" y2="175.79" gradientUnits="userSpaceOnUse"><stop offset="0" stop-color="#c9bede"/><stop offset="1" stop-color="#cfbbdc"/></linearGradient><linearGradient id="_ÂÁ_Ï_ÌÌ_È_ËÂÌÚ_54" x1="94.03" y1="79.72" x2="162.98" y2="79.72" gradientUnits="userSpaceOnUse"><stop offset="0"/><stop offset="1" stop-color="#7192cb"/></linearGradient><linearGradient id="_ÂÁ_Ï_ÌÌ_È_ËÂÌÚ_54-2" x1="103.09" y1="134.86" x2="153.22" y2="134.86" xlink:href="#_ÂÁ_Ï_ÌÌ_È_ËÂÌÚ_54"/><linearGradient id="_ÂÁ_Ï_ÌÌ_È_ËÂÌÚ_2" x1="103.48" y1="23.84" x2="103.48" y2="-1.73" gradientTransform="translate(-15 94.42) rotate(3.92)" gradientUnits="userSpaceOnUse"><stop offset="0"/><stop offset="1" stop-color="#5fc3e4"/></linearGradient><linearGradient id="_ÂÁ_Ï_ÌÌ_È_ËÂÌÚ_416-3" x1="88.97" y1="138.42" x2="88.97" y2="126.43" xlink:href="#_ÂÁ_Ï_ÌÌ_È_ËÂÌÚ_416"/><linearGradient id="_ÂÁ_Ï_ÌÌ_È_ËÂÌÚ_28-10" x1="66.92" y1="131.8" x2="72.59" y2="86.63" gradientTransform="matrix(1, 0, 0, 1, 0, 0)" xlink:href="#_ÂÁ_Ï_ÌÌ_È_ËÂÌÚ_28"/><linearGradient id="_ÂÁ_Ï_ÌÌ_È_ËÂÌÚ_4" x1="118.41" y1="-213.12" x2="118.41" y2="-225.85" gradientTransform="matrix(0.97, 0.23, -0.23, 0.97, -75.16, 312.38)" gradientUnits="userSpaceOnUse"><stop offset="0" stop-color="#d32c87"/><stop offset="1" stop-color="#e6287e"/></linearGradient><linearGradient id="_ÂÁ_Ï_ÌÌ_È_ËÂÌÚ_65" x1="89.74" y1="125.9" x2="89.74" y2="120.49" gradientUnits="userSpaceOnUse"><stop offset="0" stop-color="#9d559b"/><stop offset="1" stop-color="#ea71a8"/></linearGradient><linearGradient id="_ÂÁ_Ï_ÌÌ_È_ËÂÌÚ_134-2" x1="169.37" y1="68.63" x2="179.32" y2="68.63" xlink:href="#_ÂÁ_Ï_ÌÌ_È_ËÂÌÚ_134"/><linearGradient id="_ÂÁ_Ï_ÌÌ_È_ËÂÌÚ_143-2" x1="73.02" y1="67.93" x2="83.99" y2="67.93" xlink:href="#_ÂÁ_Ï_ÌÌ_È_ËÂÌÚ_143"/><linearGradient id="_ÂÁ_Ï_ÌÌ_È_ËÂÌÚ_416-4" x1="79.16" y1="230.07" x2="77.37" y2="212.46" xlink:href="#_ÂÁ_Ï_ÌÌ_È_ËÂÌÚ_416"/><linearGradient id="_ÂÁ_Ï_ÌÌ_È_ËÂÌÚ_46-10" x1="81.48" y1="230.94" x2="84.29" y2="208.59" xlink:href="#_ÂÁ_Ï_ÌÌ_È_ËÂÌÚ_46"/><linearGradient id="_ÂÁ_Ï_ÌÌ_È_ËÂÌÚ_46-11" x1="62.88" y1="105.97" x2="62.88" y2="93.33" xlink:href="#_ÂÁ_Ï_ÌÌ_È_ËÂÌÚ_46"/></defs><title>CUDI-5-sprites</title><g class="cls-1"><g id="Capa_1" data-name="Capa 1"><path class="cls-2" d="M185.56,177.74s0,9.16-3.68,14.88c-2.09,3.26-5.76,5.13-10,5.69a24.29,24.29,0,0,1-10.19-1c-7.94-2.44-13.15-14.81-16-27s3.94-15.84,4.89-15.5c1.76.64,6.16,6.36,11.21,11.52a43.13,43.13,0,0,0,8,6.71A33,33,0,0,0,185.56,177.74Z"/><path class="cls-3" d="M171.9,198.31a24.29,24.29,0,0,1-10.19-1c-7.94-2.44-13.15-14.81-16-27s3.94-15.84,4.89-15.5c1.76.64,6.16,6.36,11.21,11.52a39.13,39.13,0,0,0-2.33,20.56C161.28,198.76,171.9,198.31,171.9,198.31Z"/><path class="cls-4" d="M128.4,230.53c0,7.91-2.73,26.66-8.29,25.7-1.2-.2-2.63-1.43-4.17-3.33-4.69-5.78-10.4-17.76-13.63-26-1.75-4.48-2.78-7.84-2.49-8.47,1.73-3.86,26.5,7.27,28.12,8.71C128.24,227.44,128.4,228.69,128.4,230.53Z"/><path class="cls-5" d="M99.82,218.47c-1.9,3.63,20.62,14.66,28.39,9.41C128.21,227.88,102.34,213.64,99.82,218.47Z"/><path class="cls-6" d="M110.91,230.42c-.88,1.58,3.63,19.3,9.2,25.81-1.2-.2-2.63-1.43-4.17-3.33-1.25-3-3.11-7.51-4.9-12-2.3-5.78-6.58-11.38-8.73-14-1.75-4.48-2.78-7.84-2.49-8.47,1.73-3.86,26.5,7.27,28.12,8.71.3.27.46,1.52.46,3.36C128.4,230.53,111.79,228.85,110.91,230.42Z"/><path class="cls-7" d="M155.24,222c-.19.7-.41,1.43-.63,2.18-3.41,11.45-9.36,28.1-13.84,33.8-1.07,1.37-2.05,2.1-2.9,2a2.11,2.11,0,0,1-.66-.21,5.81,5.81,0,0,1-2.18-2.21h0c-4.36-6.77-7.49-25.76-6.86-31.18a2.5,2.5,0,0,1,.42-1.34c3.66-3.62,27.72-14.16,28.68-12.3C157.52,213.24,156.69,216.92,155.24,222Z"/><path class="cls-8" d="M128.17,226.38c-.92,1.53,22.82,1.42,29.09-13.64C157.26,212.74,136.88,211.93,128.17,226.38Z"/><path class="cls-9" d="M140,233.83c-1,.14-2.4,7.65-.89,8.31S142.31,233.5,140,233.83Z"/><path class="cls-10" d="M155.24,222s-13.25,1.76-17.12,7.3-5,20-3.09,28.24c-4.36-6.77-7.49-25.76-6.86-31.18a2.5,2.5,0,0,1,.42-1.34c3.66-3.62,27.72-14.16,28.68-12.3C157.52,213.24,156.69,216.92,155.24,222Z"/><path class="cls-11" d="M104.32,158.58c0,6.76-1,16.55-4,24.45-5.08,13.09-12.72,29.56-13,30.08h0c-4.66,2.84-10.24,2.69-13.8,2.18a24.59,24.59,0,0,1-3.56-.77,107.19,107.19,0,0,1,9.82-32,130.11,130.11,0,0,1,14-22.32l.06-.09.17-.22.09-.12a.38.38,0,0,0,.08-.11,1.31,1.31,0,0,0,.12-.15s0,0,0,0l0,0c4.62-5.85,8.37-9.41,9.15-9C103.93,150.78,104.34,154,104.32,158.58Z"/><path class="cls-12" d="M70,213.94s6-9.91,12.2-8.62,5.09,7.8,5.09,7.8A17.11,17.11,0,0,1,70,213.94Z"/><path class="cls-13" d="M104.32,158.58c0,6.76-1,16.55-4,24.45-5.08,13.09-12.72,29.56-13,30.08h0l-13.8,2.18a24.59,24.59,0,0,1-3.56-.77,107.19,107.19,0,0,1,9.82-32,130.11,130.11,0,0,1,14-22.32c-2.61,3.43-13.49,18.38-16.41,31.08-3.34,14.44,10.1,8.88,15.6,0s11.23-32.73,11.23-32.73Z"/><path class="cls-9" d="M89.3,181.67c-1.09-.41,4.56-13.21,6.32-13.33S90.24,182,89.3,181.67Z"/><path class="cls-9" d="M88.73,183c-.86-.46-1.68,1.93-.89,2.29S89.71,183.55,88.73,183Z"/><path class="cls-14" d="M155.89,63.64s7-6.06,15.61-7.11c0,0,2.63,1.29,5.67,10.76s-2.57,28.17-2.57,28.17Z"/><path class="cls-15" d="M171.5,56.53A30.36,30.36,0,0,0,164.55,76l2.69,1.69,7.83-16.21S172.47,56.39,171.5,56.53Z"/><path class="cls-16" d="M167,76.87s-1.85-10.25,4.9-17.8c0,0,7.63,3.6,10.79,16.93s-5.06,21.33-5.06,21.33Z"/><path class="cls-9" d="M163.06,59.52c-1.3.7-1.2,2.1,1.49,1.75s4.15-2.46,3.86-2.87S164.51,58.73,163.06,59.52Z"/><path class="cls-17" d="M97,65.16s-7-6.06-15.61-7.11c0,0-2.64,1.29-5.68,10.76S78.26,97,78.26,97Z"/><path class="cls-18" d="M81.36,58.05a30.36,30.36,0,0,1,7,19.47l-2.69,1.69L77.79,63S80.39,57.91,81.36,58.05Z"/><path class="cls-19" d="M85.88,78.39S87.73,68.13,81,60.59c0,0-7.62,3.6-10.78,16.93a24.52,24.52,0,0,0,5.94,22.19Z"/><path class="cls-9" d="M89.8,61c1.3.7,1.19,2.1-1.49,1.74s-4.15-2.45-3.86-2.86S88.34,60.25,89.8,61Z"/><path class="cls-20" d="M157,205.37c-2.14,12.62-13.44,21-29.65,21-14.1,0-26-5.25-29.21-16.83s-1.93-33,2.28-46.3a43.51,43.51,0,0,1,2.27-5.73v0a38.94,38.94,0,0,1,2.66-4.69v0C110.48,145.07,118,140,126.52,140a25.81,25.81,0,0,1,20.27,9.05,29.44,29.44,0,0,1,5,8.47,84.24,84.24,0,0,1,3.48,11.15.65.65,0,0,0,0,.11A94.63,94.63,0,0,1,157,205.37Z"/><path class="cls-21" d="M157,205.37c-2.14,12.62-13.44,21-29.65,21-14.1,0-26-5.25-29.21-16.83s-1.93-33,2.28-46.3a43.51,43.51,0,0,1,2.27-5.73v0s-8.54,28.3-1.72,46.32,38.61,17.64,49.36,5.66c10.24-11.39,5.51-38.16,5-40.72A94.63,94.63,0,0,1,157,205.37Z"/><path class="cls-22" d="M98.71,197.88c2.41-16.95,16-28.43,31.1-27,16.27,1.54,25,17.07,24.78,30.4S144.62,225,127.16,225,96.45,213.72,98.71,197.88Z"/><path class="cls-23" d="M98.86,199.28c2.41-16.94,16-28.43,31.1-27,16.27,1.53,25,17.07,24.78,30.39s-10,23.74-27.43,23.74S96.6,215.12,98.86,199.28Z"/><path class="cls-24" d="M146.79,149.05c-3.45,5.41-22.45,8.56-33.43,7.56-9.56-.87-8.11-3.45-8-3.78v0C110.48,145.07,118,140,126.52,140A25.81,25.81,0,0,1,146.79,149.05Z"/><path class="cls-9" d="M140,158.43c-.88.29-.93,7.42,0,8.56s2.41.8,2.9-.88S141.38,158,140,158.43Z"/><path class="cls-9" d="M141.67,168.89c-.73.18-.82,1.94-.48,2.56a1.09,1.09,0,0,0,1.83-.26C143.23,170.44,142.41,168.72,141.67,168.89Z"/><path class="cls-25" d="M108.42,216.53s3.9,6.79,18.42,6.85,20.43-8.59,20.43-8.59A21.15,21.15,0,0,1,131,216.53C121.4,213.91,111.93,212.44,108.42,216.53Z"/><path class="cls-26" d="M104.63,188.53c2.87,4.57,14.67,2.14,28,3.43s15.57,5.63,18.37,4.75-1.62-20.9-21.5-22.26S103.92,187.39,104.63,188.53Z"/><path class="cls-27" d="M77.24,130.05c10.76,24.81,91.27,17.07,100.89-3.31,10.52-22.29-13.67-77.39-52.25-74.82C93.28,54.09,63.41,98.15,77.24,130.05Z"/><path class="cls-28" d="M81.68,126.55c10.29,20.35,80.57,17,90.84-1.72,8.71-15.89-11.88-64.27-47.18-62.55S71.81,107,81.68,126.55Z"/><path class="cls-29" d="M158,102.56c-1.39,3.71-19.92,3.27-19.9,1.94.11-7.4,4.07-17.12,11.47-17C157.2,87.52,160.57,95.66,158,102.56Z"/><path class="cls-30" d="M95.53,103.05c1.59,3.63,20.07,2.16,20,.83-.52-7.39-5-16.87-12.4-16.39C95.47,88,92.57,96.3,95.53,103.05Z"/><path class="cls-31" d="M115.82,116.76c-2.79.67,3,10,12.4,10,8.3,0,13-9.56,11.92-10s-6,2.15-12.95,2.15S117,116.47,115.82,116.76Z"/><path class="cls-32" d="M70,214.53s3.7-5.25,9.06-5.95,7.27.78,8.3,4.54-6.57,17.45-16,27.77c-4.07.33-5.3-4.67-5.89-7.88C65.43,230.2,68.12,218.94,70,214.53Z"/><path class="cls-33" d="M83,208.54s-10,14-13.24,22c-1.72,4.33-2.7,7.18-2.7,7.18s2.61,6.61,6.94,1.08c6.13-7.84,14.35-19.63,12.86-25.3C85.56,208.69,84.72,207.78,83,208.54Z"/><path class="cls-34" d="M178.08,176.6c-4.61,1.43-5.15,17.06-.76,19.06s10.52-11.69,8.24-17.92C185.56,177.74,181.47,175.54,178.08,176.6Z"/><path class="cls-35" d="M178.49,178.42a9,9,0,0,0-1.87,8.52c1.4,5.27,8.41,8.83,17.18,8.72s14.38-6.45,15.61-10.3c0,0-1.58-3.23-10.17-5.22-5.84-1.36-13.68-2.4-13.68-2.4A15.43,15.43,0,0,0,178.49,178.42Z"/><path class="cls-36" d="M177,187.94a38.17,38.17,0,0,0,16.84.88c9.12-1.64,6.34-8.15,6.34-8.15a40.17,40.17,0,0,0-8.56-3.07c-4.09-.82-13,0-13,0A8.5,8.5,0,0,0,177,187.94Z"/><path class="cls-37" d="M182.56,193.37s.82-6.5.07-9.61c0,0,2.58,6.77,2.93,10.8Z"/><path class="cls-38" d="M184.4,180.94s4,4.4,9.31,5.69,8.35-3.76,8.35-3.76l-1.83-2.32Z"/><path class="cls-39" d="M179.17,178c-1.32-4.06,16.94-4,19.37-2.44,1.08.69,2.91,3.1,2.16,4.57s-6.76,2.36-9.27,2.11S180,180.65,179.17,178Z"/><path class="cls-40" d="M193.14,182.25s-.19-4,1.89-5.59a4.05,4.05,0,0,1,4-.75s2.73,2,1.71,4.21S194.49,182.82,193.14,182.25Z"/><path class="cls-9" d="M137.25,56.53c-.74.88,7.8,4.58,8.94,4.06S139.7,53.6,137.25,56.53Z"/><path class="cls-41" d="M94.08,82.67c-.81,4.84,8.37,4.29,23.06,3.81,17.66-.59,35.4,14.61,45.72,3.7,1.7-1.8-15.2-25.4-35.6-24.87S94.78,78.46,94.08,82.67Z"/><path class="cls-42" d="M103.17,133.25c-.93,3.52,6.42,7,24.49,6.14,21.86-1.07,26.5-5.64,25.42-6.91-.64-.76-7.19,3.36-25.13-.57C116.09,129.31,104.15,129.56,103.17,133.25Z"/><path class="cls-43" d="M83.64,122.33a48,48,0,0,1,.14-11.93c.9-6.84,2.73-11.25,3.83-10.63s.92,7.31,1.57,13.91c.5,5.14,1.49,10,1.49,10S85.94,128.15,83.64,122.33Z"/><path class="cls-44" d="M85.15,138.42s1.09-1.18,6.92-4.61c3.91-2.29,8-5,8.6-6,.87-2.35-16.74-1-16.74-1l-6.69,3.21A23,23,0,0,0,85.15,138.42Z"/><path class="cls-45" d="M71.7,86.52s4.54,2.92,1.57,9.69c0,0-21.22,11.55-20,24.14,1,10.51,30.34,5.42,30.34,5.42l1,3.51s-24.9,4.87-33.5-1c0,0-2.92-6.94,4.33-19.45A145.79,145.79,0,0,1,71.7,86.52Z"/><path class="cls-46" d="M79.91,124.8c-2.68,3,3,6.33,7.65,6.84,5.23.56,14.52-1.5,14-6.77S86.17,117.72,79.91,124.8Z"/><path class="cls-47" d="M80.26,125.36c-.16.86,18.51,1.06,18.95-2.23S81.49,118.69,80.26,125.36Z"/><path class="cls-48" d="M178.08,65.09s-2.48-3.06-5.85-2.25-3.59,11.44-1.58,11.7,2.88-5.87,4.42-6.84,4.25-.59,4.25-.59Z"/><path class="cls-49" d="M73,69.62s1.3-1.47,4.22-1,4.61,6.47,6.1,5.87.4-10.32-3.55-13.18C79.79,61.32,74.7,65.67,73,69.62Z"/><path class="cls-50" d="M74.5,221.39s1.4,7.44,5.9,8.56l.71-17.87S75.84,219.1,74.5,221.39Z"/><path class="cls-51" d="M78.9,216.32c-.67,1.73.62,13,1.85,14.25s4.06-.88,4.84-3.16,4.33-14.7-.22-18.68C85.37,208.73,81.7,209.13,78.9,216.32Z"/><path class="cls-9" d="M81,217.84c-.5.09-1.06,3.94-.65,4.63s1.25.62,1.64-.26S81.71,217.7,81,217.84Z"/><path class="cls-52" d="M67.63,93.33s-10.15,11.78-9.5,12.6S68.27,94.52,67.63,93.33Z"/></g></g></svg>