<svg xmlns="http://www.w3.org/2000/svg" xmlns:xlink="http://www.w3.org/1999/xlink" viewBox="0 0 260 260"><defs><style>.cls-1{isolation:isolate;}.cls-2{fill:url(#_ÂÁ_Ï_ÌÌ_È_ËÂÌÚ_129);}.cls-18,.cls-22,.cls-24,.cls-3,.cls-33,.cls-40,.cls-49,.cls-50,.cls-56,.cls-57{opacity:0.5;}.cls-18,.cls-22,.cls-3,.cls-40,.cls-51,.cls-52,.cls-56,.cls-57,.cls-6,.cls-8{mix-blend-mode:multiply;}.cls-3{fill:url(#_ÂÁ_Ï_ÌÌ_È_ËÂÌÚ_416);}.cls-4{fill:url(#_ÂÁ_Ï_ÌÌ_È_ËÂÌÚ_129-2);}.cls-5{fill:url(#_ÂÁ_Ï_ÌÌ_È_ËÂÌÚ_28);}.cls-51,.cls-52,.cls-6,.cls-8{opacity:0.3;}.cls-6{fill:url(#_ÂÁ_Ï_ÌÌ_È_ËÂÌÚ_153);}.cls-7{fill:url(#_ÂÁ_Ï_ÌÌ_È_ËÂÌÚ_46);}.cls-8{fill:url(#_ÂÁ_Ï_ÌÌ_È_ËÂÌÚ_153-2);}.cls-9{fill:url(#_ÂÁ_Ï_ÌÌ_È_ËÂÌÚ_28-2);}.cls-10{fill:url(#_ÂÁ_Ï_ÌÌ_È_ËÂÌÚ_91);}.cls-11{fill:url(#_ÂÁ_Ï_ÌÌ_È_ËÂÌÚ_5);}.cls-12{fill:#5f4393;}.cls-13,.cls-14,.cls-28,.cls-29{opacity:0.72;}.cls-13,.cls-14,.cls-24,.cls-28,.cls-29,.cls-33,.cls-50{mix-blend-mode:screen;}.cls-13{fill:url(#_ÂÁ_Ï_ÌÌ_È_ËÂÌÚ_134);}.cls-14{fill:url(#_ÂÁ_Ï_ÌÌ_È_ËÂÌÚ_143);}.cls-15{fill:#fff;}.cls-16{fill:url(#_ÂÁ_Ï_ÌÌ_È_ËÂÌÚ_46-2);}.cls-17{fill:url(#_ÂÁ_Ï_ÌÌ_È_ËÂÌÚ_46-3);}.cls-18{fill:url(#_ÂÁ_Ï_ÌÌ_È_ËÂÌÚ_416-2);}.cls-19{fill:url(#_ÂÁ_Ï_ÌÌ_È_ËÂÌÚ_17);}.cls-20{fill:url(#_ÂÁ_Ï_ÌÌ_È_ËÂÌÚ_264);}.cls-21{fill:url(#_ÂÁ_Ï_ÌÌ_È_ËÂÌÚ_46-4);}.cls-22{fill:url(#_ÂÁ_Ï_ÌÌ_È_ËÂÌÚ_416-3);}.cls-23{fill:url(#_ÂÁ_Ï_ÌÌ_È_ËÂÌÚ_132);}.cls-24{fill:url(#_ÂÁ_Ï_ÌÌ_È_ËÂÌÚ_54);}.cls-25{fill:url(#_ÂÁ_Ï_ÌÌ_È_ËÂÌÚ_264-2);}.cls-26{fill:url(#_ÂÁ_Ï_ÌÌ_È_ËÂÌÚ_28-3);}.cls-27{fill:url(#_ÂÁ_Ï_ÌÌ_È_ËÂÌÚ_17-2);}.cls-28{fill:url(#_ÂÁ_Ï_ÌÌ_È_ËÂÌÚ_143-2);}.cls-29{fill:url(#_ÂÁ_Ï_ÌÌ_È_ËÂÌÚ_134-2);}.cls-30{fill:url(#_ÂÁ_Ï_ÌÌ_È_ËÂÌÚ_17-3);}.cls-31{fill:url(#_ÂÁ_Ï_ÌÌ_È_ËÂÌÚ_17-4);}.cls-32{fill:#2f94cd;}.cls-33{fill:url(#_ÂÁ_Ï_ÌÌ_È_ËÂÌÚ_54-2);}.cls-34{fill:url(#_ÂÁ_Ï_ÌÌ_È_ËÂÌÚ_28-4);}.cls-35{fill:url(#_ÂÁ_Ï_ÌÌ_È_ËÂÌÚ_4);}.cls-36{fill:url(#_ÂÁ_Ï_ÌÌ_È_ËÂÌÚ_65);}.cls-37{fill:url(#_ÂÁ_Ï_ÌÌ_È_ËÂÌÚ_28-5);}.cls-38{fill:url(#_ÂÁ_Ï_ÌÌ_È_ËÂÌÚ_65-2);}.cls-39{fill:url(#_ÂÁ_Ï_ÌÌ_È_ËÂÌÚ_7);}.cls-40{fill:url(#_ÂÁ_Ï_ÌÌ_È_ËÂÌÚ_416-4);}.cls-41{fill:#d097c3;}.cls-42{fill:url(#_ÂÁ_Ï_ÌÌ_È_ËÂÌÚ_28-6);}.cls-43{fill:url(#_ÂÁ_Ï_ÌÌ_È_ËÂÌÚ_46-5);}.cls-44{fill:url(#_ÂÁ_Ï_ÌÌ_È_ËÂÌÚ_65-3);}.cls-45{fill:url(#_ÂÁ_Ï_ÌÌ_È_ËÂÌÚ_326);}.cls-46{fill:url(#_ÂÁ_Ï_ÌÌ_È_ËÂÌÚ_322);}.cls-47{fill:url(#_ÂÁ_Ï_ÌÌ_È_ËÂÌÚ_91-2);}.cls-48{fill:url(#_ÂÁ_Ï_ÌÌ_È_ËÂÌÚ_326-2);}.cls-49{mix-blend-mode:color-dodge;fill:url(#_ÂÁ_Ï_ÌÌ_È_ËÂÌÚ_54-3);}.cls-50{fill:url(#_ÂÁ_Ï_ÌÌ_È_ËÂÌÚ_54-4);}.cls-51{fill:url(#_ÂÁ_Ï_ÌÌ_È_ËÂÌÚ_153-3);}.cls-52{fill:url(#_ÂÁ_Ï_ÌÌ_È_ËÂÌÚ_153-4);}.cls-53{fill:url(#_ÂÁ_Ï_ÌÌ_È_ËÂÌÚ_46-6);}.cls-54{fill:url(#_ÂÁ_Ï_ÌÌ_È_ËÂÌÚ_46-7);}.cls-55{fill:url(#_ÂÁ_Ï_ÌÌ_È_ËÂÌÚ_28-7);}.cls-56{fill:url(#_ÂÁ_Ï_ÌÌ_È_ËÂÌÚ_416-5);}.cls-57{fill:url(#_ÂÁ_Ï_ÌÌ_È_ËÂÌÚ_166);}.cls-58{fill:url(#_ÂÁ_Ï_ÌÌ_È_ËÂÌÚ_46-8);}.cls-59{fill:url(#_ÂÁ_Ï_ÌÌ_È_ËÂÌÚ_129-3);}</style><linearGradient id="_ÂÁ_Ï_ÌÌ_È_ËÂÌÚ_129" x1="115.1" y1="244.08" x2="124.13" y2="212.8" gradientUnits="userSpaceOnUse"><stop offset="0" stop-color="#c9bede"/><stop offset="1" stop-color="#cfbbdc"/></linearGradient><linearGradient id="_ÂÁ_Ï_ÌÌ_È_ËÂÌÚ_416" x1="123.4" y1="237.77" x2="123.4" y2="209.77" gradientUnits="userSpaceOnUse"><stop offset="0" stop-color="#8ea1d3"/><stop offset="1" stop-color="#6e5ba3"/></linearGradient><linearGradient id="_ÂÁ_Ï_ÌÌ_È_ËÂÌÚ_129-2" x1="-839.21" y1="948.18" x2="-832.16" y2="892.01" gradientTransform="translate(-831.53 -608.18) rotate(-95.44)" xlink:href="#_ÂÁ_Ï_ÌÌ_È_ËÂÌÚ_129"/><linearGradient id="_ÂÁ_Ï_ÌÌ_È_ËÂÌÚ_28" x1="-915.67" y1="898.43" x2="-917.44" y2="880.98" gradientTransform="translate(-942.08 -478.11) rotate(-107.68)" gradientUnits="userSpaceOnUse"><stop offset="0" stop-color="#b39bc9"/><stop offset="1" stop-color="#9289c1"/></linearGradient><linearGradient id="_ÂÁ_Ï_ÌÌ_È_ËÂÌÚ_153" x1="-842.55" y1="957.16" x2="-842.55" y2="890.08" gradientTransform="translate(-831.53 -608.18) rotate(-95.44)" gradientUnits="userSpaceOnUse"><stop offset="0" stop-color="#9169a9"/><stop offset="1" stop-color="#cce9fb"/></linearGradient><linearGradient id="_ÂÁ_Ï_ÌÌ_È_ËÂÌÚ_46" x1="-1461.92" y1="37.02" x2="-1450.93" y2="-50.52" gradientTransform="matrix(-0.97, -0.25, -0.25, 0.97, -1289.45, -175)" gradientUnits="userSpaceOnUse"><stop offset="0" stop-color="#c9bede"/><stop offset="1" stop-color="#e6daec"/></linearGradient><linearGradient id="_ÂÁ_Ï_ÌÌ_È_ËÂÌÚ_153-2" x1="-1435.95" y1="22.7" x2="-1435.95" y2="-22.48" gradientTransform="matrix(-0.97, -0.25, -0.25, 0.97, -1289.45, -175)" xlink:href="#_ÂÁ_Ï_ÌÌ_È_ËÂÌÚ_153"/><linearGradient id="_ÂÁ_Ï_ÌÌ_È_ËÂÌÚ_28-2" x1="-1486.96" y1="9.31" x2="-1444.03" y2="9.31" gradientTransform="matrix(-0.97, -0.25, -0.25, 0.97, -1289.45, -175)" xlink:href="#_ÂÁ_Ï_ÌÌ_È_ËÂÌÚ_28"/><radialGradient id="_ÂÁ_Ï_ÌÌ_È_ËÂÌÚ_91" cx="-1464.78" cy="28.77" r="32.44" gradientTransform="matrix(-0.97, -0.25, -0.25, 0.97, -1289.45, -175)" gradientUnits="userSpaceOnUse"><stop offset="0" stop-color="#79c3b0"/><stop offset="1" stop-color="#60c4e5"/></radialGradient><linearGradient id="_ÂÁ_Ï_ÌÌ_È_ËÂÌÚ_5" x1="-1440.55" y1="-22.48" x2="-1429.5" y2="-22.48" gradientTransform="matrix(-0.97, -0.25, -0.25, 0.97, -1289.45, -175)" gradientUnits="userSpaceOnUse"><stop offset="0" stop-color="#7974b4"/><stop offset="1" stop-color="#9289c1"/></linearGradient><linearGradient id="_ÂÁ_Ï_ÌÌ_È_ËÂÌÚ_134" x1="-1484.72" y1="-5.78" x2="-1449.1" y2="-5.78" gradientTransform="matrix(-0.97, -0.25, -0.25, 0.97, -1289.45, -175)" gradientUnits="userSpaceOnUse"><stop offset="0"/><stop offset="1" stop-color="#d4dff3"/></linearGradient><linearGradient id="_ÂÁ_Ï_ÌÌ_È_ËÂÌÚ_143" x1="-1465.29" y1="35.25" x2="-1465.29" y2="31.13" gradientTransform="matrix(-0.97, -0.25, -0.25, 0.97, -1289.45, -175)" gradientUnits="userSpaceOnUse"><stop offset="0" stop-color="#d4dff3"/><stop offset="1"/></linearGradient><linearGradient id="_ÂÁ_Ï_ÌÌ_È_ËÂÌÚ_46-2" x1="109.83" y1="298.7" x2="124.89" y2="246.53" gradientTransform="translate(-30.57 -36.2) rotate(-3.1)" xlink:href="#_ÂÁ_Ï_ÌÌ_È_ËÂÌÚ_46"/><linearGradient id="_ÂÁ_Ï_ÌÌ_È_ËÂÌÚ_46-3" x1="85.77" y1="174.64" x2="89.43" y2="145.45" gradientTransform="matrix(1, 0, 0, 1, 0, 0)" xlink:href="#_ÂÁ_Ï_ÌÌ_È_ËÂÌÚ_46"/><linearGradient id="_ÂÁ_Ï_ÌÌ_È_ËÂÌÚ_416-2" x1="120.07" y1="157.39" x2="125.34" y2="136.75" xlink:href="#_ÂÁ_Ï_ÌÌ_È_ËÂÌÚ_416"/><linearGradient id="_ÂÁ_Ï_ÌÌ_È_ËÂÌÚ_17" x1="-1301.1" y1="259.24" x2="-1301.1" y2="230.46" gradientTransform="matrix(-0.98, 0.22, 0.22, 0.98, -1178.16, 110.33)" xlink:href="#_ÂÁ_Ï_ÌÌ_È_ËÂÌÚ_91"/><linearGradient id="_ÂÁ_Ï_ÌÌ_È_ËÂÌÚ_264" x1="-1293.36" y1="249.31" x2="-1293.36" y2="224.56" gradientTransform="matrix(-0.98, 0.22, 0.22, 0.98, -1178.16, 110.33)" gradientUnits="userSpaceOnUse"><stop offset="0" stop-color="#b5a9d3"/><stop offset="1" stop-color="#dfcfe7"/></linearGradient><linearGradient id="_ÂÁ_Ï_ÌÌ_È_ËÂÌÚ_46-4" x1="116.55" y1="147.01" x2="128.37" y2="52.88" gradientTransform="matrix(1, 0, 0, 1, 0, 0)" xlink:href="#_ÂÁ_Ï_ÌÌ_È_ËÂÌÚ_46"/><linearGradient id="_ÂÁ_Ï_ÌÌ_È_ËÂÌÚ_416-3" x1="79.45" y1="124.36" x2="79.45" y2="104.23" xlink:href="#_ÂÁ_Ï_ÌÌ_È_ËÂÌÚ_416"/><linearGradient id="_ÂÁ_Ï_ÌÌ_È_ËÂÌÚ_132" x1="132.46" y1="140.04" x2="132.46" y2="58.77" gradientUnits="userSpaceOnUse"><stop offset="0" stop-color="#1e64ae"/><stop offset="1" stop-color="#292f6b"/></linearGradient><linearGradient id="_ÂÁ_Ï_ÌÌ_È_ËÂÌÚ_54" x1="107.97" y1="134.43" x2="109.82" y2="119.68" gradientUnits="userSpaceOnUse"><stop offset="0"/><stop offset="1" stop-color="#7192cb"/></linearGradient><linearGradient id="_ÂÁ_Ï_ÌÌ_È_ËÂÌÚ_264-2" x1="-1577.46" y1="112.85" x2="-1577.46" y2="65.46" gradientTransform="matrix(-1, 0, 0, 1, -1498.63, 0)" xlink:href="#_ÂÁ_Ï_ÌÌ_È_ËÂÌÚ_264"/><linearGradient id="_ÂÁ_Ï_ÌÌ_È_ËÂÌÚ_28-3" x1="-1573.83" y1="111.05" x2="-1573.83" y2="65.68" gradientTransform="matrix(-1, 0, 0, 1, -1498.63, 0)" xlink:href="#_ÂÁ_Ï_ÌÌ_È_ËÂÌÚ_28"/><linearGradient id="_ÂÁ_Ï_ÌÌ_È_ËÂÌÚ_17-2" x1="-1570.4" y1="112.18" x2="-1570.4" y2="67.71" gradientTransform="matrix(-1, 0, 0, 1, -1498.63, 0)" xlink:href="#_ÂÁ_Ï_ÌÌ_È_ËÂÌÚ_91"/><linearGradient id="_ÂÁ_Ï_ÌÌ_È_ËÂÌÚ_143-2" x1="-1571.25" y1="110.73" x2="-1571.25" y2="97.74" gradientTransform="matrix(-1, 0, 0, 1, -1498.63, 0)" xlink:href="#_ÂÁ_Ï_ÌÌ_È_ËÂÌÚ_143"/><linearGradient id="_ÂÁ_Ï_ÌÌ_È_ËÂÌÚ_134-2" x1="-1582.05" y1="75.84" x2="-1556.6" y2="75.84" gradientTransform="matrix(-1, 0, 0, 1, -1498.63, 0)" xlink:href="#_ÂÁ_Ï_ÌÌ_È_ËÂÌÚ_134"/><linearGradient id="_ÂÁ_Ï_ÌÌ_È_ËÂÌÚ_17-3" x1="194.5" y1="581.76" x2="194.5" y2="559.51" gradientTransform="matrix(0.84, -0.55, 0.55, 0.84, -319.96, -284.94)" xlink:href="#_ÂÁ_Ï_ÌÌ_È_ËÂÌÚ_91"/><linearGradient id="_ÂÁ_Ï_ÌÌ_È_ËÂÌÚ_17-4" x1="-55.87" y1="470.41" x2="-55.87" y2="445.3" gradientTransform="matrix(1.22, -0.6, 0.44, 0.9, -16.82, -343.6)" xlink:href="#_ÂÁ_Ï_ÌÌ_È_ËÂÌÚ_91"/><linearGradient id="_ÂÁ_Ï_ÌÌ_È_ËÂÌÚ_54-2" x1="96.23" y1="81.6" x2="161.34" y2="81.6" xlink:href="#_ÂÁ_Ï_ÌÌ_È_ËÂÌÚ_54"/><linearGradient id="_ÂÁ_Ï_ÌÌ_È_ËÂÌÚ_28-4" x1="42.91" y1="66.11" x2="48.46" y2="21.96" gradientTransform="translate(43.22 80.46) rotate(6.38)" xlink:href="#_ÂÁ_Ï_ÌÌ_È_ËÂÌÚ_28"/><linearGradient id="_ÂÁ_Ï_ÌÌ_È_ËÂÌÚ_4" x1="101.17" y1="9.16" x2="101.17" y2="-3.57" gradientTransform="translate(5.94 140.9) rotate(-2.22)" gradientUnits="userSpaceOnUse"><stop offset="0" stop-color="#d32c87"/><stop offset="1" stop-color="#e6287e"/></linearGradient><linearGradient id="_ÂÁ_Ï_ÌÌ_È_ËÂÌÚ_65" x1="159.7" y1="353.76" x2="159.7" y2="348.35" gradientTransform="translate(-141.72 -158.39) rotate(-15.46)" gradientUnits="userSpaceOnUse"><stop offset="0" stop-color="#9d559b"/><stop offset="1" stop-color="#ea71a8"/></linearGradient><linearGradient id="_ÂÁ_Ï_ÌÌ_È_ËÂÌÚ_28-5" x1="56.04" y1="157.1" x2="55.34" y2="150.22" gradientTransform="matrix(1, 0, 0, 1, 0, 0)" xlink:href="#_ÂÁ_Ï_ÌÌ_È_ËÂÌÚ_28"/><linearGradient id="_ÂÁ_Ï_ÌÌ_È_ËÂÌÚ_65-2" x1="68.06" y1="186.1" x2="79.24" y2="129.9" gradientTransform="matrix(1, 0, 0, 1, 0, 0)" xlink:href="#_ÂÁ_Ï_ÌÌ_È_ËÂÌÚ_65"/><linearGradient id="_ÂÁ_Ï_ÌÌ_È_ËÂÌÚ_7" x1="87.53" y1="182.95" x2="91.34" y2="129.27" gradientUnits="userSpaceOnUse"><stop offset="0" stop-color="#724d99"/><stop offset="1" stop-color="#e6287e"/></linearGradient><linearGradient id="_ÂÁ_Ï_ÌÌ_È_ËÂÌÚ_416-4" x1="62.42" y1="168.64" x2="70.9" y2="168.64" xlink:href="#_ÂÁ_Ï_ÌÌ_È_ËÂÌÚ_416"/><linearGradient id="_ÂÁ_Ï_ÌÌ_È_ËÂÌÚ_28-6" x1="-29.42" y1="-6.1" x2="-31.18" y2="-23.42" gradientTransform="translate(88.57 184.4) rotate(13.58)" xlink:href="#_ÂÁ_Ï_ÌÌ_È_ËÂÌÚ_28"/><linearGradient id="_ÂÁ_Ï_ÌÌ_È_ËÂÌÚ_46-5" x1="-34.2" y1="-8.07" x2="-32.01" y2="-25.47" gradientTransform="translate(88.57 184.4) rotate(13.58)" xlink:href="#_ÂÁ_Ï_ÌÌ_È_ËÂÌÚ_46"/><linearGradient id="_ÂÁ_Ï_ÌÌ_È_ËÂÌÚ_65-3" x1="87.72" y1="152.83" x2="90.47" y2="139" gradientTransform="matrix(1, 0, 0, 1, 0, 0)" xlink:href="#_ÂÁ_Ï_ÌÌ_È_ËÂÌÚ_65"/><linearGradient id="_ÂÁ_Ï_ÌÌ_È_ËÂÌÚ_326" x1="88.96" y1="152.77" x2="89.95" y2="138.82" gradientUnits="userSpaceOnUse"><stop offset="0" stop-color="#aa2b86"/><stop offset="1" stop-color="#901d7f"/></linearGradient><linearGradient id="_ÂÁ_Ï_ÌÌ_È_ËÂÌÚ_322" x1="114.1" y1="310.06" x2="114.83" y2="299.87" gradientTransform="translate(-101.46 -132.05) rotate(-11.22)" gradientUnits="userSpaceOnUse"><stop offset="0" stop-color="#aa2b86"/><stop offset="1" stop-color="#e6287e"/></linearGradient><radialGradient id="_ÂÁ_Ï_ÌÌ_È_ËÂÌÚ_91-2" cx="114.93" cy="305.06" r="3.5" gradientTransform="translate(-101.46 -132.05) rotate(-11.22)" xlink:href="#_ÂÁ_Ï_ÌÌ_È_ËÂÌÚ_91"/><linearGradient id="_ÂÁ_Ï_ÌÌ_È_ËÂÌÚ_326-2" x1="71.59" y1="181.07" x2="86.2" y2="181.07" xlink:href="#_ÂÁ_Ï_ÌÌ_È_ËÂÌÚ_326"/><linearGradient id="_ÂÁ_Ï_ÌÌ_È_ËÂÌÚ_54-3" x1="76.96" y1="182.67" x2="76.96" y2="134.57" xlink:href="#_ÂÁ_Ï_ÌÌ_È_ËÂÌÚ_54"/><linearGradient id="_ÂÁ_Ï_ÌÌ_È_ËÂÌÚ_54-4" x1="148.23" y1="136.58" x2="150.87" y2="115.57" xlink:href="#_ÂÁ_Ï_ÌÌ_È_ËÂÌÚ_54"/><linearGradient id="_ÂÁ_Ï_ÌÌ_È_ËÂÌÚ_153-3" x1="113.1" y1="196.63" x2="113.1" y2="196.08" gradientTransform="matrix(1, 0, 0, 1, 0, 0)" xlink:href="#_ÂÁ_Ï_ÌÌ_È_ËÂÌÚ_153"/><linearGradient id="_ÂÁ_Ï_ÌÌ_È_ËÂÌÚ_153-4" x1="119.61" y1="303.49" x2="119.61" y2="244.61" gradientTransform="translate(-30.57 -36.2) rotate(-3.1)" xlink:href="#_ÂÁ_Ï_ÌÌ_È_ËÂÌÚ_153"/><linearGradient id="_ÂÁ_Ï_ÌÌ_È_ËÂÌÚ_46-6" x1="67.23" y1="124.36" x2="67.23" y2="107.46" gradientTransform="matrix(1, 0, 0, 1, 0, 0)" xlink:href="#_ÂÁ_Ï_ÌÌ_È_ËÂÌÚ_46"/><linearGradient id="_ÂÁ_Ï_ÌÌ_È_ËÂÌÚ_46-7" x1="-131.68" y1="666.11" x2="-129.56" y2="649.2" gradientTransform="translate(-162.45 -451.22) rotate(-43.44)" xlink:href="#_ÂÁ_Ï_ÌÌ_È_ËÂÌÚ_46"/><linearGradient id="_ÂÁ_Ï_ÌÌ_È_ËÂÌÚ_28-7" x1="-134.3" y1="659.88" x2="-135.6" y2="647.15" gradientTransform="translate(-162.45 -451.22) rotate(-43.44)" xlink:href="#_ÂÁ_Ï_ÌÌ_È_ËÂÌÚ_28"/><linearGradient id="_ÂÁ_Ï_ÌÌ_È_ËÂÌÚ_416-5" x1="-139.06" y1="665.01" x2="-139.06" y2="654.21" gradientTransform="translate(-162.45 -451.22) rotate(-43.44)" xlink:href="#_ÂÁ_Ï_ÌÌ_È_ËÂÌÚ_416"/><linearGradient id="_ÂÁ_Ï_ÌÌ_È_ËÂÌÚ_166" x1="-138.72" y1="654.15" x2="-121.07" y2="654.15" gradientTransform="translate(-162.45 -451.22) rotate(-43.44)" gradientUnits="userSpaceOnUse"><stop offset="0" stop-color="#6e5ba3"/><stop offset="1" stop-color="#cce9fb"/></linearGradient><linearGradient id="_ÂÁ_Ï_ÌÌ_È_ËÂÌÚ_46-8" x1="-114.5" y1="422.45" x2="-113.07" y2="411.05" gradientTransform="translate(118.65 -315.71) rotate(-24.36)" xlink:href="#_ÂÁ_Ï_ÌÌ_È_ËÂÌÚ_46"/><linearGradient id="_ÂÁ_Ï_ÌÌ_È_ËÂÌÚ_129-3" x1="-125.93" y1="652.72" x2="-126.58" y2="646.24" gradientTransform="translate(-162.45 -451.22) rotate(-43.44)" xlink:href="#_ÂÁ_Ï_ÌÌ_È_ËÂÌÚ_129"/></defs><title>CUDI-5-sprites</title><g class="cls-1"><g id="Capa_1" data-name="Capa 1"><path class="cls-2" d="M133.9,219.7s-2.09,3.17-4.91,7.22c-4.55,6.58-11,15.5-13.44,17-1.17.74-1.86-2-2.23-6.19-.88-9.91-.08-28-.08-28S128.48,213,133.9,219.7Z"/><path class="cls-3" d="M133.9,219.7s-2.09,3.17-4.91,7.22c0,0-4.13-.67-11.11,3.52-2.65,1.59-4,4.42-4.56,7.33-.88-9.91-.08-28-.08-28S128.48,213,133.9,219.7Z"/><path class="cls-4" d="M192.28,124.33v0c-.78,4.51-4.55,10.4-10.41,15.21-12.65,10.39-40,22.72-46.88,11.7-.68-1.09,5.71-7.24,14.35-14,10.19-8,23.51-16.76,32.14-19.14S193.16,119.13,192.28,124.33Z"/><path class="cls-5" d="M189.72,130.64s-15.59-2.51-15.77-7.32,13.72-6.86,16.84-4S191.31,128.72,189.72,130.64Z"/><path class="cls-6" d="M150.2,143a17.26,17.26,0,0,1,3.24-5.59c.87-1,2.62-3.8,2-3.82-1.15,0-6.09,3.73-6.09,3.73h0c-8.64,6.75-15,12.9-14.35,14,2.63,4.19,8.21,5,14.82,3.83A24,24,0,0,1,150.2,143Z"/><path class="cls-7" d="M92.7,189.63c-.62,18.43,7.46,28.47,25.42,32.79,17.6,4.24,33.23-12,33.27-35.78,0-15.18-.94-28.89-6.4-38.67h0v0a26.76,26.76,0,0,0-14.22-12.32c-5.21-2-10.41-.26-15.21,3.74C103,149.78,93.2,175.42,92.7,189.63Z"/><path class="cls-8" d="M110.48,159.26s-5.34,13.14-7.66,22.21c-2.75,10.77,1.08,22.73,1.08,22.73L93.65,201s-2.75-14.78.8-22.94a87.07,87.07,0,0,0,3.9-10.18Z"/><path class="cls-9" d="M151.56,189.75s-.71-14.23-13.32-17.45c-15.11-3.86-29.56,10.24-31.54,21.8s-1.23,23.06,12.92,27.15C119.62,221.25,146.51,227.48,151.56,189.75Z"/><path class="cls-10" d="M151.18,191.21s-.71-14.22-13.31-17.44c-15.11-3.86-29.56,10.24-31.55,21.8s-1.23,23.06,12.93,27.15C119.25,222.72,146.13,229,151.18,191.21Z"/><path class="cls-11" d="M99.6,172.08a3.08,3.08,0,0,0,2.44-1c4.24-3.41,10.68-14.73,12.37-21.5.65-2.62.59-4.56-.59-5.1-1.93-.86-7.76,4.9-12.2,14C99.05,163.76,96.8,171.37,99.6,172.08Z"/><path class="cls-12" d="M102,171.12c4.24-3.41,10.68-14.73,12.37-21.5-2.64,2.06-6.29,6.69-9.31,12.85A38.14,38.14,0,0,0,102,171.12Z"/><path class="cls-13" d="M149.7,189.7c-2.83,3.14-8.73-3.31-17.83-4.55s-15.06,2.23-17.28.29,9.16-13.11,22.89-10.17C148.44,177.62,150.66,188.64,149.7,189.7Z"/><path class="cls-14" d="M131.59,220a16,16,0,0,1-10.87,1.46c-6.2-1.35-7.48-4.85-7.48-4.85a13.24,13.24,0,0,1,7.14,1.46A19.79,19.79,0,0,0,131.59,220Z"/><path class="cls-15" d="M121.52,159.27c1.07.3.74,9-.21,9.17s-2.65-.28-2.63-3.92S120.5,159,121.52,159.27Z"/><path class="cls-16" d="M112.17,260c-5.83.15-30.08-53.43-24.26-57.66,9.92-7.2,23.46,7.21,28.51,15.39a13.82,13.82,0,0,1,2,4.33C119,226.76,118,259.85,112.17,260Z"/><path class="cls-17" d="M110.48,148.78c3.26,3.3-6.13,21.45-14.3,24.47s-25.78-.68-28.59-1.84-3.86-10.58-1.23-14.2S106,144.29,110.48,148.78Z"/><path class="cls-18" d="M97.23,148.22a49.59,49.59,0,0,0,31.12,9c18.51-1,18.45-6,18.45-6s-4.7-9.93-9.66-11.48c-1.95-.61-22.32-4.24-29,7.81C103.8,147.6,97.23,148.22,97.23,148.22Z"/><path class="cls-19" d="M141.58,50.59s9.41,6.33,13.58,21-17.82-2.93-17.82-2.93Z"/><path class="cls-20" d="M148.2,68.43s-2.56-19.53-9.1-22.13-15,7-15,7Z"/><path class="cls-21" d="M95.82,57.62C66.48,75.44,68.09,120,79.34,136.12c13.09,18.78,81.83,7,91.54-23.87C180.7,81.05,132.3,35.46,95.82,57.62Z"/><path class="cls-22" d="M86.92,104.23s-3.57,16.08-12.76,20.13c0,0-2.19-7.89-2.19-12.8S86.92,104.23,86.92,104.23Z"/><path class="cls-23" d="M113.09,61.88C90.42,73.19,87,119,102,134.16s66.22-.87,69.81-28.06C175,81.87,140.22,48.35,113.09,61.88Z"/><path class="cls-24" d="M117.88,134.86s-10.73,1.7-15.47-4.62-2.55-11.22-1-11.59,6.31,9.13,10.13,12.48S117.88,134.86,117.88,134.86Z"/><path class="cls-25" d="M92.36,75.34s3,27.67-14,37.45c0,0-8.37.9-13.25-4.18,0,0,7.59,7.12,15.59-.3s6.07-27.88,0-34.55-14.85-4.91-14.85-4.91l3.51-3.15S82.25,63.07,92.36,75.34Z"/><path class="cls-26" d="M69.33,65.7s9.5-.88,16.14,10.14c7,11.7,1.92,31.93-6.64,35S61.62,81.19,61.62,81.19l5-13A5.88,5.88,0,0,1,69.33,65.7Z"/><path class="cls-27" d="M57.06,93.58c1.22,6.33,3.79,11.49,7.24,14.76l0,0,1,.85h0a12.49,12.49,0,0,0,9.64,2.87C86.5,110.6,88.06,93.86,86.7,84.37c-1.59-11-11-17.53-18.42-16.57C59.4,69,54.66,81.21,57.06,93.58Z"/><path class="cls-28" d="M84.81,97.74S83.59,108,76,110.23,62.37,107,60.44,99.29c0,0,2.36,6.64,12.18,4.94S84.81,97.74,84.81,97.74Z"/><path class="cls-29" d="M83.42,78.34c-.09,1.91-13.93-2.06-18.34-1.48s-6.27,6-7,5.86S59.28,70,67.46,69,83.48,77,83.42,78.34Z"/><path class="cls-30" d="M153.78,97c4.71,2.6,11.57-3.2,9.85-10.16s-9.81-12.54-13.82-10.34S146,92.71,153.78,97Z"/><path class="cls-31" d="M111.31,112.58c7.42,5.13,15.44-3.31,15.35-10.8s-7-14.85-13.84-13C105.32,90.86,103.69,107.31,111.31,112.58Z"/><path class="cls-32" d="M133.94,115.16c-.69,1.25,8.27,7.32,12.57,5.55,5.05-2.07,4.26-12.75,3.33-13.47S135.11,113.06,133.94,115.16Z"/><path class="cls-33" d="M97.23,101.33c4,5.51,15.54-13.4,27.94-19.76,14.15-7.24,34.71.43,36.09-1.81s-16.14-22-38.8-18.47S93.5,96.24,97.23,101.33Z"/><path class="cls-34" d="M66,110.34s-.81-5.47,2.67-7.32c0,0,5.25-.27,6.56,4.8,0,0-10.35,33.15-1.89,38.45,7.87,4.94,28.63-5.2,28.63-5.2l1.67,1.36s-17.6,11-28.74,7.6S66,110.34,66,110.34Z"/><path class="cls-35" d="M96.75,141.55c-1.77,3.62,4.57,5.3,9.2,4.55,5.19-.85,13.59-5.32,11.65-10.25S100.89,133.05,96.75,141.55Z"/><path class="cls-36" d="M97.23,142c.08.87,18.13-3.9,17.67-7.2S96.64,135.24,97.23,142Z"/><path class="cls-37" d="M53,153.52a5.86,5.86,0,0,1,3.75-3.45l1.87,6.77Z"/><path class="cls-38" d="M53.74,136.11s9.56-5.84,29.68-5.37c0,0,8.38,30.6,9.46,52.59a92.31,92.31,0,0,1-24.65,2.81A285,285,0,0,1,53.74,136.11Z"/><path class="cls-39" d="M83.42,130.74,88,129s6.89,30.75,7.36,53.64l-2.48.66Z"/><path class="cls-40" d="M62.42,169.86l2.43,6.78s6.73-8.19,6-16Z"/><path class="cls-41" d="M53.74,136.11s7-5.74,34.26-7.08l-4.58,1.71S71,130.5,53.74,136.11Z"/><path class="cls-42" d="M55.3,157.23s.56,11.67,4.94,14.18c0,0,12.56-7.07,10.8-14.37C69.8,151.9,55.3,157.23,55.3,157.23Z"/><path class="cls-43" d="M53,153.52s0,9.59,5.52,15.51c0,0,7.33-2.93,9.8-5.91,4-4.79,2.33-7.53,1-8.64C67.21,152.7,53,153.52,53,153.52Z"/><path class="cls-44" d="M86.59,139.77a3.91,3.91,0,0,1,2.8-1s2.69,7.6,2.11,13.81l-2.11.58Z"/><path class="cls-45" d="M86.59,139.77s3.27,7.4,3.84,13.11l1.87-.7s-1.37-9.79-2.91-13.4A4.17,4.17,0,0,0,86.59,139.77Z"/><path class="cls-46" d="M73.87,144.08c.55,2.77-.66,5.35-2.71,5.75s-4.15-1.51-4.7-4.28.67-5.34,2.71-5.75S73.32,141.31,73.87,144.08Z"/><path class="cls-47" d="M73.53,144.24c.42,2.16-.52,4.16-2.11,4.48s-3.23-1.18-3.66-3.33.52-4.16,2.11-4.48S73.1,142.09,73.53,144.24Z"/><path class="cls-48" d="M71.59,183.2v-2.41l13.62-1.85,1,2.14A135.31,135.31,0,0,1,71.59,183.2Z"/><path class="cls-49" d="M84.11,134.57l-19,43.36,1.73,4.74s15.38-9.68,21.9-21.4C88.78,161.27,84.8,138.41,84.11,134.57Z"/><path class="cls-50" d="M133.9,134.78a30.59,30.59,0,0,0,16-10.42,17.15,17.15,0,0,1,15.29-7S152.9,134.78,133.9,134.78Z"/><path class="cls-15" d="M92.88,66.79c0,1.83,11.19-7.27,9.78-8S92.91,64.68,92.88,66.79Z"/><path class="cls-51" d="M113.24,196.63l-.29-.55A5.54,5.54,0,0,1,113.24,196.63Z"/><path class="cls-52" d="M112.17,260c-5.83.15-30.08-53.43-24.26-57.66,0,0,7.24,33.63,16.07,42.33s14.54-14.11,13-24c-.16-1-.34-2-.55-2.91a13.82,13.82,0,0,1,2,4.33C119,226.76,118,259.85,112.17,260Z"/><path class="cls-15" d="M98.31,211.54c-.89,1.46,1.37,10.27,2.6,10.1s1.5-4.83.88-6.32S98.51,211.22,98.31,211.54Z"/><path class="cls-15" d="M101.17,223.1c-1,.52.21,3.18.94,3.09S102.11,222.63,101.17,223.1Z"/><path class="cls-15" d="M130.31,50.59c.7,1.47,5.37-1.59,4.68-2.86S129.61,49.13,130.31,50.59Z"/><path class="cls-15" d="M54.32,155.83c0,.89,4.68-.12,4.33-.86S54.32,154.36,54.32,155.83Z"/><path class="cls-53" d="M67.45,107.47c-1.22-.4-1.78,16.65-.79,16.89S69.34,108.1,67.45,107.47Z"/><path class="cls-54" d="M178.65,119.4a9,9,0,0,0,4.5,7.48c4.65,2.86,12.18.62,18.47-5.49s6-14.56,4.26-18.2c0,0-3.37-1.27-11,3.19-5.17,3-11.58,7.67-11.58,7.67A15.43,15.43,0,0,0,178.65,119.4Z"/><path class="cls-55" d="M184.09,127.37a38.15,38.15,0,0,0,12.83-10.94c5.5-7.46-1-10.28-1-10.28a40,40,0,0,0-8.32,3.66c-3.54,2.21-9.42,8.91-9.42,8.91A8.5,8.5,0,0,0,184.09,127.37Z"/><path class="cls-56" d="M191.89,127.46s-3.87-5.28-6.56-7c0,0,6.53,3.15,9.55,5.83Z"/><path class="cls-57" d="M184.68,117.17s6,.41,10.67-2.27,3.47-8.47,3.47-8.47l-2.91-.43Z"/><path class="cls-58" d="M178.85,118.63c-3.75-2,9.55-14.56,12.38-15.1,1.27-.23,4.25.25,4.72,1.84s-3.28,6.36-5.28,7.9S181.31,120,178.85,118.63Z"/><path class="cls-59" d="M191.93,112.11s-2.88-2.77-2.47-5.35a4.06,4.06,0,0,1,2.36-3.28s3.36-.4,4.13,1.89S193.3,111.59,191.93,112.11Z"/></g></g></svg>