<svg xmlns="http://www.w3.org/2000/svg" xmlns:xlink="http://www.w3.org/1999/xlink" viewBox="0 0 260 260"><defs><style>.cls-1{isolation:isolate;}.cls-2{fill:url(#_ÂÁ_Ï_ÌÌ_È_ËÂÌÚ_46);}.cls-3{fill:url(#_ÂÁ_Ï_ÌÌ_È_ËÂÌÚ_5);}.cls-12,.cls-19,.cls-4,.cls-42,.cls-50,.cls-7{opacity:0.3;}.cls-12,.cls-13,.cls-19,.cls-4,.cls-41,.cls-42,.cls-45,.cls-50,.cls-51,.cls-7{mix-blend-mode:multiply;}.cls-4{fill:url(#_ÂÁ_Ï_ÌÌ_È_ËÂÌÚ_153);}.cls-5{fill:url(#_ÂÁ_Ï_ÌÌ_È_ËÂÌÚ_129);}.cls-6{fill:url(#_ÂÁ_Ï_ÌÌ_È_ËÂÌÚ_28);}.cls-7{fill:url(#_ÂÁ_Ï_ÌÌ_È_ËÂÌÚ_153-2);}.cls-8{fill:url(#_ÂÁ_Ï_ÌÌ_È_ËÂÌÚ_17);}.cls-9{fill:url(#_ÂÁ_Ï_ÌÌ_È_ËÂÌÚ_264);}.cls-10{fill:url(#_ÂÁ_Ï_ÌÌ_È_ËÂÌÚ_46-2);}.cls-11{fill:url(#_ÂÁ_Ï_ÌÌ_È_ËÂÌÚ_5-2);}.cls-12{fill:url(#_ÂÁ_Ï_ÌÌ_È_ËÂÌÚ_153-3);}.cls-13,.cls-36,.cls-37,.cls-38,.cls-41,.cls-45,.cls-51{opacity:0.5;}.cls-13{fill:url(#_ÂÁ_Ï_ÌÌ_È_ËÂÌÚ_416);}.cls-14{fill:url(#_ÂÁ_Ï_ÌÌ_È_ËÂÌÚ_6);}.cls-15{fill:#dee1f2;}.cls-16{fill:url(#_ÂÁ_Ï_ÌÌ_È_ËÂÌÚ_132);}.cls-17{fill:url(#_ÂÁ_Ï_ÌÌ_È_ËÂÌÚ_46-3);}.cls-18{fill:url(#_ÂÁ_Ï_ÌÌ_È_ËÂÌÚ_264-2);}.cls-19{fill:url(#_ÂÁ_Ï_ÌÌ_È_ËÂÌÚ_153-4);}.cls-20{fill:url(#_ÂÁ_Ï_ÌÌ_È_ËÂÌÚ_28-2);}.cls-21{fill:url(#_ÂÁ_Ï_ÌÌ_È_ËÂÌÚ_17-2);}.cls-22{fill:url(#_ÂÁ_Ï_ÌÌ_È_ËÂÌÚ_28-3);}.cls-23{fill:url(#_ÂÁ_Ï_ÌÌ_È_ËÂÌÚ_91);}.cls-24{fill:url(#_ÂÁ_Ï_ÌÌ_È_ËÂÌÚ_5-3);}.cls-25{fill:#5f4393;}.cls-26{fill:url(#_ÂÁ_Ï_ÌÌ_È_ËÂÌÚ_46-4);}.cls-27{fill:url(#_ÂÁ_Ï_ÌÌ_È_ËÂÌÚ_46-5);}.cls-28{fill:url(#_ÂÁ_Ï_ÌÌ_È_ËÂÌÚ_28-4);}.cls-29{fill:url(#_ÂÁ_Ï_ÌÌ_È_ËÂÌÚ_46-6);}.cls-30{fill:url(#_ÂÁ_Ï_ÌÌ_È_ËÂÌÚ_28-5);}.cls-31{fill:url(#_ÂÁ_Ï_ÌÌ_È_ËÂÌÚ_4);}.cls-32{fill:url(#_ÂÁ_Ï_ÌÌ_È_ËÂÌÚ_65);}.cls-33{fill:url(#_ÂÁ_Ï_ÌÌ_È_ËÂÌÚ_17-3);}.cls-34{fill:url(#_ÂÁ_Ï_ÌÌ_È_ËÂÌÚ_17-4);}.cls-35{fill:#2f94cd;}.cls-36,.cls-37,.cls-38,.cls-39,.cls-40,.cls-48,.cls-49{mix-blend-mode:screen;}.cls-36{fill:url(#_ÂÁ_Ï_ÌÌ_È_ËÂÌÚ_54);}.cls-37{fill:url(#_ÂÁ_Ï_ÌÌ_È_ËÂÌÚ_54-2);}.cls-38{fill:url(#_ÂÁ_Ï_ÌÌ_È_ËÂÌÚ_54-3);}.cls-39,.cls-40,.cls-48,.cls-49{opacity:0.72;}.cls-39{fill:url(#_ÂÁ_Ï_ÌÌ_È_ËÂÌÚ_143);}.cls-40{fill:url(#_ÂÁ_Ï_ÌÌ_È_ËÂÌÚ_134);}.cls-41{fill:url(#_ÂÁ_Ï_ÌÌ_È_ËÂÌÚ_416-2);}.cls-42{fill:url(#_ÂÁ_Ï_ÌÌ_È_ËÂÌÚ_153-5);}.cls-43{fill:url(#_ÂÁ_Ï_ÌÌ_È_ËÂÌÚ_46-7);}.cls-44{fill:url(#_ÂÁ_Ï_ÌÌ_È_ËÂÌÚ_28-6);}.cls-45{fill:url(#_ÂÁ_Ï_ÌÌ_È_ËÂÌÚ_416-3);}.cls-46{fill:url(#_ÂÁ_Ï_ÌÌ_È_ËÂÌÚ_46-8);}.cls-47{fill:#fff;}.cls-48{fill:url(#_ÂÁ_Ï_ÌÌ_È_ËÂÌÚ_134-2);}.cls-49{fill:url(#_ÂÁ_Ï_ÌÌ_È_ËÂÌÚ_143-2);}.cls-50{fill:url(#_ÂÁ_Ï_ÌÌ_È_ËÂÌÚ_153-6);}.cls-51{fill:url(#_ÂÁ_Ï_ÌÌ_È_ËÂÌÚ_416-4);}.cls-52{fill:url(#_ÂÁ_Ï_ÌÌ_È_ËÂÌÚ_46-9);}.cls-53{fill:url(#_ÂÁ_Ï_ÌÌ_È_ËÂÌÚ_28-7);}</style><linearGradient id="_ÂÁ_Ï_ÌÌ_È_ËÂÌÚ_46" x1="117.71" y1="254.77" x2="122.77" y2="214.47" gradientUnits="userSpaceOnUse"><stop offset="0" stop-color="#c9bede"/><stop offset="1" stop-color="#e6daec"/></linearGradient><linearGradient id="_ÂÁ_Ï_ÌÌ_È_ËÂÌÚ_5" x1="110.11" y1="222.08" x2="134.15" y2="222.08" gradientUnits="userSpaceOnUse"><stop offset="0" stop-color="#7974b4"/><stop offset="1" stop-color="#9289c1"/></linearGradient><linearGradient id="_ÂÁ_Ï_ÌÌ_È_ËÂÌÚ_153" x1="121.78" y1="253.56" x2="121.78" y2="213.02" gradientUnits="userSpaceOnUse"><stop offset="0" stop-color="#9169a9"/><stop offset="1" stop-color="#cce9fb"/></linearGradient><linearGradient id="_ÂÁ_Ï_ÌÌ_È_ËÂÌÚ_129" x1="102.39" y1="198.31" x2="108.56" y2="149.19" gradientUnits="userSpaceOnUse"><stop offset="0" stop-color="#c9bede"/><stop offset="1" stop-color="#cfbbdc"/></linearGradient><linearGradient id="_ÂÁ_Ï_ÌÌ_È_ËÂÌÚ_28" x1="89.68" y1="196.42" x2="88.28" y2="182.73" gradientUnits="userSpaceOnUse"><stop offset="0" stop-color="#b39bc9"/><stop offset="1" stop-color="#9289c1"/></linearGradient><linearGradient id="_ÂÁ_Ï_ÌÌ_È_ËÂÌÚ_153-2" x1="105.83" y1="196.57" x2="105.83" y2="151.39" xlink:href="#_ÂÁ_Ï_ÌÌ_È_ËÂÌÚ_153"/><linearGradient id="_ÂÁ_Ï_ÌÌ_È_ËÂÌÚ_17" x1="100.56" y1="97.68" x2="100.56" y2="68.9" gradientUnits="userSpaceOnUse"><stop offset="0" stop-color="#79c3b0"/><stop offset="1" stop-color="#60c4e5"/></linearGradient><linearGradient id="_ÂÁ_Ï_ÌÌ_È_ËÂÌÚ_264" x1="108.64" y1="85.57" x2="108.64" y2="60.99" gradientUnits="userSpaceOnUse"><stop offset="0" stop-color="#b5a9d3"/><stop offset="1" stop-color="#dfcfe7"/></linearGradient><linearGradient id="_ÂÁ_Ï_ÌÌ_È_ËÂÌÚ_46-2" x1="133.29" y1="150.81" x2="144.91" y2="58.33" xlink:href="#_ÂÁ_Ï_ÌÌ_È_ËÂÌÚ_46"/><linearGradient id="_ÂÁ_Ï_ÌÌ_È_ËÂÌÚ_5-2" x1="105.17" y1="139.33" x2="181.08" y2="139.33" xlink:href="#_ÂÁ_Ï_ÌÌ_È_ËÂÌÚ_5"/><linearGradient id="_ÂÁ_Ï_ÌÌ_È_ËÂÌÚ_153-3" x1="138.25" y1="148.75" x2="138.25" y2="88.37" xlink:href="#_ÂÁ_Ï_ÌÌ_È_ËÂÌÚ_153"/><linearGradient id="_ÂÁ_Ï_ÌÌ_È_ËÂÌÚ_416" x1="143.12" y1="147.46" x2="143.12" y2="129.9" gradientUnits="userSpaceOnUse"><stop offset="0" stop-color="#8ea1d3"/><stop offset="1" stop-color="#6e5ba3"/></linearGradient><linearGradient id="_ÂÁ_Ï_ÌÌ_È_ËÂÌÚ_6" x1="51.41" y1="343.42" x2="52.84" y2="331.98" gradientTransform="matrix(0.99, -0.13, 0.13, 0.99, 46.77, -191.94)" gradientUnits="userSpaceOnUse"><stop offset="0" stop-color="#4f4695"/><stop offset="1" stop-color="#6c4b96"/></linearGradient><linearGradient id="_ÂÁ_Ï_ÌÌ_È_ËÂÌÚ_132" x1="124.28" y1="130.95" x2="124.28" y2="60.94" gradientUnits="userSpaceOnUse"><stop offset="0" stop-color="#1e64ae"/><stop offset="1" stop-color="#292f6b"/></linearGradient><linearGradient id="_ÂÁ_Ï_ÌÌ_È_ËÂÌÚ_46-3" x1="134.13" y1="230.46" x2="145.13" y2="142.92" xlink:href="#_ÂÁ_Ï_ÌÌ_È_ËÂÌÚ_46"/><linearGradient id="_ÂÁ_Ï_ÌÌ_È_ËÂÌÚ_264-2" x1="175.72" y1="103.41" x2="175.72" y2="56.02" xlink:href="#_ÂÁ_Ï_ÌÌ_È_ËÂÌÚ_264"/><linearGradient id="_ÂÁ_Ï_ÌÌ_È_ËÂÌÚ_153-4" x1="159.97" y1="215.26" x2="159.97" y2="170.97" xlink:href="#_ÂÁ_Ï_ÌÌ_È_ËÂÌÚ_153"/><linearGradient id="_ÂÁ_Ï_ÌÌ_È_ËÂÌÚ_28-2" x1="179.35" y1="101.61" x2="179.35" y2="56.24" xlink:href="#_ÂÁ_Ï_ÌÌ_È_ËÂÌÚ_28"/><linearGradient id="_ÂÁ_Ï_ÌÌ_È_ËÂÌÚ_17-2" x1="182.78" y1="102.74" x2="182.78" y2="58.27" xlink:href="#_ÂÁ_Ï_ÌÌ_È_ËÂÌÚ_17"/><linearGradient id="_ÂÁ_Ï_ÌÌ_È_ËÂÌÚ_28-3" x1="109.1" y1="202.75" x2="152.03" y2="202.75" xlink:href="#_ÂÁ_Ï_ÌÌ_È_ËÂÌÚ_28"/><radialGradient id="_ÂÁ_Ï_ÌÌ_È_ËÂÌÚ_91" cx="131.28" cy="222.21" r="32.44" xlink:href="#_ÂÁ_Ï_ÌÌ_È_ËÂÌÚ_17"/><linearGradient id="_ÂÁ_Ï_ÌÌ_È_ËÂÌÚ_5-3" x1="155.5" y1="170.97" x2="166.55" y2="170.97" xlink:href="#_ÂÁ_Ï_ÌÌ_È_ËÂÌÚ_5"/><linearGradient id="_ÂÁ_Ï_ÌÌ_È_ËÂÌÚ_46-4" x1="173.44" y1="217.14" x2="181.74" y2="151.09" xlink:href="#_ÂÁ_Ï_ÌÌ_È_ËÂÌÚ_46"/><linearGradient id="_ÂÁ_Ï_ÌÌ_È_ËÂÌÚ_46-5" x1="152.98" y1="258.5" x2="159.48" y2="206.75" xlink:href="#_ÂÁ_Ï_ÌÌ_È_ËÂÌÚ_46"/><linearGradient id="_ÂÁ_Ï_ÌÌ_È_ËÂÌÚ_28-4" x1="187.11" y1="217.54" x2="187.11" y2="204.83" xlink:href="#_ÂÁ_Ï_ÌÌ_È_ËÂÌÚ_28"/><linearGradient id="_ÂÁ_Ï_ÌÌ_È_ËÂÌÚ_46-6" x1="74.2" y1="208.06" x2="76.92" y2="186.4" xlink:href="#_ÂÁ_Ï_ÌÌ_È_ËÂÌÚ_46"/><linearGradient id="_ÂÁ_Ï_ÌÌ_È_ËÂÌÚ_28-5" x1="74.24" y1="144.9" x2="77.49" y2="119" xlink:href="#_ÂÁ_Ï_ÌÌ_È_ËÂÌÚ_28"/><linearGradient id="_ÂÁ_Ï_ÌÌ_È_ËÂÌÚ_4" x1="126.35" y1="-61.78" x2="126.35" y2="-73.6" gradientTransform="translate(-50.45 194.22) rotate(5.45)" gradientUnits="userSpaceOnUse"><stop offset="0" stop-color="#d32c87"/><stop offset="1" stop-color="#e6287e"/></linearGradient><linearGradient id="_ÂÁ_Ï_ÌÌ_È_ËÂÌÚ_65" x1="-11.8" y1="346.75" x2="-11.8" y2="341.35" gradientTransform="translate(45.69 -205.73) rotate(-7.8)" gradientUnits="userSpaceOnUse"><stop offset="0" stop-color="#9d559b"/><stop offset="1" stop-color="#ea71a8"/></linearGradient><linearGradient id="_ÂÁ_Ï_ÌÌ_È_ËÂÌÚ_17-3" x1="100.12" y1="111.8" x2="100.12" y2="89.92" xlink:href="#_ÂÁ_Ï_ÌÌ_È_ËÂÌÚ_17"/><linearGradient id="_ÂÁ_Ï_ÌÌ_È_ËÂÌÚ_17-4" x1="139.54" y1="94.79" x2="139.54" y2="88.37" xlink:href="#_ÂÁ_Ï_ÌÌ_È_ËÂÌÚ_17"/><linearGradient id="_ÂÁ_Ï_ÌÌ_È_ËÂÌÚ_54" x1="95.69" y1="76.5" x2="155.86" y2="76.5" gradientUnits="userSpaceOnUse"><stop offset="0"/><stop offset="1" stop-color="#7192cb"/></linearGradient><linearGradient id="_ÂÁ_Ï_ÌÌ_È_ËÂÌÚ_54-2" x1="99.41" y1="125.09" x2="143.5" y2="125.09" xlink:href="#_ÂÁ_Ï_ÌÌ_È_ËÂÌÚ_54"/><linearGradient id="_ÂÁ_Ï_ÌÌ_È_ËÂÌÚ_54-3" x1="89.46" y1="125.09" x2="89.46" y2="96.36" xlink:href="#_ÂÁ_Ï_ÌÌ_È_ËÂÌÚ_54"/><linearGradient id="_ÂÁ_Ï_ÌÌ_È_ËÂÌÚ_143" x1="181.93" y1="101.29" x2="181.93" y2="88.3" gradientUnits="userSpaceOnUse"><stop offset="0" stop-color="#d4dff3"/><stop offset="1"/></linearGradient><linearGradient id="_ÂÁ_Ï_ÌÌ_È_ËÂÌÚ_134" x1="171.13" y1="66.4" x2="196.58" y2="66.4" gradientUnits="userSpaceOnUse"><stop offset="0"/><stop offset="1" stop-color="#d4dff3"/></linearGradient><linearGradient id="_ÂÁ_Ï_ÌÌ_È_ËÂÌÚ_416-2" x1="141.3" y1="156.86" x2="141.3" y2="142.96" xlink:href="#_ÂÁ_Ï_ÌÌ_È_ËÂÌÚ_416"/><linearGradient id="_ÂÁ_Ï_ÌÌ_È_ËÂÌÚ_153-5" x1="179.27" y1="218.63" x2="179.27" y2="148.77" xlink:href="#_ÂÁ_Ï_ÌÌ_È_ËÂÌÚ_153"/><linearGradient id="_ÂÁ_Ï_ÌÌ_È_ËÂÌÚ_46-7" x1="-2803.33" y1="399.7" x2="-2798.77" y2="363.39" gradientTransform="matrix(-0.99, 0.1, 0.1, 0.99, -2634.41, 130.09)" xlink:href="#_ÂÁ_Ï_ÌÌ_È_ËÂÌÚ_46"/><linearGradient id="_ÂÁ_Ï_ÌÌ_È_ËÂÌÚ_28-6" x1="-2795.32" y1="400.21" x2="-2795.32" y2="367.32" gradientTransform="matrix(-0.99, 0.1, 0.1, 0.99, -2634.41, 130.09)" xlink:href="#_ÂÁ_Ï_ÌÌ_È_ËÂÌÚ_28"/><linearGradient id="_ÂÁ_Ï_ÌÌ_È_ËÂÌÚ_416-3" x1="-2794.65" y1="390.03" x2="-2794.65" y2="377.31" gradientTransform="matrix(-0.99, 0.1, 0.1, 0.99, -2634.41, 130.09)" xlink:href="#_ÂÁ_Ï_ÌÌ_È_ËÂÌÚ_416"/><linearGradient id="_ÂÁ_Ï_ÌÌ_È_ËÂÌÚ_46-8" x1="-2793.8" y1="389.43" x2="-2791.1" y2="367.94" gradientTransform="matrix(-0.99, 0.1, 0.1, 0.99, -2634.41, 130.09)" xlink:href="#_ÂÁ_Ï_ÌÌ_È_ËÂÌÚ_46"/><linearGradient id="_ÂÁ_Ï_ÌÌ_È_ËÂÌÚ_134-2" x1="111.33" y1="187.67" x2="146.95" y2="187.67" xlink:href="#_ÂÁ_Ï_ÌÌ_È_ËÂÌÚ_134"/><linearGradient id="_ÂÁ_Ï_ÌÌ_È_ËÂÌÚ_143-2" x1="130.76" y1="228.69" x2="130.76" y2="224.58" xlink:href="#_ÂÁ_Ï_ÌÌ_È_ËÂÌÚ_143"/><linearGradient id="_ÂÁ_Ï_ÌÌ_È_ËÂÌÚ_153-6" x1="161.91" y1="260" x2="161.91" y2="207.66" xlink:href="#_ÂÁ_Ï_ÌÌ_È_ËÂÌÚ_153"/><linearGradient id="_ÂÁ_Ï_ÌÌ_È_ËÂÌÚ_416-4" x1="-31.11" y1="429.08" x2="-30.22" y2="421.94" gradientTransform="translate(35.08 -235.33) rotate(-9.09)" xlink:href="#_ÂÁ_Ï_ÌÌ_È_ËÂÌÚ_416"/><linearGradient id="_ÂÁ_Ï_ÌÌ_È_ËÂÌÚ_46-9" x1="76.06" y1="193.51" x2="77.8" y2="179.62" xlink:href="#_ÂÁ_Ï_ÌÌ_È_ËÂÌÚ_46"/><linearGradient id="_ÂÁ_Ï_ÌÌ_È_ËÂÌÚ_28-7" x1="81.97" y1="188.76" x2="81.35" y2="182.64" xlink:href="#_ÂÁ_Ï_ÌÌ_È_ËÂÌÚ_28"/></defs><title>CUDI-5-sprites</title><g class="cls-1"><g id="Capa_1" data-name="Capa 1"><path class="cls-2" d="M133.9,228.68c-.4,4.9-8.17,20.61-14.26,24.88,0,0,0,0,0,0a4.43,4.43,0,0,1-3.27,1c-4.38-.84-6.49-21.81-6.69-33.62-.08-4.56.14-7.75.61-7.88C114.26,212,134.36,222.84,133.9,228.68Z"/><path class="cls-3" d="M133.9,230.28s-5.38,2.92-13.78-1.29c-6.57-3.29-11-14-9.84-15.9S136.93,222.67,133.9,230.28Z"/><path class="cls-4" d="M133.9,228.68c-.4,4.9-8.17,20.61-14.26,24.88,4.57-5.26,4.73-16,1.81-20.88-2.19-3.72-8.73-9.25-11.78-11.71-.08-4.56.14-7.75.61-7.88C114.26,212,134.36,222.84,133.9,228.68Z"/><path class="cls-5" d="M116.94,184s-23.09,13.11-28.52,12.58-3-12.87-3-12.87c.72-.85,1.53-1.73,2.39-2.64h0c8.68-9.16,23.5-20.84,32-26.4h0c3.58-2.35,6.05-3.6,6.47-3.13C129.45,155,116.94,184,116.94,184Z"/><path class="cls-6" d="M85.4,183.68s3-2.54,6.76.87-.12,11.59-3.74,12S82.62,189,85.4,183.68Z"/><path class="cls-7" d="M116.94,184s-23.09,13.11-28.52,12.58-3-12.87-3-12.87c.72-.85,1.53-1.73,2.39-2.64h0s5.64,3.33,16,1.74,16-28.14,16-28.14h0c3.58-2.35,6.05-3.6,6.47-3.13C129.45,155,116.94,184,116.94,184Z"/><path class="cls-8" d="M100.87,68.9s-7.79,8.23-8.66,23.42S109,85.57,109,85.57Z"/><path class="cls-9" d="M95.83,85.57s3.53-18.73,9.34-22.71,16.28-.37,16.28-.37Z"/><path class="cls-10" d="M185.57,129.37c-13.2,20.75-78.56,24-89.79,13.68A30.19,30.19,0,0,1,87,127.34v0C81,101.05,101.42,62,135.3,58.18c22.95-2.58,42.14,16.4,50.14,36.66C190.46,107.51,191.11,120.67,185.57,129.37Z"/><path class="cls-11" d="M172.76,139.34a121.07,121.07,0,0,1-28.38,8c-15.18,2-26.34,1.78-32.79.15h0c-4.23-1.07-6.43-2.73-6.41-4.74,0-1.22,2.85-2.67,7.42-4.16,13.45-4.34,41.87-8.92,57.54-8.65,1.36,0,2.61.09,3.75.19l.72.07h.12c2.74.3,4.73.84,5.7,1.7a2,2,0,0,1,.53.7C181.8,134.49,178.22,137,172.76,139.34Z"/><path class="cls-12" d="M185.57,129.37c-13.2,20.75-78.56,24-89.79,13.68A30.19,30.19,0,0,1,87,127.34v0s5.46,7.87,18.79,7.71,51.35-7.2,58.35-14,.49-32.68.49-32.68l20.77,6.47C190.46,107.51,191.11,120.67,185.57,129.37Z"/><path class="cls-13" d="M172.76,139.34c-6.92-2-27-6.78-41.86-1.29-18.21,6.72-19.31,9.41-19.31,9.41h0c-4.23-1.07-6.43-2.73-6.41-4.74,0-1.22,2.85-2.67,7.42-4.16,13.45-4.34,41.87-8.92,57.54-8.65,1.65.08,3.14.16,4.47.26h.12c2.74.3,4.73.84,5.7,1.7a2,2,0,0,1,.53.7C181.8,134.49,178.22,137,172.76,139.34Z"/><path class="cls-14" d="M173.89,130.1c-3.13,3.91-19.94,9.17-29.74,10.48-17.58,2.32-28.63,1-31.56-2C127.19,133.84,159.47,128.85,173.89,130.1Z"/><path class="cls-15" d="M87,128.56c3.82,7.65,60,3.12,72.34-12.78S152.14,55,123.21,63.17C95.64,71,80.13,114.71,87,128.56Z"/><path class="cls-16" d="M87,127.32c3.82,7.65,60,3.12,72.34-12.78s-7.24-60.8-36.17-52.61C95.64,69.73,80.13,113.47,87,127.32Z"/><path class="cls-17" d="M166.64,204.79c-4,18-14.27,25.74-32.74,25.49-18.1-.25-29.23-19.87-23.39-42.91,3.73-14.71,8.06-27.76,15.77-35.87h0v0a26.74,26.74,0,0,1,16.83-8.42c5.54-.66,10.14,2.32,13.81,7.38C166.48,163.62,169.67,190.91,166.64,204.79Z"/><path class="cls-18" d="M162.19,65.9s-3,27.67,14,37.45c0,0,8.38.9,13.25-4.18,0,0-7.59,7.13-15.58-.3s-6.08-27.88,0-34.55,14.84-4.91,14.84-4.91l-3.51-3.15S172.3,53.63,162.19,65.9Z"/><path class="cls-19" d="M156.92,171s1.93,14.05,1.93,23.41c0,11.11-6.82,20.88-6.82,20.88l13.85-7.45a39.41,39.41,0,0,0,1.93-14.7c-.65-7.43-1.26-10.83-1.26-10.83Z"/><path class="cls-20" d="M185.22,56.26s-9.5-.88-16.13,10.14c-7.05,11.7-1.93,31.94,6.63,35s17.22-29.66,17.22-29.66l-5-13A5.88,5.88,0,0,0,185.22,56.26Z"/><path class="cls-21" d="M197.49,84.14c-1.22,6.33-3.79,11.49-7.23,14.76l0,0-1,.85h0a12.51,12.51,0,0,1-9.65,2.87c-11.56-1.47-13.11-18.22-11.75-27.7,1.58-11,11-17.54,18.42-16.58C195.15,59.51,199.89,71.77,197.49,84.14Z"/><path class="cls-22" d="M109.58,190.35s4.21-13.61,17.22-13.61c15.59,0,26.1,17.23,25.17,28.92s-4.51,22.65-19.24,23.11C132.73,228.77,105.14,228.15,109.58,190.35Z"/><path class="cls-23" d="M109.58,191.86s4.21-13.61,17.22-13.61c15.59,0,26.1,17.24,25.17,28.93s-4.51,22.64-19.24,23.11C132.73,230.29,105.14,229.67,109.58,191.86Z"/><path class="cls-24" d="M164.29,186.08c-.67,0-1.39-.56-2.12-1.53-3.27-4.35-6.71-16.91-6.67-23.89,0-2.7.56-4.57,1.83-4.79,2.09-.37,6.32,6.66,8.37,16.53C166.89,178.15,167.18,186.08,164.29,186.08Z"/><path class="cls-25" d="M162.17,184.55c-3.27-4.35-6.71-16.91-6.67-23.89,2.05,2.65,4.44,8,5.84,14.75A38.17,38.17,0,0,1,162.17,184.55Z"/><path class="cls-26" d="M195.16,212c-2.11,6.78-10.06,7.48-12.38,5.85-2-1.43-7.63-8-13-20l0,0q-1.17-2.66-2.33-5.66c-6-15.67-10.46-44.53-4.29-43.41h0C181.11,152,197.26,205.26,195.16,212Z"/><path class="cls-27" d="M166.11,259.78c-1.22.59-2.93,0-4.86-1.46a41.76,41.76,0,0,1-6.89-7l0,0,0,0c-6.63-8.16-13.09-19.48-12.77-22,1.14-8.77,13.06-16.39,20.14-19.75,2.77-1.31,4.8-2,5.15-1.8C168.11,208.3,172.42,256.71,166.11,259.78Z"/><path class="cls-28" d="M178.87,213.68s.1-6.25,5.62-8.45,10.85,5.18,10.85,5.18,0,7-7.43,7.13S178.87,213.68,178.87,213.68Z"/><path class="cls-29" d="M91.22,191.46s-4.56,7.19-9.47,10.7-14.55,5-14.55,5-6.84-3.16-6.84-7.86c0,0,7.37-3.73,10.17-9.65,0,0,9.57-3.41,13.73-2.3A16.36,16.36,0,0,1,91.22,191.46Z"/><path class="cls-30" d="M85.3,120a42.39,42.39,0,0,0-13.89,10.93c-6.32,7.59-6.84,15.49,2.28,13l3.8-3.34s-5.38,1.84-5.73-3.93S85.3,121.05,85.3,121.05Z"/><path class="cls-31" d="M71.17,139.65c-2.24,3.35,3.68,4.88,8.36,4.75,5.26-.15,14.34-2.48,13.06-7.62S76.41,131.78,71.17,139.65Z"/><path class="cls-32" d="M71.6,140.15c0,.88,18.48-1.45,18.47-4.78S71.91,133.38,71.6,140.15Z"/><path class="cls-33" d="M93.69,109.26c1.32,4.32,10.25,3.15,12.61-3.62s-.17-15.36-4.73-15.71S91.07,100.71,93.69,109.26Z"/><path class="cls-34" d="M129.81,94.75c-.3.62,6.37-5.76,19.4-3.39C150.5,91.59,135.53,82.59,129.81,94.75Z"/><path class="cls-35" d="M116.71,118.4s12.51-3.27,18-13.21C134.72,105.19,132.61,118.64,116.71,118.4Z"/><path class="cls-36" d="M95.83,90.63c1.61,1.65,11-5.77,22.66-6.83s26.4,7.78,35.52,4.57c7.23-2.55-7.77-27.46-27.21-26.19S94.22,89,95.83,90.63Z"/><path class="cls-37" d="M99.41,127.45a82,82,0,0,1,26.37-6.66c15-1.19,17.72-.09,17.72,1.35s-10.17,6.35-24,7.52S99.41,127.45,99.41,127.45Z"/><path class="cls-38" d="M87,125.09s-3.51-10.09,3-26.59c0,0,1.56-2.69,2.64-2S86.48,109.58,87,125.09Z"/><path class="cls-39" d="M169.74,88.3s1.23,10.27,8.77,12.49,13.68-3.24,15.61-10.94c0,0-2.37,6.64-12.19,4.94S169.74,88.3,169.74,88.3Z"/><path class="cls-40" d="M171.13,68.9c.09,1.91,13.94-2.06,18.34-1.48s6.27,6,7,5.86-1.16-12.76-9.35-13.69S171.07,67.57,171.13,68.9Z"/><path class="cls-41" d="M156.94,150.43s-19.07,7.18-26.38,6.36c-7.1-.8-4.44-5-4.28-5.29h0v0a26.74,26.74,0,0,1,16.83-8.42C148.67,142.39,153.27,145.37,156.94,150.43Z"/><path class="cls-42" d="M195.16,212c-2.11,6.78-10.06,7.48-12.38,5.85-2-1.43-7.63-8-13-20,.53,1,4.45,8.34,8,8.34,3.79,0,11.08-10.53,3.7-32.57-7.13-21.37-17.63-24.68-18.28-24.86C181.11,152,197.26,205.26,195.16,212Z"/><path class="cls-43" d="M185.54,208.43c3.14-.85,8.08,1.66,9.8,4.2s6,13.21,3.56,27c0,0-4.68,6.2-9.94,4.84-4-1-4.94-12.92-6-21.37S180.38,209.82,185.54,208.43Z"/><path class="cls-44" d="M189.73,244.83s1.93-27.65-9.31-32.12c0,0-.06,4.49,2.19,14.88S187.15,244.19,189.73,244.83Z"/><path class="cls-45" d="M189,229.67s-2.33,4.29-4.14,5.14a4.76,4.76,0,0,1-3.35.31l5.68-13.05S188.91,226.85,189,229.67Z"/><path class="cls-46" d="M187.15,222.07s-2.29-7.37-7-8.74c0,0-3.8,4.59-1.08,20.67,0,0,2.67,2.87,5.68-.58A40.67,40.67,0,0,0,187.15,222.07Z"/><path class="cls-47" d="M184.28,219.68c1.54-.15-.11,6.92-.93,6.84S183,219.82,184.28,219.68Z"/><path class="cls-48" d="M111.39,190.76c2,3.74,9.28-1,18.41,0s14,5.89,16.67,4.56-5.64-15-19.67-15.52C115.6,179.36,110.72,189.49,111.39,190.76Z"/><path class="cls-49" d="M121.45,224.58a16,16,0,0,0,10.17,4.1c6.34.23,8.44-2.84,8.44-2.84a13.1,13.1,0,0,0-7.27-.35A19.85,19.85,0,0,1,121.45,224.58Z"/><path class="cls-50" d="M166.11,259.78c-1.22.59-2.93,0-4.86-1.46l-6.89-7c.67.61,8.36,7.28,9.81-6.65,1.53-14.57-3.14-34.24-3.14-34.24l.66-.93c2.77-1.31,4.8-2,5.15-1.8C168.11,208.3,172.42,256.71,166.11,259.78Z"/><path class="cls-47" d="M166.55,174c-2.71,1.6,2.89,12.88,4.2,13.17S168.4,172.89,166.55,174Z"/><path class="cls-47" d="M171.56,189c-.58.06.05,2.7.48,3.06a1.51,1.51,0,0,0,1.56.17C173.85,192,172.21,188.94,171.56,189Z"/><path class="cls-47" d="M144.69,161.58c-1.11,0-3.05,10.81-2.16,11.17s2.09-1.93,3-5.46S145.75,161.56,144.69,161.58Z"/><path class="cls-47" d="M96.05,175c.24.79,5.68-1.66,5.7-4S95.7,173.84,96.05,175Z"/><path class="cls-47" d="M149.08,228.79c-2.4.54,1.08,6.43,1.63,6.65s1-2.26.58-4C150.91,229.83,149.93,228.6,149.08,228.79Z"/><path class="cls-47" d="M116,233.43c-1.34-.3-1,3.49-.76,3.74s1-.9,1.25-1.9S116.47,233.54,116,233.43Z"/><path class="cls-47" d="M151.27,236.14c-.45.36.63,2.19,1,1.8a1.5,1.5,0,0,0,0-1.64A.9.9,0,0,0,151.27,236.14Z"/><path class="cls-51" d="M61.55,190.22s3.45,4.19,11.35,2.87,9.53-5.62,9.53-5.62l-5-1.27-12.58.13S61.76,190,61.55,190.22Z"/><path class="cls-52" d="M88.37,185.29s-4.91-5.16-9-5.47-14.58,4.2-17.75,10.1c0,0,.47,1.41,4.07,2.26s11.83-3,11.83-3l13.73,2.33A10.29,10.29,0,0,0,88.37,185.29Z"/><path class="cls-53" d="M77.49,189.22s6.63-2,7.38-6.94l1,.8S85,188.2,77.49,189.22Z"/><path class="cls-47" d="M65.8,187.15c.07,1,7.36-2.35,7.36-3.58S65.68,185.4,65.8,187.15Z"/></g></g></svg>