<svg xmlns="http://www.w3.org/2000/svg" xmlns:xlink="http://www.w3.org/1999/xlink" viewBox="0 0 260 260"><defs><style>.cls-1{isolation:isolate;}.cls-2{fill:url(#_ÂÁ_Ï_ÌÌ_È_ËÂÌÚ_129);}.cls-18,.cls-22,.cls-24,.cls-3,.cls-33,.cls-40,.cls-49,.cls-50,.cls-56{opacity:0.5;}.cls-18,.cls-22,.cls-3,.cls-40,.cls-51,.cls-52,.cls-56,.cls-6,.cls-8{mix-blend-mode:multiply;}.cls-3{fill:url(#_ÂÁ_Ï_ÌÌ_È_ËÂÌÚ_416);}.cls-4{fill:url(#_ÂÁ_Ï_ÌÌ_È_ËÂÌÚ_129-2);}.cls-5{fill:url(#_ÂÁ_Ï_ÌÌ_È_ËÂÌÚ_28);}.cls-51,.cls-52,.cls-6,.cls-8{opacity:0.3;}.cls-6{fill:url(#_ÂÁ_Ï_ÌÌ_È_ËÂÌÚ_153);}.cls-7{fill:url(#_ÂÁ_Ï_ÌÌ_È_ËÂÌÚ_46);}.cls-8{fill:url(#_ÂÁ_Ï_ÌÌ_È_ËÂÌÚ_153-2);}.cls-9{fill:url(#_ÂÁ_Ï_ÌÌ_È_ËÂÌÚ_28-2);}.cls-10{fill:url(#_ÂÁ_Ï_ÌÌ_È_ËÂÌÚ_91);}.cls-11{fill:url(#_ÂÁ_Ï_ÌÌ_È_ËÂÌÚ_5);}.cls-12{fill:#5f4393;}.cls-13,.cls-14,.cls-28,.cls-29{opacity:0.72;}.cls-13,.cls-14,.cls-24,.cls-28,.cls-29,.cls-33,.cls-50{mix-blend-mode:screen;}.cls-13{fill:url(#_ÂÁ_Ï_ÌÌ_È_ËÂÌÚ_134);}.cls-14{fill:url(#_ÂÁ_Ï_ÌÌ_È_ËÂÌÚ_143);}.cls-15{fill:#fff;}.cls-16{fill:url(#_ÂÁ_Ï_ÌÌ_È_ËÂÌÚ_46-2);}.cls-17{fill:url(#_ÂÁ_Ï_ÌÌ_È_ËÂÌÚ_46-3);}.cls-18{fill:url(#_ÂÁ_Ï_ÌÌ_È_ËÂÌÚ_416-2);}.cls-19{fill:url(#_ÂÁ_Ï_ÌÌ_È_ËÂÌÚ_17);}.cls-20{fill:url(#_ÂÁ_Ï_ÌÌ_È_ËÂÌÚ_264);}.cls-21{fill:url(#_ÂÁ_Ï_ÌÌ_È_ËÂÌÚ_46-4);}.cls-22{fill:url(#_ÂÁ_Ï_ÌÌ_È_ËÂÌÚ_416-3);}.cls-23{fill:url(#_ÂÁ_Ï_ÌÌ_È_ËÂÌÚ_132);}.cls-24{fill:url(#_ÂÁ_Ï_ÌÌ_È_ËÂÌÚ_54);}.cls-25{fill:url(#_ÂÁ_Ï_ÌÌ_È_ËÂÌÚ_264-2);}.cls-26{fill:url(#_ÂÁ_Ï_ÌÌ_È_ËÂÌÚ_28-3);}.cls-27{fill:url(#_ÂÁ_Ï_ÌÌ_È_ËÂÌÚ_17-2);}.cls-28{fill:url(#_ÂÁ_Ï_ÌÌ_È_ËÂÌÚ_143-2);}.cls-29{fill:url(#_ÂÁ_Ï_ÌÌ_È_ËÂÌÚ_134-2);}.cls-30{fill:url(#_ÂÁ_Ï_ÌÌ_È_ËÂÌÚ_17-3);}.cls-31{fill:url(#_ÂÁ_Ï_ÌÌ_È_ËÂÌÚ_17-4);}.cls-32{fill:#2f94cd;}.cls-33{fill:url(#_ÂÁ_Ï_ÌÌ_È_ËÂÌÚ_54-2);}.cls-34{fill:url(#_ÂÁ_Ï_ÌÌ_È_ËÂÌÚ_28-4);}.cls-35{fill:url(#_ÂÁ_Ï_ÌÌ_È_ËÂÌÚ_4);}.cls-36{fill:url(#_ÂÁ_Ï_ÌÌ_È_ËÂÌÚ_65);}.cls-37{fill:url(#_ÂÁ_Ï_ÌÌ_È_ËÂÌÚ_28-5);}.cls-38{fill:url(#_ÂÁ_Ï_ÌÌ_È_ËÂÌÚ_65-2);}.cls-39{fill:url(#_ÂÁ_Ï_ÌÌ_È_ËÂÌÚ_7);}.cls-40{fill:url(#_ÂÁ_Ï_ÌÌ_È_ËÂÌÚ_416-4);}.cls-41{fill:#d097c3;}.cls-42{fill:url(#_ÂÁ_Ï_ÌÌ_È_ËÂÌÚ_28-6);}.cls-43{fill:url(#_ÂÁ_Ï_ÌÌ_È_ËÂÌÚ_46-5);}.cls-44{fill:url(#_ÂÁ_Ï_ÌÌ_È_ËÂÌÚ_65-3);}.cls-45{fill:url(#_ÂÁ_Ï_ÌÌ_È_ËÂÌÚ_326);}.cls-46{fill:url(#_ÂÁ_Ï_ÌÌ_È_ËÂÌÚ_322);}.cls-47{fill:url(#_ÂÁ_Ï_ÌÌ_È_ËÂÌÚ_91-2);}.cls-48{fill:url(#_ÂÁ_Ï_ÌÌ_È_ËÂÌÚ_326-2);}.cls-49{mix-blend-mode:color-dodge;fill:url(#_ÂÁ_Ï_ÌÌ_È_ËÂÌÚ_54-3);}.cls-50{fill:url(#_ÂÁ_Ï_ÌÌ_È_ËÂÌÚ_54-4);}.cls-51{fill:url(#_ÂÁ_Ï_ÌÌ_È_ËÂÌÚ_153-3);}.cls-52{fill:url(#_ÂÁ_Ï_ÌÌ_È_ËÂÌÚ_153-4);}.cls-53{fill:url(#_ÂÁ_Ï_ÌÌ_È_ËÂÌÚ_46-6);}.cls-54{fill:url(#_ÂÁ_Ï_ÌÌ_È_ËÂÌÚ_46-7);}.cls-55{fill:url(#_ÂÁ_Ï_ÌÌ_È_ËÂÌÚ_28-7);}.cls-56{fill:url(#_ÂÁ_Ï_ÌÌ_È_ËÂÌÚ_416-5);}.cls-57{fill:url(#_ÂÁ_Ï_ÌÌ_È_ËÂÌÚ_46-8);}</style><linearGradient id="_ÂÁ_Ï_ÌÌ_È_ËÂÌÚ_129" x1="126.74" y1="244.08" x2="135.77" y2="212.8" gradientUnits="userSpaceOnUse"><stop offset="0" stop-color="#c9bede"/><stop offset="1" stop-color="#cfbbdc"/></linearGradient><linearGradient id="_ÂÁ_Ï_ÌÌ_È_ËÂÌÚ_416" x1="135.04" y1="237.77" x2="135.04" y2="209.77" gradientUnits="userSpaceOnUse"><stop offset="0" stop-color="#8ea1d3"/><stop offset="1" stop-color="#6e5ba3"/></linearGradient><linearGradient id="_ÂÁ_Ï_ÌÌ_È_ËÂÌÚ_129-2" x1="161.45" y1="201.07" x2="168.51" y2="144.9" xlink:href="#_ÂÁ_Ï_ÌÌ_È_ËÂÌÚ_129"/><linearGradient id="_ÂÁ_Ï_ÌÌ_È_ËÂÌÚ_28" x1="213.07" y1="453.42" x2="211.3" y2="435.97" gradientTransform="matrix(0.98, -0.21, 0.21, 0.98, -127.1, -195.3)" gradientUnits="userSpaceOnUse"><stop offset="0" stop-color="#b39bc9"/><stop offset="1" stop-color="#9289c1"/></linearGradient><linearGradient id="_ÂÁ_Ï_ÌÌ_È_ËÂÌÚ_153" x1="160.96" y1="202.59" x2="160.96" y2="142.97" gradientUnits="userSpaceOnUse"><stop offset="0" stop-color="#9169a9"/><stop offset="1" stop-color="#cce9fb"/></linearGradient><linearGradient id="_ÂÁ_Ï_ÌÌ_È_ËÂÌÚ_46" x1="-2150.25" y1="-50.94" x2="-2139.26" y2="-138.48" gradientTransform="matrix(-0.97, -0.25, -0.25, 0.97, -1966.5, -260.08)" gradientUnits="userSpaceOnUse"><stop offset="0" stop-color="#c9bede"/><stop offset="1" stop-color="#e6daec"/></linearGradient><linearGradient id="_ÂÁ_Ï_ÌÌ_È_ËÂÌÚ_153-2" x1="-2124.28" y1="-65.26" x2="-2124.28" y2="-110.43" gradientTransform="matrix(-0.97, -0.25, -0.25, 0.97, -1966.5, -260.08)" xlink:href="#_ÂÁ_Ï_ÌÌ_È_ËÂÌÚ_153"/><linearGradient id="_ÂÁ_Ï_ÌÌ_È_ËÂÌÚ_28-2" x1="-2175.29" y1="-78.65" x2="-2132.36" y2="-78.65" gradientTransform="matrix(-0.97, -0.25, -0.25, 0.97, -1966.5, -260.08)" xlink:href="#_ÂÁ_Ï_ÌÌ_È_ËÂÌÚ_28"/><radialGradient id="_ÂÁ_Ï_ÌÌ_È_ËÂÌÚ_91" cx="-2153.11" cy="-59.19" r="32.44" gradientTransform="matrix(-0.97, -0.25, -0.25, 0.97, -1966.5, -260.08)" gradientUnits="userSpaceOnUse"><stop offset="0" stop-color="#79c3b0"/><stop offset="1" stop-color="#60c4e5"/></radialGradient><linearGradient id="_ÂÁ_Ï_ÌÌ_È_ËÂÌÚ_5" x1="-2128.89" y1="-110.43" x2="-2117.83" y2="-110.43" gradientTransform="matrix(-0.97, -0.25, -0.25, 0.97, -1966.5, -260.08)" gradientUnits="userSpaceOnUse"><stop offset="0" stop-color="#7974b4"/><stop offset="1" stop-color="#9289c1"/></linearGradient><linearGradient id="_ÂÁ_Ï_ÌÌ_È_ËÂÌÚ_134" x1="-2173.06" y1="-93.73" x2="-2137.44" y2="-93.73" gradientTransform="matrix(-0.97, -0.25, -0.25, 0.97, -1966.5, -260.08)" gradientUnits="userSpaceOnUse"><stop offset="0"/><stop offset="1" stop-color="#d4dff3"/></linearGradient><linearGradient id="_ÂÁ_Ï_ÌÌ_È_ËÂÌÚ_143" x1="-2153.63" y1="-52.71" x2="-2153.63" y2="-56.82" gradientTransform="matrix(-0.97, -0.25, -0.25, 0.97, -1966.5, -260.08)" gradientUnits="userSpaceOnUse"><stop offset="0" stop-color="#d4dff3"/><stop offset="1"/></linearGradient><linearGradient id="_ÂÁ_Ï_ÌÌ_È_ËÂÌÚ_46-2" x1="121.04" y1="317.91" x2="136.1" y2="265.75" gradientTransform="translate(-31.16 -54.78) rotate(-3.1)" xlink:href="#_ÂÁ_Ï_ÌÌ_È_ËÂÌÚ_46"/><linearGradient id="_ÂÁ_Ï_ÌÌ_È_ËÂÌÚ_46-3" x1="97.41" y1="174.64" x2="101.07" y2="145.45" gradientTransform="matrix(1, 0, 0, 1, 0, 0)" xlink:href="#_ÂÁ_Ï_ÌÌ_È_ËÂÌÚ_46"/><linearGradient id="_ÂÁ_Ï_ÌÌ_È_ËÂÌÚ_416-2" x1="132.24" y1="157.53" x2="137.52" y2="136.89" xlink:href="#_ÂÁ_Ï_ÌÌ_È_ËÂÌÚ_416"/><linearGradient id="_ÂÁ_Ï_ÌÌ_È_ËÂÌÚ_17" x1="-1992.52" y1="337.1" x2="-1992.52" y2="308.31" gradientTransform="matrix(-0.98, 0.22, 0.22, 0.98, -1858.24, 185.64)" xlink:href="#_ÂÁ_Ï_ÌÌ_È_ËÂÌÚ_91"/><linearGradient id="_ÂÁ_Ï_ÌÌ_È_ËÂÌÚ_264" x1="-1984.78" y1="327.16" x2="-1984.78" y2="302.41" gradientTransform="matrix(-0.98, 0.22, 0.22, 0.98, -1858.24, 185.64)" gradientUnits="userSpaceOnUse"><stop offset="0" stop-color="#b5a9d3"/><stop offset="1" stop-color="#dfcfe7"/></linearGradient><linearGradient id="_ÂÁ_Ï_ÌÌ_È_ËÂÌÚ_46-4" x1="128.19" y1="147.01" x2="140.01" y2="52.88" gradientTransform="matrix(1, 0, 0, 1, 0, 0)" xlink:href="#_ÂÁ_Ï_ÌÌ_È_ËÂÌÚ_46"/><linearGradient id="_ÂÁ_Ï_ÌÌ_È_ËÂÌÚ_416-3" x1="91.09" y1="124.36" x2="91.09" y2="104.23" xlink:href="#_ÂÁ_Ï_ÌÌ_È_ËÂÌÚ_416"/><linearGradient id="_ÂÁ_Ï_ÌÌ_È_ËÂÌÚ_132" x1="144.1" y1="140.04" x2="144.1" y2="58.77" gradientUnits="userSpaceOnUse"><stop offset="0" stop-color="#1e64ae"/><stop offset="1" stop-color="#292f6b"/></linearGradient><linearGradient id="_ÂÁ_Ï_ÌÌ_È_ËÂÌÚ_54" x1="119.61" y1="134.43" x2="121.46" y2="119.68" gradientUnits="userSpaceOnUse"><stop offset="0"/><stop offset="1" stop-color="#7192cb"/></linearGradient><linearGradient id="_ÂÁ_Ï_ÌÌ_È_ËÂÌÚ_264-2" x1="-2277.2" y1="112.85" x2="-2277.2" y2="65.46" gradientTransform="matrix(-1, 0, 0, 1, -2186.73, 0)" xlink:href="#_ÂÁ_Ï_ÌÌ_È_ËÂÌÚ_264"/><linearGradient id="_ÂÁ_Ï_ÌÌ_È_ËÂÌÚ_28-3" x1="-2273.57" y1="111.05" x2="-2273.57" y2="65.68" gradientTransform="matrix(-1, 0, 0, 1, -2186.73, 0)" xlink:href="#_ÂÁ_Ï_ÌÌ_È_ËÂÌÚ_28"/><linearGradient id="_ÂÁ_Ï_ÌÌ_È_ËÂÌÚ_17-2" x1="-2270.14" y1="112.18" x2="-2270.14" y2="67.71" gradientTransform="matrix(-1, 0, 0, 1, -2186.73, 0)" xlink:href="#_ÂÁ_Ï_ÌÌ_È_ËÂÌÚ_91"/><linearGradient id="_ÂÁ_Ï_ÌÌ_È_ËÂÌÚ_143-2" x1="-2270.99" y1="110.73" x2="-2270.99" y2="97.74" gradientTransform="matrix(-1, 0, 0, 1, -2186.73, 0)" xlink:href="#_ÂÁ_Ï_ÌÌ_È_ËÂÌÚ_143"/><linearGradient id="_ÂÁ_Ï_ÌÌ_È_ËÂÌÚ_134-2" x1="-2281.79" y1="75.84" x2="-2256.34" y2="75.84" gradientTransform="matrix(-1, 0, 0, 1, -2186.73, 0)" xlink:href="#_ÂÁ_Ï_ÌÌ_È_ËÂÌÚ_134"/><linearGradient id="_ÂÁ_Ï_ÌÌ_È_ËÂÌÚ_17-3" x1="149.06" y1="776.46" x2="149.06" y2="754.21" gradientTransform="matrix(0.84, -0.55, 0.55, 0.84, -376.72, -472.8)" xlink:href="#_ÂÁ_Ï_ÌÌ_È_ËÂÌÚ_91"/><linearGradient id="_ÂÁ_Ï_ÌÌ_È_ËÂÌÚ_17-4" x1="-164.43" y1="626.76" x2="-164.43" y2="601.65" gradientTransform="matrix(1.22, -0.6, 0.44, 0.9, 58.76, -548.89)" xlink:href="#_ÂÁ_Ï_ÌÌ_È_ËÂÌÚ_91"/><linearGradient id="_ÂÁ_Ï_ÌÌ_È_ËÂÌÚ_54-2" x1="107.87" y1="81.6" x2="172.98" y2="81.6" xlink:href="#_ÂÁ_Ï_ÌÌ_È_ËÂÌÚ_54"/><linearGradient id="_ÂÁ_Ï_ÌÌ_È_ËÂÌÚ_28-4" x1="52.18" y1="26.56" x2="57.73" y2="-17.59" gradientTransform="translate(41.25 118.73) rotate(6.38)" xlink:href="#_ÂÁ_Ï_ÌÌ_È_ËÂÌÚ_28"/><linearGradient id="_ÂÁ_Ï_ÌÌ_È_ËÂÌÚ_4" x1="112.58" y1="22.92" x2="112.58" y2="10.19" gradientTransform="translate(5.65 127.59) rotate(-2.22)" gradientUnits="userSpaceOnUse"><stop offset="0" stop-color="#d32c87"/><stop offset="1" stop-color="#e6287e"/></linearGradient><linearGradient id="_ÂÁ_Ï_ÌÌ_È_ËÂÌÚ_65" x1="158.85" y1="448.64" x2="158.85" y2="443.23" gradientTransform="translate(-154.55 -250.06) rotate(-15.46)" gradientUnits="userSpaceOnUse"><stop offset="0" stop-color="#9d559b"/><stop offset="1" stop-color="#ea71a8"/></linearGradient><linearGradient id="_ÂÁ_Ï_ÌÌ_È_ËÂÌÚ_28-5" x1="67.68" y1="157.1" x2="66.97" y2="150.22" gradientTransform="matrix(1, 0, 0, 1, 0, 0)" xlink:href="#_ÂÁ_Ï_ÌÌ_È_ËÂÌÚ_28"/><linearGradient id="_ÂÁ_Ï_ÌÌ_È_ËÂÌÚ_65-2" x1="79.7" y1="186.1" x2="90.88" y2="129.9" gradientTransform="matrix(1, 0, 0, 1, 0, 0)" xlink:href="#_ÂÁ_Ï_ÌÌ_È_ËÂÌÚ_65"/><linearGradient id="_ÂÁ_Ï_ÌÌ_È_ËÂÌÚ_7" x1="99.17" y1="182.95" x2="102.98" y2="129.27" gradientUnits="userSpaceOnUse"><stop offset="0" stop-color="#724d99"/><stop offset="1" stop-color="#e6287e"/></linearGradient><linearGradient id="_ÂÁ_Ï_ÌÌ_È_ËÂÌÚ_416-4" x1="74.06" y1="168.64" x2="82.54" y2="168.64" xlink:href="#_ÂÁ_Ï_ÌÌ_È_ËÂÌÚ_416"/><linearGradient id="_ÂÁ_Ï_ÌÌ_È_ËÂÌÚ_28-6" x1="-28.04" y1="-89.58" x2="-29.81" y2="-106.91" gradientTransform="translate(79.27 265.23) rotate(13.58)" xlink:href="#_ÂÁ_Ï_ÌÌ_È_ËÂÌÚ_28"/><linearGradient id="_ÂÁ_Ï_ÌÌ_È_ËÂÌÚ_46-5" x1="-32.82" y1="-91.56" x2="-30.64" y2="-108.95" gradientTransform="translate(79.27 265.23) rotate(13.58)" xlink:href="#_ÂÁ_Ï_ÌÌ_È_ËÂÌÚ_46"/><linearGradient id="_ÂÁ_Ï_ÌÌ_È_ËÂÌÚ_65-3" x1="99.36" y1="152.83" x2="102.11" y2="139" gradientTransform="matrix(1, 0, 0, 1, 0, 0)" xlink:href="#_ÂÁ_Ï_ÌÌ_È_ËÂÌÚ_65"/><linearGradient id="_ÂÁ_Ï_ÌÌ_È_ËÂÌÚ_326" x1="100.6" y1="152.77" x2="101.59" y2="138.82" gradientUnits="userSpaceOnUse"><stop offset="0" stop-color="#aa2b86"/><stop offset="1" stop-color="#901d7f"/></linearGradient><linearGradient id="_ÂÁ_Ï_ÌÌ_È_ËÂÌÚ_322" x1="119.21" y1="379.3" x2="119.94" y2="369.11" gradientTransform="translate(-108.31 -198.97) rotate(-11.22)" gradientUnits="userSpaceOnUse"><stop offset="0" stop-color="#aa2b86"/><stop offset="1" stop-color="#e6287e"/></linearGradient><radialGradient id="_ÂÁ_Ï_ÌÌ_È_ËÂÌÚ_91-2" cx="120.04" cy="374.3" r="3.5" gradientTransform="translate(-108.31 -198.97) rotate(-11.22)" xlink:href="#_ÂÁ_Ï_ÌÌ_È_ËÂÌÚ_91"/><linearGradient id="_ÂÁ_Ï_ÌÌ_È_ËÂÌÚ_326-2" x1="83.23" y1="181.07" x2="97.84" y2="181.07" xlink:href="#_ÂÁ_Ï_ÌÌ_È_ËÂÌÚ_326"/><linearGradient id="_ÂÁ_Ï_ÌÌ_È_ËÂÌÚ_54-3" x1="88.6" y1="182.67" x2="88.6" y2="134.57" xlink:href="#_ÂÁ_Ï_ÌÌ_È_ËÂÌÚ_54"/><linearGradient id="_ÂÁ_Ï_ÌÌ_È_ËÂÌÚ_54-4" x1="159.87" y1="136.58" x2="162.51" y2="115.57" xlink:href="#_ÂÁ_Ï_ÌÌ_È_ËÂÌÚ_54"/><linearGradient id="_ÂÁ_Ï_ÌÌ_È_ËÂÌÚ_153-3" x1="124.74" y1="196.63" x2="124.74" y2="196.08" xlink:href="#_ÂÁ_Ï_ÌÌ_È_ËÂÌÚ_153"/><linearGradient id="_ÂÁ_Ï_ÌÌ_È_ËÂÌÚ_153-4" x1="130.82" y1="322.7" x2="130.82" y2="263.82" gradientTransform="translate(-31.16 -54.78) rotate(-3.1)" xlink:href="#_ÂÁ_Ï_ÌÌ_È_ËÂÌÚ_153"/><linearGradient id="_ÂÁ_Ï_ÌÌ_È_ËÂÌÚ_46-6" x1="78.87" y1="124.36" x2="78.87" y2="107.46" gradientTransform="matrix(1, 0, 0, 1, 0, 0)" xlink:href="#_ÂÁ_Ï_ÌÌ_È_ËÂÌÚ_46"/><linearGradient id="_ÂÁ_Ï_ÌÌ_È_ËÂÌÚ_46-7" x1="-2136.99" y1="279.49" x2="-2132.8" y2="246.1" gradientTransform="matrix(-1, 0.05, 0.05, 1, -1960.92, 44.52)" xlink:href="#_ÂÁ_Ï_ÌÌ_È_ËÂÌÚ_46"/><linearGradient id="_ÂÁ_Ï_ÌÌ_È_ËÂÌÚ_28-7" x1="-2132.63" y1="278.37" x2="-2135.79" y2="247.33" gradientTransform="matrix(-1, 0.05, 0.05, 1, -1960.92, 44.52)" xlink:href="#_ÂÁ_Ï_ÌÌ_È_ËÂÌÚ_28"/><linearGradient id="_ÂÁ_Ï_ÌÌ_È_ËÂÌÚ_416-5" x1="-2131.91" y1="268.23" x2="-2133.71" y2="250.62" gradientTransform="matrix(-1, 0.05, 0.05, 1, -1960.92, 44.52)" xlink:href="#_ÂÁ_Ï_ÌÌ_È_ËÂÌÚ_416"/><linearGradient id="_ÂÁ_Ï_ÌÌ_È_ËÂÌÚ_46-8" x1="-2129.59" y1="269.09" x2="-2126.79" y2="246.75" gradientTransform="matrix(-1, 0.05, 0.05, 1, -1960.92, 44.52)" xlink:href="#_ÂÁ_Ï_ÌÌ_È_ËÂÌÚ_46"/></defs><title>CUDI-5-sprites</title><g class="cls-1"><g id="Capa_1" data-name="Capa 1"><path class="cls-2" d="M145.54,219.7s-2.09,3.17-4.91,7.22c-4.55,6.58-11,15.5-13.44,17-1.17.74-1.86-2-2.23-6.19-.89-9.91-.08-28-.08-28S140.12,213,145.54,219.7Z"/><path class="cls-3" d="M145.54,219.7s-2.09,3.17-4.91,7.22c0,0-4.13-.67-11.11,3.52-2.65,1.59-4,4.42-4.56,7.33-.89-9.91-.08-28-.08-28S140.12,213,145.54,219.7Z"/><path class="cls-4" d="M174.32,202.59h0c-4.42-1.21-9.93-5.52-14.16-11.8-9.14-13.58-18.82-42-7.2-47.78,1.15-.57,6.67,6.37,12.57,15.61,6.95,10.9,14.45,25,16,33.81S179.42,204,174.32,202.59Z"/><path class="cls-5" d="M168.28,199.44s4-15.28,8.79-15,5.53,14.31,2.37,17.13S170.05,201.2,168.28,199.44Z"/><path class="cls-6" d="M174.32,202.59h0c-4.42-1.21-9.93-5.52-14.16-11.8-9.14-13.58-18.82-42-7.2-47.78,1.15-.57,6.67,6.37,12.57,15.61h0s-2.72,20.33-.77,27.56,8.45,11.66,8.45,11.66Z"/><path class="cls-7" d="M104.34,189.63c-.62,18.43,7.45,28.47,25.42,32.79,17.6,4.24,33.23-12,33.27-35.78,0-15.18-.94-28.89-6.4-38.67h0v0a26.76,26.76,0,0,0-14.22-12.32c-5.21-2-10.41-.26-15.21,3.74C114.68,149.78,104.84,175.42,104.34,189.63Z"/><path class="cls-8" d="M122.12,159.26s-5.34,13.14-7.66,22.21c-2.75,10.77,1.07,22.73,1.07,22.73L105.29,201s-2.75-14.78.8-22.94a87.07,87.07,0,0,0,3.9-10.18Z"/><path class="cls-9" d="M163.2,189.75s-.71-14.23-13.32-17.45c-15.11-3.86-29.56,10.24-31.54,21.8s-1.24,23.06,12.92,27.15C131.26,221.25,158.14,227.48,163.2,189.75Z"/><path class="cls-10" d="M162.82,191.21s-.71-14.22-13.32-17.44C134.4,169.91,120,184,118,195.57s-1.23,23.06,12.93,27.15C130.89,222.72,157.77,229,162.82,191.21Z"/><path class="cls-11" d="M111.24,172.08a3.09,3.09,0,0,0,2.44-1c4.24-3.41,10.68-14.73,12.37-21.5.65-2.62.59-4.56-.59-5.1-1.93-.86-7.77,4.9-12.2,14C110.69,163.76,108.44,171.37,111.24,172.08Z"/><path class="cls-12" d="M113.68,171.12c4.24-3.41,10.68-14.73,12.37-21.5-2.64,2.06-6.29,6.69-9.31,12.85A37.66,37.66,0,0,0,113.68,171.12Z"/><path class="cls-13" d="M161.34,189.7c-2.83,3.14-8.73-3.31-17.83-4.55s-15.06,2.23-17.28.29,9.16-13.11,22.89-10.17C160.08,177.62,162.3,188.64,161.34,189.7Z"/><path class="cls-14" d="M143.22,220a16,16,0,0,1-10.86,1.46c-6.2-1.35-7.48-4.85-7.48-4.85a13.24,13.24,0,0,1,7.14,1.46A19.77,19.77,0,0,0,143.22,220Z"/><path class="cls-15" d="M133.16,159.27c1.07.3.74,9-.21,9.17s-2.66-.28-2.63-3.92S132.13,159,133.16,159.27Z"/><path class="cls-16" d="M123.81,260c-5.83.15-30.08-53.43-24.26-57.66,9.92-7.2,23.46,7.21,28.51,15.39a13.82,13.82,0,0,1,2,4.33C130.63,226.76,129.65,259.85,123.81,260Z"/><path class="cls-17" d="M122.12,148.78c3.26,3.3-6.13,21.45-14.3,24.47s-25.78-.68-28.59-1.84-3.86-10.58-1.23-14.2S117.66,144.29,122.12,148.78Z"/><path class="cls-18" d="M108.87,148.22a49.59,49.59,0,0,0,31.12,9c18.51-1,19.85-6.91,19.85-6.91s-6.1-9-11.06-10.53c-1.95-.61-22.32-4.24-29,7.81C115.44,147.6,108.87,148.22,108.87,148.22Z"/><path class="cls-19" d="M153.22,50.59s9.4,6.33,13.58,21S149,68.63,149,68.63Z"/><path class="cls-20" d="M159.84,68.43s-2.56-19.53-9.11-22.13-15,7-15,7Z"/><path class="cls-21" d="M107.46,57.62C78.12,75.44,79.73,120,91,136.12c13.09,18.78,81.83,7,91.54-23.87C192.34,81.05,143.94,35.46,107.46,57.62Z"/><path class="cls-22" d="M98.56,104.23S95,120.31,85.79,124.36c0,0-2.18-7.89-2.18-12.8S98.56,104.23,98.56,104.23Z"/><path class="cls-23" d="M124.73,61.88C102.06,73.19,98.59,119,113.67,134.16s66.22-.87,69.81-28.06C186.68,81.87,151.86,48.35,124.73,61.88Z"/><path class="cls-24" d="M129.52,134.86s-10.73,1.7-15.47-4.62-2.55-11.22-1-11.59,6.31,9.13,10.13,12.48S129.52,134.86,129.52,134.86Z"/><path class="cls-25" d="M104,75.34s3,27.67-14,37.45c0,0-8.38.9-13.25-4.18,0,0,7.59,7.12,15.59-.3s6.07-27.88,0-34.55-14.85-4.91-14.85-4.91L81,65.7S93.89,63.07,104,75.34Z"/><path class="cls-26" d="M81,65.7s9.5-.88,16.13,10.14c7.05,11.7,1.93,31.93-6.63,35S73.25,81.19,73.25,81.19l5-13A5.88,5.88,0,0,1,81,65.7Z"/><path class="cls-27" d="M68.7,93.58c1.22,6.33,3.79,11.49,7.24,14.76l0,0,1,.85h0a12.49,12.49,0,0,0,9.64,2.87C98.14,110.6,99.7,93.86,98.33,84.37c-1.58-11-11-17.53-18.41-16.57C71,69,66.3,81.21,68.7,93.58Z"/><path class="cls-28" d="M96.45,97.74S95.22,108,87.68,110.23,74,107,72.08,99.29c0,0,2.36,6.64,12.18,4.94S96.45,97.74,96.45,97.74Z"/><path class="cls-29" d="M95.06,78.34c-.09,1.91-13.93-2.06-18.34-1.48s-6.27,6-7,5.86S70.92,70,79.1,69,95.12,77,95.06,78.34Z"/><path class="cls-30" d="M165.42,97c4.71,2.6,11.57-3.2,9.85-10.16s-9.81-12.54-13.82-10.34S157.59,92.71,165.42,97Z"/><path class="cls-31" d="M123,112.58c7.42,5.13,15.44-3.31,15.35-10.8s-7-14.85-13.84-13C117,90.86,115.33,107.31,123,112.58Z"/><path class="cls-32" d="M145.58,115.16c-.69,1.25,8.27,7.32,12.57,5.55,5-2.07,4.26-12.75,3.33-13.47S146.75,113.06,145.58,115.16Z"/><path class="cls-33" d="M108.87,101.33c4,5.51,15.54-13.4,27.94-19.76,14.14-7.24,34.71.43,36.09-1.81s-16.14-22-38.8-18.47S105.14,96.24,108.87,101.33Z"/><path class="cls-34" d="M77.61,110.34s-.82-5.47,2.67-7.32c0,0,5.25-.27,6.56,4.8,0,0-10.35,33.15-1.89,38.45,7.87,4.94,28.63-5.2,28.63-5.2l1.67,1.36s-17.61,11-28.74,7.6S77.61,110.34,77.61,110.34Z"/><path class="cls-35" d="M108.38,141.55c-1.76,3.62,4.58,5.3,9.21,4.55,5.19-.85,13.59-5.32,11.64-10.25S112.53,133.05,108.38,141.55Z"/><path class="cls-36" d="M108.87,142c.08.87,18.13-3.9,17.67-7.2S108.28,135.24,108.87,142Z"/><path class="cls-37" d="M64.67,153.52a5.86,5.86,0,0,1,3.75-3.45l1.87,6.77Z"/><path class="cls-38" d="M65.38,136.11s9.56-5.84,29.68-5.37c0,0,8.38,30.6,9.46,52.59a92.31,92.31,0,0,1-24.65,2.81A285,285,0,0,1,65.38,136.11Z"/><path class="cls-39" d="M95.06,130.74,99.64,129s6.89,30.75,7.36,53.64l-2.48.66Z"/><path class="cls-40" d="M74.06,169.86l2.43,6.78s6.73-8.19,6-16Z"/><path class="cls-41" d="M65.38,136.11s7-5.74,34.26-7.08l-4.58,1.71S82.68,130.5,65.38,136.11Z"/><path class="cls-42" d="M66.94,157.23s.56,11.67,4.94,14.18c0,0,12.55-7.07,10.8-14.37C81.44,151.9,66.94,157.23,66.94,157.23Z"/><path class="cls-43" d="M64.67,153.52s0,9.59,5.52,15.51c0,0,7.33-2.93,9.8-5.91,4-4.79,2.33-7.53,1-8.64C78.85,152.7,64.67,153.52,64.67,153.52Z"/><path class="cls-44" d="M98.23,139.77a3.91,3.91,0,0,1,2.8-1s2.69,7.6,2.11,13.81l-2.11.58Z"/><path class="cls-45" d="M98.23,139.77s3.27,7.4,3.84,13.11l1.87-.7s-1.37-9.79-2.91-13.4A4.17,4.17,0,0,0,98.23,139.77Z"/><path class="cls-46" d="M85.51,144.08c.55,2.77-.67,5.35-2.71,5.75s-4.15-1.51-4.7-4.28.66-5.34,2.71-5.75S85,141.31,85.51,144.08Z"/><path class="cls-47" d="M85.16,144.24c.43,2.16-.51,4.16-2.1,4.48s-3.23-1.18-3.66-3.33.52-4.16,2.11-4.48S84.74,142.09,85.16,144.24Z"/><path class="cls-48" d="M83.23,183.2v-2.41l13.62-1.85,1,2.14A135.31,135.31,0,0,1,83.23,183.2Z"/><path class="cls-49" d="M95.75,134.57l-19,43.36,1.73,4.74s15.38-9.68,21.9-21.4C100.42,161.27,96.44,138.41,95.75,134.57Z"/><path class="cls-50" d="M145.54,134.78a30.59,30.59,0,0,0,16-10.42,17.15,17.15,0,0,1,15.29-7S164.54,134.78,145.54,134.78Z"/><path class="cls-15" d="M104.52,66.79c0,1.83,11.19-7.27,9.78-8S104.55,64.68,104.52,66.79Z"/><path class="cls-51" d="M124.88,196.63l-.29-.55A5.54,5.54,0,0,1,124.88,196.63Z"/><path class="cls-52" d="M123.81,260c-5.83.15-30.08-53.43-24.26-57.66,0,0,7.24,33.63,16.07,42.33s14.54-14.11,13-24c-.16-1-.34-2-.55-2.91a13.82,13.82,0,0,1,2,4.33C130.63,226.76,129.65,259.85,123.81,260Z"/><path class="cls-15" d="M110,211.54c-.89,1.46,1.37,10.27,2.6,10.1s1.5-4.83.88-6.32S110.15,211.22,110,211.54Z"/><path class="cls-15" d="M112.81,223.1c-1,.52.21,3.18.94,3.09S113.75,222.63,112.81,223.1Z"/><path class="cls-15" d="M142,50.59c.7,1.47,5.37-1.59,4.68-2.86S141.25,49.13,142,50.59Z"/><path class="cls-15" d="M66,155.83c0,.89,4.68-.12,4.33-.86S66,154.36,66,155.83Z"/><path class="cls-53" d="M79.09,107.47c-1.22-.4-1.78,16.65-.79,16.89S81,108.1,79.09,107.47Z"/><path class="cls-54" d="M189.92,194.58s-3.95-5.06-9.34-5.51-7.23,1.13-8.07,4.93,7.39,17.12,17.31,27c4.08.15,5.07-4.91,5.51-8.14C195.19,210,194,201,189.92,194.58Z"/><path class="cls-55" d="M176.64,189.22s10.7,13.46,14.27,21.33c1.92,4.25,3,7,3,7s-2.29,6.73-6.88,1.41c-6.5-7.53-15.27-18.91-14-24.65C174.05,189.49,174.85,188.54,176.64,189.22Z"/><path class="cls-56" d="M185.71,201.66s-1,7.49-5.48,8.82l-1.57-17.81S184.26,199.43,185.71,201.66Z"/><path class="cls-57" d="M181.08,196.8c.75,1.69,0,13-1.18,14.32s-4.09-.69-5-2.93-5-14.47-.67-18.66C174.25,189.53,177.93,189.75,181.08,196.8Z"/><path class="cls-15" d="M179.1,198.41c.5.07,1.25,3.89.86,4.6s-1.21.67-1.65-.18S178.34,198.31,179.1,198.41Z"/></g></g></svg>