<svg xmlns="http://www.w3.org/2000/svg" xmlns:xlink="http://www.w3.org/1999/xlink" viewBox="0 0 260 260"><defs><style>.cls-1{isolation:isolate;}.cls-2{fill:url(#_ÂÁ_Ï_ÌÌ_È_ËÂÌÚ_46);}.cls-3,.cls-43,.cls-47,.cls-8{opacity:0.3;}.cls-21,.cls-3,.cls-33,.cls-43,.cls-47,.cls-8{mix-blend-mode:multiply;}.cls-3{fill:url(#_ÂÁ_Ï_ÌÌ_È_ËÂÌÚ_153);}.cls-4{fill:url(#_ÂÁ_Ï_ÌÌ_È_ËÂÌÚ_28);}.cls-5{fill:url(#_ÂÁ_Ï_ÌÌ_È_ËÂÌÚ_46-2);}.cls-6{fill:url(#_ÂÁ_Ï_ÌÌ_È_ËÂÌÚ_28-2);}.cls-7{fill:#fff;}.cls-8{fill:url(#_ÂÁ_Ï_ÌÌ_È_ËÂÌÚ_153-2);}.cls-9{fill:url(#_ÂÁ_Ï_ÌÌ_È_ËÂÌÚ_12);}.cls-10{fill:url(#_ÂÁ_Ï_ÌÌ_È_ËÂÌÚ_46-3);}.cls-11{fill:url(#_ÂÁ_Ï_ÌÌ_È_ËÂÌÚ_28-3);}.cls-12{fill:#5f4393;}.cls-13{fill:url(#_ÂÁ_Ï_ÌÌ_È_ËÂÌÚ_91);}.cls-14{fill:url(#_ÂÁ_Ï_ÌÌ_È_ËÂÌÚ_46-4);}.cls-15{fill:url(#_ÂÁ_Ï_ÌÌ_È_ËÂÌÚ_12-2);}.cls-16{fill:url(#_ÂÁ_Ï_ÌÌ_È_ËÂÌÚ_46-5);}.cls-17{fill:url(#_ÂÁ_Ï_ÌÌ_È_ËÂÌÚ_28-4);}.cls-18{fill:url(#_ÂÁ_Ï_ÌÌ_È_ËÂÌÚ_28-5);}.cls-19{fill:url(#_ÂÁ_Ï_ÌÌ_È_ËÂÌÚ_28-6);}.cls-20{fill:url(#_ÂÁ_Ï_ÌÌ_È_ËÂÌÚ_46-6);}.cls-21,.cls-30,.cls-31,.cls-33{opacity:0.5;}.cls-21{fill:url(#_ÂÁ_Ï_ÌÌ_È_ËÂÌÚ_416);}.cls-22{fill:url(#_ÂÁ_Ï_ÌÌ_È_ËÂÌÚ_264);}.cls-23{fill:url(#_ÂÁ_Ï_ÌÌ_È_ËÂÌÚ_28-7);}.cls-24{fill:url(#_ÂÁ_Ï_ÌÌ_È_ËÂÌÚ_17);}.cls-25{fill:url(#_ÂÁ_Ï_ÌÌ_È_ËÂÌÚ_264-2);}.cls-26{fill:url(#_ÂÁ_Ï_ÌÌ_È_ËÂÌÚ_28-8);}.cls-27{fill:url(#_ÂÁ_Ï_ÌÌ_È_ËÂÌÚ_17-2);}.cls-28{fill:url(#_ÂÁ_Ï_ÌÌ_È_ËÂÌÚ_46-7);}.cls-29{fill:url(#_ÂÁ_Ï_ÌÌ_È_ËÂÌÚ_132);}.cls-30,.cls-31,.cls-32,.cls-37,.cls-38,.cls-46{mix-blend-mode:screen;}.cls-30{fill:url(#_ÂÁ_Ï_ÌÌ_È_ËÂÌÚ_54);}.cls-31{fill:url(#_ÂÁ_Ï_ÌÌ_È_ËÂÌÚ_54-2);}.cls-32{opacity:0.2;fill:url(#_ÂÁ_Ï_ÌÌ_È_ËÂÌÚ_2);}.cls-33{fill:url(#_ÂÁ_Ï_ÌÌ_È_ËÂÌÚ_416-2);}.cls-34{fill:url(#_ÂÁ_Ï_ÌÌ_È_ËÂÌÚ_28-9);}.cls-35{fill:url(#_ÂÁ_Ï_ÌÌ_È_ËÂÌÚ_4);}.cls-36{fill:url(#_ÂÁ_Ï_ÌÌ_È_ËÂÌÚ_65);}.cls-37,.cls-38,.cls-46{opacity:0.72;}.cls-37{fill:url(#_ÂÁ_Ï_ÌÌ_È_ËÂÌÚ_134);}.cls-38{fill:url(#_ÂÁ_Ï_ÌÌ_È_ËÂÌÚ_143);}.cls-39{fill:url(#_ÂÁ_Ï_ÌÌ_È_ËÂÌÚ_46-8);}.cls-40{fill:url(#_ÂÁ_Ï_ÌÌ_È_ËÂÌÚ_91-2);}.cls-41{fill:url(#_ÂÁ_Ï_ÌÌ_È_ËÂÌÚ_91-3);}.cls-42{fill:#2f94cd;}.cls-43{fill:url(#_ÂÁ_Ï_ÌÌ_È_ËÂÌÚ_153-3);}.cls-44{fill:url(#_ÂÁ_Ï_ÌÌ_È_ËÂÌÚ_46-9);}.cls-45{fill:url(#_ÂÁ_Ï_ÌÌ_È_ËÂÌÚ_28-10);}.cls-46{fill:url(#_ÂÁ_Ï_ÌÌ_È_ËÂÌÚ_143-2);}.cls-47{fill:url(#_ÂÁ_Ï_ÌÌ_È_ËÂÌÚ_153-4);}</style><linearGradient id="_ÂÁ_Ï_ÌÌ_È_ËÂÌÚ_46" x1="142.16" y1="169.78" x2="147.08" y2="130.63" gradientTransform="matrix(1, 0.06, -0.06, 1, -9.38, 77.2)" gradientUnits="userSpaceOnUse"><stop offset="0" stop-color="#c9bede"/><stop offset="1" stop-color="#e6daec"/></linearGradient><linearGradient id="_ÂÁ_Ï_ÌÌ_È_ËÂÌÚ_153" x1="-2841.59" y1="198.07" x2="-2841.59" y2="158" gradientTransform="matrix(-1, -0.04, -0.04, 1, -2701.9, -55.58)" gradientUnits="userSpaceOnUse"><stop offset="0" stop-color="#9169a9"/><stop offset="1" stop-color="#cce9fb"/></linearGradient><linearGradient id="_ÂÁ_Ï_ÌÌ_È_ËÂÌÚ_28" x1="146.21" y1="144.37" x2="146.21" y2="128.93" gradientTransform="matrix(1, 0.06, -0.06, 1, -9.38, 77.2)" gradientUnits="userSpaceOnUse"><stop offset="0" stop-color="#b39bc9"/><stop offset="1" stop-color="#9289c1"/></linearGradient><linearGradient id="_ÂÁ_Ï_ÌÌ_È_ËÂÌÚ_46-2" x1="127.72" y1="347.29" x2="134.06" y2="296.79" gradientTransform="translate(5.27 -79.71) rotate(-3.32)" xlink:href="#_ÂÁ_Ï_ÌÌ_È_ËÂÌÚ_46"/><linearGradient id="_ÂÁ_Ï_ÌÌ_È_ËÂÌÚ_28-2" x1="132.45" y1="316.71" x2="132.45" y2="298.36" gradientTransform="translate(5.27 -79.71) rotate(-3.32)" xlink:href="#_ÂÁ_Ï_ÌÌ_È_ËÂÌÚ_28"/><linearGradient id="_ÂÁ_Ï_ÌÌ_È_ËÂÌÚ_153-2" x1="132.53" y1="346.1" x2="132.53" y2="298.22" gradientTransform="translate(5.27 -79.71) rotate(-3.32)" xlink:href="#_ÂÁ_Ï_ÌÌ_È_ËÂÌÚ_153"/><linearGradient id="_ÂÁ_Ï_ÌÌ_È_ËÂÌÚ_12" x1="105.05" y1="196.33" x2="110.79" y2="150.63" gradientUnits="userSpaceOnUse"><stop offset="0" stop-color="#d9d1e9"/><stop offset="1" stop-color="#b39bc9"/></linearGradient><linearGradient id="_ÂÁ_Ï_ÌÌ_È_ËÂÌÚ_46-3" x1="136.73" y1="227.8" x2="146.41" y2="150.67" gradientTransform="matrix(1, 0, 0, 1, 0, 0)" xlink:href="#_ÂÁ_Ï_ÌÌ_È_ËÂÌÚ_46"/><linearGradient id="_ÂÁ_Ï_ÌÌ_È_ËÂÌÚ_28-3" x1="157.83" y1="183.32" x2="161.07" y2="157.52" gradientTransform="matrix(1, 0, 0, 1, 0, 0)" xlink:href="#_ÂÁ_Ï_ÌÌ_È_ËÂÌÚ_28"/><radialGradient id="_ÂÁ_Ï_ÌÌ_È_ËÂÌÚ_91" cx="138.61" cy="208.21" r="33.25" gradientTransform="translate(0 5.45) scale(1 1.03)" gradientUnits="userSpaceOnUse"><stop offset="0" stop-color="#79c3b0"/><stop offset="1" stop-color="#60c4e5"/></radialGradient><linearGradient id="_ÂÁ_Ï_ÌÌ_È_ËÂÌÚ_46-4" x1="167.93" y1="196.38" x2="173" y2="156.04" gradientTransform="matrix(1, 0, 0, 1, 0, 0)" xlink:href="#_ÂÁ_Ï_ÌÌ_È_ËÂÌÚ_46"/><linearGradient id="_ÂÁ_Ï_ÌÌ_È_ËÂÌÚ_12-2" x1="146.14" y1="186.76" x2="147.37" y2="176.95" xlink:href="#_ÂÁ_Ï_ÌÌ_È_ËÂÌÚ_12"/><linearGradient id="_ÂÁ_Ï_ÌÌ_È_ËÂÌÚ_46-5" x1="95.88" y1="186.2" x2="97.36" y2="174.47" gradientTransform="matrix(1, 0, 0, 1, 0, 0)" xlink:href="#_ÂÁ_Ï_ÌÌ_È_ËÂÌÚ_46"/><linearGradient id="_ÂÁ_Ï_ÌÌ_È_ËÂÌÚ_28-4" x1="99.91" y1="179.96" x2="99.91" y2="174.51" gradientTransform="matrix(1, 0, 0, 1, 0, 0)" xlink:href="#_ÂÁ_Ï_ÌÌ_È_ËÂÌÚ_28"/><linearGradient id="_ÂÁ_Ï_ÌÌ_È_ËÂÌÚ_28-5" x1="97.18" y1="203.41" x2="97.18" y2="181.73" gradientTransform="matrix(1, 0, 0, 1, 0, 0)" xlink:href="#_ÂÁ_Ï_ÌÌ_È_ËÂÌÚ_28"/><linearGradient id="_ÂÁ_Ï_ÌÌ_È_ËÂÌÚ_28-6" x1="159.02" y1="195.5" x2="159.02" y2="183.22" gradientTransform="matrix(1, 0, 0, 1, 0, 0)" xlink:href="#_ÂÁ_Ï_ÌÌ_È_ËÂÌÚ_28"/><linearGradient id="_ÂÁ_Ï_ÌÌ_È_ËÂÌÚ_46-6" x1="92.51" y1="203.74" x2="95.19" y2="182.41" gradientTransform="matrix(1, 0, 0, 1, 0, 0)" xlink:href="#_ÂÁ_Ï_ÌÌ_È_ËÂÌÚ_46"/><linearGradient id="_ÂÁ_Ï_ÌÌ_È_ËÂÌÚ_416" x1="136.04" y1="167.02" x2="136.04" y2="155.2" gradientUnits="userSpaceOnUse"><stop offset="0" stop-color="#8ea1d3"/><stop offset="1" stop-color="#6e5ba3"/></linearGradient><linearGradient id="_ÂÁ_Ï_ÌÌ_È_ËÂÌÚ_264" x1="179.99" y1="106.64" x2="179.99" y2="67.71" gradientUnits="userSpaceOnUse"><stop offset="0" stop-color="#b5a9d3"/><stop offset="1" stop-color="#dfcfe7"/></linearGradient><linearGradient id="_ÂÁ_Ï_ÌÌ_È_ËÂÌÚ_28-7" x1="182.82" y1="88.87" x2="182.82" y2="67.7" gradientTransform="matrix(1, 0, 0, 1, 0, 0)" xlink:href="#_ÂÁ_Ï_ÌÌ_È_ËÂÌÚ_28"/><linearGradient id="_ÂÁ_Ï_ÌÌ_È_ËÂÌÚ_17" x1="188.08" y1="108.5" x2="188.08" y2="70.25" gradientTransform="matrix(1, 0, 0, 1, 0, 0)" xlink:href="#_ÂÁ_Ï_ÌÌ_È_ËÂÌÚ_91"/><linearGradient id="_ÂÁ_Ï_ÌÌ_È_ËÂÌÚ_264-2" x1="-2740.55" y1="108.16" x2="-2740.55" y2="69.22" gradientTransform="matrix(-1, 0, 0, 1, -2641.66, 0)" xlink:href="#_ÂÁ_Ï_ÌÌ_È_ËÂÌÚ_264"/><linearGradient id="_ÂÁ_Ï_ÌÌ_È_ËÂÌÚ_28-8" x1="-2737.72" y1="90.39" x2="-2737.72" y2="69.22" gradientTransform="matrix(-1, 0, 0, 1, -2641.66, 0)" xlink:href="#_ÂÁ_Ï_ÌÌ_È_ËÂÌÚ_28"/><linearGradient id="_ÂÁ_Ï_ÌÌ_È_ËÂÌÚ_17-2" x1="-2732.49" y1="110.88" x2="-2732.49" y2="71.77" gradientTransform="matrix(-1, 0, 0, 1, -2641.66, 0)" xlink:href="#_ÂÁ_Ï_ÌÌ_È_ËÂÌÚ_91"/><linearGradient id="_ÂÁ_Ï_ÌÌ_È_ËÂÌÚ_46-7" x1="135.95" y1="158.05" x2="147.83" y2="63.5" gradientTransform="matrix(1, 0, 0, 1, 0, 0)" xlink:href="#_ÂÁ_Ï_ÌÌ_È_ËÂÌÚ_46"/><linearGradient id="_ÂÁ_Ï_ÌÌ_È_ËÂÌÚ_132" x1="139.77" y1="148.99" x2="139.77" y2="70.83" gradientUnits="userSpaceOnUse"><stop offset="0" stop-color="#1e64ae"/><stop offset="1" stop-color="#292f6b"/></linearGradient><linearGradient id="_ÂÁ_Ï_ÌÌ_È_ËÂÌÚ_54" x1="107.04" y1="88.31" x2="175.98" y2="88.31" gradientUnits="userSpaceOnUse"><stop offset="0"/><stop offset="1" stop-color="#7192cb"/></linearGradient><linearGradient id="_ÂÁ_Ï_ÌÌ_È_ËÂÌÚ_54-2" x1="116.1" y1="143.45" x2="166.23" y2="143.45" xlink:href="#_ÂÁ_Ï_ÌÌ_È_ËÂÌÚ_54"/><linearGradient id="_ÂÁ_Ï_ÌÌ_È_ËÂÌÚ_2" x1="116.23" y1="7.99" x2="116.23" y2="-17.58" gradientTransform="translate(-15.79 117.96) rotate(3.92)" gradientUnits="userSpaceOnUse"><stop offset="0"/><stop offset="1" stop-color="#5fc3e4"/></linearGradient><linearGradient id="_ÂÁ_Ï_ÌÌ_È_ËÂÌÚ_416-2" x1="101.98" y1="149.59" x2="101.98" y2="137.61" xlink:href="#_ÂÁ_Ï_ÌÌ_È_ËÂÌÚ_416"/><linearGradient id="_ÂÁ_Ï_ÌÌ_È_ËÂÌÚ_28-9" x1="79.93" y1="142.97" x2="85.6" y2="97.8" gradientTransform="matrix(1, 0, 0, 1, 0, 0)" xlink:href="#_ÂÁ_Ï_ÌÌ_È_ËÂÌÚ_28"/><linearGradient id="_ÂÁ_Ï_ÌÌ_È_ËÂÌÚ_4" x1="124.47" y1="-284.08" x2="124.47" y2="-296.81" gradientTransform="matrix(0.97, 0.23, -0.23, 0.97, -84.31, 391.23)" gradientUnits="userSpaceOnUse"><stop offset="0" stop-color="#d32c87"/><stop offset="1" stop-color="#e6287e"/></linearGradient><linearGradient id="_ÂÁ_Ï_ÌÌ_È_ËÂÌÚ_65" x1="102.75" y1="137.07" x2="102.75" y2="131.67" gradientUnits="userSpaceOnUse"><stop offset="0" stop-color="#9d559b"/><stop offset="1" stop-color="#ea71a8"/></linearGradient><linearGradient id="_ÂÁ_Ï_ÌÌ_È_ËÂÌÚ_134" x1="182.37" y1="79.8" x2="192.33" y2="79.8" gradientUnits="userSpaceOnUse"><stop offset="0"/><stop offset="1" stop-color="#d4dff3"/></linearGradient><linearGradient id="_ÂÁ_Ï_ÌÌ_È_ËÂÌÚ_143" x1="86.03" y1="79.11" x2="97" y2="79.11" gradientUnits="userSpaceOnUse"><stop offset="0" stop-color="#d4dff3"/><stop offset="1"/></linearGradient><linearGradient id="_ÂÁ_Ï_ÌÌ_È_ËÂÌÚ_46-8" x1="75.89" y1="117.14" x2="75.89" y2="104.5" gradientTransform="matrix(1, 0, 0, 1, 0, 0)" xlink:href="#_ÂÁ_Ï_ÌÌ_È_ËÂÌÚ_46"/><radialGradient id="_ÂÁ_Ï_ÌÌ_È_ËÂÌÚ_91-2" cx="163.41" cy="115.26" r="16.61" gradientTransform="matrix(1, 0, 0, 1, 0, 0)" xlink:href="#_ÂÁ_Ï_ÌÌ_È_ËÂÌÚ_91"/><radialGradient id="_ÂÁ_Ï_ÌÌ_È_ËÂÌÚ_91-3" cx="-1302.25" cy="115.27" r="16.63" gradientTransform="matrix(-1, 0, 0, 1, -1186.39, 0)" xlink:href="#_ÂÁ_Ï_ÌÌ_È_ËÂÌÚ_91"/><linearGradient id="_ÂÁ_Ï_ÌÌ_È_ËÂÌÚ_153-3" x1="169.34" y1="195.54" x2="169.34" y2="165.41" gradientTransform="matrix(1, 0, 0, 1, 0, 0)" xlink:href="#_ÂÁ_Ï_ÌÌ_È_ËÂÌÚ_153"/><linearGradient id="_ÂÁ_Ï_ÌÌ_È_ËÂÌÚ_46-9" x1="149.22" y1="204.52" x2="152.02" y2="182.2" gradientTransform="matrix(1, 0, 0, 1, 0, 0)" xlink:href="#_ÂÁ_Ï_ÌÌ_È_ËÂÌÚ_46"/><linearGradient id="_ÂÁ_Ï_ÌÌ_È_ËÂÌÚ_28-10" x1="154.26" y1="204.25" x2="154.26" y2="197.04" gradientTransform="matrix(1, 0, 0, 1, 0, 0)" xlink:href="#_ÂÁ_Ï_ÌÌ_È_ËÂÌÚ_28"/><linearGradient id="_ÂÁ_Ï_ÌÌ_È_ËÂÌÚ_143-2" x1="137.45" y1="226.67" x2="137.45" y2="220.3" xlink:href="#_ÂÁ_Ï_ÌÌ_È_ËÂÌÚ_143"/><linearGradient id="_ÂÁ_Ï_ÌÌ_È_ËÂÌÚ_153-4" x1="148.36" y1="204.25" x2="148.36" y2="184.5" gradientTransform="matrix(1, 0, 0, 1, 0, 0)" xlink:href="#_ÂÁ_Ï_ÌÌ_È_ËÂÌÚ_153"/></defs><title>CUDI-5-sprites</title><g class="cls-1"><g id="Capa_1" data-name="Capa 1"><path class="cls-2" d="M141.5,232.16c-1.76,7.71-8.67,25.35-13.87,23.17-1.12-.47-2.24-2-3.31-4.19-3.27-6.69-6.13-19.65-7.42-28.38-.7-4.76-.94-8.26-.52-8.81,2.56-3.37,24.18,13.06,25.43,14.82C142,229.11,141.92,230.36,141.5,232.16Z"/><path class="cls-3" d="M120.17,218.9s10.81,6.68,13.09,11.86.87,17.21-2.06,23.69c4.68-4.86,10.34-19.93,10.7-24.48a2.07,2.07,0,0,0-.12-1.17c-2.42-3.57-20.45-16.13-21.54-14.76C120,214.4,119.81,214.48,120.17,218.9Z"/><path class="cls-4" d="M116.38,214c-2.67,3.11,16.78,18.94,25.54,15.57,0,0,.19-.62-.58-1.28C136.7,224.21,119.42,210.4,116.38,214Z"/><path class="cls-5" d="M168.07,219.2c0,.73-.1,1.48-.16,2.26-.9,11.91-3.18,29.46-6.34,36-.75,1.57-1.56,2.49-2.41,2.56a2.06,2.06,0,0,1-.69-.06,5.92,5.92,0,0,1-2.6-1.69h0c-5.7-5.7-12.8-23.59-13.33-29a2.52,2.52,0,0,1,.12-1.4c2.81-4.31,24.09-19.72,25.41-18.11C168.42,210.13,168.4,213.91,168.07,219.2Z"/><path class="cls-6" d="M142.54,229.21c-.58,1.69,22.6-3.46,25.53-19.51C168.07,209.7,148,213.24,142.54,229.21Z"/><path class="cls-7" d="M155.7,234c-.94.35-.72,8,.9,8.32S157.87,233.16,155.7,234Z"/><path class="cls-8" d="M168.07,219.2s-12.58,4.53-15.18,10.77-.66,20.59,3,28.26c-5.7-5.7-12.8-23.59-13.33-29a2.52,2.52,0,0,1,.12-1.4c2.81-4.31,24.09-19.72,25.41-18.11C168.42,210.13,168.4,213.91,168.07,219.2Z"/><path class="cls-9" d="M85.86,192.66s-1.93-9.24,6.48-19.09c10.91-12.77,33.68-22.22,37.49-20.46s-8.64,21.81-8.64,21.81-15.77,4-24.07,13.65S85.86,192.66,85.86,192.66Z"/><path class="cls-10" d="M166.61,205c-1.08,9-5.22,16-12.24,19.84-4.71,2.57-10.71,3.69-18,3-10.71-1.08-17.26-9.1-20.13-20,0,0,0,0,0,0a58.62,58.62,0,0,1-1.73-16.05c.4-18.46,10.17-33,16.9-37.53,11.13-7.48,26.88-3.16,28.64,10C161.5,174.68,168.43,190,166.61,205Z"/><path class="cls-11" d="M156.68,157c-1.87-.76-3,16.64,4.73,26.79,0,0,3.5-2.24,2-10.77S159.21,158,156.68,157Z"/><path class="cls-12" d="M155.32,163.33s7,9.89,4.72,18.41C160,181.74,155.61,175.09,155.32,163.33Z"/><path class="cls-13" d="M154.37,224.79c-4.71,2.57-10.71,3.69-18,3-10.71-1.08-17.26-9.1-20.13-20,0,0,0,0,0,0-3-12.08,2.43-28.16,18.75-28.16s24.34,16.77,25.14,28.52C160.49,212.73,160,222,154.37,224.79Z"/><path class="cls-14" d="M185.06,186.19c-.76,4.17-9.71,10.31-24.83,9.22,0,0-7.22-5.81-6.51-12.19,0,0,.65-.26,1.55-.71,1.78-.88,7.41-3,8-5,1.07-3.61-2.75-8.63-5.07-13.89-2.13-4.86-.51-9.12.62-9.35s8.42,2.3,15.65,9c.74.68,1.44,1.38,2.07,2.06h0C184.54,173.94,185.77,182.32,185.06,186.19Z"/><path class="cls-15" d="M155,183.11a78.36,78.36,0,0,0-11.1-6.59s-4.53.87-5.35,3.29,9.08,7.15,9.08,7.15Z"/><path class="cls-16" d="M90.09,184s3.91-7.52,7-8.49,5-.58,5.56,0,.57,3.51-.65,5.8-6.21,4.88-6.21,4.88Z"/><path class="cls-17" d="M96.55,175.75a5.92,5.92,0,0,0,2.55,3.46,4.73,4.73,0,0,0,3.43.66s1.77-3.76-.17-5C100.67,173.88,97,175,96.55,175.75Z"/><path class="cls-18" d="M89.44,181.74s6.91-.46,15,5.48c0,0,2.25,8.28-2.4,13.43a27,27,0,0,1-8.48,2.74C88.55,204.16,89.44,181.74,89.44,181.74Z"/><path class="cls-19" d="M153.72,183.22s6.22,0,9.62,5.28c2.86,4.43-1.54,7-1.54,7S154.22,195,153.72,183.22Z"/><path class="cls-20" d="M89.44,181.74c-3.19-.2-5.61,15-2.43,19.61s11.08.88,12.52-.77,3.65-8.9,2.82-11.86S97.26,182.23,89.44,181.74Z"/><path class="cls-21" d="M116.28,156.69S123,167.49,135.91,167s19.89-11.8,19.89-11.8l-37.72.7Z"/><path class="cls-22" d="M168.9,74.82s7-6.06,15.61-7.11c0,0,2.63,1.28,5.67,10.75s-2.57,28.18-2.57,28.18Z"/><path class="cls-23" d="M184.51,67.71a30.35,30.35,0,0,0-6.95,19.46l2.69,1.7,7.83-16.22S185.48,67.56,184.51,67.71Z"/><path class="cls-24" d="M180,88.05s-1.85-10.26,4.9-17.8c0,0,7.63,3.59,10.79,16.92s-5.06,21.33-5.06,21.33Z"/><path class="cls-7" d="M176.07,70.69c-1.3.7-1.2,2.1,1.49,1.75s4.15-2.45,3.86-2.86S177.52,69.91,176.07,70.69Z"/><path class="cls-25" d="M110,76.34s-7-6.06-15.62-7.12c0,0-2.63,1.29-5.67,10.76s2.58,28.18,2.58,28.18Z"/><path class="cls-26" d="M94.36,69.22a30.37,30.37,0,0,1,7,19.47l-2.69,1.7L90.8,74.17S93.4,69.08,94.36,69.22Z"/><path class="cls-27" d="M98.89,89.57s1.84-10.26-4.91-17.8c0,0-7.63,3.59-10.78,16.92a24.51,24.51,0,0,0,5.94,22.19Z"/><path class="cls-7" d="M102.81,72.21c1.3.7,1.19,2.1-1.49,1.75s-4.15-2.46-3.86-2.86S101.35,71.42,102.81,72.21Z"/><path class="cls-28" d="M90.25,141.22C101,166,181.52,158.3,191.14,137.92c10.52-22.3-13.67-77.4-52.25-74.83C106.29,65.27,76.42,109.32,90.25,141.22Z"/><path class="cls-29" d="M94.69,135.14c10.29,20.35,80.57,17,90.83-1.72,8.72-15.89-11.87-64.27-47.17-62.54S84.82,115.61,94.69,135.14Z"/><path class="cls-7" d="M150.26,67.7c-.74.88,7.8,4.59,8.94,4.07S152.71,64.77,150.26,67.7Z"/><path class="cls-30" d="M107.09,91.26c-.81,4.85,8.37,4.3,23.06,3.81,17.66-.59,35.39,14.61,45.72,3.7,1.7-1.79-15.2-25.39-35.6-24.87S107.79,87.05,107.09,91.26Z"/><path class="cls-31" d="M116.18,141.85c-.93,3.51,6.42,7,24.49,6.14,21.85-1.07,26.49-5.65,25.42-6.92-.64-.76-7.19,3.36-25.14-.57C129.1,137.9,117.16,138.15,116.18,141.85Z"/><path class="cls-32" d="M96.65,130.92A48,48,0,0,1,96.79,119c.9-6.83,2.73-11.25,3.83-10.63s.92,7.31,1.57,13.91c.5,5.14,1.49,10,1.49,10S99,136.75,96.65,130.92Z"/><path class="cls-33" d="M98.16,149.59s1.09-1.17,6.92-4.6c3.91-2.3,8-5,8.6-6,.87-2.35-16.74-1-16.74-1l-6.69,3.21A22.9,22.9,0,0,0,98.16,149.59Z"/><path class="cls-34" d="M84.71,97.69s4.54,2.92,1.56,9.69c0,0-21.21,11.56-20,24.15C67.31,142,96.62,137,96.62,137l1.06,3.51s-24.91,4.87-33.5-1c0,0-2.92-6.94,4.33-19.45A145.79,145.79,0,0,1,84.71,97.69Z"/><path class="cls-35" d="M92.91,136c-2.67,3,3,6.33,7.66,6.84,5.23.57,14.52-1.5,14-6.77S99.18,128.89,92.91,136Z"/><path class="cls-36" d="M93.27,136.53c-.16.86,18.51,1.07,19-2.23S94.5,129.87,93.27,136.53Z"/><path class="cls-37" d="M191.09,76.27s-2.48-3.07-5.85-2.25-3.59,11.43-1.58,11.69,2.87-5.87,4.42-6.83,4.25-.59,4.25-.59Z"/><path class="cls-38" d="M86,80.8s1.3-1.48,4.22-1,4.61,6.48,6.1,5.87.4-10.32-3.55-13.17C92.8,72.5,87.71,76.85,86,80.8Z"/><path class="cls-39" d="M80.64,104.5s-10.15,11.79-9.5,12.61S81.28,105.69,80.64,104.5Z"/><path class="cls-40" d="M153.31,116c1.84,3.9,17.88,4.4,20.46-1.75,2.32-5.53-4.87-20.16-14.46-18.83C152.07,96.43,150.21,109.43,153.31,116Z"/><path class="cls-41" d="M126,116c-1.83,3.9-17.87,4.4-20.46-1.75C103.18,108.73,110,94.67,120,95.43,127.26,96,129.06,109.43,126,116Z"/><path class="cls-42" d="M134.38,128.36s5.43-5.22,9.47-4.9S145,129,145,129A23.89,23.89,0,0,1,134.38,128.36Z"/><path class="cls-43" d="M185.06,186.19c-.76,4.17-9.71,10.31-24.83,9.22,0,0-7.22-5.81-6.51-12.19,0,0-.73.49.17,0l3,.51a52.59,52.59,0,0,0,19.68.7c10.21-1.77,3-14.79,0-19.06C184.54,173.94,185.77,182.32,185.06,186.19Z"/><path class="cls-44" d="M161.48,197.07a.42.42,0,0,0-.14.06l-.39.15-.07,0c-.72.28-2,.8-3.59,1.47-.75.32-1.56.69-2.4,1.07a77.27,77.27,0,0,0-7.83,4.39h0s-8-3.67-8.42-8.51c-.3-3.35,1.74-8.28,4.23-11.24a7,7,0,0,1,3.41-2.48c3.63-.77,7.59,1,7.59,1a8.53,8.53,0,0,1,7.62,5A10.28,10.28,0,0,1,161.48,197.07Z"/><path class="cls-45" d="M161.48,197.07a.42.42,0,0,0-.14.06l-.39.15-.07,0c-.72.34-1.7.85-2.76,1.45-3.89,2.16-9.13,5.49-9.13,5.49h-1.93a13.44,13.44,0,0,1,6.6-5.79A18.27,18.27,0,0,1,161.48,197.07Z"/><path class="cls-46" d="M124.85,220.3a18,18,0,0,0,12.75,6.28c8.57.6,12.45-1.8,12.45-1.8a7.06,7.06,0,0,0-5.05-3.27c-3.66-.61-7.84,2.52-11.87,2A24.89,24.89,0,0,1,124.85,220.3Z"/><path class="cls-7" d="M146.21,183.22c-.26.77,3,4.25,3.77,3.74s.15-3-1.47-3.74S146.35,182.8,146.21,183.22Z"/><path class="cls-7" d="M168.07,173.58c-.94.23-.81,1.66-1.61,2.94s-2.32,2.23-2.15,2.52,4,.23,4.64-1.71S168.6,173.45,168.07,173.58Z"/><path class="cls-7" d="M167.07,172.12A3.88,3.88,0,0,1,166,169.5c.24-.63,1.3.09,1.5.73S167.56,172.23,167.07,172.12Z"/><path class="cls-7" d="M89.38,182.93c.09,1.38,5.21,1.66,5.73.93s-.45-1.37-2.14-1.66S89.36,182.59,89.38,182.93Z"/><path class="cls-47" d="M158.12,198.76c-3.89,2.16-9.13,5.49-9.13,5.49h-1.94s-8-3.67-8.42-8.51c-.3-3.35,1.74-8.28,4.23-11.24.6,1.57,4,10,7.46,12.54a8.85,8.85,0,0,0,3.34,1.41,16.56,16.56,0,0,0,3.63.33Z"/><path class="cls-7" d="M105,164.39c-.07.7,6.83-1.06,6.1-3.28C110.62,159.7,105.1,163.14,105,164.39Z"/></g></g></svg>