<svg xmlns="http://www.w3.org/2000/svg" xmlns:xlink="http://www.w3.org/1999/xlink" viewBox="0 0 260 260"><defs><style>.cls-1{isolation:isolate;}.cls-2{fill:url(#_ÂÁ_Ï_ÌÌ_È_ËÂÌÚ_46);}.cls-3{fill:url(#_ÂÁ_Ï_ÌÌ_È_ËÂÌÚ_28);}.cls-15,.cls-36,.cls-38,.cls-4,.cls-45,.cls-49{opacity:0.3;}.cls-15,.cls-16,.cls-36,.cls-38,.cls-4,.cls-41,.cls-45,.cls-49,.cls-52,.cls-7{mix-blend-mode:multiply;}.cls-4{fill:url(#_ÂÁ_Ï_ÌÌ_È_ËÂÌÚ_153);}.cls-5{fill:url(#_ÂÁ_Ï_ÌÌ_È_ËÂÌÚ_46-2);}.cls-6{fill:url(#_ÂÁ_Ï_ÌÌ_È_ËÂÌÚ_28-2);}.cls-16,.cls-25,.cls-26,.cls-27,.cls-41,.cls-52,.cls-7{opacity:0.5;}.cls-7{fill:url(#_ÂÁ_Ï_ÌÌ_È_ËÂÌÚ_416);}.cls-8{fill:url(#_ÂÁ_Ï_ÌÌ_È_ËÂÌÚ_46-3);}.cls-9{fill:url(#_ÂÁ_Ï_ÌÌ_È_ËÂÌÚ_28-3);}.cls-10{fill:#fff;}.cls-11{fill:url(#_ÂÁ_Ï_ÌÌ_È_ËÂÌÚ_17);}.cls-12{fill:url(#_ÂÁ_Ï_ÌÌ_È_ËÂÌÚ_264);}.cls-13{fill:url(#_ÂÁ_Ï_ÌÌ_È_ËÂÌÚ_46-4);}.cls-14{fill:url(#_ÂÁ_Ï_ÌÌ_È_ËÂÌÚ_5);}.cls-15{fill:url(#_ÂÁ_Ï_ÌÌ_È_ËÂÌÚ_153-2);}.cls-16{fill:url(#_ÂÁ_Ï_ÌÌ_È_ËÂÌÚ_416-2);}.cls-17{fill:url(#_ÂÁ_Ï_ÌÌ_È_ËÂÌÚ_6);}.cls-18{fill:#dee1f2;}.cls-19{fill:url(#_ÂÁ_Ï_ÌÌ_È_ËÂÌÚ_132);}.cls-20{fill:url(#_ÂÁ_Ï_ÌÌ_È_ËÂÌÚ_264-2);}.cls-21{fill:url(#_ÂÁ_Ï_ÌÌ_È_ËÂÌÚ_28-4);}.cls-22{fill:url(#_ÂÁ_Ï_ÌÌ_È_ËÂÌÚ_17-2);}.cls-23{fill:url(#_ÂÁ_Ï_ÌÌ_È_ËÂÌÚ_17-3);}.cls-24{fill:url(#_ÂÁ_Ï_ÌÌ_È_ËÂÌÚ_17-4);}.cls-25,.cls-26,.cls-27,.cls-28,.cls-29,.cls-42,.cls-43{mix-blend-mode:screen;}.cls-25{fill:url(#_ÂÁ_Ï_ÌÌ_È_ËÂÌÚ_54);}.cls-26{fill:url(#_ÂÁ_Ï_ÌÌ_È_ËÂÌÚ_54-2);}.cls-27{fill:url(#_ÂÁ_Ï_ÌÌ_È_ËÂÌÚ_54-3);}.cls-28,.cls-29,.cls-42,.cls-43{opacity:0.72;}.cls-28{fill:url(#_ÂÁ_Ï_ÌÌ_È_ËÂÌÚ_143);}.cls-29{fill:url(#_ÂÁ_Ï_ÌÌ_È_ËÂÌÚ_134);}.cls-30{fill:#2f94cd;}.cls-31{fill:url(#_ÂÁ_Ï_ÌÌ_È_ËÂÌÚ_28-5);}.cls-32{fill:url(#_ÂÁ_Ï_ÌÌ_È_ËÂÌÚ_4);}.cls-33{fill:url(#_ÂÁ_Ï_ÌÌ_È_ËÂÌÚ_65);}.cls-34{fill:url(#_ÂÁ_Ï_ÌÌ_È_ËÂÌÚ_46-5);}.cls-35{fill:url(#_ÂÁ_Ï_ÌÌ_È_ËÂÌÚ_5-2);}.cls-36{fill:url(#_ÂÁ_Ï_ÌÌ_È_ËÂÌÚ_153-3);}.cls-37{fill:url(#_ÂÁ_Ï_ÌÌ_È_ËÂÌÚ_46-6);}.cls-38{fill:url(#_ÂÁ_Ï_ÌÌ_È_ËÂÌÚ_153-4);}.cls-39{fill:url(#_ÂÁ_Ï_ÌÌ_È_ËÂÌÚ_28-6);}.cls-40{fill:url(#_ÂÁ_Ï_ÌÌ_È_ËÂÌÚ_91);}.cls-41{fill:url(#_ÂÁ_Ï_ÌÌ_È_ËÂÌÚ_416-3);}.cls-42{fill:url(#_ÂÁ_Ï_ÌÌ_È_ËÂÌÚ_134-2);}.cls-43{fill:url(#_ÂÁ_Ï_ÌÌ_È_ËÂÌÚ_143-2);}.cls-44{fill:url(#_ÂÁ_Ï_ÌÌ_È_ËÂÌÚ_46-7);}.cls-45{fill:url(#_ÂÁ_Ï_ÌÌ_È_ËÂÌÚ_153-5);}.cls-46{fill:url(#_ÂÁ_Ï_ÌÌ_È_ËÂÌÚ_5-3);}.cls-47{fill:url(#_ÂÁ_Ï_ÌÌ_È_ËÂÌÚ_46-8);}.cls-48{fill:url(#_ÂÁ_Ï_ÌÌ_È_ËÂÌÚ_28-7);}.cls-49{fill:url(#_ÂÁ_Ï_ÌÌ_È_ËÂÌÚ_153-6);}.cls-50{fill:url(#_ÂÁ_Ï_ÌÌ_È_ËÂÌÚ_46-9);}.cls-51{fill:url(#_ÂÁ_Ï_ÌÌ_È_ËÂÌÚ_28-8);}.cls-52{fill:url(#_ÂÁ_Ï_ÌÌ_È_ËÂÌÚ_416-4);}.cls-53{fill:url(#_ÂÁ_Ï_ÌÌ_È_ËÂÌÚ_46-10);}.cls-54{fill:url(#_ÂÁ_Ï_ÌÌ_È_ËÂÌÚ_28-9);}</style><linearGradient id="_ÂÁ_Ï_ÌÌ_È_ËÂÌÚ_46" x1="-2988.07" y1="653.49" x2="-2981.38" y2="600.19" gradientTransform="matrix(-0.92, 0.39, 0.39, 0.92, -2899.35, 736.78)" gradientUnits="userSpaceOnUse"><stop offset="0" stop-color="#c9bede"/><stop offset="1" stop-color="#e6daec"/></linearGradient><linearGradient id="_ÂÁ_Ï_ÌÌ_È_ËÂÌÚ_28" x1="-2965.45" y1="620.7" x2="-2965.45" y2="601.5" gradientTransform="matrix(-0.92, 0.39, 0.39, 0.92, -2899.35, 736.78)" gradientUnits="userSpaceOnUse"><stop offset="0" stop-color="#b39bc9"/><stop offset="1" stop-color="#9289c1"/></linearGradient><linearGradient id="_ÂÁ_Ï_ÌÌ_È_ËÂÌÚ_153" x1="-2984.38" y1="652.23" x2="-2984.38" y2="603.01" gradientTransform="matrix(-0.92, 0.39, 0.39, 0.92, -2899.35, 736.78)" gradientUnits="userSpaceOnUse"><stop offset="0" stop-color="#9169a9"/><stop offset="1" stop-color="#cce9fb"/></linearGradient><linearGradient id="_ÂÁ_Ï_ÌÌ_È_ËÂÌÚ_46-2" x1="-2961.7" y1="616.92" x2="-2956.69" y2="577.05" xlink:href="#_ÂÁ_Ï_ÌÌ_È_ËÂÌÚ_46"/><linearGradient id="_ÂÁ_Ï_ÌÌ_È_ËÂÌÚ_28-2" x1="-2962.33" y1="603.79" x2="-2962.33" y2="577.34" xlink:href="#_ÂÁ_Ï_ÌÌ_È_ËÂÌÚ_28"/><linearGradient id="_ÂÁ_Ï_ÌÌ_È_ËÂÌÚ_416" x1="-2963.17" y1="598.97" x2="-2963.17" y2="583.65" gradientTransform="matrix(-0.92, 0.39, 0.39, 0.92, -2899.35, 736.78)" gradientUnits="userSpaceOnUse"><stop offset="0" stop-color="#8ea1d3"/><stop offset="1" stop-color="#6e5ba3"/></linearGradient><linearGradient id="_ÂÁ_Ï_ÌÌ_È_ËÂÌÚ_46-3" x1="-2969.09" y1="602.25" x2="-2966.3" y2="580.04" xlink:href="#_ÂÁ_Ï_ÌÌ_È_ËÂÌÚ_46"/><linearGradient id="_ÂÁ_Ï_ÌÌ_È_ËÂÌÚ_28-3" x1="-2957.49" y1="606.3" x2="-2957.49" y2="591.64" xlink:href="#_ÂÁ_Ï_ÌÌ_È_ËÂÌÚ_28"/><linearGradient id="_ÂÁ_Ï_ÌÌ_È_ËÂÌÚ_17" x1="268.05" y1="-137.76" x2="268.05" y2="-166.54" gradientTransform="translate(-178.27 184.1) rotate(10.91)" gradientUnits="userSpaceOnUse"><stop offset="0" stop-color="#79c3b0"/><stop offset="1" stop-color="#60c4e5"/></linearGradient><linearGradient id="_ÂÁ_Ï_ÌÌ_È_ËÂÌÚ_264" x1="276.13" y1="-149.88" x2="276.13" y2="-174.45" gradientTransform="translate(-178.27 184.1) rotate(10.91)" gradientUnits="userSpaceOnUse"><stop offset="0" stop-color="#b5a9d3"/><stop offset="1" stop-color="#dfcfe7"/></linearGradient><linearGradient id="_ÂÁ_Ï_ÌÌ_È_ËÂÌÚ_46-4" x1="300.78" y1="-84.63" x2="312.39" y2="-177.11" gradientTransform="translate(-178.27 184.1) rotate(10.91)" xlink:href="#_ÂÁ_Ï_ÌÌ_È_ËÂÌÚ_46"/><linearGradient id="_ÂÁ_Ï_ÌÌ_È_ËÂÌÚ_5" x1="272.66" y1="-96.11" x2="348.57" y2="-96.11" gradientTransform="translate(-178.27 184.1) rotate(10.91)" gradientUnits="userSpaceOnUse"><stop offset="0" stop-color="#7974b4"/><stop offset="1" stop-color="#9289c1"/></linearGradient><linearGradient id="_ÂÁ_Ï_ÌÌ_È_ËÂÌÚ_153-2" x1="305.74" y1="-86.69" x2="305.74" y2="-147.07" gradientTransform="translate(-178.27 184.1) rotate(10.91)" xlink:href="#_ÂÁ_Ï_ÌÌ_È_ËÂÌÚ_153"/><linearGradient id="_ÂÁ_Ï_ÌÌ_È_ËÂÌÚ_416-2" x1="310.61" y1="-87.98" x2="310.61" y2="-105.54" gradientTransform="translate(-178.27 184.1) rotate(10.91)" xlink:href="#_ÂÁ_Ï_ÌÌ_È_ËÂÌÚ_416"/><linearGradient id="_ÂÁ_Ï_ÌÌ_È_ËÂÌÚ_6" x1="205.84" y1="129.65" x2="207.28" y2="118.21" gradientTransform="translate(-53.44 9.59) rotate(3.28)" gradientUnits="userSpaceOnUse"><stop offset="0" stop-color="#4f4695"/><stop offset="1" stop-color="#6c4b96"/></linearGradient><linearGradient id="_ÂÁ_Ï_ÌÌ_È_ËÂÌÚ_132" x1="291.77" y1="-104.5" x2="291.77" y2="-174.5" gradientTransform="translate(-178.27 184.1) rotate(10.91)" gradientUnits="userSpaceOnUse"><stop offset="0" stop-color="#1e64ae"/><stop offset="1" stop-color="#292f6b"/></linearGradient><linearGradient id="_ÂÁ_Ï_ÌÌ_È_ËÂÌÚ_264-2" x1="176.93" y1="112.39" x2="176.93" y2="64.99" gradientTransform="translate(6.37 2.87) rotate(-0.29)" xlink:href="#_ÂÁ_Ï_ÌÌ_È_ËÂÌÚ_264"/><linearGradient id="_ÂÁ_Ï_ÌÌ_È_ËÂÌÚ_28-4" x1="180.56" y1="110.59" x2="180.56" y2="65.21" gradientTransform="translate(6.37 2.87) rotate(-0.29)" xlink:href="#_ÂÁ_Ï_ÌÌ_È_ËÂÌÚ_28"/><linearGradient id="_ÂÁ_Ï_ÌÌ_È_ËÂÌÚ_17-2" x1="183.99" y1="111.71" x2="183.99" y2="67.24" gradientTransform="translate(6.37 2.87) rotate(-0.29)" xlink:href="#_ÂÁ_Ï_ÌÌ_È_ËÂÌÚ_17"/><linearGradient id="_ÂÁ_Ï_ÌÌ_È_ËÂÌÚ_17-3" x1="307.03" y1="-140.65" x2="307.03" y2="-147.07" xlink:href="#_ÂÁ_Ï_ÌÌ_È_ËÂÌÚ_17"/><linearGradient id="_ÂÁ_Ï_ÌÌ_È_ËÂÌÚ_17-4" x1="266.18" y1="-133.22" x2="266.18" y2="-139.18" xlink:href="#_ÂÁ_Ï_ÌÌ_È_ËÂÌÚ_17"/><linearGradient id="_ÂÁ_Ï_ÌÌ_È_ËÂÌÚ_54" x1="263.18" y1="-158.94" x2="323.35" y2="-158.94" gradientTransform="translate(-178.27 184.1) rotate(10.91)" gradientUnits="userSpaceOnUse"><stop offset="0"/><stop offset="1" stop-color="#7192cb"/></linearGradient><linearGradient id="_ÂÁ_Ï_ÌÌ_È_ËÂÌÚ_54-2" x1="266.9" y1="-110.35" x2="310.99" y2="-110.35" xlink:href="#_ÂÁ_Ï_ÌÌ_È_ËÂÌÚ_54"/><linearGradient id="_ÂÁ_Ï_ÌÌ_È_ËÂÌÚ_54-3" x1="256.95" y1="-110.35" x2="256.95" y2="-139.08" xlink:href="#_ÂÁ_Ï_ÌÌ_È_ËÂÌÚ_54"/><linearGradient id="_ÂÁ_Ï_ÌÌ_È_ËÂÌÚ_143" x1="183.13" y1="110.26" x2="183.13" y2="97.27" gradientTransform="translate(6.37 2.87) rotate(-0.29)" gradientUnits="userSpaceOnUse"><stop offset="0" stop-color="#d4dff3"/><stop offset="1"/></linearGradient><linearGradient id="_ÂÁ_Ï_ÌÌ_È_ËÂÌÚ_134" x1="172.34" y1="75.38" x2="197.79" y2="75.38" gradientTransform="translate(6.37 2.87) rotate(-0.29)" gradientUnits="userSpaceOnUse"><stop offset="0"/><stop offset="1" stop-color="#d4dff3"/></linearGradient><linearGradient id="_ÂÁ_Ï_ÌÌ_È_ËÂÌÚ_28-5" x1="241.73" y1="-90.54" x2="244.98" y2="-116.44" gradientTransform="translate(-178.27 184.1) rotate(10.91)" xlink:href="#_ÂÁ_Ï_ÌÌ_È_ËÂÌÚ_28"/><linearGradient id="_ÂÁ_Ï_ÌÌ_È_ËÂÌÚ_4" x1="301.56" y1="-314.22" x2="301.56" y2="-326.04" gradientTransform="translate(-294.78 358.63) rotate(16.36)" gradientUnits="userSpaceOnUse"><stop offset="0" stop-color="#d32c87"/><stop offset="1" stop-color="#e6287e"/></linearGradient><linearGradient id="_ÂÁ_Ï_ÌÌ_È_ËÂÌÚ_65" x1="142.45" y1="132.85" x2="142.45" y2="127.44" gradientTransform="matrix(1, 0.05, -0.05, 1, -51.06, -3.53)" gradientUnits="userSpaceOnUse"><stop offset="0" stop-color="#9d559b"/><stop offset="1" stop-color="#ea71a8"/></linearGradient><linearGradient id="_ÂÁ_Ï_ÌÌ_È_ËÂÌÚ_46-5" x1="-34.42" y1="427.74" x2="-29.36" y2="387.44" gradientTransform="translate(98.03 -168.08) rotate(-8.66)" xlink:href="#_ÂÁ_Ï_ÌÌ_È_ËÂÌÚ_46"/><linearGradient id="_ÂÁ_Ï_ÌÌ_È_ËÂÌÚ_5-2" x1="-42.02" y1="395.04" x2="-17.99" y2="395.04" gradientTransform="translate(98.03 -168.08) rotate(-8.66)" xlink:href="#_ÂÁ_Ï_ÌÌ_È_ËÂÌÚ_5"/><linearGradient id="_ÂÁ_Ï_ÌÌ_È_ËÂÌÚ_153-3" x1="-30.35" y1="426.53" x2="-30.35" y2="385.99" gradientTransform="translate(98.03 -168.08) rotate(-8.66)" xlink:href="#_ÂÁ_Ï_ÌÌ_È_ËÂÌÚ_153"/><linearGradient id="_ÂÁ_Ï_ÌÌ_È_ËÂÌÚ_46-6" x1="-186.78" y1="537.73" x2="-175.79" y2="450.19" gradientTransform="translate(174.25 -332.87) rotate(-16.58)" xlink:href="#_ÂÁ_Ï_ÌÌ_È_ËÂÌÚ_46"/><linearGradient id="_ÂÁ_Ï_ÌÌ_È_ËÂÌÚ_153-4" x1="-160.69" y1="523.53" x2="-160.69" y2="478.23" gradientTransform="translate(174.25 -332.87) rotate(-16.58)" xlink:href="#_ÂÁ_Ï_ÌÌ_È_ËÂÌÚ_153"/><linearGradient id="_ÂÁ_Ï_ÌÌ_È_ËÂÌÚ_28-6" x1="-211.97" y1="509.87" x2="-169.04" y2="509.87" gradientTransform="translate(174.25 -332.87) rotate(-16.58)" xlink:href="#_ÂÁ_Ï_ÌÌ_È_ËÂÌÚ_28"/><radialGradient id="_ÂÁ_Ï_ÌÌ_È_ËÂÌÚ_91" cx="-189.64" cy="529.47" r="32.44" gradientTransform="translate(174.25 -332.87) rotate(-16.58)" xlink:href="#_ÂÁ_Ï_ÌÌ_È_ËÂÌÚ_17"/><linearGradient id="_ÂÁ_Ï_ÌÌ_È_ËÂÌÚ_416-3" x1="-179.77" y1="463.97" x2="-179.77" y2="450.07" gradientTransform="translate(174.25 -332.87) rotate(-16.58)" xlink:href="#_ÂÁ_Ï_ÌÌ_È_ËÂÌÚ_416"/><linearGradient id="_ÂÁ_Ï_ÌÌ_È_ËÂÌÚ_134-2" x1="-209.74" y1="494.78" x2="-174.12" y2="494.78" gradientTransform="translate(174.25 -332.87) rotate(-16.58)" xlink:href="#_ÂÁ_Ï_ÌÌ_È_ËÂÌÚ_134"/><linearGradient id="_ÂÁ_Ï_ÌÌ_È_ËÂÌÚ_143-2" x1="-190.16" y1="535.95" x2="-190.16" y2="531.84" gradientTransform="translate(174.25 -332.87) rotate(-16.58)" xlink:href="#_ÂÁ_Ï_ÌÌ_È_ËÂÌÚ_143"/><linearGradient id="_ÂÁ_Ï_ÌÌ_È_ËÂÌÚ_46-7" x1="-211.01" y1="598.29" x2="-204.51" y2="546.54" gradientTransform="translate(180.48 -376.78) rotate(-19.16)" xlink:href="#_ÂÁ_Ï_ÌÌ_È_ËÂÌÚ_46"/><linearGradient id="_ÂÁ_Ï_ÌÌ_È_ËÂÌÚ_153-5" x1="-202.08" y1="599.79" x2="-202.08" y2="547.45" gradientTransform="translate(180.48 -376.78) rotate(-19.16)" xlink:href="#_ÂÁ_Ï_ÌÌ_È_ËÂÌÚ_153"/><linearGradient id="_ÂÁ_Ï_ÌÌ_È_ËÂÌÚ_5-3" x1="9.34" y1="453.81" x2="19.52" y2="453.81" gradientTransform="translate(62.6 -278.75) rotate(-10.22)" xlink:href="#_ÂÁ_Ï_ÌÌ_È_ËÂÌÚ_5"/><linearGradient id="_ÂÁ_Ï_ÌÌ_È_ËÂÌÚ_46-8" x1="174.23" y1="175.44" x2="180.92" y2="122.14" gradientTransform="matrix(1, 0, 0, 1, 0, 0)" xlink:href="#_ÂÁ_Ï_ÌÌ_È_ËÂÌÚ_46"/><linearGradient id="_ÂÁ_Ï_ÌÌ_È_ËÂÌÚ_28-7" x1="196.85" y1="142.65" x2="196.85" y2="123.45" gradientTransform="matrix(1, 0, 0, 1, 0, 0)" xlink:href="#_ÂÁ_Ï_ÌÌ_È_ËÂÌÚ_28"/><linearGradient id="_ÂÁ_Ï_ÌÌ_È_ËÂÌÚ_153-6" x1="177.93" y1="174.19" x2="177.93" y2="124.96" gradientTransform="matrix(1, 0, 0, 1, 0, 0)" xlink:href="#_ÂÁ_Ï_ÌÌ_È_ËÂÌÚ_153"/><linearGradient id="_ÂÁ_Ï_ÌÌ_È_ËÂÌÚ_46-9" x1="200.61" y1="138.87" x2="205.62" y2="99" gradientTransform="matrix(1, 0, 0, 1, 0, 0)" xlink:href="#_ÂÁ_Ï_ÌÌ_È_ËÂÌÚ_46"/><linearGradient id="_ÂÁ_Ï_ÌÌ_È_ËÂÌÚ_28-8" x1="199.98" y1="125.75" x2="199.98" y2="99.3" gradientTransform="matrix(1, 0, 0, 1, 0, 0)" xlink:href="#_ÂÁ_Ï_ÌÌ_È_ËÂÌÚ_28"/><linearGradient id="_ÂÁ_Ï_ÌÌ_È_ËÂÌÚ_416-4" x1="199.14" y1="120.92" x2="199.14" y2="105.6" gradientTransform="matrix(1, 0, 0, 1, 0, 0)" xlink:href="#_ÂÁ_Ï_ÌÌ_È_ËÂÌÚ_416"/><linearGradient id="_ÂÁ_Ï_ÌÌ_È_ËÂÌÚ_46-10" x1="193.22" y1="124.21" x2="196.01" y2="101.99" gradientTransform="matrix(1, 0, 0, 1, 0, 0)" xlink:href="#_ÂÁ_Ï_ÌÌ_È_ËÂÌÚ_46"/><linearGradient id="_ÂÁ_Ï_ÌÌ_È_ËÂÌÚ_28-9" x1="204.81" y1="128.25" x2="204.81" y2="113.59" gradientTransform="matrix(1, 0, 0, 1, 0, 0)" xlink:href="#_ÂÁ_Ï_ÌÌ_È_ËÂÌÚ_28"/></defs><title>CUDI-5-sprites</title><g class="cls-1"><g id="Capa_1" data-name="Capa 1"><path class="cls-2" d="M69.39,165.17c23.27,19.94,49.33,19.19,49.33,19.19,4.51-6.57,4.45-21.87,1.26-23.53h0a1.11,1.11,0,0,0-.5-.14C86.58,159,72.71,148.83,72.71,148.83a8.8,8.8,0,0,0-5,7.83A20.28,20.28,0,0,0,69.39,165.17Z"/><path class="cls-3" d="M72.71,148.84c2.53-.35,8.62,14.89,6.34,17.62s-9.66-1.29-9.66-1.29S63.72,150.05,72.71,148.84Z"/><path class="cls-4" d="M69.39,165.17c23.27,19.94,49.33,19.19,49.33,19.19,4.51-6.57,4.45-21.87,1.26-23.53h0a2.19,2.19,0,0,0-.5-.14s2.13,16.39-11.32,17.21c-16,1-31.76-20.87-31.76-20.87l-3-7.1-5.69,6.73A20.28,20.28,0,0,0,69.39,165.17Z"/><path class="cls-5" d="M75.31,152.77s3.43,7.94-.56,11.12S61.56,161,58,158.35,44.65,141.24,46.1,136.2s7.67-6.5,13.76-2.83C59.86,133.37,72.25,146.06,75.31,152.77Z"/><path class="cls-6" d="M74.07,150.5s-6.92-1.8-10.68-7.46-13.5-11.1-13.5-11.1,3.22-1.71,10,1.43S74.07,150.5,74.07,150.5Z"/><path class="cls-7" d="M61.13,134.08l-3.38,3.19a28.25,28.25,0,0,1,5,4.81c1.91,2.56,6.27,5.33,6.27,5.33Z"/><path class="cls-8" d="M73.44,149s.12-3.6-2.12-9.5-5.54-9.92-6.53-10.46-3.2.52-3.74,2.26,1.36,8.48,1.36,8.48S68.19,149.53,73.44,149Z"/><path class="cls-9" d="M63.39,143s1,10-4,16.3l-1.39-1a25.27,25.27,0,0,0,4.7-16.27Z"/><path class="cls-10" d="M65.18,134c.62-.35,2.8,5.48,1.89,5.57S64.31,134.48,65.18,134Z"/><path class="cls-11" d="M116.76,71.37S107.55,78,103.82,92.74s17.72-3.47,17.72-3.47Z"/><path class="cls-12" d="M108.65,86.79s7-17.73,13.47-20.53S138.18,69,138.18,69Z"/><path class="cls-13" d="M188.48,146.78c-16.89,17.88-81.69,8.74-90.75-3.56a30.25,30.25,0,0,1-5.62-17.08v0c-1-26.93,26.48-61.41,60.47-58.75,23,1.81,38.27,24.08,42.3,45.49C197.42,126.24,195.56,139.29,188.48,146.78Z"/><path class="cls-14" d="M174,154.16a122,122,0,0,1-29.38,2.45c-15.28-.9-26.2-3.25-32.22-6.06h0c-4-1.85-5.79-3.89-5.4-5.86.24-1.2,3.31-2.09,8.08-2.69,14-1.71,42.79-.82,58.14,2.41,1.32.28,2.55.57,3.64.89.25.06.47.14.69.21l.13,0c2.63.81,4.48,1.72,5.26,2.75a1.94,1.94,0,0,1,.4.78C183.8,151.09,179.83,152.84,174,154.16Z"/><path class="cls-15" d="M188.48,146.78c-16.89,17.88-81.69,8.74-90.75-3.56a30.25,30.25,0,0,1-5.62-17.08v0s3.87,8.76,17,11.13,51.78,2.65,59.94-2.68,6.67-32,6.67-32l19.17,10.28C197.42,126.24,195.56,139.29,188.48,146.78Z"/><path class="cls-16" d="M174,154.16c-6.42-3.25-25.24-11.78-40.86-9.2-19.15,3.15-20.74,5.59-20.74,5.59h0c-4-1.85-5.79-3.89-5.4-5.86.24-1.2,3.31-2.09,8.08-2.69,14-1.71,42.79-.82,58.14,2.41,1.6.38,3.05.75,4.33,1.1l.13,0c2.63.81,4.48,1.72,5.26,2.75a1.94,1.94,0,0,1,.4.78C183.8,151.09,179.83,152.84,174,154.16Z"/><path class="cls-17" d="M176.87,145.29c-3.81,3.25-21.31,5.23-31.19,4.66-17.7-1-28.3-4.45-30.6-8C130.31,140.13,163,141.34,176.87,145.29Z"/><path class="cls-18" d="M91.88,127.34c2.3,8.23,58.28,14.41,73.46,1.14s4.39-61.06-25.56-58.5C111.23,72.42,87.72,112.43,91.88,127.34Z"/><path class="cls-19" d="M92.12,126.12c2.3,8.23,58.27,14.41,73.45,1.14S170,66.2,140,68.76C111.46,71.2,88,111.21,92.12,126.12Z"/><path class="cls-20" d="M170.14,76.93s-2.9,27.68,14.22,37.38c0,0,8.38.86,13.22-4.25,0,0-7.54,7.16-15.58-.22s-6.21-27.85-.17-34.55,14.82-5,14.82-5l-3.53-3.14S180.19,64.6,170.14,76.93Z"/><path class="cls-21" d="M193.12,67.17s-9.5-.83-16.08,10.22c-7,11.74-1.76,32,6.81,35s17.07-29.75,17.07-29.75l-5-13A5.87,5.87,0,0,0,193.12,67.17Z"/><path class="cls-22" d="M205.53,95c-1.19,6.33-3.73,11.51-7.16,14.79l0,0-1,.86h0a12.54,12.54,0,0,1-9.63,2.92c-11.57-1.42-13.21-18.15-11.9-27.65,1.53-11,10.87-17.59,18.34-16.67C203.07,70.37,207.87,82.61,205.53,95Z"/><path class="cls-23" d="M140.28,102.24c-.41.55,7.35-4.45,19.69.34C161.19,103.05,148.2,91.38,140.28,102.24Z"/><path class="cls-24" d="M101.34,102.28c-.4.55,3.67-3.37,14.52-.75C117.13,101.84,108.47,92.61,101.34,102.28Z"/><path class="cls-25" d="M107.69,91.76c1.27,1.92,11.88-3.59,23.55-2.41s24.44,12.63,34,11.2c7.59-1.13-2.43-28.43-21.76-30.86S106.43,89.85,107.69,91.76Z"/><path class="cls-26" d="M104.24,128.59A81.94,81.94,0,0,1,131.39,127c15,1.68,17.42,3.27,17.15,4.68s-11.19,4.31-25,2.84S104.24,128.59,104.24,128.59Z"/><path class="cls-27" d="M92.54,123.93s-1.54-10.57,8-25.53c0,0,2-2.35,3-1.5S94.92,108.59,92.54,123.93Z"/><path class="cls-28" d="M177.8,99.29s1.28,10.26,8.83,12.44,13.66-3.3,15.56-11c0,0-2.34,6.66-12.17,5S177.8,99.29,177.8,99.29Z"/><path class="cls-29" d="M179.1,79.88c.09,1.91,13.92-2.13,18.33-1.57s6.3,6,7,5.82S203.2,71.38,195,70.49,179,78.55,179.1,79.88Z"/><path class="cls-30" d="M114.07,112.87s13.76.48,21.56-1.48c0,0-1.85,12.89-10.78,12.89S114.07,112.87,114.07,112.87Z"/><path class="cls-31" d="M91.8,118.58a42.54,42.54,0,0,0-15.71,8.1c-7.64,6.27-9.65,13.92-.23,13.23l4.37-2.56s-5.64.79-4.89-4.94S91.6,119.63,91.6,119.63Z"/><path class="cls-32" d="M74.2,135.22c-2.83,2.87,2.69,5.49,7.31,6.25,5.19.85,14.55.28,14.27-5S80.84,128.49,74.2,135.22Z"/><path class="cls-33" d="M74.52,135.8c-.2.85,18.43,2.07,19-1.2S76.11,129.21,74.52,135.8Z"/><path class="cls-34" d="M140.49,231.74c.35,4.91-5,21.6-10.35,26.74v0a4.45,4.45,0,0,1-3.07,1.5c-4.46-.18-9.7-20.59-11.68-32.24-.76-4.5-1-7.68-.59-7.87C118.57,218.24,140.07,225.89,140.49,231.74Z"/><path class="cls-35" d="M140.73,233.32s-4.87,3.7-13.81.8c-7-2.26-12.94-12.19-12.12-14.23S142.59,225.34,140.73,233.32Z"/><path class="cls-36" d="M140.49,231.74c.35,4.91-5,21.6-10.35,26.74,3.73-5.89,2.27-16.51-1.35-20.92-2.73-3.34-10-7.82-13.41-9.8-.76-4.5-1-7.68-.59-7.87C118.57,218.24,140.07,225.89,140.49,231.74Z"/><path class="cls-10" d="M123.52,239.13c-1.37-.1-.46,3.6-.2,3.81s.89-1.05,1-2.06S124,239.17,123.52,239.13Z"/><path class="cls-37" d="M172.53,201.92c1.35,18.39-6.32,28.74-24.1,33.77-17.42,4.93-33.69-10.7-34.66-34.45-.63-15.16-.2-28.9,4.87-38.88h0v0a26.75,26.75,0,0,1,13.73-12.87c5.12-2.21,10.38-.67,15.34,3.14C160.63,162.51,171.48,187.74,172.53,201.92Z"/><path class="cls-38" d="M153.57,172.27s5.86,12.92,8.53,21.9c3.17,10.64.18,22.77.18,22.77L172.67,205a39.48,39.48,0,0,0-2.34-14.64c-2.75-6.94-4.3-10-4.3-10Z"/><path class="cls-39" d="M113.54,204.26s.15-14.25,12.62-18c14.94-4.45,29.94,9.07,32.38,20.54s2.14,23-11.85,27.64C146.69,234.48,120.07,241.76,113.54,204.26Z"/><path class="cls-40" d="M114.16,205.81s.15-14.25,12.62-18c14.94-4.45,29.93,9.07,32.37,20.54s2.14,23-11.84,27.64C147.31,236,120.69,243.31,114.16,205.81Z"/><path class="cls-41" d="M147.53,152.49s-16.22,12.32-23.46,13.62c-7,1.26-5.69-3.58-5.61-3.85v0a26.77,26.77,0,0,1,13.72-12.87C137.32,147.14,142.58,148.68,147.53,152.49Z"/><path class="cls-42" d="M115.39,204.14c3,3,8.59-3.66,17.64-5.25s15.14,1.63,17.28-.39-9.67-12.74-23.28-9.26C116.17,192,114.39,203.11,115.39,204.14Z"/><path class="cls-43" d="M134.87,233.78a16,16,0,0,0,10.92,1c6.14-1.6,7.28-5.14,7.28-5.14a13.25,13.25,0,0,0-7.08,1.74A19.79,19.79,0,0,1,134.87,233.78Z"/><path class="cls-10" d="M139,166.67c-1.06.35.16,11.23,1.12,11.32s1.45-2.45,1.28-6.08S140,166.34,139,166.67Z"/><path class="cls-44" d="M190.34,254.51c-1,1-2.77.94-5.07.23a42,42,0,0,1-8.81-4.37h0l0,0c-8.94-5.54-18.76-14.11-19.29-16.61-1.8-8.66,7-19.77,12.54-25.27,2.19-2.15,3.88-3.43,4.27-3.39C175.33,205.23,195.3,249.55,190.34,254.51Z"/><path class="cls-45" d="M190.34,254.51c-1,1-2.77.94-5.07.23l-8.81-4.37c.83.36,10.29,4.14,7.09-9.5-3.34-14.26-14.21-31.31-14.21-31.31l.32-1.1c2.19-2.15,3.88-3.43,4.27-3.39C175.33,205.23,195.3,249.55,190.34,254.51Z"/><path class="cls-10" d="M164.09,230.83c-2.1,1.3,3.12,5.72,3.72,5.75s.2-2.46-.78-4C166.15,231.21,164.83,230.38,164.09,230.83Z"/><path class="cls-10" d="M168.57,237.05c-.31.5,1.31,1.87,1.55,1.38a1.52,1.52,0,0,0-.5-1.57A.91.91,0,0,0,168.57,237.05Z"/><path class="cls-46" d="M150.16,154.34s4,14.52,14.3,21.93C164.46,176.27,159.58,163,150.16,154.34Z"/><path class="cls-47" d="M202.36,137.48c-13.8,27.36-38.14,36.71-38.14,36.71C157.53,169.85,151.7,155.71,154,153h0a1.21,1.21,0,0,1,.42-.32C184.12,138.41,193,123.68,193,123.68a8.78,8.78,0,0,1,7.6,5.31A20.14,20.14,0,0,1,202.36,137.48Z"/><path class="cls-48" d="M193,123.68c-2.47.66-2.22,17.07.93,18.71s8.42-4.91,8.42-4.91S201.78,121.34,193,123.68Z"/><path class="cls-49" d="M202.36,137.48c-13.8,27.36-38.14,36.71-38.14,36.71C157.53,169.85,151.7,155.71,154,153h0a3.32,3.32,0,0,1,.42-.32s4.34,15.95,17.07,11.53c15.1-5.25,21.27-31.49,21.27-31.49V125l7.84,4A20.14,20.14,0,0,1,202.36,137.48Z"/><path class="cls-50" d="M192.13,128.31s-.12,8.65,4.79,10.06S208,130.6,210.25,126.8s5.73-20.93,2.45-25-9.58-3-13.79,2.69C198.91,104.46,192.36,121,192.13,128.31Z"/><path class="cls-51" d="M192.39,125.75s5.7-4.33,7-11,8.18-15.45,8.18-15.45-3.63-.33-8.65,5.16S192.39,125.75,192.39,125.75Z"/><path class="cls-52" d="M198,105.6l4.35,1.64a28.71,28.71,0,0,0-2.71,6.35c-.79,3.1-3.74,7.33-3.74,7.33Z"/><path class="cls-53" d="M192.39,124.1s-1.49-3.27-1.7-9.58,1.3-11.29,2-12.16,3.16-.76,4.32.64,2,8.35,2,8.35S197.45,122.58,192.39,124.1Z"/><path class="cls-54" d="M199.38,114.75s2.92,9.64,10,13.5l.91-1.45a25.3,25.3,0,0,1-10.6-13.21Z"/><path class="cls-10" d="M194.24,107.08c-.71-.08-.47,6.13.41,5.87S195.23,107.2,194.24,107.08Z"/></g></g></svg>