<svg xmlns="http://www.w3.org/2000/svg" xmlns:xlink="http://www.w3.org/1999/xlink" viewBox="0 0 260 260"><defs><style>.cls-1{isolation:isolate;}.cls-2{fill:url(#_ÂÁ_Ï_ÌÌ_È_ËÂÌÚ_46);}.cls-3{fill:url(#_ÂÁ_Ï_ÌÌ_È_ËÂÌÚ_46-2);}.cls-4{fill:url(#_ÂÁ_Ï_ÌÌ_È_ËÂÌÚ_28);}.cls-5{fill:url(#_ÂÁ_Ï_ÌÌ_È_ËÂÌÚ_28-2);}.cls-11,.cls-25,.cls-41,.cls-42,.cls-47,.cls-6,.cls-8{opacity:0.3;}.cls-11,.cls-14,.cls-25,.cls-27,.cls-32,.cls-41,.cls-42,.cls-45,.cls-47,.cls-50,.cls-6,.cls-8{mix-blend-mode:multiply;}.cls-6{fill:url(#_ÂÁ_Ï_ÌÌ_È_ËÂÌÚ_153);}.cls-7{fill:#fff;}.cls-8{fill:url(#_ÂÁ_Ï_ÌÌ_È_ËÂÌÚ_153-2);}.cls-9{fill:url(#_ÂÁ_Ï_ÌÌ_È_ËÂÌÚ_46-3);}.cls-10{fill:url(#_ÂÁ_Ï_ÌÌ_È_ËÂÌÚ_28-3);}.cls-11{fill:url(#_ÂÁ_Ï_ÌÌ_È_ËÂÌÚ_153-3);}.cls-12{fill:url(#_ÂÁ_Ï_ÌÌ_È_ËÂÌÚ_46-4);}.cls-13{fill:url(#_ÂÁ_Ï_ÌÌ_È_ËÂÌÚ_28-4);}.cls-14,.cls-27,.cls-32,.cls-39,.cls-40,.cls-45,.cls-50{opacity:0.5;}.cls-14{fill:url(#_ÂÁ_Ï_ÌÌ_È_ËÂÌÚ_416);}.cls-15{fill:url(#_ÂÁ_Ï_ÌÌ_È_ËÂÌÚ_46-5);}.cls-16{fill:url(#_ÂÁ_Ï_ÌÌ_È_ËÂÌÚ_264);}.cls-17{fill:url(#_ÂÁ_Ï_ÌÌ_È_ËÂÌÚ_28-5);}.cls-18{fill:url(#_ÂÁ_Ï_ÌÌ_È_ËÂÌÚ_264-2);}.cls-19{fill:url(#_ÂÁ_Ï_ÌÌ_È_ËÂÌÚ_28-6);}.cls-20{fill:url(#_ÂÁ_Ï_ÌÌ_È_ËÂÌÚ_17);}.cls-21{fill:url(#_ÂÁ_Ï_ÌÌ_È_ËÂÌÚ_17-2);}.cls-22{fill:url(#_ÂÁ_Ï_ÌÌ_È_ËÂÌÚ_46-6);}.cls-23{fill:#dee1f2;}.cls-24{fill:url(#_ÂÁ_Ï_ÌÌ_È_ËÂÌÚ_132);}.cls-25{fill:url(#_ÂÁ_Ï_ÌÌ_È_ËÂÌÚ_153-4);}.cls-26{fill:url(#_ÂÁ_Ï_ÌÌ_È_ËÂÌÚ_5);}.cls-27{fill:url(#_ÂÁ_Ï_ÌÌ_È_ËÂÌÚ_416-2);}.cls-28{fill:url(#_ÂÁ_Ï_ÌÌ_È_ËÂÌÚ_6);}.cls-29{fill:url(#_ÂÁ_Ï_ÌÌ_È_ËÂÌÚ_46-7);}.cls-30{fill:url(#_ÂÁ_Ï_ÌÌ_È_ËÂÌÚ_5-2);}.cls-31{fill:url(#_ÂÁ_Ï_ÌÌ_È_ËÂÌÚ_46-8);}.cls-32{fill:url(#_ÂÁ_Ï_ÌÌ_È_ËÂÌÚ_416-3);}.cls-33{fill:url(#_ÂÁ_Ï_ÌÌ_È_ËÂÌÚ_28-7);}.cls-34{fill:url(#_ÂÁ_Ï_ÌÌ_È_ËÂÌÚ_17-3);}.cls-35{fill:url(#_ÂÁ_Ï_ÌÌ_È_ËÂÌÚ_17-4);}.cls-36{fill:#2f94cd;}.cls-37{fill:url(#_ÂÁ_Ï_ÌÌ_È_ËÂÌÚ_28-8);}.cls-38{fill:url(#_ÂÁ_Ï_ÌÌ_È_ËÂÌÚ_4);}.cls-39,.cls-40,.cls-46,.cls-54,.cls-55,.cls-56,.cls-57{mix-blend-mode:screen;}.cls-39{fill:url(#_ÂÁ_Ï_ÌÌ_È_ËÂÌÚ_54);}.cls-40{fill:url(#_ÂÁ_Ï_ÌÌ_È_ËÂÌÚ_54-2);}.cls-41{fill:url(#_ÂÁ_Ï_ÌÌ_È_ËÂÌÚ_153-5);}.cls-42{fill:url(#_ÂÁ_Ï_ÌÌ_È_ËÂÌÚ_153-6);}.cls-43{fill:url(#_ÂÁ_Ï_ÌÌ_È_ËÂÌÚ_28-9);}.cls-44{fill:url(#_ÂÁ_Ï_ÌÌ_È_ËÂÌÚ_91);}.cls-45{fill:url(#_ÂÁ_Ï_ÌÌ_È_ËÂÌÚ_416-4);}.cls-46,.cls-55,.cls-56,.cls-57{opacity:0.72;}.cls-46{fill:url(#_ÂÁ_Ï_ÌÌ_È_ËÂÌÚ_143);}.cls-47{fill:url(#_ÂÁ_Ï_ÌÌ_È_ËÂÌÚ_153-7);}.cls-48{fill:url(#_ÂÁ_Ï_ÌÌ_È_ËÂÌÚ_46-9);}.cls-49{fill:url(#_ÂÁ_Ï_ÌÌ_È_ËÂÌÚ_28-10);}.cls-50{fill:url(#_ÂÁ_Ï_ÌÌ_È_ËÂÌÚ_416-5);}.cls-51{fill:url(#_ÂÁ_Ï_ÌÌ_È_ËÂÌÚ_46-10);}.cls-52{fill:url(#_ÂÁ_Ï_ÌÌ_È_ËÂÌÚ_28-11);}.cls-53{fill:url(#_ÂÁ_Ï_ÌÌ_È_ËÂÌÚ_65);}.cls-54{opacity:0.2;fill:url(#_ÂÁ_Ï_ÌÌ_È_ËÂÌÚ_2);}.cls-55{fill:url(#_ÂÁ_Ï_ÌÌ_È_ËÂÌÚ_134);}.cls-56{fill:url(#_ÂÁ_Ï_ÌÌ_È_ËÂÌÚ_134-2);}.cls-57{fill:url(#_ÂÁ_Ï_ÌÌ_È_ËÂÌÚ_143-2);}.cls-58{fill:url(#_ÂÁ_Ï_ÌÌ_È_ËÂÌÚ_46-11);}</style><linearGradient id="_ÂÁ_Ï_ÌÌ_È_ËÂÌÚ_46" x1="106.69" y1="253.71" x2="111.61" y2="214.56" gradientUnits="userSpaceOnUse"><stop offset="0" stop-color="#c9bede"/><stop offset="1" stop-color="#e6daec"/></linearGradient><linearGradient id="_ÂÁ_Ï_ÌÌ_È_ËÂÌÚ_46-2" x1="141.89" y1="259.24" x2="148.23" y2="208.74" xlink:href="#_ÂÁ_Ï_ÌÌ_È_ËÂÌÚ_46"/><linearGradient id="_ÂÁ_Ï_ÌÌ_È_ËÂÌÚ_28" x1="110.73" y1="228.3" x2="110.73" y2="212.87" gradientUnits="userSpaceOnUse"><stop offset="0" stop-color="#b39bc9"/><stop offset="1" stop-color="#9289c1"/></linearGradient><linearGradient id="_ÂÁ_Ï_ÌÌ_È_ËÂÌÚ_28-2" x1="146.62" y1="228.66" x2="146.62" y2="210.31" xlink:href="#_ÂÁ_Ï_ÌÌ_È_ËÂÌÚ_28"/><linearGradient id="_ÂÁ_Ï_ÌÌ_È_ËÂÌÚ_153" x1="110.77" y1="254.21" x2="110.77" y2="213" gradientUnits="userSpaceOnUse"><stop offset="0" stop-color="#9169a9"/><stop offset="1" stop-color="#cce9fb"/></linearGradient><linearGradient id="_ÂÁ_Ï_ÌÌ_È_ËÂÌÚ_153-2" x1="146.69" y1="258.05" x2="146.69" y2="210.17" xlink:href="#_ÂÁ_Ï_ÌÌ_È_ËÂÌÚ_153"/><linearGradient id="_ÂÁ_Ï_ÌÌ_È_ËÂÌÚ_46-3" x1="83.34" y1="218.04" x2="91.82" y2="150.54" xlink:href="#_ÂÁ_Ï_ÌÌ_È_ËÂÌÚ_46"/><linearGradient id="_ÂÁ_Ï_ÌÌ_È_ËÂÌÚ_28-3" x1="78.37" y1="217.39" x2="78.37" y2="206.66" xlink:href="#_ÂÁ_Ï_ÌÌ_È_ËÂÌÚ_28"/><linearGradient id="_ÂÁ_Ï_ÌÌ_È_ËÂÌÚ_153-3" x1="86.8" y1="216.76" x2="86.8" y2="160.04" xlink:href="#_ÂÁ_Ï_ÌÌ_È_ËÂÌÚ_153"/><linearGradient id="_ÂÁ_Ï_ÌÌ_È_ËÂÌÚ_46-4" x1="75.79" y1="246.6" x2="80.41" y2="209.83" xlink:href="#_ÂÁ_Ï_ÌÌ_È_ËÂÌÚ_46"/><linearGradient id="_ÂÁ_Ï_ÌÌ_È_ËÂÌÚ_28-4" x1="83.04" y1="246.41" x2="83.04" y2="213.51" xlink:href="#_ÂÁ_Ï_ÌÌ_È_ËÂÌÚ_28"/><linearGradient id="_ÂÁ_Ï_ÌÌ_È_ËÂÌÚ_416" x1="82.63" y1="236.23" x2="82.63" y2="223.51" gradientUnits="userSpaceOnUse"><stop offset="0" stop-color="#8ea1d3"/><stop offset="1" stop-color="#6e5ba3"/></linearGradient><linearGradient id="_ÂÁ_Ï_ÌÌ_È_ËÂÌÚ_46-5" x1="83.48" y1="235.63" x2="86.18" y2="214.14" xlink:href="#_ÂÁ_Ï_ÌÌ_È_ËÂÌÚ_46"/><linearGradient id="_ÂÁ_Ï_ÌÌ_È_ËÂÌÚ_264" x1="-3619.46" y1="95.68" x2="-3619.46" y2="56.75" gradientTransform="matrix(-1, 0, 0, 1, -3530.62, 0)" gradientUnits="userSpaceOnUse"><stop offset="0" stop-color="#b5a9d3"/><stop offset="1" stop-color="#dfcfe7"/></linearGradient><linearGradient id="_ÂÁ_Ï_ÌÌ_È_ËÂÌÚ_28-5" x1="86.06" y1="80.98" x2="86.06" y2="56.75" xlink:href="#_ÂÁ_Ï_ÌÌ_È_ËÂÌÚ_28"/><linearGradient id="_ÂÁ_Ï_ÌÌ_È_ËÂÌÚ_264-2" x1="169.15" y1="95.68" x2="169.15" y2="56.75" gradientTransform="matrix(1, 0, 0, 1, 0, 0)" xlink:href="#_ÂÁ_Ï_ÌÌ_È_ËÂÌÚ_264"/><linearGradient id="_ÂÁ_Ï_ÌÌ_È_ËÂÌÚ_28-6" x1="171.97" y1="77.91" x2="171.97" y2="56.75" xlink:href="#_ÂÁ_Ï_ÌÌ_È_ËÂÌÚ_28"/><linearGradient id="_ÂÁ_Ï_ÌÌ_È_ËÂÌÚ_17" x1="177.23" y1="97.55" x2="177.23" y2="59.3" gradientUnits="userSpaceOnUse"><stop offset="0" stop-color="#79c3b0"/><stop offset="1" stop-color="#60c4e5"/></linearGradient><linearGradient id="_ÂÁ_Ï_ÌÌ_È_ËÂÌÚ_17-2" x1="-3611.37" y1="97.55" x2="-3611.37" y2="59.3" gradientTransform="matrix(-1, 0, 0, 1, -3530.62, 0)" xlink:href="#_ÂÁ_Ï_ÌÌ_È_ËÂÌÚ_17"/><linearGradient id="_ÂÁ_Ï_ÌÌ_È_ËÂÌÚ_46-6" x1="124.8" y1="150.9" x2="137.17" y2="52.36" xlink:href="#_ÂÁ_Ï_ÌÌ_È_ËÂÌÚ_46"/><linearGradient id="_ÂÁ_Ï_ÌÌ_È_ËÂÌÚ_132" x1="128.83" y1="123.89" x2="128.83" y2="54.93" gradientUnits="userSpaceOnUse"><stop offset="0" stop-color="#1e64ae"/><stop offset="1" stop-color="#292f6b"/></linearGradient><linearGradient id="_ÂÁ_Ï_ÌÌ_È_ËÂÌÚ_153-4" x1="129.17" y1="149.99" x2="129.17" y2="91.25" xlink:href="#_ÂÁ_Ï_ÌÌ_È_ËÂÌÚ_153"/><linearGradient id="_ÂÁ_Ï_ÌÌ_È_ËÂÌÚ_5" x1="89.58" y1="142.36" x2="166.13" y2="142.36" gradientUnits="userSpaceOnUse"><stop offset="0" stop-color="#7974b4"/><stop offset="1" stop-color="#9289c1"/></linearGradient><linearGradient id="_ÂÁ_Ï_ÌÌ_È_ËÂÌÚ_416-2" x1="127.74" y1="145.77" x2="127.74" y2="134.73" xlink:href="#_ÂÁ_Ï_ÌÌ_È_ËÂÌÚ_416"/><linearGradient id="_ÂÁ_Ï_ÌÌ_È_ËÂÌÚ_6" x1="127.55" y1="144.21" x2="128.99" y2="132.77" gradientUnits="userSpaceOnUse"><stop offset="0" stop-color="#4f4695"/><stop offset="1" stop-color="#6c4b96"/></linearGradient><linearGradient id="_ÂÁ_Ï_ÌÌ_È_ËÂÌÚ_46-7" x1="124.14" y1="227.06" x2="134.9" y2="141.45" xlink:href="#_ÂÁ_Ï_ÌÌ_È_ËÂÌÚ_46"/><linearGradient id="_ÂÁ_Ï_ÌÌ_È_ËÂÌÚ_5-2" x1="147.22" y1="160.9" x2="157.4" y2="160.9" xlink:href="#_ÂÁ_Ï_ÌÌ_È_ËÂÌÚ_5"/><linearGradient id="_ÂÁ_Ï_ÌÌ_È_ËÂÌÚ_46-8" x1="168.86" y1="168.49" x2="175.55" y2="115.19" xlink:href="#_ÂÁ_Ï_ÌÌ_È_ËÂÌÚ_46"/><linearGradient id="_ÂÁ_Ï_ÌÌ_È_ËÂÌÚ_416-3" x1="88.67" y1="136.37" x2="88.67" y2="120.89" xlink:href="#_ÂÁ_Ï_ÌÌ_È_ËÂÌÚ_416"/><linearGradient id="_ÂÁ_Ï_ÌÌ_È_ËÂÌÚ_28-7" x1="191.48" y1="135.7" x2="191.48" y2="116.5" xlink:href="#_ÂÁ_Ï_ÌÌ_È_ËÂÌÚ_28"/><linearGradient id="_ÂÁ_Ï_ÌÌ_È_ËÂÌÚ_17-3" x1="149.97" y1="89.24" x2="149.97" y2="72.71" xlink:href="#_ÂÁ_Ï_ÌÌ_È_ËÂÌÚ_17"/><linearGradient id="_ÂÁ_Ï_ÌÌ_È_ËÂÌÚ_17-4" x1="-3535.46" y1="89.24" x2="-3535.46" y2="72.71" gradientTransform="matrix(-1, 0, 0, 1, -3428.12, 0)" xlink:href="#_ÂÁ_Ï_ÌÌ_È_ËÂÌÚ_17"/><linearGradient id="_ÂÁ_Ï_ÌÌ_È_ËÂÌÚ_28-8" x1="67.65" y1="126.26" x2="73.33" y2="81.09" xlink:href="#_ÂÁ_Ï_ÌÌ_È_ËÂÌÚ_28"/><linearGradient id="_ÂÁ_Ï_ÌÌ_È_ËÂÌÚ_4" x1="41.8" y1="-289.76" x2="41.8" y2="-302.49" gradientTransform="matrix(0.97, 0.23, -0.23, 0.97, -17.42, 399)" gradientUnits="userSpaceOnUse"><stop offset="0" stop-color="#d32c87"/><stop offset="1" stop-color="#e6287e"/></linearGradient><linearGradient id="_ÂÁ_Ï_ÌÌ_È_ËÂÌÚ_54" x1="95.35" y1="71.16" x2="165.9" y2="71.16" gradientUnits="userSpaceOnUse"><stop offset="0"/><stop offset="1" stop-color="#7192cb"/></linearGradient><linearGradient id="_ÂÁ_Ï_ÌÌ_È_ËÂÌÚ_54-2" x1="105.33" y1="117.59" x2="155.46" y2="117.59" xlink:href="#_ÂÁ_Ï_ÌÌ_È_ËÂÌÚ_54"/><linearGradient id="_ÂÁ_Ï_ÌÌ_È_ËÂÌÚ_153-5" x1="178.1" y1="93.94" x2="178.1" y2="92.34" xlink:href="#_ÂÁ_Ï_ÌÌ_È_ËÂÌÚ_153"/><linearGradient id="_ÂÁ_Ï_ÌÌ_È_ËÂÌÚ_153-6" x1="128.52" y1="227.21" x2="128.52" y2="158.33" xlink:href="#_ÂÁ_Ï_ÌÌ_È_ËÂÌÚ_153"/><linearGradient id="_ÂÁ_Ï_ÌÌ_È_ËÂÌÚ_28-9" x1="127.86" y1="225.81" x2="127.86" y2="171.56" xlink:href="#_ÂÁ_Ï_ÌÌ_È_ËÂÌÚ_28"/><radialGradient id="_ÂÁ_Ï_ÌÌ_È_ËÂÌÚ_91" cx="128.94" cy="218.79" r="41.4" xlink:href="#_ÂÁ_Ï_ÌÌ_È_ËÂÌÚ_17"/><linearGradient id="_ÂÁ_Ï_ÌÌ_È_ËÂÌÚ_416-4" x1="127.33" y1="157.6" x2="127.33" y2="140.81" xlink:href="#_ÂÁ_Ï_ÌÌ_È_ËÂÌÚ_416"/><linearGradient id="_ÂÁ_Ï_ÌÌ_È_ËÂÌÚ_143" x1="129.17" y1="224.18" x2="129.17" y2="214.79" gradientUnits="userSpaceOnUse"><stop offset="0" stop-color="#d4dff3"/><stop offset="1"/></linearGradient><linearGradient id="_ÂÁ_Ï_ÌÌ_È_ËÂÌÚ_153-7" x1="172.56" y1="167.23" x2="172.56" y2="118.01" xlink:href="#_ÂÁ_Ï_ÌÌ_È_ËÂÌÚ_153"/><linearGradient id="_ÂÁ_Ï_ÌÌ_È_ËÂÌÚ_46-9" x1="195.24" y1="131.92" x2="200.25" y2="92.05" xlink:href="#_ÂÁ_Ï_ÌÌ_È_ËÂÌÚ_46"/><linearGradient id="_ÂÁ_Ï_ÌÌ_È_ËÂÌÚ_28-10" x1="194.61" y1="118.79" x2="194.61" y2="92.34" xlink:href="#_ÂÁ_Ï_ÌÌ_È_ËÂÌÚ_28"/><linearGradient id="_ÂÁ_Ï_ÌÌ_È_ËÂÌÚ_416-5" x1="193.77" y1="113.97" x2="193.77" y2="98.65" xlink:href="#_ÂÁ_Ï_ÌÌ_È_ËÂÌÚ_416"/><linearGradient id="_ÂÁ_Ï_ÌÌ_È_ËÂÌÚ_46-10" x1="187.85" y1="117.25" x2="190.64" y2="95.04" xlink:href="#_ÂÁ_Ï_ÌÌ_È_ËÂÌÚ_46"/><linearGradient id="_ÂÁ_Ï_ÌÌ_È_ËÂÌÚ_28-11" x1="199.44" y1="121.3" x2="199.44" y2="106.64" xlink:href="#_ÂÁ_Ï_ÌÌ_È_ËÂÌÚ_28"/><linearGradient id="_ÂÁ_Ï_ÌÌ_È_ËÂÌÚ_65" x1="90.47" y1="120.36" x2="90.47" y2="114.95" gradientUnits="userSpaceOnUse"><stop offset="0" stop-color="#9d559b"/><stop offset="1" stop-color="#ea71a8"/></linearGradient><linearGradient id="_ÂÁ_Ï_ÌÌ_È_ËÂÌÚ_2" x1="83.56" y1="-14.75" x2="83.56" y2="-40.32" gradientTransform="translate(4.17 118.63) rotate(3.92)" gradientUnits="userSpaceOnUse"><stop offset="0"/><stop offset="1" stop-color="#5fc3e4"/></linearGradient><linearGradient id="_ÂÁ_Ï_ÌÌ_È_ËÂÌÚ_134" x1="105.9" y1="186.4" x2="153.08" y2="186.4" gradientUnits="userSpaceOnUse"><stop offset="0"/><stop offset="1" stop-color="#d4dff3"/></linearGradient><linearGradient id="_ÂÁ_Ï_ÌÌ_È_ËÂÌÚ_134-2" x1="171.15" y1="68.86" x2="181.11" y2="68.86" xlink:href="#_ÂÁ_Ï_ÌÌ_È_ËÂÌÚ_134"/><linearGradient id="_ÂÁ_Ï_ÌÌ_È_ËÂÌÚ_143-2" x1="75.68" y1="67.33" x2="86.65" y2="67.33" xlink:href="#_ÂÁ_Ï_ÌÌ_È_ËÂÌÚ_143"/><linearGradient id="_ÂÁ_Ï_ÌÌ_È_ËÂÌÚ_46-11" x1="66.15" y1="65.38" x2="66.15" y2="52.74" gradientTransform="matrix(1, 0.02, -0.02, 1, 1.69, 29.27)" xlink:href="#_ÂÁ_Ï_ÌÌ_È_ËÂÌÚ_46"/></defs><title>CUDI-5-sprites</title><g class="cls-1"><g id="Capa_1" data-name="Capa 1"><path class="cls-2" d="M123.74,230.32c-1.33,7.79-7.25,25.79-12.56,23.89-1.15-.4-2.36-1.86-3.55-4-3.63-6.5-7.2-19.28-9-27.93-1-4.71-1.4-8.2-1-8.76,2.37-3.51,24.87,11.7,26.22,13.39C124.12,227.24,124.06,228.5,123.74,230.32Z"/><path class="cls-3" d="M159.38,219.79c-.08.72-.19,1.47-.29,2.25-1.59,11.84-4.88,29.22-8.41,35.54-.84,1.52-1.7,2.4-2.56,2.42a2,2,0,0,1-.68-.1,5.79,5.79,0,0,1-2.5-1.85h0c-5.36-6-11.41-24.29-11.63-29.74a2.51,2.51,0,0,1,.21-1.39c3-4.15,25.18-18.3,26.41-16.61C160.26,210.76,160,214.53,159.38,219.79Z"/><path class="cls-4" d="M97.65,213.53c-2.49,3.26,17.81,18,26.37,14.14C124,227.67,101,209.2,97.65,213.53Z"/><path class="cls-5" d="M133.31,228.3c-.67,1.66,22.77-2.14,26.62-18C159.93,210.31,139.67,212.68,133.31,228.3Z"/><path class="cls-6" d="M106.53,227.21c-1.14,1.4.27,19.64,4.65,27-1.15-.4-2.36-1.86-3.55-4-.71-3.2-1.77-7.94-2.77-12.67-1.27-6.09-4.53-12.33-6.2-15.26-1-4.71-1.4-8.2-1-8.76,2.37-3.51,24.87,11.7,26.22,13.39.25.32.19,1.58-.13,3.4C123.74,230.32,107.67,225.81,106.53,227.21Z"/><path class="cls-7" d="M146.17,233.82c-.95.3-1.18,7.93.42,8.35S148.38,233.14,146.17,233.82Z"/><path class="cls-8" d="M159.38,219.79s-12.82,3.8-15.78,9.88-1.85,20.51,1.34,28.38c-5.36-6-11.41-24.29-11.63-29.74a2.51,2.51,0,0,1,.21-1.39c3-4.15,25.18-18.3,26.41-16.61C160.26,210.76,160,214.53,159.38,219.79Z"/><path class="cls-9" d="M104,160c0,6.77-1,16.55-4,24.45-5.08,13.09-12.72,29.56-13,30.08h0c-4.66,2.84-10.24,2.7-13.8,2.18a25,25,0,0,1-3.56-.77,107.19,107.19,0,0,1,9.82-32,130.5,130.5,0,0,1,14-22.32l.06-.09.17-.22.09-.12a.38.38,0,0,0,.08-.11,1.31,1.31,0,0,0,.12-.15l0,0h0c4.62-5.86,8.37-9.42,9.15-9C103.59,152.24,104,155.44,104,160Z"/><path class="cls-10" d="M69.69,215.4s6-9.91,12.2-8.62,5.09,7.8,5.09,7.8A17.11,17.11,0,0,1,69.69,215.4Z"/><path class="cls-11" d="M104,160c0,6.77-1,16.55-4,24.45-5.08,13.09-12.72,29.56-13,30.08h0l-13.8,2.18a25,25,0,0,1-3.56-.77,107.19,107.19,0,0,1,9.82-32,130.5,130.5,0,0,1,14-22.32c-2.6,3.43-13.49,18.38-16.41,31.08-3.34,14.44,10.1,8.88,15.6,0S103.82,160,103.82,160Z"/><path class="cls-7" d="M89,183.13c-1.1-.41,4.56-13.21,6.31-13.32S89.9,183.48,89,183.13Z"/><path class="cls-7" d="M88.39,184.5c-.86-.46-1.67,1.94-.89,2.29S89.37,185,88.39,184.5Z"/><path class="cls-12" d="M79.89,209.77c-3.2-.53-7.87,2.48-9.32,5.17S68.36,233.15,72,246c0,0,5.18,1.4,9.06,0s6.57-12.72,6.79-21.23S85.17,210.63,79.89,209.77Z"/><path class="cls-13" d="M79.41,246.41s-4.72-27.32,6-32.9c0,0,3.19,5.42,2,16S84.43,245.44,79.41,246.41Z"/><path class="cls-14" d="M78.64,231.25s2.76,4,4.65,4.69a4.73,4.73,0,0,0,3.35,0l-7-12.4S78.41,228.43,78.64,231.25Z"/><path class="cls-15" d="M79.68,223.51s1.53-7.57,6.1-9.42c0,0,4.24,4.19,3.16,20.46,0,0-2.37,3.13-5.71,0A40.83,40.83,0,0,1,79.68,223.51Z"/><path class="cls-7" d="M82.29,220.84c-1.55,0,.81,6.87,1.62,6.71S83.58,220.84,82.29,220.84Z"/><path class="cls-16" d="M99.94,63.86s-7-6.06-15.62-7.11c0,0-2.63,1.29-5.67,10.76s2.57,28.17,2.57,28.17Z"/><path class="cls-17" d="M81,61.47a14.21,14.21,0,0,1,3.33-4.72s7.07,6.53,6.79,22.12l-2,2.11Z"/><path class="cls-18" d="M158.05,63.86s7-6.06,15.62-7.11c0,0,2.63,1.29,5.67,10.76s-2.57,28.17-2.57,28.17Z"/><path class="cls-19" d="M173.67,56.75a30.37,30.37,0,0,0-7,19.47l2.69,1.69,7.83-16.21S174.63,56.61,173.67,56.75Z"/><path class="cls-20" d="M169.15,77.09s-1.85-10.25,4.9-17.79c0,0,7.63,3.59,10.78,16.92s-5.06,21.33-5.06,21.33Z"/><path class="cls-21" d="M88.84,77.09s1.85-10.25-4.9-17.79c0,0-7.63,3.59-10.78,16.92s5.06,21.33,5.06,21.33Z"/><path class="cls-22" d="M178.52,133.8c-15.67,22-89.32,20.34-98.91,2.57-6.25-11.6-5.57-29.05.46-45.11,7.9-21.07,25-39.77,47.71-39.77,26.71,0,47.23,26.61,53.41,50.92C184.32,114.71,183.79,126.41,178.52,133.8Z"/><path class="cls-23" d="M85.11,113.42c3.51,15,68.24,16.59,84.14,3s-7-61.74-42.07-59.63C95.1,58.74,79.37,88.91,85.11,113.42Z"/><path class="cls-24" d="M84.77,111.6c3.51,15,68.24,16.6,84.14,3s-7-61.75-42.07-59.64C94.77,56.92,79,87.09,84.77,111.6Z"/><path class="cls-25" d="M178.52,133.8c-15.67,22-89.32,20.34-98.91,2.57-6.25-11.6-5.57-29.05.46-45.11a0,0,0,0,1,0,0c-.26,1-6.44,23.46-.13,33.36,6.44,10.13,31.93,8.72,59.29,7.55s36.41-5.14,41-12.86c3.62-6.07,0-19.48-1.73-24.9l2.68,8C184.32,114.71,183.79,126.41,178.52,133.8Z"/><path class="cls-26" d="M127.86,150c-15.31,0-26.34-1.74-32.51-4.21h0c-4-1.62-6-3.56-5.73-5.55.18-1.21,3.18-2.27,7.91-3.14,13.91-2.52,42.68-3.28,58.18-.93,1.34.2,2.58.43,3.7.68l.69.16.13,0c2.68.66,4.57,1.46,5.41,2.44a1.93,1.93,0,0,1,.44.76C167.51,145.18,141.69,150,127.86,150Z"/><path class="cls-27" d="M165.89,139a1.35,1.35,0,0,1-.26.46c-1.49,2.12-7.58,4.85-7.58,4.85s-23.37-9.56-42.31-5.31-20.39,6.77-20.39,6.77h0c-4-1.62-6-3.56-5.73-5.55.18-1.21,3.18-2.27,7.91-3.14,13.91-2.52,42.68-3.28,58.18-.93,1.62.29,3.1.58,4.39.84l.13,0C163.89,137.82,166.07,138.52,165.89,139Z"/><path class="cls-28" d="M159.4,136.83c-3.62,3.46-21,6.45-30.87,6.44-17.73,0-28.51-2.82-31-6.19C112.62,134.35,145.27,133.68,159.4,136.83Z"/><path class="cls-29" d="M158.29,206.17c-2.14,12.62-13.44,21-29.65,21-14.1,0-26-5.26-29.21-16.84s-1.93-33,2.28-46.3a42.83,42.83,0,0,1,2.27-5.72v0a40.54,40.54,0,0,1,2.67-4.7h0c5.15-7.75,12.68-12.81,21.19-12.81a25.81,25.81,0,0,1,20.27,9,29.57,29.57,0,0,1,5,8.47,84.24,84.24,0,0,1,3.48,11.15.52.52,0,0,0,0,.11A94.64,94.64,0,0,1,158.29,206.17Z"/><path class="cls-30" d="M147.22,148.84s1.38,15,10.18,24.12C157.4,173,155,159,147.22,148.84Z"/><path class="cls-31" d="M197,130.52c-13.8,27.36-38.14,36.71-38.14,36.71-6.69-4.33-12.52-18.47-10.22-21.23h0a1.1,1.1,0,0,1,.42-.32c29.69-14.21,38.58-28.95,38.58-28.95a8.79,8.79,0,0,1,7.6,5.32A20.09,20.09,0,0,1,197,130.52Z"/><path class="cls-32" d="M79.61,136.37a29.93,29.93,0,0,1,9.22-6.55c6.1-2.92,11.71-5.21,12.57-7.56s-16.73-1-16.73-1l-8.77,3.8S77.28,132.17,79.61,136.37Z"/><path class="cls-33" d="M187.64,116.73c-2.47.66-2.22,17.07.93,18.7s8.42-4.91,8.42-4.91S196.41,114.39,187.64,116.73Z"/><path class="cls-34" d="M140.76,87.38c2.34,4.12,17.83.46,18.7-2,1.17-3.28-3.16-13.57-11.34-12.63S139.62,85.39,140.76,87.38Z"/><path class="cls-35" d="M116.55,87.38c-2.34,4.12-17.84.46-18.71-2-1.17-3.28,3.16-13.57,11.34-12.63S117.68,85.39,116.55,87.38Z"/><path class="cls-36" d="M112.23,95s4.42,4.56,16.94,4.56,19-5.26,19-5.26-5.52,7.48-19,7.48S112.23,95,112.23,95Z"/><path class="cls-37" d="M72.43,81S77,83.9,74,90.67c0,0-21.22,11.55-20,24.15,1,10.5,30.34,5.42,30.34,5.42l1.05,3.5s-24.9,4.87-33.5-1c0,0-2.92-6.94,4.33-19.45A145.79,145.79,0,0,1,72.43,81Z"/><path class="cls-38" d="M80.64,119.26c-2.67,3,3,6.33,7.66,6.84,5.23.57,14.51-1.5,14-6.77S86.9,112.18,80.64,119.26Z"/><path class="cls-39" d="M95.4,73.76c-.81,4.85,10,4.64,24.66,4.15,17.66-.58,35.4,14.62,45.72,3.71,1.7-1.8-15.2-25.4-35.6-24.87S96.1,69.55,95.4,73.76Z"/><path class="cls-40" d="M105.4,116c-.93,3.51,6.42,7,24.5,6.14,21.85-1.07,26.49-5.64,25.41-6.91-.64-.76-7.19,3.36-25.13-.57C118.33,112,106.39,112.29,105.4,116Z"/><path class="cls-41" d="M178.36,93.94l-.53-1.6C177.94,92.65,178.13,93.2,178.36,93.94Z"/><path class="cls-42" d="M158.29,206.17c-2.14,12.62-13.44,21-29.65,21-14.1,0-26-5.26-29.21-16.84s-1.93-33,2.28-46.3a42.83,42.83,0,0,1,2.27-5.72v0s-8.53,28.29-1.71,46.31,38.61,17.64,49.36,5.67c10.24-11.4,5.51-38.16,5-40.73A94.64,94.64,0,0,1,158.29,206.17Z"/><path class="cls-43" d="M100,198.68c2.41-16.94,16-28.43,31.1-27,16.27,1.53,25,17.07,24.78,30.39s-10,23.74-27.43,23.74S97.78,214.52,100,198.68Z"/><path class="cls-44" d="M100.19,200.08c2.41-16.94,16-28.43,31.1-27,16.27,1.53,25,17.07,24.78,30.4s-10,23.73-27.43,23.73S97.93,215.93,100.19,200.08Z"/><path class="cls-45" d="M148.12,149.85c-3.45,5.41-22.45,8.57-33.43,7.56-9.57-.87-8.11-3.45-8-3.78h0c5.15-7.75,12.68-12.81,21.19-12.81A25.81,25.81,0,0,1,148.12,149.85Z"/><path class="cls-7" d="M141.37,159.23c-.88.3-.93,7.42,0,8.57s2.41.79,2.9-.89S142.71,158.79,141.37,159.23Z"/><path class="cls-7" d="M143,169.69c-.74.18-.82,1.95-.48,2.56a1.09,1.09,0,0,0,1.83-.26C144.56,171.24,143.74,169.52,143,169.69Z"/><path class="cls-46" d="M109.75,217.34s3.9,6.79,18.42,6.84,20.43-8.59,20.43-8.59a21.18,21.18,0,0,1-16.28,1.75C122.73,214.71,113.26,213.24,109.75,217.34Z"/><path class="cls-7" d="M140.28,54.59c-1.55.36,11.47,7.25,12,6.43S144.57,53.59,140.28,54.59Z"/><path class="cls-7" d="M165.22,59.74c-1.3.7-1.19,2.1,1.49,1.75s4.15-2.46,3.86-2.87S166.68,59,165.22,59.74Z"/><path class="cls-47" d="M197,130.52c-13.8,27.36-38.14,36.71-38.14,36.71-6.69-4.33-12.52-18.47-10.22-21.23h0a3.32,3.32,0,0,1,.42-.32s4.34,16,17.07,11.52c15.1-5.25,21.27-31.49,21.27-31.49V118l7.84,4A20.09,20.09,0,0,1,197,130.52Z"/><path class="cls-48" d="M186.76,121.36s-.12,8.65,4.79,10,11-7.77,13.33-11.57,5.73-20.93,2.45-25-9.58-3-13.79,2.69C193.54,97.51,187,114,186.76,121.36Z"/><path class="cls-49" d="M187,118.79s5.7-4.33,7-11,8.18-15.45,8.18-15.45-3.63-.34-8.65,5.16S187,118.79,187,118.79Z"/><path class="cls-50" d="M192.64,98.65l4.35,1.64a28.19,28.19,0,0,0-2.71,6.35c-.79,3.1-3.74,7.33-3.74,7.33Z"/><path class="cls-51" d="M187,117.15s-1.49-3.27-1.7-9.59,1.3-11.28,2-12.16,3.16-.75,4.32.65,2,8.34,2,8.34S192.08,115.63,187,117.15Z"/><path class="cls-52" d="M194,107.8s2.92,9.64,10,13.5l.91-1.46a25.25,25.25,0,0,1-10.6-13.2Z"/><path class="cls-7" d="M188.87,100.13c-.71-.09-.47,6.13.41,5.87S189.86,100.24,188.87,100.13Z"/><path class="cls-53" d="M81,119.82c-.16.86,18.51,1.07,19-2.23S82.22,113.15,81,119.82Z"/><path class="cls-54" d="M85.58,106.67a47.38,47.38,0,0,1,.14-11.93c.89-6.84,2.73-11.25,3.82-10.63s.93,7.31,1.57,13.91c.51,5.14,1.49,10,1.49,10S87.88,112.49,85.58,106.67Z"/><path class="cls-55" d="M106,189.33c2.87,4.58,14.67,2.14,28,3.44s15.58,5.62,18.38,4.75-1.63-20.91-21.5-22.26S105.25,188.19,106,189.33Z"/><path class="cls-56" d="M179.87,65.33s-2.48-3.07-5.85-2.25-3.59,11.44-1.58,11.7,2.87-5.88,4.42-6.84,4.25-.59,4.25-.59Z"/><path class="cls-57" d="M75.68,69s1.31-1.48,4.23-1,4.6,6.48,6.1,5.88.4-10.32-3.55-13.18C82.46,60.72,77.36,65.07,75.68,69Z"/><path class="cls-58" d="M71.72,83.17S61.38,94.78,62,95.61,72.33,84.37,71.72,83.17Z"/></g></g></svg>