<svg xmlns="http://www.w3.org/2000/svg" xmlns:xlink="http://www.w3.org/1999/xlink" viewBox="0 0 310.04 201.13"><defs><style>.cls-1{isolation:isolate;}.cls-2{mix-blend-mode:hard-light;}.cls-3{fill:url(#_ÂÁ_Ï_ÌÌ_È_ËÂÌÚ_115);}.cls-4{fill:url(#_ÂÁ_Ï_ÌÌ_È_ËÂÌÚ_103);}.cls-5{fill:url(#_ÂÁ_Ï_ÌÌ_È_ËÂÌÚ_6);}.cls-6{opacity:0.5;mix-blend-mode:multiply;fill:url(#_ÂÁ_Ï_ÌÌ_È_ËÂÌÚ_20);}.cls-7{fill:#fff;}.cls-8{opacity:0.2;mix-blend-mode:screen;fill:url(#_ÂÁ_Ï_ÌÌ_È_ËÂÌÚ_212);}</style><radialGradient id="_ÂÁ_Ï_ÌÌ_È_ËÂÌÚ_115" cx="23.24" cy="100.63" r="69.28" gradientUnits="userSpaceOnUse"><stop offset="0" stop-color="#27b9d1"/><stop offset="1" stop-color="#2569ad"/></radialGradient><radialGradient id="_ÂÁ_Ï_ÌÌ_È_ËÂÌÚ_103" cx="156.73" cy="100.49" r="129.62" gradientUnits="userSpaceOnUse"><stop offset="0" stop-color="#5dbfc0"/><stop offset="1" stop-color="#4bb4e7"/></radialGradient><radialGradient id="_ÂÁ_Ï_ÌÌ_È_ËÂÌÚ_6" cx="156.99" cy="100.49" r="123.93" gradientUnits="userSpaceOnUse"><stop offset="0" stop-color="#6dc3bf"/><stop offset="1" stop-color="#60c5ed"/></radialGradient><linearGradient id="_ÂÁ_Ï_ÌÌ_È_ËÂÌÚ_20" x1="277.37" y1="189.53" x2="277.37" y2="10.05" gradientUnits="userSpaceOnUse"><stop offset="0" stop-color="#f8f9fd"/><stop offset="1" stop-color="#938ac2"/></linearGradient><linearGradient id="_ÂÁ_Ï_ÌÌ_È_ËÂÌÚ_212" x1="197.47" y1="197.79" x2="197.47" y2="0.14" gradientUnits="userSpaceOnUse"><stop offset="0" stop-color="#0a0d1c"/><stop offset="1" stop-color="#a1a7cc"/></linearGradient></defs><title>Asset 3</title><g class="cls-1"><g id="Layer_2" data-name="Layer 2"><g id="Capa_1" data-name="Capa 1"><g class="cls-2"><path class="cls-3" d="M18.61,197.11s146.47,11.66,289.19-4.76c0,0-5.52-93.32-17.56-183.1,0,0-110.66-20.63-290.24.17C0,9.42,2.21,116.68,18.61,197.11Z"/><path class="cls-4" d="M22.44,196.73s144.88,12,287.6-4.38c0,0,0-91.86-17.56-183.1,0,0-109.5-20.81-289.07,0C3.41,9.25,6,116.3,22.44,196.73Z"/><path class="cls-5" d="M56.09,194.82C98.4,197,182.37,199.6,270.3,192.17a35.89,35.89,0,0,0,32.87-37.37A1080.6,1080.6,0,0,0,291.85,39.22a35.88,35.88,0,0,0-31.4-30.17c-37.6-4.18-113.22-9.26-217.13.2A35.85,35.85,0,0,0,10.82,47c1.67,30,5.08,75.23,11.74,117.7A35.79,35.79,0,0,0,56.09,194.82Z"/><path class="cls-6" d="M265.67,10.05s12.66,111.52,15.43,179.48l8-4.58S279.94,60.67,274.51,13.73Z"/><path class="cls-7" d="M271.71,67.83a6.06,6.06,0,0,1,8,0l3.09,36.87s-2.42,4.06-7.67,0Z"/><path class="cls-8" d="M151.67.14,120.29,197.79H167.4S243.15,90.14,274.64,6.58C274.64,6.58,213.28,1.88,151.67.14Z"/></g></g></g></g></svg>